<?xml version="1.0"?><svg xmlns="http://www.w3.org/2000/svg" version="1.2" viewBox="0 0 512 384" width="800" height="600"><path d="M-1,-1V385H513V-1z" fill="#858786"/><path d="M184,288L-40,136L192,-16z" fill="#302821"/><path d="M400,80L280,-48l40,320z" fill="#1c1614"/><path d="M656,232L360,56L592,-360z" fill="#d0cfcf"/><path d="M176,256L400,128L376,264z" fill="#2f2521"/><path d="M-16,-64L400,80L208,-144z" fill="#1e212c"/><path d="M248,240L192,56l-8,216z" fill="#746a52"/><path d="M48,80L200,-200L-376,192z" fill="#babcba"/><path d="M-128,136L80,216L56,184z" fill="#aaa294"/><path d="M192,40L176,96l64,40z" fill="#89a2b2"/><path d="M152,144L256,24l32,56z" fill="#a7b4be"/><path d="M96,8L48,136L352,-232z" fill="#41343b"/><path d="M56,256L32,248L160,232z" fill="#4a443c"/><path d="M440,512L776,168L400,104z" fill="#aba7a8"/><path d="M-288,-104L96,144l-296,80z" fill="#625538"/><path d="M448,360L168,264L-120,776z" fill="#8b8d91"/><path d="M96,40L200,200L96,256z" fill="#2a2423"/><path d="M416,168L528,152L368,112z" fill="#67655b"/><path d="M232,152l-8,-32l-80,24z" fill="#315d72"/><path d="M176,256L160,104L64,152z" fill="#261d18"/><path d="M344,56l32,96L384,48z" fill="#463d43"/><path d="M272,184L184,168l48,32z" fill="#a19c94"/><path d="M72,172L44,160l40,76z" fill="#978c75"/><path d="M52,172l-116,4l92,64z" fill="#bab1a4"/><path d="M384,36l96,92L392,108z" fill="#bfc7cb"/><path d="M296,116L260,20l-64,8z" fill="#aab9c3"/><path d="M256,240L224,204l80,32z" fill="#796f58"/><path d="M392,124l172,-4L360,-228z" fill="#d0d7d6"/><path d="M152,268L60,248l56,-44z" fill="#2e2825"/><path d="M432,240L308,180l-28,92z" fill="#171611"/><path d="M152,120l152,12l-104,8z" fill="#185e87"/><path d="M32,76L80,96L44,-24z" fill="#9ca0a4"/><path d="M220,108l72,16L196,24z" fill="#7a96b0"/><path d="M52,88H36l-72,40z" fill="#7e755d"/><path d="M392,104L308,-44l72,68z" fill="#67636b"/><path d="M308,232l-4,-72l56,12z" fill="#140e0e"/><path d="M172,112l40,-8L172,92z" fill="#bab5ae"/><path d="M76,96L-76,136L80,176z" fill="#6e6040"/><path d="M172,148L148,116l20,12z" fill="#333633"/><path d="M292,176l-16,24l24,24z" fill="#86867e"/><path d="M36,88L-44,60L68,76z" fill="#c9cac7"/><path d="M252,20l-96,4L432,-68z" fill="#191e29"/><path d="M252,248L188,228l36,-4z" fill="#978d73"/><path d="M240,116H180l28,-4z" fill="#e6e6df"/><path d="M72,60H-48L52,4z" fill="#99a5b6"/><path d="M212,116l104,12L272,112z" fill="#cbd0d2"/><path d="M364,280L284,244L392,200z" fill="#1a1a15"/><path d="M248,112l-68,8l-8,-4z" fill="#c9c8c3"/><path d="M452,232l60,8l12,8z" fill="#2e3131"/><path d="M304,132l108,4L304,120z" fill="#2b2f32"/><path d="M344,316l88,48L448,184z" fill="#8f9197"/><path d="M240,204l60,-24L228,168z" fill="#a5aca2"/><path d="M140,272l60,-4l-48,-4z" fill="#86807e"/><path d="M636,528L416,504L428,172z" fill="#9899a3"/><path d="M72,192L20,252L-56,192z" fill="#9b9b9f"/><path d="M392,252l-20,12l-64,-4z" fill="#06080c"/><path d="M24,96l40,20L92,72z" fill="#5d4f34"/><path d="M396,204l4,-60l16,72z" fill="#a7a7a7"/><path d="M284,44h-4l12,8z" fill="#2c3138"/><path d="M296,140V128l8,-4z" fill="#3f5363"/><path d="M284,112h-4l16,8z" fill="#d8dbd6"/><path d="M184,240l-12,28l4,12z" fill="#8a7a68"/><path d="M312,300l68,-28l-88,48z" fill="#454750"/><path d="M136,-84L0,20H72z" fill="#bac0cc"/><path d="M92,260h8L76,256z" fill="#514d4b"/><path d="M76,68l4,28L68,116z" fill="#796d5f"/><path d="M248,24l32,16l12,56z" fill="#bec5ce"/><path d="M252,216l40,4l16,-28z" fill="#3d3c20"/><path d="M412,128h-8l44,-4z" fill="#dde1d3"/><path d="M68,220l-92,-8l92,12z" fill="#b2abb0"/><path d="M16,252H36H28z" fill="#0f1118"/><path d="M292,256l-20,12l-76,-8z" fill="#251e1e"/><path d="M628,116L456,136l64,32z" fill="#547183"/><path d="M240,308l28,16L208,308z" fill="#adb4b1"/><path d="M388,104l4,40L368,56z" fill="#534e58"/><path d="M292,336v8L240,332z" fill="#b4b29d"/><path d="M72,248l-8,-8L24,256z" fill="#554633"/><path d="M32,72L64,68L28,64z" fill="#b3bbc8"/><path d="M-4,64L-16,76L36,88z" fill="#e5e1cd"/><path d="M196,216L180,160l-4,4z" fill="#777059"/><path d="M272,204l4,-32l24,-4z" fill="#b2b2ae"/><path d="M204,88l72,12L192,88z" fill="#b3c2d2"/><path d="M276,148H232h16z" fill="#716957"/><path d="M204,244l4,8l24,-36z" fill="#b29b7a"/><path d="M228,136l-52,-8l48,-8z" fill="#195b85"/><path d="M-80,252l44,64L20,260z" fill="#a2a2a9"/><path d="M220,364l88,-92l-48,-8z" fill="#939b9d"/><path d="M312,268h16h-4z" fill="#4a4b4c"/><path d="M304,56L260,24V12z" fill="#1a232d"/><path d="M256,68L192,48L220,24z" fill="#a4b5c5"/><path d="M48,172l32,56L68,172z" fill="#bbb4a7"/><path d="M352,140L304,68l-4,100z" fill="#191411"/><path d="M88,168l-8,88l108,-8z" fill="#160e0f"/><path d="M208,24L164,52L176,32z" fill="#23242c"/><path d="M80,300L56,284l56,24z" fill="#a9acb3"/><path d="M404,236v24L392,228z" fill="#746252"/><path d="M292,164h-8l16,-44z" fill="#716f49"/><path d="M116,-44L80,24l60,-56z" fill="#6a6370"/><path d="M800,216L404,72L296,-160z" fill="#d6d6d5"/><path d="M-64,256l240,24L-32,320z" fill="#909195"/><path d="M120,48l-4,204L80,92z" fill="#241b17"/><path d="M376,-284L608,32L392,84z" fill="#dfe0de"/><path d="M374,192l30,-40L326,0z" fill="#443737"/><path d="M176,204l32,18l-6,-54z" fill="#58543e"/><path d="M364,398l98,-30L418,490z" fill="#b5b7b3"/><path d="M368,192l22,-8L324,38z" fill="#382928"/><path d="M404,214l22,-50l64,72z" fill="#a5a5a5"/><path d="M84,62L112,10l48,84z" fill="#362729"/><path d="M164,138l22,52L174,126z" fill="#5c5038"/><path d="M208,118L172,96l2,28z" fill="#dee0ce"/><path d="M214,208l-34,24l34,8z" fill="#958863"/><path d="M206,154l68,4l-82,8z" fill="#93998e"/><path d="M272,224l38,-2l-28,10z" fill="#978a6a"/><path d="M394,382l-36,30L330,374z" fill="#9da2a4"/><path d="M182,168l-4,8l30,-26z" fill="#8d815d"/><path d="M478,242l-16,-4l-72,12z" fill="#8a8d98"/><path d="M272,240l38,-22l-22,2z" fill="#938464"/><path d="M390,176v42l-16,50z" fill="#262018"/><path d="M242,264l-60,-2l4,-16z" fill="#583c22"/><path d="M424,154l-20,12L386,126z" fill="#69675a"/><path d="M440,134l26,10l-36,-6z" fill="#21382d"/><path d="M168,236l32,12v-6z" fill="#3e2a17"/><path d="M70,256l-80,-4l56,-2z" fill="#161f23"/><path d="M60,176l18,40L76,172z" fill="#c2b8ac"/><path d="M130,262L64,254l76,4z" fill="#292726"/><path d="M188,344h12l-4,18z" fill="#5c5f69"/><path d="M160,36l72,-56L156,90z" fill="#18191e"/><path d="M362,320l14,-18l-50,6z" fill="#7b7f88"/><path d="M284,76l-76,34L240,74z" fill="#859db3"/><path d="M386,220l36,4l-16,18z" fill="#544b39"/><path d="M158,134l-6,-16l16,4z" fill="#3a2417"/><path d="M194,40L228,18L208,50z" fill="#bdc4ce"/><path d="M416,166h30l-40,14z" fill="#bab8b4"/><path d="M60,360l18,-8L56,336z" fill="#9d9ea1"/><path d="M498,244H482L462,234z" fill="#42403d"/><path d="M314,24L218,-14l94,88z" fill="#171d23"/><path d="M76,70L70,84L46,58z" fill="#aab3ba"/><path d="M292,96L246,94l16,6z" fill="#afbfcc"/><path d="M286,170H198l38,30z" fill="#aeaeaa"/><path d="M562,136l4,78L496,150z" fill="#898144"/><path d="M392,128l16,2l42,-18z" fill="#d7d4cd"/><path d="M206,160L194,150v34z" fill="#9ea29c"/><path d="M78,186L66,196L78,178z" fill="#888880"/><path d="M260,238V218l22,32z" fill="#3f3d2f"/><path d="M112,300l-2,34l-2,-42z" fill="#979aa2"/><path d="M96,272H238L140,262z" fill="#848791"/><path d="M298,180l12,20l-6,-26z" fill="#23201b"/><path d="M276,200l20,-12L182,168z" fill="#abaca4"/><path d="M52,78L-30,74L38,90z" fill="#e2e3dc"/><path d="M564,282l-18,18L476,280z" fill="#959699"/><path d="M386,108l68,-6L402,98z" fill="#adbbc7"/><path d="M234,106l10,4H224z" fill="#a4b3b8"/><path d="M206,252l16,-28l-4,32z" fill="#9f8155"/><path d="M230,224l-52,6l70,12z" fill="#998d71"/><path d="M46,76L38,68L10,70z" fill="#9fa8af"/><path d="M252,266l16,-2l18,4z" fill="#353538"/><path d="M364,26L346,-36l46,90z" fill="#87868f"/><path d="M414,130l12,-4l26,4z" fill="#aba69a"/><path d="M486,244L466,232l6,-4z" fill="#46433d"/><path d="M84,244L46,242l26,-4z" fill="#4a4645"/><path d="M262,152l6,6l-36,-2z" fill="#b0b3aa"/><path d="M218,262h40L246,244z" fill="#130e0c"/><path d="M76,54L66,44L78,38z" fill="#979faa"/><path d="M338,286l-4,-16l-92,6z" fill="#989ca0"/><path d="M280,110l-2,-10l14,8z" fill="#8395a7"/><path d="M464,368L444,352l14,-14z" fill="#818586"/><path d="M286,358l-6,-8l22,8z" fill="#72777e"/><path d="M326,308l-6,18l-50,-8z" fill="#8f8776"/><path d="M180,260l6,-16l-18,16z" fill="#7e6349"/><path d="M-64,272L-2,252l24,-4z" fill="#696b75"/><path d="M276,318l36,22l38,-2z" fill="#a5a8ab"/><path d="M282,340l18,-14l-2,10z" fill="#baab8e"/><path d="M178,204l40,-4l-20,22z" fill="#45412b"/><path d="M228,286l12,18l42,-14z" fill="#737c85"/><path d="M136,362L126,348l42,-12z" fill="#6b6e77"/><path d="M382,106l10,8V100z" fill="#59555e"/><path d="M72,68L78,58L76,30z" fill="#94979d"/><path d="M266,126l22,-16l10,8z" fill="#deded9"/><path d="M254,130L226,116l-24,6z" fill="#1d5f89"/><path d="M50,298l16,18L88,302z" fill="#90939c"/><path d="M232,26l62,72V76z" fill="#bcc7d1"/><path d="M448,134l22,32l56,-4z" fill="#646258"/><path d="M300,320L244,304l-42,56z" fill="#939ca1"/><path d="M476,124v-4l84,6z" fill="#5986ab"/><path d="M390,68L380,22L366,-4z" fill="#a3a6aa"/><path d="M354,282l6,10l24,-24z" fill="#889099"/><path d="M226,60L204,50l-8,6z" fill="#93a8bd"/><path d="M280,140L236,120l54,12z" fill="#3f6886"/><path d="M296,172l2,14l-2,10z" fill="#a19f93"/><path d="M190,158v8l-6,-20z" fill="#403f35"/><path d="M290,134l12,-6l-4,14z" fill="#41576d"/><path d="M466,252L416,354l-6,52z" fill="#b4b1a7"/><path d="M82,232l-144,2l32,14z" fill="#aeaaae"/><path d="M240,386L198,346l-4,34z" fill="#7c828a"/><path d="M410,308L396,298l18,-6z" fill="#9fa2a9"/><path d="M96,354l6,-14l12,6z" fill="#6b6d76"/><path d="M298,196l54,30l2,-46z" fill="#0f0c08"/><path d="M496,128l8,2H488z" fill="#e0ddd0"/><path d="M234,216l-4,-12l40,2z" fill="#6d6e5f"/><path d="M122,88l22,10L130,70z" fill="#453535"/><path d="M10,182l28,-4L10,164z" fill="#b6b2ac"/><path d="M44,346L30,340l-44,10z" fill="#9e9fa4"/><path d="M410,404l16,-84l-20,42z" fill="#a29d8c"/><path d="M126,286l52,84L86,284z" fill="#81838f"/><path d="M196,168l92,32l-30,4z" fill="#a9aaa4"/><path d="M202,342l-16,10l18,16z" fill="#6a6e79"/><path d="M274,214l-46,-8L206,196z" fill="#48473d"/><path d="M92,342l-58,2l46,10z" fill="#9a9b9e"/><path d="M46,170L-30,156L2,170z" fill="#816b51"/><path d="M334,316l40,44l6,-8z" fill="#7a7e85"/><path d="M298,-22l74,94L320,-28z" fill="#473e46"/><path d="M488,274L464,252l12,22z" fill="#b1b3b3"/><path d="M188,58L178,78l56,12z" fill="#8395ab"/><path d="M306,-54l52,154l-8,54z" fill="#282529"/><path d="M34,38L-32,8L2,-40z" fill="#abb5c4"/><path d="M160,372l112,78L154,388z" fill="#7a7f86"/><path d="M462,348l114,14l-4,120z" fill="#919392"/><path d="M80,184L86,70L188,252z" fill="#1e1412"/><path d="M318,318l-42,18l50,-36z" fill="#a5906e"/><path d="M362,194L330,66l6,122z" fill="#211915"/><path d="M300,150l-32,2L256,140z" fill="#6a6a5a"/><path d="M84,28l8,10l34,-70z" fill="#4f4149"/><path d="M258,310l10,-30l38,20z" fill="#868f96"/><path d="M122,196l40,66l-62,-6z" fill="#19120c"/><path d="M282,58l10,14L268,62z" fill="#cbccd4"/><path d="M180,198l2,10l6,-10z" fill="#998e70"/><path d="M188,326l-52,6l28,10z" fill="#96999e"/><path d="M492,158L400,140l38,4z" fill="#888c71"/><path d="M-16,384l2,-18L42,348z" fill="#6c6e7a"/><path d="M298,214l-28,28l34,-28z" fill="#898263"/><path d="M86,306l-6,-8H90z" fill="#b2b6b8"/><path d="M82,220L62,182l-2,40z" fill="#aaacaa"/><path d="M282,336l8,-12H278z" fill="#7b7c76"/><path d="M462,282l26,12l-66,30z" fill="#abacab"/><path d="M258,70L204,28l34,-8z" fill="#aeb8c6"/><path d="M46,88L14,100L-4,136z" fill="#786a4a"/><path d="M82,88l90,60L90,54z" fill="#251c1c"/><path d="M226,136v6l24,-2z" fill="#9c9886"/><path d="M308,342l12,14V344z" fill="#6e6e71"/><path d="M396,160l12,4L396,144z" fill="#6c685e"/><path d="M300,230l-6,2L278,208z" fill="#483c21"/><path d="M428,246l-26,10V240z" fill="#9ca4a5"/><path d="M276,118l8,-6l-50,8z" fill="#ddddd1"/><path d="M296,164l-12,-2l-54,4z" fill="#726c4c"/><path d="M226,214l-8,6v-8z" fill="#48442f"/><path d="M474,160l-8,-32l6,10z" fill="#7d7a70"/><path d="M310,-76L378,34l16,50z" fill="#7a7b84"/><path d="M248,316l4,16l28,8z" fill="#b1b4b3"/><path d="M70,218l-8,2l16,6z" fill="#afafae"/><path d="M386,164H544L424,156z" fill="#5d5b4e"/><path d="M0,66l14,2l-34,2z" fill="#a4acb4"/><path d="M170,282l22,-16l2,4z" fill="#9ba1a4"/><path d="M370,246L252,260l42,-28z" fill="#321e1b"/><path d="M284,222h12l-2,-8z" fill="#57523c"/><path d="M440,124l-6,8l18,-6z" fill="#c7c7c1"/><path d="M114,230l2,-14l-12,2z" fill="#5e471e"/><path d="M460,238l20,-20l-6,10z" fill="#6c6e6a"/><path d="M242,348l-28,10l-6,-14z" fill="#b3b7b7"/><path d="M440,140v0l8,2z" fill="#091f15"/><path d="M300,150l-24,2l6,-8z" fill="#5e5d4e"/><path d="M22,296l-12,4V278z" fill="#787880"/><path d="M110,232l54,26l18,-16z" fill="#1a130b"/><path d="M12,258H34l-20,6z" fill="#abacaf"/><path d="M408,230l-34,-4l46,-4z" fill="#3b3528"/><path d="M372,-28l16,80l52,-8z" fill="#e0e1df"/><path d="M318,264V236l12,30z" fill="#15100d"/><path d="M380,132l20,6L388,124z" fill="#4c3e3e"/><path d="M66,26L22,24L54,20z" fill="#b3b9c5"/><path d="M224,236l6,6l-14,-4z" fill="#a6987f"/><path d="M356,278l-20,22l-28,2z" fill="#4d4f59"/><path d="M46,248l6,-8l-8,16z" fill="#585046"/><path d="M124,392L106,368l24,2z" fill="#9fa3a6"/><path d="M418,140l12,2l2,-10z" fill="#4c5942"/><path d="M188,176l-8,-4l36,14z" fill="#827754"/><path d="M68,122L22,168H60z" fill="#5f4830"/><path d="M218,152l66,-4L264,138z" fill="#736c59"/><path d="M312,94L256,-14l32,70z" fill="#171e24"/><path d="M172,424L124,358l52,10z" fill="#7b7f88"/><path d="M76,172L28,188l-72,-6z" fill="#c6bcae"/><path d="M46,248L78,238l-24,4z" fill="#352f2a"/><path d="M26,246l-10,4H26z" fill="#363544"/><path d="M372,266l-12,2L336,256z" fill="#050606"/><path d="M264,208H246l44,-8z" fill="#606257"/><path d="M520,328L492,310l38,-20z" fill="#86878c"/><path d="M178,132l-4,4l6,10z" fill="#6c6740"/><path d="M358,0l8,8l24,-44z" fill="#9f9faa"/><path d="M156,420L134,370l20,-24z" fill="#85898e"/><path d="M152,358l12,6l6,-20z" fill="#9b9ea1"/><path d="M172,108V98L186,54z" fill="#939ba2"/><path d="M374,268l-24,8l4,4z" fill="#2e2c2a"/><path d="M96,334l18,-12l24,16z" fill="#999d9f"/><path d="M428,302l22,-28H430z" fill="#83858c"/><path d="M98,298l14,-2l8,50z" fill="#93959e"/><path d="M220,152l-6,18l16,-6z" fill="#687362"/><path d="M412,236l-14,8l-6,-16z" fill="#775a33"/><path d="M66,230H26l-8,4z" fill="#c7b29f"/><path d="M262,236L244,216l-14,-4z" fill="#888063"/><path d="M26,322L50,312L30,332z" fill="#8f8f95"/><path d="M290,-40l76,84L342,6z" fill="#57515d"/><path d="M394,84l-2,8L390,50z" fill="#d2d5d8"/><path d="M186,94l58,4l-50,8z" fill="#92a3b5"/><path d="M310,220l-4,6V216z" fill="#48442b"/><path d="M384,254l12,-8l-14,14z" fill="#24222c"/><path d="M248,240v-8l22,-6z" fill="#6e674f"/><path d="M72,158L60,170L40,158z" fill="#796441"/><path d="M80,194L66,182L-4,196z" fill="#9c9c9f"/><path d="M406,238l10,-6l-8,8z" fill="#807a74"/><path d="M198,70l16,12H176z" fill="#6583a3"/><path d="M472,222l-4,6h2z" fill="#5a5a55"/><path d="M356,278l40,-32l-50,8z" fill="#080b0f"/><path d="M142,246H82l50,6z" fill="#382a17"/><path d="M266,208L212,192l34,12z" fill="#8b8b79"/><path d="M406,170l20,48l-32,-4z" fill="#aaaaab"/><path d="M94,406L62,368l20,8z" fill="#6c6c73"/><path d="M476,314l6,4l-18,4z" fill="#8a8e91"/><path d="M244,98L268,74l-12,26z" fill="#94a9b4"/><path d="M352,322l-22,-8l-16,8z" fill="#a29fa4"/><path d="M396,170l-2,12l40,-16z" fill="#c0bfba"/><path d="M208,208L182,178l20,2z" fill="#55513b"/><path d="M72,18l36,-40L2,-76z" fill="#ced1d6"/><path d="M390,80l2,18L390,70z" fill="#91939a"/><path d="M134,234l-4,-4l2,16z" fill="#473725"/><path d="M82,44L72,68l4,18z" fill="#84858b"/><path d="M296,140l-2,6H258z" fill="#979482"/><path d="M274,230l4,-14L264,206z" fill="#626354"/><path d="M508,126l-20,2l8,-2z" fill="#b4d7ee"/><path d="M414,132l10,2l-2,-2z" fill="#9a9f8b"/><path d="M326,254L302,238l90,-20z" fill="#261810"/><path d="M278,34L252,22l-4,-2z" fill="#202631"/><path d="M204,218l-2,-6l6,2z" fill="#776e4f"/><path d="M272,276l-10,-4v4z" fill="#afb5b9"/><path d="M328,294l-24,14l4,6z" fill="#585152"/><path d="M178,290l-10,12H156z" fill="#9699a0"/><path d="M34,150L46,116l-2,34z" fill="#594f2a"/><path d="M360,404l-4,-32l16,4z" fill="#9ea2a5"/><path d="M210,206L196,190l-20,-2z" fill="#3f3e2a"/><path d="M168,-4L122,26V90z" fill="#3d2c2b"/><path d="M254,308l-40,-4l66,38z" fill="#9fa6ab"/><path d="M80,190L82,78l-6,52z" fill="#423a29"/><path d="M8,84l10,4L-26,82z" fill="#796f5d"/><path d="M354,278l-36,16l32,-16z" fill="#606461"/><path d="M466,124L406,112l-4,16z" fill="#dbd9d5"/><path d="M260,386L216,368l30,2z" fill="#93999f"/><path d="M210,322l16,-6l-30,-2z" fill="#7b838a"/><path d="M250,236l6,-6l-10,-2z" fill="#48453c"/><path d="M178,232L158,192l12,-6z" fill="#18130d"/><path d="M390,234l8,4l-6,-10z" fill="#846736"/><path d="M350,280v0l-4,-8z" fill="#3f3c39"/><path d="M500,252l-38,-4l4,16z" fill="#b6afa8"/><path d="M300,228l-18,-6h8z" fill="#635b44"/><path d="M286,166l-16,-4l-22,4z" fill="#5e5b45"/><path d="M278,220l-32,-8l4,-2z" fill="#443e30"/><path d="M258,250l-6,-16l-4,14z" fill="#513a28"/><path d="M290,136L270,126l26,4z" fill="#336992"/><path d="M372,280l-2,8l14,-4z" fill="#9da2a8"/><path d="M494,170l-18,-6l-18,6z" fill="#bab7b8"/><path d="M6,420L-28,362l40,6z" fill="#777b8a"/><path d="M454,366l20,-6v24z" fill="#acaeaa"/><path d="M218,98l10,-6L212,86z" fill="#aebbc7"/><path d="M34,342L-108,280l66,-16z" fill="#797884"/><path d="M312,376L218,480L338,372z" fill="#929699"/><path d="M116,40l-2,42L88,50z" fill="#2e2323"/><path d="M262,320l4,10l-22,-8z" fill="#b3b7b5"/><path d="M46,352L90,310L28,344z" fill="#8e8f92"/><path d="M342,330l20,-8l4,14z" fill="#72757e"/><path d="M422,90L490,62l-90,8z" fill="#dfe0df"/><path d="M326,302l-16,8l6,-4z" fill="#836f3f"/><path d="M40,326l6,10l4,-12z" fill="#76767c"/><path d="M162,292l-16,24l-30,-2z" fill="#8b8e95"/><path d="M404,332l-20,-2l16,8z" fill="#a1a4a9"/><path d="M394,170v14l56,-4z" fill="#b1b1b0"/><path d="M62,96L54,90L38,100z" fill="#483923"/><path d="M128,88l-2,8L140,86z" fill="#382727"/><path d="M70,74L38,58l4,18z" fill="#bbc0c5"/><path d="M110,216h-2l6,14z" fill="#9f8051"/><path d="M134,236v-6v0z" fill="#73644e"/><path d="M466,278l6,-30l-48,74z" fill="#a7a39c"/><path d="M312,294l-32,2l12,-8z" fill="#747988"/><path d="M192,254l-2,12l6,-12z" fill="#857157"/><path d="M246,384l-24,-4l20,46z" fill="#6a6e79"/><path d="M36,246l4,10l10,-4z" fill="#443d37"/><path d="M392,110L376,74l12,72z" fill="#52454c"/><path d="M492,334l-6,-12l8,2z" fill="#b0b3b6"/><path d="M34,258l40,4l8,20z" fill="#919698"/><path d="M22,90H40L0,72z" fill="#e7e2d2"/><path d="M190,100L174,90l12,24z" fill="#c9cfce"/><path d="M218,338h10l-6,-8z" fill="#80868a"/><path d="M22,98L4,84l48,26z" fill="#625336"/><path d="M182,152l-8,-4l12,-2z" fill="#675a31"/><path d="M190,50l10,4l-10,2z" fill="#a9b6c2"/><path d="M412,138l-4,-4l26,6z" fill="#374a32"/><path d="M124,278v6h-6z" fill="#747682"/><path d="M218,112h12l4,-2z" fill="#b3baba"/><path d="M166,148l6,-6l-2,-30z" fill="#513f31"/><path d="M470,238l-6,6h14z" fill="#6a645b"/><path d="M508,258l-34,28l4,26z" fill="#a0a3a5"/><path d="M232,236l10,-4l8,12z" fill="#a59577"/><path d="M294,100L284,92L262,88z" fill="#bfc7ce"/><path d="M206,236l-4,-6l-4,8z" fill="#756a4a"/><path d="M20,304L32,292H22z" fill="#7d7d84"/><path d="M88,288l6,-8H76z" fill="#818288"/><path d="M262,232l20,-12L272,206z" fill="#4d4c3d"/><path d="M380,304l-10,-2l12,6z" fill="#7f828b"/><path d="M364,310H338l14,-4z" fill="#6a6e78"/><path d="M188,320l18,4l-12,2z" fill="#a1a5a5"/><path d="M272,88h16L270,62z" fill="#a7b9c3"/><path d="M398,224h4l4,2z" fill="#0e1022"/><path d="M234,72h28L242,68z" fill="#89a0b5"/><path d="M288,154l-42,8l36,-8z" fill="#aeaf9a"/><path d="M208,276l4,-8l34,84z" fill="#94979a"/><path d="M392,314l36,-12l-20,18z" fill="#9b9ea5"/><path d="M228,60l28,12L224,52z" fill="#93a9bc"/><path d="M382,264l84,-32l-28,70z" fill="#91939d"/><path d="M180,374l44,-14l-4,24z" fill="#82858c"/><path d="M216,242l-8,-22l22,2z" fill="#938a70"/><path d="M48,154l18,8V118z" fill="#5f5129"/><path d="M412,354l-16,-4l22,-6z" fill="#808083"/><path d="M50,170H38l4,6z" fill="#aca69a"/><path d="M506,140l-36,2l12,4z" fill="#7990a0"/><path d="M62,352L50,388L14,416z" fill="#909193"/><path d="M198,140l-8,-4l86,-6z" fill="#06547f"/><path d="M172,156l14,16l4,22z" fill="#726d48"/><path d="M190,304l-12,-6l22,2z" fill="#798089"/><path d="M156,68l14,116l-52,6z" fill="#281e1b"/><path d="M294,316L224,266l26,8z" fill="#8e8e91"/><path d="M192,262l-22,8l2,-8z" fill="#8f8682"/><path d="M388,152l4,40L366,158z" fill="#3e2e29"/><path d="M244,162l-8,-4l22,-4z" fill="#9ba9aa"/><path d="M244,246l6,-4H224z" fill="#947b5b"/><path d="M376,102L366,94l20,2z" fill="#4f4349"/><path d="M190,88l32,14L178,88z" fill="#a3b5c4"/><path d="M6,348l-2,8L-20,312z" fill="#8b8c94"/><path d="M270,230l-6,-8l-4,6z" fill="#363428"/><path d="M38,258l4,10L30,262z" fill="#9b9c9d"/><path d="M480,128v6L468,124z" fill="#cacfd6"/><path d="M432,234l4,-26l72,-30z" fill="#a7aaab"/><path d="M260,68V38L234,20z" fill="#b5c1cf"/><path d="M282,268l2,2l-22,-2z" fill="#61656d"/><path d="M308,102L332,52L294,44z" fill="#131619"/><path d="M414,364l18,2l-10,36z" fill="#aeb0ab"/><path d="M284,214h-2l2,-8z" fill="#28291b"/><path d="M250,344l4,-8l12,36z" fill="#798086"/><path d="M202,176l-10,8h10z" fill="#403e2b"/><path d="M70,42L98,-18L68,56z" fill="#9da5b0"/><path d="M112,322L92,306L76,316z" fill="#767883"/><path d="M64,38h6l2,48z" fill="#9ba7b8"/><path d="M280,344l-14,2l8,-22z" fill="#959d9a"/><path d="M486,120h38H478z" fill="#a5c4da"/><path d="M86,244L78,234L64,252z" fill="#5f4929"/><path d="M462,188h12h-2z" fill="#848587"/><path d="M486,362l44,18L460,364z" fill="#9b9d9c"/><path d="M56,20l16,6L82,12z" fill="#c7cad3"/><path d="M462,276l32,78l20,-24z" fill="#a1a2a5"/><path d="M140,272H80l66,8z" fill="#9da1a2"/><path d="M78,372l22,-10L82,338z" fill="#8e9295"/><path d="M326,6l-8,-24l-58,8z" fill="#3c353c"/><path d="M58,22L10,30l42,6z" fill="#a3adbd"/><path d="M428,132v-2l40,-2z" fill="#c7c1ac"/><path d="M298,216L286,202h10z" fill="#605c48"/><path d="M266,258l-12,-2l52,-28z" fill="#3c2417"/><path d="M198,342H188l-6,6z" fill="#676a71"/><path d="M250,196l38,-18l-6,-2z" fill="#9ea39f"/><path d="M304,298l26,-10l-36,24z" fill="#72797c"/><path d="M136,232h-2l-2,2z" fill="#796b51"/><path d="M222,256v2l-4,4z" fill="#361e0f"/><path d="M78,218L46,212l4,-26z" fill="#99999b"/><path d="M38,340l-102,4l88,-4z" fill="#94959d"/><path d="M282,146h6l-4,2z" fill="#6e6c55"/><path d="M322,294l8,6l-18,-2z" fill="#62564e"/><path d="M294,110H254l42,-4z" fill="#8698a5"/><path d="M148,162L136,104l-8,20z" fill="#32251f"/><path d="M94,260L68,248l-10,2z" fill="#543a26"/><path d="M276,112l-24,10l20,2z" fill="#e0e2da"/><path d="M396,218v-6l8,6z" fill="#adaead"/><path d="M242,124l32,16l22,-4z" fill="#2d5f7f"/><path d="M394,338l8,2l4,-2z" fill="#a1a4a9"/><path d="M18,222l60,-8L4,218z" fill="#aaacab"/><path d="M246,214l10,8l18,-2z" fill="#5b5542"/><path d="M178,348l10,8l-4,-12z" fill="#797c84"/><path d="M384,260l14,-14l-4,-4z" fill="#48383f"/><path d="M164,326H134l16,-8z" fill="#747882"/><path d="M472,242l30,2H490z" fill="#51545a"/><path d="M488,150l8,-4L480,124z" fill="#307191"/><path d="M186,166l-6,-2v-6z" fill="#574b23"/><path d="M196,192l-2,20l6,2z" fill="#2b2c1d"/><path d="M232,146l-40,2l38,4z" fill="#495454"/><path d="M200,178l20,22l-4,-14z" fill="#6a6856"/><path d="M512,82l-68,18L546,-36z" fill="#d7d8da"/><path d="M14,188L4,206L30,196z" fill="#959795"/><path d="M66,378l28,6L0,406z" fill="#777983"/><path d="M42,368L18,360l22,-6z" fill="#797a7d"/><path d="M296,274l-4,6l8,-2z" fill="#adaeb3"/><path d="M306,218l-10,-6v4z" fill="#8a8260"/><path d="M106,218v6h8z" fill="#8b7040"/><path d="M452,138l6,-2l-6,10z" fill="#3e4941"/><path d="M298,10l38,86l6,-28z" fill="#211d1f"/><path d="M26,188L2,200L56,190z" fill="#969796"/><path d="M340,280l-8,2v-8z" fill="#9ea2a5"/><path d="M270,162h4l8,4z" fill="#4d482b"/><path d="M164,236l12,-6l10,16z" fill="#352b25"/><path d="M390,238L356,196l-8,12z" fill="#1e1711"/><path d="M254,234l6,4l-4,-12z" fill="#79735e"/><path d="M222,82L210,64H188z" fill="#7992ae"/><path d="M282,228l4,2l-2,-8z" fill="#aa9d80"/><path d="M82,276H60l42,-4z" fill="#9e9e9e"/><path d="M146,24l10,12l98,-82z" fill="#272628"/><path d="M464,218l8,2l66,2z" fill="#979899"/><path d="M302,174l6,14l-6,-86z" fill="#1a1513"/><path d="M452,330v-6h10z" fill="#a9abad"/><path d="M516,154l-14,6l16,-16z" fill="#938b71"/><path d="M410,124l4,8l-6,-10z" fill="#d6d7d5"/><path d="M214,178l62,24L248,174z" fill="#a5a7a0"/><path d="M512,238v4h-8z" fill="#1e222b"/><path d="M358,86L340,66l2,-12z" fill="#3f3337"/><path d="M378,232l-12,-2h14z" fill="#33251d"/><path d="M156,350l-56,14h30z" fill="#787c86"/><path d="M186,172l-10,-4h14z" fill="#897e5c"/><path d="M184,108l-10,2V100z" fill="#d3ceca"/><path d="M298,184l-10,6l4,-22z" fill="#afb0aa"/><path d="M324,314l-6,4l2,-4z" fill="#ad9e95"/><path d="M186,140l-8,-8l86,2z" fill="#0a5480"/><path d="M252,156h16v-2z" fill="#adb5b2"/><path d="M84,102l-2,34v26z" fill="#291e1f"/><path d="M-18,320l36,32l-42,10z" fill="#8f9098"/><path d="M302,336H290l16,-6z" fill="#bab3a0"/><path d="M246,250l14,10l-2,-12z" fill="#27110a"/><path d="M216,246l14,-8l-4,14z" fill="#8d6c41"/><path d="M180,236L144,224l16,24z" fill="#221d10"/><path d="M248,-32L358,-86L306,16z" fill="#272831"/><path d="M146,16l44,-78l-6,72z" fill="#322d33"/><path d="M486,248l14,4l6,-4z" fill="#b8b9ba"/><path d="M392,200v6v14z" fill="#36302c"/><path d="M168,276l56,6l-4,-14z" fill="#909b9c"/><path d="M170,156l10,36L164,126z" fill="#3d2b19"/><path d="M210,262l-6,-2l24,2z" fill="#2f2113"/><path d="M282,86L258,82l12,6z" fill="#93a5b3"/><path d="M300,198l20,20H310z" fill="#0d0a05"/><path d="M430,134h22l2,6z" fill="#1d3630"/><path d="M74,92L70,84l2,10z" fill="#8f8874"/><path d="M406,142l-12,-2l36,2z" fill="#94997c"/><path d="M300,314l18,-26l-26,20z" fill="#73787d"/><path d="M48,60L-38,54L-68,36z" fill="#8897ac"/><path d="M186,228l-2,-8l-4,10z" fill="#75644c"/><path d="M396,222h2h20z" fill="#37383b"/><path d="M304,246l10,6L304,242z" fill="#4c3c2d"/><path d="M218,306l10,2h16z" fill="#acb4b9"/><path d="M494,316l64,32L492,306z" fill="#929397"/><path d="M186,256l-4,-8l10,14z" fill="#50371b"/><path d="M134,134l-12,2l-2,-8z" fill="#1a0c09"/><path d="M48,288l2,-8l-10,8z" fill="#818388"/><path d="M68,330l12,-6l2,8z" fill="#91919a"/><path d="M324,266h6H292z" fill="#191a1c"/><path d="M192,220l-4,-6h-4z" fill="#605733"/><path d="M326,294h12l-2,-6z" fill="#3d423d"/><path d="M404,92l50,10L410,86z" fill="#cbd0d5"/><path d="M64,152L40,164H56z" fill="#756239"/><path d="M206,250l4,-4l6,2z" fill="#b39568"/><path d="M140,262l10,-8l12,8z" fill="#2b2925"/><path d="M82,236H72l10,6z" fill="#564d42"/><path d="M464,244L452,214l-34,14z" fill="#9da0a5"/><path d="M406,364l22,-2l8,-16z" fill="#a09f98"/><path d="M378,346L366,316l48,54z" fill="#91949e"/><path d="M288,314l-6,-8l-4,8z" fill="#8e979c"/><path d="M244,138h10H238z" fill="#596a6b"/><path d="M204,116h-6v-6z" fill="#e6e7d4"/><path d="M484,328l-42,26L430,338z" fill="#919495"/><path d="M422,160l12,-12H414z" fill="#887861"/><path d="M24,362l-2,-6H32z" fill="#666873"/><path d="M304,-8l24,20l18,38z" fill="#342e33"/><path d="M344,64l4,18L332,58z" fill="#2c2628"/><path d="M32,22L20,10l-50,2z" fill="#b8bdc9"/><path d="M158,4l10,2L150,-12z" fill="#40373d"/><path d="M352,200l-2,-8l12,2z" fill="#17120f"/><path d="M192,240l-12,-4l16,10z" fill="#473114"/><path d="M260,264l10,-2l-22,-8z" fill="#271a14"/><path d="M372,138L356,116L344,52z" fill="#392d2f"/><path d="M194,174l2,-22l16,2z" fill="#a9aea9"/><path d="M350,276l8,4h-8z" fill="#23211f"/><path d="M488,236l-6,-4l-2,2z" fill="#5e6368"/><path d="M248,318l26,-22l18,12z" fill="#8f979e"/><path d="M472,222h4l-10,2z" fill="#5c5c58"/><path d="M280,234l-4,-2v8z" fill="#9a8c69"/><path d="M466,134l6,2l-16,-4z" fill="#998a74"/><path d="M458,94L544,6L420,64z" fill="#d9dadc"/><path d="M382,216L368,200h24z" fill="#2b201a"/><path d="M426,320l2,-10l-16,6z" fill="#96989d"/><path d="M22,246L56,230l2,6z" fill="#9f9a95"/><path d="M402,330l12,-8H382z" fill="#7f828b"/><path d="M122,300l-6,-4l26,4z" fill="#767882"/><path d="M248,94l-30,16L216,98z" fill="#95abbb"/><path d="M444,168l-28,6l52,-4z" fill="#b6b6b5"/><path d="M106,202L92,250H82z" fill="#100f0a"/><path d="M410,292l2,8l2,-10z" fill="#73767f"/><path d="M288,126l4,4l-18,6z" fill="#376c8d"/><path d="M182,228l12,8l-2,-6z" fill="#b09e77"/><path d="M318,320l-4,8h10z" fill="#858887"/><path d="M-40,230l-20,36L8,228z" fill="#867c70"/><path d="M122,350l2,-12l14,24z" fill="#7a7e86"/><path d="M286,292l-54,4h42z" fill="#79828b"/><path d="M12,126l58,-8L68,108z" fill="#685839"/><path d="M276,66L252,60l16,10z" fill="#b4c4ce"/><path d="M172,110l4,8h-4z" fill="#cec2b3"/><path d="M198,106h44l-40,-6z" fill="#8798ba"/><path d="M170,266H156l-34,6z" fill="#929799"/><path d="M214,156h12l-14,-4z" fill="#7b92a1"/><path d="M298,196l-6,2l6,-6z" fill="#5d5b4d"/><path d="M264,352l28,-28l-20,26z" fill="#969d9c"/><path d="M474,222l-6,12v6z" fill="#4a4237"/><path d="M58,82L30,104L60,82z" fill="#5f5536"/><path d="M496,326h-8l4,-8z" fill="#adb0b3"/><path d="M372,268l4,-2l-6,2z" fill="#2a3036"/><path d="M246,356l-2,-50l-8,50z" fill="#939a9c"/><path d="M220,152l-48,-2l58,-2z" fill="#515d60"/><path d="M368,344l-6,-26l-4,6z" fill="#80838a"/><path d="M444,316l-4,-4l-6,12z" fill="#bfbab0"/><path d="M230,244l-8,-2l20,-6z" fill="#9d8966"/><path d="M182,124h-4h14z" fill="#537c99"/><path d="M260,34l18,36l8,-8z" fill="#cdcfd6"/><path d="M330,344l-4,-4H302z" fill="#7b8187"/><path d="M256,230l4,-2l6,6z" fill="#5f5944"/><path d="M200,110l-2,-4l-6,-2z" fill="#b3bbc5"/><path d="M26,222l-2,6H14z" fill="#908b7f"/><path d="M362,270l32,-26l-84,18z" fill="#090606"/><path d="M234,74l-26,2l12,6z" fill="#6d8ba9"/><path d="M494,224l4,14l44,-46z" fill="#9a9ca0"/><path d="M188,366v-8l-12,6z" fill="#939a9e"/><path d="M352,18l38,68l-4,4z" fill="#676069"/><path d="M310,410l-56,4l20,-44z" fill="#9198a0"/><path d="M486,140l24,-12l-4,6z" fill="#6f6e69"/><path d="M564,140H502l-14,-4z" fill="#596156"/><path d="M40,224l-8,-2H52z" fill="#b4b7b0"/><path d="M80,70L88,12L76,82z" fill="#605759"/><path d="M256,104h24l6,6z" fill="#6a8ea7"/><path d="M136,296H122l26,2z" fill="#767982"/><path d="M58,240l-10,2l-14,4z" fill="#6e6f73"/><path d="M504,156l-10,8l12,-8z" fill="#93886a"/><path d="M462,362l-32,4l-4,-14z" fill="#929696"/><path d="M238,228h4l6,2z" fill="#5e5a4c"/><path d="M426,322l-6,-6v12z" fill="#929397"/><path d="M192,172l32,4l-12,-8z" fill="#b2aeac"/><path d="M364,26L354,20l22,8z" fill="#74737c"/><path d="M466,346l58,-24l-58,16z" fill="#a1a5a4"/><path d="M128,56L86,58L110,36z" fill="#2f2323"/><path d="M342,208l-12,-8l-18,10z" fill="#1b1711"/><path d="M194,260h-4l12,-8z" fill="#765b36"/><path d="M276,326l4,6v-6z" fill="#797978"/><path d="M186,206l2,-4h4z" fill="#7d7457"/><path d="M240,212l8,10L232,212z" fill="#8f8b71"/><path d="M358,80l8,-4L354,72z" fill="#4a3e42"/><path d="M64,64L44,74L70,70z" fill="#afbac6"/><path d="M20,70L10,64L30,62z" fill="#bdc6cf"/><path d="M68,362L48,352L58,340z" fill="#939494"/><path d="M28,272l-8,2l12,2z" fill="#9b9ca0"/><path d="M100,216l6,8v-8z" fill="#533e19"/><path d="M348,288l8,-2l-24,20z" fill="#707379"/><path d="M174,320l-6,-14l-10,20z" fill="#83878d"/><path d="M260,92l8,-6l2,6z" fill="#a6b8c6"/><path d="M208,224l6,-4l-8,14z" fill="#a79b7e"/><path d="M40,150L60,130l-6,10z" fill="#75683e"/><path d="M206,306l52,8l-10,8z" fill="#a2a9ab"/><path d="M216,216l8,2l-4,-8z" fill="#43402a"/><path d="M180,170l34,4l8,-4z" fill="#c2b9b8"/><path d="M86,330l2,-10l36,-2z" fill="#7d7f89"/><path d="M78,254l4,4L72,256z" fill="#675544"/><path d="M288,238l74,-6l-24,-6z" fill="#272223"/><path d="M536,174l-46,-4l36,-8z" fill="#b6b4b6"/><path d="M106,228v-4l10,6z" fill="#372717"/><path d="M236,300l12,-18l-22,18z" fill="#767e84"/><path d="M112,328l-8,-4l26,-24z" fill="#858991"/><path d="M492,162l-14,-2l4,2z" fill="#292b21"/><path d="M126,212l-10,-4v12z" fill="#1c110d"/><path d="M350,312l-4,4l10,2z" fill="#858996"/><path d="M470,238l6,4h14z" fill="#252627"/><path d="M506,238l64,6L520,234z" fill="#484c56"/><path d="M232,262l-6,4h16z" fill="#726d6f"/><path d="M434,324l10,14l-6,-2z" fill="#a9a9aa"/><path d="M92,214l-6,42H96z" fill="#0f0e0f"/><path d="M348,354l2,16l12,-12z" fill="#94979e"/><path d="M508,246h-6h16z" fill="#86898e"/><path d="M236,356l-2,-26l20,2z" fill="#999f9f"/><path d="M430,264l2,-6l-22,-6z" fill="#9ea1a7"/><path d="M276,154L264,140l8,4z" fill="#65685a"/><path d="M174,174l-50,22l52,-8z" fill="#201812"/><path d="M230,20l8,-4l-14,4z" fill="#373f4a"/><path d="M30,368l10,4L36,350z" fill="#7a7b7d"/><path d="M456,358l22,4l8,-14z" fill="#898d8e"/><path d="M434,300l14,-30l-30,34z" fill="#868991"/><path d="M284,360v8l10,-8z" fill="#7a7f89"/><path d="M60,172l12,-2H56z" fill="#8f7e67"/><path d="M42,230l-2,-4H32z" fill="#a69a7d"/><path d="M354,270l-2,-4h-4z" fill="#1e1612"/><path d="M338,18l2,22L330,10z" fill="#3f363e"/><path d="M46,226l-6,4v-4z" fill="#736c56"/><path d="M178,226l2,-18L166,190z" fill="#191410"/><path d="M214,284v8l12,-4z" fill="#879094"/><path d="M480,130v-4l-2,12z" fill="#a5c1ce"/><path d="M156,246L114,168l12,-24z" fill="#241917"/><path d="M134,172l-6,-10l18,4z" fill="#31241d"/><path d="M80,342l18,-6L64,330z" fill="#7d7e83"/><path d="M182,196l4,2v-2z" fill="#988f6e"/><path d="M452,272l4,4l-26,-2z" fill="#898786"/><path d="M10,260l4,6l-64,18z" fill="#a1a0a5"/><path d="M106,56L96,104l42,88z" fill="#241817"/><path d="M334,270l12,2l2,-2z" fill="#686563"/><path d="M356,190l-6,-84l-8,-8z" fill="#2d2321"/><path d="M212,268l2,10l18,-12z" fill="#898e91"/><path d="M242,146l-20,-4h26z" fill="#9a8e73"/><path d="M118,26h22V10z" fill="#483535"/><path d="M408,254l-2,-14l14,8z" fill="#a5a6ac"/><path d="M200,282l-10,4l20,2z" fill="#788083"/><path d="M296,72L282,48l-4,-6z" fill="#363942"/><path d="M98,296L80,288l-2,-6z" fill="#81848c"/><path d="M134,194l-16,-8L92,220z" fill="#1a1713"/><path d="M530,248l-36,28l4,-8z" fill="#9d9d9d"/><path d="M110,246h-2l-8,2z" fill="#4b432e"/><path d="M284,160v0l14,2z" fill="#6e6542"/><path d="M168,348l36,-16l-44,6z" fill="#878b8f"/><path d="M114,360L96,344l10,20z" fill="#75787f"/><path d="M390,262l38,20L416,268z" fill="#989ba2"/><path d="M160,320l36,-44l14,-12z" fill="#879094"/><path d="M208,24l28,-4l-8,2z" fill="#818996"/><path d="M18,104l-34,20L18,96z" fill="#685a39"/><path d="M68,118H60l12,8z" fill="#574a2b"/><path d="M246,162l-12,2l4,-10z" fill="#9ea8a4"/><path d="M240,358l26,16l26,-6z" fill="#848b93"/><path d="M328,304l-6,8l12,-6z" fill="#9c8f7a"/><path d="M100,276L66,260l30,6z" fill="#8e9599"/><path d="M54,172v-2l10,2z" fill="#b1a99c"/><path d="M218,150l-4,-8l8,2z" fill="#333d3b"/><path d="M144,80L162,34l12,42z" fill="#251c1b"/><path d="M300,268H290l6,2z" fill="#50545d"/><path d="M266,356l-8,8l4,-10z" fill="#737a82"/><path d="M398,114l18,10l-20,2z" fill="#e0dfd9"/><path d="M240,206l-4,-4l-6,6z" fill="#44413b"/><path d="M146,252l10,2L128,242z" fill="#20160f"/><path d="M424,164L392,150l4,-6z" fill="#6f6653"/><path d="M304,226l-34,20l20,-12z" fill="#56432e"/><path d="M76,94H70l6,8z" fill="#847c6e"/><path d="M262,214H252l4,2z" fill="#2d2a1a"/><path d="M-30,24L0,26L66,50z" fill="#97a2b7"/><path d="M160,234h12l-16,8z" fill="#2e231c"/><path d="M230,140h12l-10,-4z" fill="#a09b87"/><path d="M392,194v6l-2,-16z" fill="#312b28"/><path d="M464,220l-4,4l8,4z" fill="#929292"/><path d="M52,26L36,18l26,8z" fill="#b3bac6"/><path d="M194,220l10,-14l-4,12z" fill="#5c5131"/><path d="M182,16h62L230,-16z" fill="#151b23"/><path d="M192,160v-6l4,-2z" fill="#9c9f9a"/><path d="M64,202l12,2v-8z" fill="#a8a8aa"/><path d="M302,220v6l-2,-12z" fill="#8d8565"/><path d="M16,238l2,-6H10z" fill="#b0a191"/><path d="M356,214l6,10l-18,-4z" fill="#0c0805"/><path d="M210,24h-6l18,-6z" fill="#20252f"/><path d="M430,136l-32,2l50,-4z" fill="#2f463c"/><path d="M88,296l10,4v-6z" fill="#9699a0"/><path d="M200,32l22,14l8,-24z" fill="#b0bbc8"/><path d="M204,36V32l10,-4z" fill="#c2c9d5"/><path d="M24,318H12L-6,282z" fill="#8e8e98"/><path d="M318,270v0h10z" fill="#84888b"/><path d="M348,236h18L310,222z" fill="#1f1c18"/><path d="M70,236l12,-4l-4,-6z" fill="#918c7b"/><path d="M448,192L434,176l20,6z" fill="#b2b3ad"/><path d="M262,282l6,10L238,272z" fill="#8f999f"/><path d="M250,112l-10,-6l18,2z" fill="#93a4bb"/><path d="M504,128l2,-2l-4,10z" fill="#9fa3a3"/><path d="M394,100l34,6H402z" fill="#9aacbb"/><path d="M450,372l6,-4l-12,4z" fill="#b4b6b3"/><path d="M106,340h36L96,334z" fill="#919597"/><path d="M308,360l6,-4L292,342z" fill="#93989c"/><path d="M508,160h6l6,-4z" fill="#454237"/><path d="M190,164l6,4l-6,-8z" fill="#87897d"/><path d="M476,246l-46,-6h28z" fill="#898c96"/><path d="M344,374h-4l4,12z" fill="#a3a7a7"/><path d="M388,226v6l6,8z" fill="#563a1c"/><path d="M356,176l10,-30l4,64z" fill="#322422"/><path d="M222,356l20,-12l-12,4z" fill="#a8adac"/><path d="M220,226v-4l-4,10z" fill="#7f755c"/><path d="M460,140h10l-12,2z" fill="#687d67"/><path d="M352,34l8,4l-6,6z" fill="#474048"/><path d="M474,252l-10,2l4,-8z" fill="#bfb39d"/><path d="M186,58V50l6,-2z" fill="#9ba5b1"/><path d="M92,394L82,372l10,8z" fill="#767882"/><path d="M182,236h8l-18,-6z" fill="#5f4d28"/><path d="M60,332l4,2l16,2z" fill="#75767b"/><path d="M186,176l-2,-8h-8z" fill="#8c7e54"/><path d="M188,148h12l-12,2z" fill="#777b70"/><path d="M70,118l6,4L78,98z" fill="#6d5f51"/><path d="M226,156l-12,4l4,-2z" fill="#678296"/><path d="M-18,188l-24,4l62,-4z" fill="#c5bcb1"/><path d="M52,228l2,-2l-10,2z" fill="#655f52"/><path d="M32,380L4,388l74,4z" fill="#797b80"/><path d="M186,158l2,2l4,-8z" fill="#2c2e1e"/><path d="M298,284l24,-2l-16,8z" fill="#898e96"/><path d="M192,262H182l10,4z" fill="#81746a"/><path d="M528,144l-34,-2h10z" fill="#aaa6af"/><path d="M28,62L60,58l-98,6z" fill="#98aab6"/><path d="M118,322l4,-8l2,8z" fill="#787c86"/><path d="M450,336l-8,8l6,-16z" fill="#9a9d9f"/><path d="M280,270H268h20z" fill="#8a9098"/><path d="M288,210l-8,10l12,-2z" fill="#3d3b2b"/><path d="M398,130l-6,-4l12,4z" fill="#c6c8b9"/><path d="M408,276H398l4,2z" fill="#7e818a"/><path d="M30,78l16,8L68,76z" fill="#d6d1ca"/><path d="M58,256H46l12,-6z" fill="#382915"/><path d="M214,114h8l-14,2z" fill="#d5dfe9"/><path d="M298,148H274h26z" fill="#615a4c"/><path d="M36,328l-6,-6l-6,6z" fill="#94959a"/><path d="M212,244l-10,4l10,2z" fill="#b9a27b"/><path d="M242,44l16,8l8,-20z" fill="#bbc3d0"/><path d="M226,222l-4,2l16,-10z" fill="#868269"/><path d="M222,314h12l-26,20z" fill="#899095"/><path d="M210,364l24,-2l-46,-4z" fill="#7b7f88"/><path d="M54,6l26,8L6,-48z" fill="#c6cad2"/><path d="M370,188h4v-6z" fill="#4a3733"/><path d="M504,138l28,-12l-22,18z" fill="#507080"/><path d="M14,360l-8,4l20,-4z" fill="#646773"/><path d="M220,128l40,8L218,116z" fill="#165d87"/><path d="M154,332l-40,4l8,-10z" fill="#8c9197"/><path d="M208,50L188,60V48z" fill="#9eadbc"/><path d="M90,304l10,4l-2,-6z" fill="#989aa3"/><path d="M122,238l-4,20l12,-10z" fill="#282118"/><path d="M458,256l-12,2l22,6z" fill="#92918f"/><path d="M236,342l-2,12l-8,-10z" fill="#a6abaa"/><path d="M336,296l2,-6l-6,4z" fill="#36393e"/><path d="M422,106l-26,6l36,-4z" fill="#ccd3d8"/><path d="M166,62l2,-32l8,36z" fill="#191816"/><path d="M204,330l74,10l-26,-6z" fill="#969b99"/><path d="M436,132l-8,4h6z" fill="#424d3b"/><path d="M364,26L346,8l12,2z" fill="#65626f"/><path d="M366,240l-8,8L340,220z" fill="#301d14"/><path d="M298,166h-2H286z" fill="#645e41"/><path d="M26,368l12,10L16,370z" fill="#8b8e92"/><path d="M280,154l-24,6l8,-6z" fill="#b0b8ba"/><path d="M362,168l-4,8l12,-2z" fill="#392b2a"/><path d="M274,160l26,-4l-10,8z" fill="#807546"/><path d="M276,278v-8h-6z" fill="#a0a6ac"/><path d="M262,340H244l16,4z" fill="#767b7d"/><path d="M240,194l-18,-2v-2z" fill="#c3c6b7"/><path d="M88,230l16,4l-18,2z" fill="#061215"/><path d="M306,140l14,78L302,192z" fill="#130e0b"/><path d="M208,326l8,-4H202z" fill="#7d848d"/><path d="M238,264h2h2z" fill="#232224"/><path d="M538,324L504,296l52,-82z" fill="#9d9fa0"/><path d="M298,174l-26,-4h14z" fill="#b9bcb5"/><path d="M174,174l8,2v10z" fill="#534323"/><path d="M460,128H450v2z" fill="#919996"/><path d="M122,276l6,4l-14,2z" fill="#7d8088"/><path d="M310,28l-18,8l40,42z" fill="#1b1b1f"/><path d="M218,340l8,2l-18,4z" fill="#a1a5a6"/><path d="M254,238l-6,-2l4,6z" fill="#6d6342"/><path d="M232,246H218l-4,-4z" fill="#755f34"/><path d="M340,324h6l-2,2z" fill="#959a9b"/><path d="M314,342h10v8z" fill="#6a7076"/><path d="M246,150l6,-2H220z" fill="#555748"/><path d="M166,350l4,4l6,-12z" fill="#8f9296"/><path d="M44,356l-6,8V350z" fill="#7c7d82"/><path d="M46,140L4,152L36,132z" fill="#685d3a"/><path d="M6,164l30,-6L12,170z" fill="#77613e"/><path d="M416,310l-42,6l52,-14z" fill="#95989f"/><path d="M466,246l16,2l-8,-2z" fill="#b9b2a9"/><path d="M220,30l16,-8l4,8z" fill="#acb7c6"/><path d="M390,54l-2,-4l12,4z" fill="#dedede"/><path d="M234,114l10,4l-14,-2z" fill="#d8e2de"/><path d="M404,272l-14,16l22,-10z" fill="#85888f"/><path d="M236,246l-6,6v-6z" fill="#785d36"/><path d="M174,200v-6l-16,4z" fill="#180f07"/><path d="M518,236l8,2l-50,-6z" fill="#8e939b"/><path d="M244,72L180,68l82,12z" fill="#7993ae"/><path d="M508,240l-26,2l-4,-4z" fill="#1a1f25"/><path d="M336,340l4,2l6,-6z" fill="#9fa1a4"/><path d="M82,228l-2,2l2,-8z" fill="#656760"/><path d="M208,168h-6l-4,-8z" fill="#888a7a"/><path d="M24,140l-2,10L4,158z" fill="#5e4e32"/><path d="M342,2l46,100L378,86z" fill="#5d4f56"/><path d="M282,54L266,36l26,36z" fill="#ccd3da"/><path d="M164,264h10l-2,-2z" fill="#857c78"/><path d="M280,258l-10,6l40,-10z" fill="#261813"/><path d="M230,192l2,2l8,2z" fill="#d3d5c8"/><path d="M172,266l-4,6l4,2z" fill="#8b9097"/><path d="M28,248H46H26z" fill="#312e35"/><path d="M460,300V270l10,32z" fill="#acadaf"/><path d="M136,86L148,72L122,64z" fill="#3e2e2f"/><path d="M68,130l-10,4l2,-8z" fill="#706241"/><path d="M164,364l2,6l10,-6z" fill="#7a7d85"/><path d="M346,184L308,132l34,68z" fill="#181210"/><path d="M462,266l-2,-12l34,10z" fill="#a4a5a5"/><path d="M102,336l10,2l-10,-6z" fill="#9ea2a4"/><path d="M310,254l12,2L306,232z" fill="#321e18"/><path d="M404,334l2,-2l-10,-6z" fill="#95989f"/><path d="M8,170H28l-62,2z" fill="#a99c8f"/><path d="M204,166h24H218z" fill="#636950"/><path d="M170,88l2,8V92z" fill="#4e4c4d"/><path d="M472,162l6,2v2z" fill="#837e6d"/><path d="M170,230l-2,-8l8,4z" fill="#111007"/><path d="M212,364L200,342l2,20z" fill="#72767b"/><path d="M482,388l-12,2l10,-26z" fill="#a0a29e"/><path d="M362,218L326,202l18,2z" fill="#19140f"/><path d="M226,190l8,8l-4,-8z" fill="#d0d1c1"/><path d="M146,94L142,62l4,-44z" fill="#382926"/><path d="M94,348l8,8l2,16z" fill="#84878b"/><path d="M4,242l-6,6l18,-4z" fill="#a19e9e"/><path d="M404,386l6,-14H388z" fill="#83868b"/><path d="M104,18l14,4L116,6z" fill="#3c2d38"/><path d="M294,272l-38,-4l40,2z" fill="#80838a"/><path d="M372,356h10l-10,-8z" fill="#787d84"/><path d="M412,370l28,4l-14,6z" fill="#a6aba6"/><path d="M276,216l-10,-6l10,2z" fill="#636353"/><path d="M258,312l30,-10l-32,8z" fill="#878e94"/><path d="M230,66L208,62l12,-2z" fill="#899fb6"/><path d="M78,230H68l8,-4z" fill="#998e7b"/><path d="M76,370l8,8L72,372z" fill="#686971"/><path d="M220,284l-10,24l20,-26z" fill="#8e989c"/><path d="M320,308l-6,2l8,-4z" fill="#98854d"/><path d="M-6,174L2,134l-10,2z" fill="#554926"/><path d="M70,226l12,4l-4,-2z" fill="#867a6d"/><path d="M470,124l6,4L466,116z" fill="#dadbe2"/><path d="M156,254l-2,8l12,-10z" fill="#19100e"/><path d="M172,158l8,6l2,-20z" fill="#695725"/><path d="M22,88H18L-12,66z" fill="#e7e2d1"/><path d="M298,80l4,78l6,-18z" fill="#26211a"/><path d="M214,306L186,286l16,2z" fill="#889098"/><path d="M340,350l10,-2l-4,4z" fill="#818589"/><path d="M12,292L2,286l18,2z" fill="#87878e"/><path d="M438,100L416,96l4,2z" fill="#b4c1cd"/><path d="M190,164l-4,-6l4,10z" fill="#2f2e26"/><path d="M224,182l-10,-2h10z" fill="#b1bcb8"/><path d="M298,372l-48,-2l58,10z" fill="#899098"/><path d="M428,288l-2,-26l-20,24z" fill="#969ba1"/><path d="M362,286h-6l10,-6z" fill="#979b9f"/><path d="M52,86l12,8L50,88z" fill="#423723"/><path d="M470,206l6,-4L450,192z" fill="#a0a2a3"/><path d="M380,368l40,-44l-32,44z" fill="#8e939a"/><path d="M114,272L90,270l16,6z" fill="#959a99"/><path d="M340,38L310,24L312,4z" fill="#2b292d"/><path d="M216,298l6,6l-14,6z" fill="#939c9f"/><path d="M404,158l-6,-4l12,-2z" fill="#7b7460"/><path d="M412,294l-8,-6l16,6z" fill="#7b7e88"/><path d="M30,170H-2H38z" fill="#998979"/><path d="M198,240l-10,2l18,-4z" fill="#5e5038"/><path d="M0,270l4,26L-22,280z" fill="#9c9da3"/><path d="M420,394l34,-2l12,-14z" fill="#a3a5a0"/><path d="M362,346l-16,-8l-2,-6z" fill="#8a8b8f"/><path d="M250,152h6l-6,2z" fill="#aba697"/><path d="M40,38L28,30l4,10z" fill="#a0abbc"/><path d="M190,246l2,-2h-8z" fill="#6c5843"/><path d="M250,120l32,2l-42,-8z" fill="#e1e1d2"/><path d="M170,90v6l-2,32z" fill="#3d3029"/><path d="M260,162l26,-6l-28,6z" fill="#978f67"/><path d="M292,276h-6l2,6z" fill="#acacaf"/><path d="M28,124l4,-22L22,112z" fill="#655b40"/><path d="M378,266l-8,8l10,-12z" fill="#666c74"/><path d="M114,-18L84,26L106,-2z" fill="#5d5866"/><path d="M50,334l-22,2l22,-6z" fill="#78797e"/><path d="M368,42L356,30l6,16z" fill="#5f5962"/><path d="M240,312l-10,-4v2z" fill="#adb4b9"/><path d="M480,158L454,146l8,8z" fill="#7e7762"/><path d="M182,92l-6,-2l22,4z" fill="#a5afb6"/><path d="M70,164L58,158l14,-2z" fill="#706138"/><path d="M192,340l-4,8h6z" fill="#5b5f69"/><path d="M224,282l-4,-4l-4,2z" fill="#9ca5a4"/><path d="M268,240l6,-2l2,-12z" fill="#796851"/><path d="M108,-38L84,20l26,-74z" fill="#8f8d96"/><path d="M264,206l-2,2l8,-6z" fill="#76776a"/><path d="M488,310l-46,38l2,6z" fill="#8b8f93"/><path d="M450,146l-8,2l10,6z" fill="#7c7659"/><path d="M314,242l10,6l-6,-10z" fill="#1d150b"/><path d="M402,342L374,322l24,22z" fill="#a0a3a9"/><path d="M278,144l8,-2l-8,-4z" fill="#838386"/><path d="M24,-42L62,22L48,20z" fill="#bec2cf"/><path d="M468,150h16l-8,-4z" fill="#555639"/><path d="M446,372l12,-4l-10,-2z" fill="#afb1af"/><path d="M426,378L402,362l12,12z" fill="#a0a19d"/><path d="M506,214l-38,-6l22,4z" fill="#b1b3b1"/><path d="M294,194l4,-2v4z" fill="#8d8b7d"/><path d="M180,114l-6,8l2,-26z" fill="#e1dacc"/><path d="M44,20l-6,8L8,24z" fill="#abb4c2"/><path d="M326,10L316,2l22,12z" fill="#3d353c"/><path d="M264,140l22,2l-26,-4z" fill="#968881"/><path d="M6,208l36,-8L-8,220z" fill="#a1a3a4"/><path d="M56,140l18,-2L56,136z" fill="#544720"/><path d="M458,368l14,-2h-8z" fill="#a9abaa"/><path d="M242,264h12l22,-2z" fill="#0f0f10"/><path d="M380,232h-2l2,6z" fill="#412e25"/><path d="M98,26l-4,2l2,2z" fill="#63535a"/><path d="M12,14L26,10l4,-26z" fill="#b1bac9"/><path d="M234,288h20l-20,-6z" fill="#6e747d"/><path d="M80,50l-4,6L78,42z" fill="#84848a"/><path d="M494,290l-2,8l18,-6z" fill="#acadaf"/><path d="M50,332L48,310l10,-8z" fill="#7b7b85"/><path d="M142,290l6,-6l8,22z" fill="#898c94"/><path d="M350,274l10,4L344,268z" fill="#221c18"/><path d="M386,230V212l-20,-8z" fill="#291b15"/><path d="M322,296v6l-14,2z" fill="#564e49"/><path d="M194,266l-10,2l-20,12z" fill="#8f8e8f"/><path d="M442,282h-8l8,-4z" fill="#90939b"/><path d="M284,364l-10,-8l-58,90z" fill="#8c939b"/><path d="M66,258V248l6,6z" fill="#4d3521"/><path d="M302,336l-26,4l16,2z" fill="#aeac9e"/><path d="M10,86l-56,4l30,-2z" fill="#615846"/><path d="M160,128l10,2l-6,-10z" fill="#39261c"/><path d="M210,190l-6,-12v18z" fill="#716d57"/><path d="M296,128h-8h10z" fill="#41718a"/><path d="M19,171l34,-1l-12,6z" fill="#beb2a1"/><path d="M71,241L26,251L69,237z" fill="#2d2a28"/><path d="M363,303l3,-12l-15,8z" fill="#979ba1"/><path d="M195,168l-12,-7l1,5z" fill="#48422b"/><path d="M339,371v6l49,3z" fill="#a0a4a5"/><path d="M243,244l-12,4l21,-4z" fill="#74512d"/><path d="M172,121l6,-26l2,4z" fill="#deddd6"/><path d="M195,36L229,7L184,31z" fill="#191c25"/><path d="M189,47l33,-5L198,37z" fill="#b8c1cd"/><path d="M353,262l10,12l-15,6z" fill="#0f0d0b"/><path d="M24,255L14,254l24,-8z" fill="#18212b"/><path d="M319,313h15l10,4z" fill="#9f9f9c"/><path d="M278,151H267h5z" fill="#afaa97"/><path d="M187,152h34l-24,-5z" fill="#4c5d5a"/><path d="M143,89l-15,4l21,6z" fill="#423130"/><path d="M394,109L391,97l25,11z" fill="#9caec1"/><path d="M20,292l-7,-1l9,-5z" fill="#919399"/><path d="M135,240l-19,-8l15,13z" fill="#261f12"/><path d="M287,146l9,-2l-1,3z" fill="#a29d8e"/><path d="M198,319l-1,7l-7,-7z" fill="#a2a6a7"/><path d="M410,129l-7,3l15,-1z" fill="#c0c1bd"/><path d="M52,169H35l19,-7z" fill="#6e5e35"/><path d="M268,268l2,9l17,2z" fill="#a3aaab"/><path d="M504,152h12l-10,-5z" fill="#797b30"/><path d="M234,61L186,59l56,9z" fill="#879eb7"/><path d="M197,247l-15,13l7,-12z" fill="#3b2411"/><path d="M295,287l-4,7l9,-4z" fill="#676c7a"/><path d="M369,157l14,-17l8,25z" fill="#433030"/><path d="M512,243H495l11,-7z" fill="#262c37"/><path d="M110,214l5,14l-1,-10z" fill="#8f7343"/><path d="M509,141H487l8,2z" fill="#9eb5bf"/><path d="M447,129l29,-16l-52,12z" fill="#d8d8d2"/><path d="M193,191l12,-6l-8,-8z" fill="#3e3c2e"/><path d="M61,171L42,186l35,-6z" fill="#beb7ad"/><path d="M151,50L203,2L170,21z" fill="#201f24"/><path d="M218,329l22,-14l-4,14z" fill="#9ba2a1"/><path d="M259,33l15,8l14,23z" fill="#cfd3d7"/><path d="M208,324l21,13l3,-3z" fill="#868c90"/><path d="M223,18l13,-1l-31,8z" fill="#1f2330"/><path d="M293,191L258,173l41,16z" fill="#b0b4ad"/><path d="M122,405L96,403l38,-32z" fill="#94999a"/><path d="M247,315l17,22l3,-14z" fill="#b8bab7"/><path d="M193,217l23,-15l-14,20z" fill="#635838"/><path d="M259,247l6,-8l-17,1z" fill="#573d2d"/><path d="M188,151H175l-4,-29z" fill="#6d633d"/><path d="M229,304l-22,4l33,-2z" fill="#a7acad"/><path d="M250,137l25,-1l-19,4z" fill="#38657b"/><path d="M147,40l14,2L126,55z" fill="#2b2223"/><path d="M44,229l34,5l1,-6z" fill="#9d978d"/><path d="M343,357l16,22l-4,-25z" fill="#969a9d"/><path d="M267,99L264,89l31,8z" fill="#bac5ce"/><path d="M166,261h20l-5,-14z" fill="#926738"/><path d="M469,337l4,-9l4,6z" fill="#9da1a4"/><path d="M286,197l-12,8l10,-3z" fill="#a0a29a"/><path d="M186,304l-5,-4l-3,3z" fill="#7c828c"/><path d="M36,65l9,-4L30,63z" fill="#b4bbc3"/><path d="M348,268l-28,-3l31,6z" fill="#2c1d16"/><path d="M414,218l-12,2l-1,-4z" fill="#a2a4a5"/><path d="M450,379l9,-7l-15,-4z" fill="#bcbeba"/><path d="M203,200l-9,-4l-3,8z" fill="#38372a"/><path d="M210,54l-7,-8l44,15z" fill="#9fb0c1"/><path d="M193,175l-12,-2l-4,-9z" fill="#908258"/><path d="M44,375l-3,5L21,374z" fill="#8e8f91"/><path d="M301,177l-4,-17l4,-5z" fill="#393127"/><path d="M280,224l7,1l-10,12z" fill="#aca27f"/><path d="M395,224l2,19L387,224z" fill="#775a32"/><path d="M448,216l25,-2l-3,-7z" fill="#b2b4b3"/><path d="M213,117l-7,-10l-26,17z" fill="#eae5d4"/><path d="M270,219l4,-8l-10,1z" fill="#3e3f35"/><path d="M271,89L259,75L247,71z" fill="#829cb1"/><path d="M449,142h4l2,-4z" fill="#1b2421"/><path d="M284,334l-7,9l-5,-10z" fill="#9e9d95"/><path d="M371,23L351,-7l22,23z" fill="#8d8d99"/><path d="M41,88l7,-2L37,94z" fill="#968b6d"/><path d="M260,167h28l-14,-8z" fill="#5e593b"/><path d="M322,174l-23,32l37,-20z" fill="#0d0b09"/><path d="M10,104l-31,6l9,17z" fill="#867955"/><path d="M116,298l-7,-5l-25,2z" fill="#8f929a"/><path d="M33,228l24,4L21,229z" fill="#c0a685"/><path d="M34,92L32,80L24,90z" fill="#e8e3d7"/><path d="M367,337l19,-6L370,309z" fill="#8f9299"/><path d="M253,312l8,5l3,-14z" fill="#878e97"/><path d="M379,351l24,-1l-3,-4z" fill="#878a91"/><path d="M476,243l-11,-4l6,-12z" fill="#45413f"/><path d="M367,303l23,5l-10,-7z" fill="#80838c"/><path d="M495,126l-8,8v-8z" fill="#c8c8c4"/><path d="M456,246l9,11l2,-12z" fill="#b3ad9a"/><path d="M231,110l36,15l-21,-4z" fill="#dfe1db"/><path d="M216,169h40l-45,7z" fill="#aeb2ae"/><path d="M80,228l2,-11L76,172z" fill="#939493"/><path d="M275,266l-7,1l17,3z" fill="#767880"/><path d="M71,96L67,80L79,90z" fill="#8f8570"/><path d="M81,234l1,4L67,237z" fill="#484237"/><path d="M407,138l14,3l23,-9z" fill="#314b32"/><path d="M71,75L54,71L71,84z" fill="#bec1c5"/><path d="M379,60l14,33L388,74z" fill="#797074"/><path d="M359,45l12,32l18,10z" fill="#594e54"/><path d="M235,264l3,3l-13,-3z" fill="#8a8782"/><path d="M49,224L66,184l12,-4z" fill="#9ea0a3"/><path d="M413,242l-32,30l12,-16z" fill="#999ca3"/><path d="M280,269h10l-9,4z" fill="#7b8086"/><path d="M473,247l38,13l-47,-3z" fill="#aeaeac"/><path d="M426,166H391l8,9z" fill="#bcbbb5"/><path d="M354,249l39,-6l-56,23z" fill="#0b0a0a"/><path d="M494,303l3,18l10,-22z" fill="#8c8d92"/><path d="M190,59l18,1l-5,-4z" fill="#8da5ba"/><path d="M485,174l-50,-8h44z" fill="#bebdb8"/><path d="M467,145L448,132l21,7z" fill="#6d6e5a"/><path d="M197,338l-11,1l17,6z" fill="#75787f"/><path d="M46,105L14,88L-16,86z" fill="#5c5138"/><path d="M476,220l-14,4l16,-6z" fill="#797b77"/><path d="M210,210l-8,-8l-2,16z" fill="#675e3d"/><path d="M475,218l6,-1l15,9z" fill="#919493"/><path d="M212,83l16,2L197,66z" fill="#6f8ca8"/><path d="M340,270l-17,2l18,6z" fill="#949799"/><path d="M321,308l-18,19l2,-11z" fill="#a68861"/><path d="M434,279l-11,2l17,9z" fill="#868993"/><path d="M54,239l11,-5L52,230z" fill="#a7a39e"/><path d="M72,292l4,5l23,-1z" fill="#9699a2"/><path d="M284,201l5,-7l21,27z" fill="#646352"/><path d="M96,-12l70,3L128,7z" fill="#4a3a3f"/><path d="M491,145h-8l-2,-14z" fill="#2c6585"/><path d="M209,110l6,-6L196,99z" fill="#8696aa"/><path d="M186,243l-23,20l-1,2z" fill="#563e2d"/><path d="M180,70l-3,14l-4,8z" fill="#5d636f"/><path d="M257,150l-26,3l-8,-6z" fill="#4c564d"/><path d="M196,270l-26,13l24,-17z" fill="#9a9f9f"/><path d="M45,290l7,-4L35,281z" fill="#7d7f87"/><path d="M121,251L97,245l18,1z" fill="#53422b"/><path d="M6,231l12,-5l-20,4z" fill="#817470"/><path d="M284,237l-10,6l1,-4z" fill="#7b6441"/><path d="M354,283l22,-15l-21,12z" fill="#595b64"/><path d="M70,236h8l4,-4z" fill="#6a6e6d"/><path d="M226,233l19,11l-18,-9z" fill="#857b60"/><path d="M85,345l7,-3L72,340z" fill="#8c9093"/><path d="M197,381l-10,-8l39,-11z" fill="#7a818a"/><path d="M168,330l11,-7l8,11z" fill="#999ca1"/><path d="M485,236l-5,-1l-13,3z" fill="#403b33"/><path d="M69,234L51,231l26,-2z" fill="#a39e93"/><path d="M256,338l-2,8l11,-3z" fill="#70767e"/><path d="M103,313l3,-1l7,10z" fill="#80828d"/><path d="M32,112l9,3l-17,2z" fill="#5b5131"/><path d="M-3,339l24,13L14,339z" fill="#93959a"/><path d="M216,97l6,-9H184z" fill="#b1bec9"/><path d="M56,294l11,-9l-23,7z" fill="#999a9f"/><path d="M203,242l-15,7l9,-10z" fill="#2f2117"/><path d="M186,208l-17,-4l12,9z" fill="#1b1c12"/><path d="M235,-53l57,81L203,15z" fill="#131d27"/><path d="M465,264l-7,-19l-11,5z" fill="#9d9fa2"/><path d="M430,224l6,10l4,-19z" fill="#a2a6a8"/><path d="M430,216l9,-1l-19,19z" fill="#989b9e"/><path d="M451,267l4,-6l3,14z" fill="#a29f96"/><path d="M481,191l-10,-2l6,-1z" fill="#87888a"/><path d="M293,198l-9,5l16,7z" fill="#51513f"/><path d="M19,238l23,-3L18,229z" fill="#c5b9a7"/><path d="M375,307l2,27l-9,-1z" fill="#979ba1"/><path d="M265,180l-25,-3l16,-1z" fill="#9fa39e"/><path d="M9,263l47,-3l-15,6z" fill="#95989c"/><path d="M79,21L51,19L74,33z" fill="#c0c4ce"/><path d="M486,315L457,301l14,16z" fill="#949699"/><path d="M395,130h16L392,117z" fill="#deded3"/><path d="M484,141l10,-2l11,4z" fill="#a6b2b3"/><path d="M206,108l7,-8h49z" fill="#849daf"/><path d="M250,237l-10,-5l18,5z" fill="#7d7865"/><path d="M384,326l-3,-5l15,-2z" fill="#777985"/><path d="M49,106L61,81L38,99z" fill="#52462f"/><path d="M49,213L31,226l9,-14z" fill="#b1b1ae"/><path d="M297,163l3,6l-20,-6z" fill="#706945"/><path d="M471,137l19,-4l-4,-2z" fill="#6d8a9c"/><path d="M46,362l7,-2l-3,8z" fill="#8d8e91"/><path d="M108,272l-8,5l9,5z" fill="#9d9ea1"/><path d="M148,257l-5,-12l12,11z" fill="#382617"/><path d="M430,136l19,8l-2,1z" fill="#182626"/><path d="M473,364L447,343l10,-1z" fill="#8a8d8e"/><path d="M249,358l11,4l10,-3z" fill="#777f88"/><path d="M270,286l12,3l-4,6z" fill="#77818b"/><path d="M289,150l11,4l-14,5z" fill="#86805e"/><path d="M357,228L319,208l44,18z" fill="#100b08"/><path d="M270,75l13,17L257,72z" fill="#8fa5b9"/><path d="M356,146l1,45L345,170z" fill="#2b211f"/><path d="M362,231l-1,9L337,224z" fill="#322118"/><path d="M222,264l-7,-3l-2,3z" fill="#544130"/><path d="M145,96L183,55L170,80z" fill="#251d1a"/><path d="M380,239l-3,-13l-8,3z" fill="#352721"/><path d="M2,256l-21,15L13,257z" fill="#a2a1a5"/><path d="M245,167h18l-13,-4z" fill="#494530"/><path d="M451,361l9,-2l-16,-5z" fill="#838486"/><path d="M315,299v-5l24,-8z" fill="#525454"/><path d="M333,300l-12,-2l-4,10z" fill="#806744"/><path d="M236,205l-7,3l-11,-6z" fill="#373933"/><path d="M104,219l7,-6h-6z" fill="#5e4221"/><path d="M55,227l9,1l12,-2z" fill="#7f766d"/><path d="M269,88l-23,9l1,5z" fill="#9db0bf"/><path d="M219,335h16l-12,5z" fill="#7e858a"/><path d="M397,163l-4,-30l-2,30z" fill="#63594c"/><path d="M125,252l13,8l24,-1z" fill="#0a0a0c"/><path d="M299,215l8,3l-6,11z" fill="#918763"/><path d="M491,243h-9l22,-1z" fill="#2b323a"/><path d="M491,236l2,-25l15,23z" fill="#a4a6a9"/></svg>