<?xml version="1.0"?><svg xmlns="http://www.w3.org/2000/svg" version="1.2" viewBox="0 0 512 341" width="800" height="534"><path d="M-1,-1V342H513V-1z" fill="#c4c2c3"/><path d="M16,16L216,144H-16z" fill="#7b7778"/><path d="M752,-181L336,309l816,32z" fill="#534d46"/><path d="M552,56L264,405L128,96z" fill="#948e8f"/><path d="M-112,397L176,293L-32,104z" fill="#9e999a"/><path d="M208,56L88,48L552,-317z" fill="#d5d9dc"/><path d="M296,301L696,429L120,325z" fill="#d7d9dc"/><path d="M216,96L200,261L32,181z" fill="#b6b4b6"/><path d="M312,173l-72,16l72,32z" fill="#bcb5b4"/><path d="M448,341H584L424,317z" fill="#8e8e8c"/><path d="M80,213L128,64l88,8z" fill="#8e8f93"/><path d="M-72,-181L-336,373L64,24z" fill="#afadac"/><path d="M440,261L408,189L360,309z" fill="#747073"/><path d="M312,309L160,301L120,253z" fill="#7a7a7c"/><path d="M456,160L408,40L288,245z" fill="#a7a5a9"/><path d="M280,285l24,-16l24,40z" fill="#676669"/><path d="M168,245l88,-93L144,253z" fill="#867671"/><path d="M344,64L104,80l200,24z" fill="#898686"/><path d="M264,112l72,61l-88,24z" fill="#b6aeb0"/><path d="M376,309L352,285v16z" fill="#635d61"/><path d="M352,120L480,-40L360,104z" fill="#736c70"/><path d="M112,293l40,-24l16,-32z" fill="#736767"/><path d="M540,76L508,345L488,136z" fill="#7c7375"/><path d="M496,373L452,329l40,-24z" fill="#737270"/><path d="M204,181L136,297L240,132z" fill="#836d65"/><path d="M100,128V56l12,149z" fill="#484341"/><path d="M288,197l116,52L336,233z" fill="#cfcecd"/><path d="M108,152L132,68H108z" fill="#7b7a7c"/><path d="M112,144L-8,140l24,20z" fill="#827e7e"/><path d="M420,24L264,-233L368,40z" fill="#d7d7d9"/><path d="M144,-32L88,68L44,44z" fill="#b9bbbb"/><path d="M440,321L-48,542L260,313z" fill="#dedfe1"/><path d="M344,68L136,140l172,24z" fill="#9a9a9e"/><path d="M24,148L-4,108L84,96z" fill="#615e5e"/><path d="M384,120l88,53L524,8z" fill="#98969c"/><path d="M172,136L140,104l84,4z" fill="#b8b9bc"/><path d="M260,60l-8,76L180,76z" fill="#999194"/><path d="M300,301H272l32,-16z" fill="#3b3b3d"/><path d="M392,-64L304,76l-44,32z" fill="#766969"/><path d="M156,249L-96,349L28,333z" fill="#c5c1c1"/><path d="M128,173l28,-25L92,173z" fill="#acacae"/><path d="M300,72L328,32l-96,92z" fill="#584547"/><path d="M484,277l-96,12l32,16z" fill="#383736"/><path d="M312,68l28,-4l44,8z" fill="#afa7a9"/><path d="M208,225l16,4l-36,12z" fill="#cdd1cd"/><path d="M120,185L84,197l24,8z" fill="#757479"/><path d="M408,269l4,-20l-16,-4z" fill="#d3ccd3"/><path d="M268,84L244,80L280,64z" fill="#c0bdbb"/><path d="M4,112H-12L4,104z" fill="#a8a3a0"/><path d="M64,297l-4,40V265z" fill="#766764"/><path d="M148,273L24,345l4,12z" fill="#796966"/><path d="M232,144l12,-32l-40,85z" fill="#73534d"/><path d="M480,72L464,68H604z" fill="#5d565b"/><path d="M356,104l-68,52H276z" fill="#c9bfbf"/><path d="M172,245h20l-48,8z" fill="#7a6c6d"/><path d="M176,253L80,337l76,-72z" fill="#c3acae"/><path d="M248,136L264,-12L240,96z" fill="#755b58"/><path d="M292,217l68,16L268,189z" fill="#d2cdcd"/><path d="M428,317L540,305l-72,20z" fill="#67645e"/><path d="M288,156l-40,8l24,-4z" fill="#d5cac6"/><path d="M200,269l44,-56L104,325z" fill="#a19fa0"/><path d="M436,269L456,168l-24,21z" fill="#555047"/><path d="M492,193l36,84L540,116z" fill="#958c92"/><path d="M80,193l40,-16l-16,28z" fill="#727075"/><path d="M88,8l16,44L80,-68z" fill="#9ea2a3"/><path d="M288,173l-36,32H228z" fill="#c4bebc"/><path d="M108,285L40,261l56,4z" fill="#c0babb"/><path d="M104,164l60,17l24,-17z" fill="#d4d5d7"/><path d="M56,60H72L64,52z" fill="#b1afb2"/><path d="M248,305l72,4l-8,-4z" fill="#9b9a9f"/><path d="M76,100l36,12l-4,8z" fill="#3a3635"/><path d="M332,201l-8,-12h52z" fill="#878585"/><path d="M348,293l12,-20l-12,12z" fill="#524b49"/><path d="M176,96L192,76l-4,20z" fill="#6a6b6f"/><path d="M64,269l-4,16L72,213z" fill="#827778"/><path d="M0,301l60,-8V281z" fill="#837c7c"/><path d="M256,-20L244,36L148,56z" fill="#dcdbe0"/><path d="M300,269l-20,36l12,-12z" fill="#333335"/><path d="M500,-52L444,4L412,44z" fill="#443e3b"/><path d="M184,313l-4,-36l20,-4z" fill="#a1a0a0"/><path d="M192,229l12,-28l12,8z" fill="#7c7a72"/><path d="M316,233L244,213h20z" fill="#b4afac"/><path d="M364,229l52,36h12z" fill="#bfb8be"/><path d="M428,181l4,20l8,-28z" fill="#5f5c56"/><path d="M428,181v60l4,-4z" fill="#75706c"/><path d="M296,273L284,257l4,-24z" fill="#585856"/><path d="M276,112h-8l8,-4z" fill="#cfcecd"/><path d="M52,305L40,301l12,8z" fill="#d9d8d9"/><path d="M216,261H196l-36,-4z" fill="#d1cace"/><path d="M200,241l76,56l-16,8z" fill="#919397"/><path d="M44,140l-4,12l4,-20z" fill="#484546"/><path d="M128,257L12,289L136,257z" fill="#cacbc4"/><path d="M192,245l8,-8v16z" fill="#79686c"/><path d="M80,245L72,229l-4,12z" fill="#767273"/><path d="M208,305l-60,12l124,-4z" fill="#d9dadf"/><path d="M248,72L196,68l-28,4z" fill="#717879"/><path d="M0,132L-24,52l8,129z" fill="#403b38"/><path d="M316,64l-72,64v-4z" fill="#a59b9a"/><path d="M528,377L508,313l-12,28z" fill="#b9b9b8"/><path d="M76,173l32,-33l20,-12z" fill="#8d8c8e"/><path d="M420,437V321l12,-4z" fill="#d3d1d4"/><path d="M400,225l16,8l-28,-8z" fill="#595359"/><path d="M-64,271l52,40l38,-4z" fill="#d9dadc"/><path d="M244,353l68,-34h6z" fill="#93878b"/><path d="M458,64l30,10L476,86z" fill="#6a6567"/><path d="M92,42L96,22l12,58z" fill="#6d7175"/><path d="M52,66l6,-90L-28,46z" fill="#b4adaf"/><path d="M392,-68L328,38L286,86z" fill="#3d1e20"/><path d="M342,-8L280,-20L266,76z" fill="#d6d7da"/><path d="M48,267H66v28z" fill="#816464"/><path d="M134,301L52,397L172,301z" fill="#c6cace"/><path d="M116,88L70,68l50,52z" fill="#534f4c"/><path d="M310,301l-40,2l28,2z" fill="#454649"/><path d="M472,160L488,66h90z" fill="#8d8489"/><path d="M254,94L302,60L264,48z" fill="#c4c3c4"/><path d="M288,134l34,8l16,-22z" fill="#c4bdba"/><path d="M212,307l30,-6l32,6z" fill="#cccfd2"/><path d="M80,305L62,315l74,-62z" fill="#ced0d0"/><path d="M52,227L40,211L20,233z" fill="#747174"/><path d="M228,221l-42,8l6,10z" fill="#cfdbd8"/><path d="M414,295l-24,6l26,14z" fill="#201f22"/><path d="M116,307l20,30l26,82z" fill="#918684"/><path d="M258,108L246,80l22,24z" fill="#8a6c6b"/><path d="M194,295h14l-10,6z" fill="#504e51"/><path d="M262,-20l4,34l-22,90z" fill="#543937"/><path d="M124,183L92,150L42,144z" fill="#99989d"/><path d="M58,301l-82,16L18,297z" fill="#d3d3d4"/><path d="M458,303L446,179l24,56z" fill="#3e392e"/><path d="M-28,146L0,118l16,12z" fill="#52514f"/><path d="M388,281l34,-24l-40,46z" fill="#4d4a49"/><path d="M374,94l-16,12l-30,36z" fill="#5f4748"/><path d="M486,209l2,36l-14,14z" fill="#937969"/><path d="M422,30l-82,96L430,28z" fill="#453334"/><path d="M358,255l-18,36l10,20z" fill="#645d5e"/><path d="M160,237l42,-42l-76,90z" fill="#795142"/><path d="M400,255l-12,-2L362,243z" fill="#70575a"/><path d="M264,136l-20,4l72,-2z" fill="#b8b8ba"/><path d="M54,112l48,54L68,104z" fill="#817f82"/><path d="M154,279l30,28L174,273z" fill="#7c7679"/><path d="M70,108L84,98l16,20z" fill="#353334"/><path d="M248,181l22,2l-44,22z" fill="#bab3b7"/><path d="M426,307l-32,2l20,4z" fill="#29282b"/><path d="M430,181l-56,-8l54,50z" fill="#908b8f"/><path d="M2,349L18,337l48,10z" fill="#716461"/><path d="M142,144l-36,2l36,-20z" fill="#b2afb3"/><path d="M282,295l24,-30l-16,12z" fill="#413f3e"/><path d="M264,170l64,-30l-64,35z" fill="#8b6e67"/><path d="M326,225l-20,56l12,10z" fill="#8d8b8f"/><path d="M186,245l12,-6l-18,10z" fill="#7c5659"/><path d="M76,257l40,-8L76,263z" fill="#735b5e"/><path d="M150,120l60,34l-66,-8z" fill="#938d91"/><path d="M38,18L98,72L80,36z" fill="#d5d7d9"/><path d="M382,289l2,20l-16,2z" fill="#999698"/><path d="M92,279h8l6,-10z" fill="#857375"/><path d="M48,269l-84,24l52,-8z" fill="#81736c"/><path d="M428,269H418L382,241z" fill="#aeacaf"/><path d="M378,213L276,179l58,36z" fill="#8c8b8f"/><path d="M404,241V191l-36,36z" fill="#6e6c71"/><path d="M0,44L52,60l36,8z" fill="#8b8686"/><path d="M386,82L478,20L338,140z" fill="#a19ea2"/><path d="M460,173l12,-17H404z" fill="#a2a2a4"/><path d="M48,140L28,134l26,-2z" fill="#4f4b4b"/><path d="M108,56L120,44l-14,2z" fill="#b3b4b8"/><path d="M66,303l86,-60l-36,38z" fill="#cfcfcd"/><path d="M22,189l22,2l-20,8z" fill="#767375"/><path d="M454,303l30,20V257z" fill="#514e46"/><path d="M40,243l-6,-6v12z" fill="#706d6e"/><path d="M232,166l14,13l-2,-27z" fill="#694f4f"/><path d="M26,34l10,6L22,34z" fill="#777d7f"/><path d="M436,333l16,-4l-14,20z" fill="#a8a9ab"/><path d="M174,116l20,10l-2,-6z" fill="#d7dadd"/><path d="M336,231l10,4L274,219z" fill="#9c918e"/><path d="M112,156l2,-12L98,166z" fill="#565659"/><path d="M324,183l-40,2l76,-15z" fill="#c2c2c3"/><path d="M0,4L56,-24l-2,12z" fill="#5d524a"/><path d="M480,168l-2,2l-4,-6z" fill="#958e90"/><path d="M434,203l60,-2V152z" fill="#44413a"/><path d="M394,299L358,289l2,-16z" fill="#8e898b"/><path d="M376,239l4,28l8,-20z" fill="#c0b9b9"/><path d="M122,181L104,168l20,-4z" fill="#aaa9ac"/><path d="M254,-10L118,58l126,8z" fill="#dbdfe2"/><path d="M312,257L278,207l40,30z" fill="#b4b4b5"/><path d="M452,309l10,2L452,415z" fill="#858687"/><path d="M120,193l-6,20l-4,-24z" fill="#656265"/><path d="M352,168l8,-12l-48,6z" fill="#88888c"/><path d="M110,251l26,-6l-34,12z" fill="#6a5c5b"/><path d="M428,259H412l-18,-4z" fill="#817073"/><path d="M12,116L24,86L2,114z" fill="#888685"/><path d="M286,106l-2,16L258,110z" fill="#bebfc3"/><path d="M110,221L88,249l-18,8z" fill="#c2c2c0"/><path d="M142,269l-26,18l4,8z" fill="#5a3a34"/><path d="M102,205L84,201l-4,-8z" fill="#cac3c4"/><path d="M208,211l20,16l-4,4z" fill="#c9c8cb"/><path d="M128,68L72,66L66,76z" fill="#7b7c7e"/><path d="M-62,154l106,4L-4,239z" fill="#a39fa2"/><path d="M270,211H258l-26,2z" fill="#bfb5b2"/><path d="M52,108L82,94L74,74z" fill="#5c5a59"/><path d="M102,168l10,-8l-10,4z" fill="#646365"/><path d="M352,227l68,24l-28,-4z" fill="#cdd3d3"/><path d="M-24,289L90,245L10,269z" fill="#c7c2c1"/><path d="M100,104L68,134L84,104z" fill="#5f5d5c"/><path d="M438,6L394,50L362,-8z" fill="#d8dcde"/><path d="M58,94L72,88L46,84z" fill="#868384"/><path d="M-90,263L-22,140l42,24z" fill="#bab7b7"/><path d="M378,269h8l24,-4z" fill="#a4a4a7"/><path d="M186,76l72,12L206,68z" fill="#787a7e"/><path d="M10,78L8,42l-108,88z" fill="#9d9b97"/><path d="M78,152L92,128l-4,22z" fill="#898789"/><path d="M230,102l2,22l-30,-4z" fill="#b6b7b6"/><path d="M182,339l4,-6l-10,10z" fill="#827677"/><path d="M632,185L496,287l2,-82z" fill="#8b8787"/><path d="M94,317l38,-22l-20,32z" fill="#b2b0b2"/><path d="M326,239l16,70L320,285z" fill="#a7a8a9"/><path d="M506,0l36,-16l10,48z" fill="#5e5452"/><path d="M366,275l-6,-8l22,-18z" fill="#acabb0"/><path d="M392,313L378,281l16,-8z" fill="#443e3e"/><path d="M460,162l2,-56l8,-34z" fill="#c1c3c8"/><path d="M332,315l-6,-26v26z" fill="#999092"/><path d="M288,211l20,28l-6,24z" fill="#a0a4a7"/><path d="M324,319l8,-6l-12,2z" fill="#7f6e71"/><path d="M506,60V44l8,-4z" fill="#cccdcd"/><path d="M364,-8l16,56L334,38z" fill="#d9dbdd"/><path d="M436,315l32,-14L436,249z" fill="#4c463f"/><path d="M426,231l-16,28l12,-10z" fill="#9a8f92"/><path d="M340,0h2l-2,6z" fill="#523535"/><path d="M376,313l-2,-4l38,-32z" fill="#b0afb3"/><path d="M468,74l-32,6l60,2z" fill="#8a8486"/><path d="M410,72l-18,2l6,-6z" fill="#878185"/><path d="M58,58L48,64H98z" fill="#a4aaae"/><path d="M342,291l20,20l-4,-28z" fill="#4e4648"/><path d="M56,273l-8,4l8,2z" fill="#b4b0ac"/><path d="M242,102l8,-12l18,8z" fill="#704642"/><path d="M238,98L250,46V56z" fill="#b9aaad"/><path d="M42,267H32L76,231z" fill="#bfbeba"/><path d="M86,183L82,170l-14,1z" fill="#88888a"/><path d="M486,263l-2,38l28,14z" fill="#685f5c"/><path d="M266,215l-48,22l58,-16z" fill="#939797"/><path d="M242,168l-40,25l-12,32z" fill="#9e9085"/><path d="M370,225l46,-20l-30,16z" fill="#88868b"/><path d="M10,120l24,26H48z" fill="#605c5d"/><path d="M250,110l6,77L242,170z" fill="#ada19d"/><path d="M462,-46l4,48L444,36z" fill="#dcdad9"/><path d="M22,311L8,341l-36,-2z" fill="#bfc3c4"/><path d="M150,173l30,-13l20,6z" fill="#dcdde1"/><path d="M146,122l10,2l2,-4z" fill="#afafb4"/><path d="M116,243l26,4L86,199z" fill="#c1b8b6"/><path d="M196,211l36,-63l-36,41z" fill="#765653"/><path d="M30,58L20,54L-34,68z" fill="#b6bbbc"/><path d="M138,152l-24,27l68,32z" fill="#c2c3c5"/><path d="M92,-8L86,42L74,18z" fill="#d0d5d7"/><path d="M496,385V327l46,14z" fill="#c0bfc0"/><path d="M78,225L62,259L78,231z" fill="#685957"/><path d="M414,100l-24,22L424,98z" fill="#b9b5b9"/><path d="M442,144l-80,77L338,191z" fill="#a0a0a4"/><path d="M290,273H280l4,-14z" fill="#6f6e70"/><path d="M250,285l-2,16l30,-18z" fill="#807f84"/><path d="M180,96l10,-4l10,6z" fill="#66666b"/><path d="M40,219L10,251l-4,6z" fill="#716f70"/><path d="M374,211l34,-10l-34,4z" fill="#737176"/><path d="M58,243L48,269L60,185z" fill="#b2b4b6"/><path d="M444,171v48L428,183z" fill="#504943"/><path d="M274,301l2,2l16,-34z" fill="#737274"/><path d="M80,158l-2,47L96,150z" fill="#a2a1a3"/><path d="M222,189l30,-19l12,3z" fill="#947672"/><path d="M432,24l8,-8L428,26z" fill="#412e30"/><path d="M252,166l38,-14l-36,10z" fill="#c2ccc2"/><path d="M72,253l-2,36l8,6z" fill="#b3acaa"/><path d="M272,18l-8,-4L268,2z" fill="#b8b3b5"/><path d="M378,140l-30,-8l-16,8z" fill="#bebcc2"/><path d="M64,267l6,18l-10,6z" fill="#7b5c5a"/><path d="M248,160l-4,4l38,-4z" fill="#d4d2d1"/><path d="M308,305H296l4,-36z" fill="#49484b"/><path d="M222,201l46,-2l-30,-2z" fill="#d6d6d9"/><path d="M248,209l14,-6l-48,8z" fill="#745e5d"/><path d="M316,70l36,28L368,68z" fill="#989b9e"/><path d="M284,275L252,249l22,6z" fill="#7c7b7e"/><path d="M314,154l22,-14l4,-10z" fill="#967f7a"/><path d="M44,152L56,130L42,118z" fill="#524e4e"/><path d="M52,199L32,233l4,-2z" fill="#9f9b9c"/><path d="M452,307l-14,14l18,-8z" fill="#575756"/><path d="M100,42L98,62L96,46z" fill="#535356"/><path d="M478,171H468l16,-5z" fill="#786f6f"/><path d="M96,311L46,347L30,341z" fill="#6b5956"/><path d="M120,110l-8,36L138,74z" fill="#a7a4a5"/><path d="M124,187l28,-29l14,2z" fill="#d2d2d5"/><path d="M386,221l38,12l-38,6z" fill="#5e555c"/><path d="M358,289l24,10l-18,2z" fill="#797374"/><path d="M188,305l-16,2h24z" fill="#bbbec4"/><path d="M428,269l6,6l-4,-12z" fill="#8f8a88"/><path d="M274,185l2,-6l8,-6z" fill="#cfc4c4"/><path d="M126,12l-8,18L88,0z" fill="#a4a7a9"/><path d="M280,307l42,4l-22,-2z" fill="#bfc7cb"/><path d="M244,142l-34,57v-4z" fill="#c4b4b3"/><path d="M96,213l10,24L76,201z" fill="#948388"/><path d="M486,195l-4,34l2,-46z" fill="#615852"/><path d="M578,12L492,44L530,22z" fill="#727071"/><path d="M92,305l2,-10l34,22z" fill="#968684"/><path d="M316,38L306,56L284,72z" fill="#978989"/><path d="M316,187l16,-10H294z" fill="#c0c3c2"/><path d="M204,179l-38,4l56,-35z" fill="#c1bbb9"/><path d="M368,225H356l6,-14z" fill="#afaab1"/><path d="M82,199l-8,2l28,4z" fill="#c6bfc1"/><path d="M68,24l6,4L52,22z" fill="#929393"/><path d="M50,164L18,158l34,49z" fill="#a7a6aa"/><path d="M234,120l16,-8l-28,59z" fill="#7a544d"/><path d="M66,227H76l-14,4z" fill="#505151"/><path d="M494,317l10,-10l48,12z" fill="#8c8b88"/><path d="M302,311l-76,50L216,309z" fill="#e2e5e8"/><path d="M314,319l-38,20l12,-6z" fill="#5f5055"/><path d="M252,112l4,-8l-10,32z" fill="#afa79f"/><path d="M456,0L422,42h16z" fill="#dddedf"/><path d="M238,271l2,-8l-4,-10z" fill="#6e6f72"/><path d="M130,120L160,72l38,4z" fill="#8b8d8f"/><path d="M204,273l2,20l16,-48z" fill="#6a6d66"/><path d="M300,301l-6,-18l-6,18z" fill="#30282b"/><path d="M162,251l-52,42l6,-8z" fill="#715a56"/><path d="M510,36L482,52V48z" fill="#736e72"/><path d="M394,177H372l12,4z" fill="#8a898e"/><path d="M264,239l-12,-6h12z" fill="#a1a0a2"/><path d="M88,12l6,6L96,6z" fill="#75797c"/><path d="M264,291l-32,16l-6,-12z" fill="#818186"/><path d="M58,74L92,86L50,64z" fill="#5d5c5b"/><path d="M186,265l12,2H164z" fill="#827176"/><path d="M444,170l-12,-6l24,6z" fill="#b9b6b6"/><path d="M92,116L90,106l12,18z" fill="#3d3a3b"/><path d="M566,-60L462,20L500,6z" fill="#d3d6d4"/><path d="M80,221l26,30L80,213z" fill="#c5c1c0"/><path d="M174,245l12,-2H172z" fill="#9d7a7f"/><path d="M274,201l18,-24l4,10z" fill="#a8959a"/><path d="M96,339l-30,8L86,333z" fill="#dadbe0"/><path d="M482,323l12,-60l-2,84z" fill="#5b5852"/><path d="M170,132l-18,-2H130z" fill="#b6b6b8"/><path d="M540,48l-72,8l38,6z" fill="#aaa9ae"/><path d="M94,265h18l46,-18z" fill="#cecdca"/><path d="M180,94l-24,4l30,4z" fill="#838287"/><path d="M-12,331L2,315H20z" fill="#9b9b9d"/><path d="M166,261l4,-14l40,18z" fill="#cdc9cb"/><path d="M432,307l52,-10V287z" fill="#3d342b"/><path d="M28,201l16,12v-8z" fill="#878384"/><path d="M528,2L462,32L482,20z" fill="#a7a9aa"/><path d="M196,128l-4,2L170,106z" fill="#cbccd1"/><path d="M344,154l-16,17H306z" fill="#b7b7b9"/><path d="M388,317l-6,-4l48,4z" fill="#cdd0d3"/><path d="M176,265l-14,-8l-12,10z" fill="#c9c7c6"/><path d="M38,2L78,32L28,2z" fill="#c4c6c6"/><path d="M318,229l32,6L306,223z" fill="#816e6e"/><path d="M210,265l20,34L214,257z" fill="#878587"/><path d="M276,217l12,22l-14,6z" fill="#7e7a7d"/><path d="M244,142l10,14l20,-8z" fill="#8b8c8d"/><path d="M106,116L102,92l6,10z" fill="#241f1e"/><path d="M420,335l-12,86L398,321z" fill="#dedfe1"/><path d="M484,134l6,18H478z" fill="#878286"/><path d="M126,239l-18,-8l32,20z" fill="#a59c9a"/><path d="M138,231l22,-2l22,-28z" fill="#cccdce"/><path d="M468,235L448,195l12,-14z" fill="#403931"/><path d="M58,273v8H52z" fill="#a49d9a"/><path d="M116,58l50,4l-44,4z" fill="#c7cace"/><path d="M56,0L48,6L66,8z" fill="#a7adad"/><path d="M8,297l22,-4l-76,8z" fill="#645e5c"/><path d="M40,295L30,291l14,4z" fill="#605a5b"/><path d="M262,110l-8,24l12,-32z" fill="#bab1b0"/><path d="M476,112l6,-10l8,2z" fill="#756765"/><path d="M30,179h8l2,-23z" fill="#908c8d"/><path d="M-32,291l-28,18L52,271z" fill="#6b5650"/><path d="M504,42L488,52l16,-2z" fill="#b3b2b5"/><path d="M66,106l10,8L68,94z" fill="#3f3f3f"/><path d="M216,239l-10,4l8,4z" fill="#c2bebe"/><path d="M250,197l36,-2l-34,6z" fill="#d4c8cd"/><path d="M138,106l6,4l32,-6z" fill="#a6a6aa"/><path d="M308,301L298,267l4,-2z" fill="#676566"/><path d="M322,0L290,66L248,88z" fill="#cccdd1"/><path d="M410,80L430,46l-2,20z" fill="#afabaf"/><path d="M98,64l6,6h-4z" fill="#555154"/><path d="M194,253l12,6l-22,-6z" fill="#94999a"/><path d="M216,130l6,6l-44,12z" fill="#8f8d90"/><path d="M18,289l26,-6L34,279z" fill="#c7c5c1"/><path d="M136,12L110,30l12,36z" fill="#c9ced0"/><path d="M498,255l-4,8l64,-50z" fill="#6f6c6c"/><path d="M96,333L76,329H96z" fill="#8c8c92"/><path d="M404,82l16,-2h18z" fill="#bab5b9"/><path d="M204,271l8,4l-10,2z" fill="#595c55"/><path d="M466,52L458,42L534,12z" fill="#b1aeb1"/><path d="M238,76l-8,6l-20,6z" fill="#a0a0a2"/><path d="M88,64L48,30L88,58z" fill="#bfc5c9"/><path d="M354,144l4,6l20,-2z" fill="#868489"/><path d="M114,126l2,-34L130,80z" fill="#817c7c"/><path d="M154,126l26,8l26,-2z" fill="#a1a0a3"/><path d="M316,317l16,-8l-2,-2z" fill="#d5cfd2"/><path d="M438,78l-54,40L398,90z" fill="#939095"/><path d="M164,289l-4,4v-4z" fill="#767474"/><path d="M244,76l12,18L242,84z" fill="#795d5a"/><path d="M306,154h6l24,10z" fill="#908d8d"/><path d="M190,74l-28,2l10,-8z" fill="#707475"/><path d="M342,231l38,24L340,237z" fill="#b9b5b6"/><path d="M60,130l46,24L74,124z" fill="#848080"/><path d="M14,112L-14,96l36,8z" fill="#8d8a88"/><path d="M136,154l30,-6l-56,-4z" fill="#948f93"/><path d="M442,177l-10,86l22,12z" fill="#4b433a"/><path d="M376,251l4,-4l10,4z" fill="#7f6869"/><path d="M388,259l8,4l-6,2z" fill="#5a5659"/><path d="M110,245l-10,-4l-2,4z" fill="#817776"/><path d="M186,303l-14,4l56,-4z" fill="#b8bcc1"/><path d="M332,305l8,6l-8,2z" fill="#b2b2b4"/><path d="M246,116l-6,-6l-14,38z" fill="#764d45"/><path d="M320,156l14,-8l-14,35z" fill="#959093"/><path d="M204,102L142,98H246z" fill="#7b7d80"/><path d="M132,289l2,-8l-10,12z" fill="#6b554e"/><path d="M454,275l-2,-98l14,-7z" fill="#3f3830"/><path d="M16,315l32,-4l-38,4z" fill="#7a7a7c"/><path d="M-44,315L10,229v18z" fill="#acabac"/><path d="M140,146l-8,-10l-20,35z" fill="#9d9b9e"/><path d="M482,179l-4,54l8,-69z" fill="#5b5450"/><path d="M452,118l-20,14l12,4z" fill="#878186"/><path d="M292,243l2,18l-4,4z" fill="#464140"/><path d="M370,92L388,66l12,-4z" fill="#503a3b"/><path d="M390,317l-36,2l-12,-6z" fill="#dcdce2"/><path d="M100,185l14,20L98,199z" fill="#5a5959"/><path d="M330,301l-10,6h18z" fill="#8c8d8f"/><path d="M6,323H-14l42,-4z" fill="#969599"/><path d="M156,215l6,2l-8,-16z" fill="#adacae"/><path d="M358,191l-14,-4H320z" fill="#848084"/><path d="M240,177l8,-43l-12,49z" fill="#85625f"/><path d="M26,20L24,12H16z" fill="#cbcbc9"/><path d="M176,285l-4,-6l2,10z" fill="#656164"/><path d="M154,263l-20,22l10,-6z" fill="#a29693"/><path d="M474,58L440,80l-2,12z" fill="#807a7e"/><path d="M312,319l10,-2l-2,2z" fill="#816c73"/><path d="M216,60l10,4l-12,2z" fill="#c5c9cd"/><path d="M14,42l6,4L-10,12z" fill="#7d716f"/><path d="M210,166l-36,-8l4,-6z" fill="#cbcccf"/><path d="M200,245l-28,4l34,-10z" fill="#744f4f"/><path d="M226,319L198,307l-70,14z" fill="#e0e5e8"/><path d="M348,185l8,-2H346z" fill="#bebdc2"/><path d="M170,245l-4,6l10,-6z" fill="#a58a8b"/><path d="M4,10L-2,6L12,8z" fill="#97938f"/><path d="M350,201l14,-8l-14,2z" fill="#bbbbbf"/><path d="M150,283v2l24,-16z" fill="#ad979f"/><path d="M484,162l-4,2l2,-8z" fill="#2c2625"/><path d="M30,18L82,30L74,26z" fill="#8c8282"/><path d="M362,94l-16,22l-42,32z" fill="#cbbfc0"/><path d="M278,193l74,30H306z" fill="#d7d6da"/><path d="M532,106L476,90l22,2z" fill="#a59d9d"/><path d="M432,251l-12,10h12z" fill="#6b686c"/><path d="M408,144l46,-40l-34,54z" fill="#959094"/><path d="M82,235l-2,8l16,-8z" fill="#797775"/><path d="M40,319l12,-2L22,337z" fill="#a7a6a5"/><path d="M478,120l26,-8h20z" fill="#9d9698"/><path d="M188,253v0H178z" fill="#7b7e7c"/><path d="M84,217l-12,2l26,20z" fill="#b9b4b4"/><path d="M492,136l-8,-6l18,-2z" fill="#9d959a"/><path d="M110,341L78,325l24,14z" fill="#85868a"/><path d="M28,191H16l8,6z" fill="#767477"/><path d="M222,197l-2,8h26z" fill="#bfbdbc"/><path d="M390,295l-28,16l20,-10z" fill="#797476"/><path d="M156,247l-28,24l20,-22z" fill="#aa958f"/><path d="M216,277l14,-18l-18,38z" fill="#6b6e70"/><path d="M474,223l2,50l-4,-18z" fill="#584e44"/><path d="M178,239l-28,14l26,-36z" fill="#815a50"/><path d="M80,158l-14,4L52,154z" fill="#a9a9ad"/><path d="M180,273l4,-10H172z" fill="#a49598"/><path d="M284,223l2,16l6,-10z" fill="#7a7476"/><path d="M486,76H474l16,-6z" fill="#514c4f"/><path d="M180,66L158,62l18,-6z" fill="#ccd0d3"/><path d="M294,221h2L258,203z" fill="#785d5d"/><path d="M432,66h44L512,48z" fill="#b1b2b6"/><path d="M360,237l-18,30l24,-4z" fill="#7c797e"/><path d="M316,273L302,263l24,48z" fill="#808083"/><path d="M254,303l-14,-4l24,-2z" fill="#9a999e"/><path d="M486,247l-10,-4v-4z" fill="#a78876"/><path d="M338,36L326,54L386,16z" fill="#cacdcf"/><path d="M88,40L82,32l4,2z" fill="#9ea5a8"/><path d="M76,215v18L66,221z" fill="#928386"/><path d="M176,275l-56,20h16z" fill="#88807e"/><path d="M198,66h44l2,-4z" fill="#c5cbcd"/><path d="M358,247l24,20l-8,-12z" fill="#89898e"/><path d="M354,215l-12,-6l24,-10z" fill="#858489"/><path d="M2,140l4,18l6,-24z" fill="#9f9697"/><path d="M4,195L2,191l-4,8z" fill="#b7b5b8"/><path d="M76,193l38,-14l-12,-2z" fill="#837f83"/><path d="M310,46L332,12l-10,6z" fill="#a69695"/><path d="M508,315h10v-6z" fill="#4d4b49"/><path d="M344,132l72,4L402,108z" fill="#9e9ba0"/><path d="M20,64L-14,86L12,64z" fill="#847776"/><path d="M498,158l38,15l-16,72z" fill="#938d92"/><path d="M138,177l-24,44l12,10z" fill="#c0c3c7"/><path d="M328,40l4,-4L310,64z" fill="#897a7a"/><path d="M234,150l14,-24l-2,12z" fill="#c4b7b6"/><path d="M266,100l-6,8l-8,16z" fill="#7f696c"/><path d="M160,311l10,-8l-26,2z" fill="#d8dae0"/><path d="M318,271V251h4z" fill="#5e595a"/><path d="M334,152l4,-8l-16,8z" fill="#7d8386"/><path d="M62,229l2,-2l4,4z" fill="#505151"/><path d="M452,170l-10,1l16,-3z" fill="#b4b1b0"/><path d="M42,253l4,8l-8,-4z" fill="#bdbabe"/><path d="M356,201l-16,4l10,4z" fill="#a09fa4"/><path d="M182,303l4,-4l-16,10z" fill="#b0b3ba"/><path d="M196,303l22,-16v10z" fill="#635e5f"/><path d="M62,299L22,333L52,299z" fill="#c5c2c6"/><path d="M456,449L504,321v8z" fill="#d0d0d3"/><path d="M256,257l10,12l-44,12z" fill="#a0a1a5"/><path d="M70,285l10,2l22,-20z" fill="#a8a0a3"/><path d="M522,219l-20,6l-8,6z" fill="#7b7173"/><path d="M288,-10L268,-56V6z" fill="#d6d1d6"/><path d="M38,319l4,16H34z" fill="#8e827f"/><path d="M72,54H68H78z" fill="#838486"/><path d="M120,329L76,327l26,-10z" fill="#c2c6cb"/><path d="M456,130l8,6H452z" fill="#b6b8bd"/><path d="M218,219l16,-2l-30,2z" fill="#a8a1a3"/><path d="M292,170l-8,5l2,-7z" fill="#d9d4ce"/><path d="M248,170l26,-10l-28,8z" fill="#c6ccc8"/><path d="M36,18l-4,4L42,18z" fill="#938988"/><path d="M418,116l-10,8l14,-22z" fill="#878589"/><path d="M168,197v24l24,-26z" fill="#c8cccd"/><path d="M102,128l6,12l2,-20z" fill="#5e5958"/><path d="M118,303l14,-4l-2,22z" fill="#c3c5c8"/><path d="M212,207l-4,2l-10,12z" fill="#73514c"/><path d="M326,102l-12,20L306,72z" fill="#aaaaaa"/><path d="M144,281l20,-12h8z" fill="#6d5155"/><path d="M378,86h-2l-20,26z" fill="#341a1a"/><path d="M78,179l12,-6l-8,-2z" fill="#8b8b8d"/><path d="M74,116L80,96l-2,18z" fill="#3a3937"/><path d="M418,40L526,-104L440,14z" fill="#352021"/><path d="M46,32L36,20l6,28z" fill="#a0a1a1"/><path d="M472,62l4,-8L458,66z" fill="#8a8a8d"/><path d="M378,221v6l10,-6z" fill="#89898d"/><path d="M434,309V293l-8,20z" fill="#6b6663"/><path d="M306,251l-32,42l38,-54z" fill="#a7a9ac"/><path d="M324,299l-2,-2l22,-48z" fill="#a4a1a7"/><path d="M148,247l38,-38l14,-4z" fill="#7f6156"/><path d="M472,74l10,-6l-20,2z" fill="#7d797e"/><path d="M10,299l-44,2H2z" fill="#cac5c5"/><path d="M214,68l-8,2l-8,-2z" fill="#989da1"/><path d="M484,267l-46,50l-2,-12z" fill="#444037"/><path d="M350,102L384,70l6,-8z" fill="#b9a1a1"/><path d="M324,62L310,84l-38,22z" fill="#8e8e91"/><path d="M158,70L128,66h48z" fill="#aeb2b6"/><path d="M310,60L352,-4L294,80z" fill="#3a1a1d"/><path d="M298,76L284,86V80z" fill="#502e33"/><path d="M120,313l-2,2h2z" fill="#635558"/><path d="M6,-10L38,18L20,4z" fill="#7e7874"/><path d="M102,46l12,4L106,40z" fill="#b1b1b5"/><path d="M344,219l12,-2l-16,-6z" fill="#7d7c81"/><path d="M292,225L274,211l4,6z" fill="#baafb0"/><path d="M240,173l2,2l-10,-7z" fill="#735a59"/><path d="M408,289l-14,20l18,-4z" fill="#1e1b1d"/><path d="M272,341l-6,4l10,-6z" fill="#534244"/><path d="M214,215l14,10l8,-8z" fill="#adaaad"/><path d="M18,223l-8,4H28z" fill="#8a8788"/><path d="M308,98l2,26l-16,-2z" fill="#909092"/><path d="M100,225l-2,8h10z" fill="#9e9595"/><path d="M52,142l-2,4l30,-6z" fill="#747274"/><path d="M470,311l-4,-60l-8,50z" fill="#413b32"/><path d="M294,181l24,14l2,12z" fill="#a39ea1"/><path d="M428,189h-4l10,-18z" fill="#736e6c"/><path d="M294,205v2l-10,-6z" fill="#aaabae"/><path d="M316,58l-4,8l2,-4z" fill="#b3a8a7"/><path d="M378,68l-8,8L328,68z" fill="#929598"/><path d="M268,152l34,-12l10,-6z" fill="#a3a6a9"/><path d="M62,130L20,120V86z" fill="#686465"/><path d="M474,48L446,44l-14,2z" fill="#ababad"/><path d="M52,118H44l14,-2z" fill="#7b7978"/><path d="M26,166L54,152l-6,6z" fill="#a19da1"/><path d="M52,40L62,38L48,36z" fill="#a7aaab"/><path d="M354,60l-38,6L384,40z" fill="#c2c4c8"/><path d="M114,70L76,92L16,110z" fill="#706f6f"/><path d="M200,205l-24,32l40,-44z" fill="#a8998e"/><path d="M180,189l-6,2V181z" fill="#a7a8ac"/><path d="M332,58l28,-6l-10,8z" fill="#cfd0d2"/><path d="M276,299h-6l6,6z" fill="#7c7d80"/><path d="M420,239l-2,-46l-2,16z" fill="#656365"/><path d="M166,152l-42,4l42,-10z" fill="#a5a2a5"/><path d="M228,92l10,-8V94z" fill="#a3a2a4"/><path d="M394,140l-10,6l20,4z" fill="#959396"/><path d="M482,38L516,18L478,52z" fill="#a5a3a4"/><path d="M28,331l-8,4l-2,-4z" fill="#a9a4a1"/><path d="M292,239L282,223l10,20z" fill="#656265"/><path d="M162,211l-6,-8l2,14z" fill="#a2a0a1"/><path d="M58,241l-2,22L70,239z" fill="#a3a2a3"/><path d="M236,110l-58,14L168,104z" fill="#c3c8cb"/><path d="M84,285H78v-2z" fill="#848083"/><path d="M310,301l6,-18l8,-36z" fill="#807e81"/><path d="M58,313l-18,6L56,293z" fill="#d2d2d1"/><path d="M322,227L290,213l20,10z" fill="#d0bec0"/><path d="M34,257H28l14,-4z" fill="#b4b2b5"/><path d="M288,247l-2,24l6,-6z" fill="#332f2f"/><path d="M114,285L98,309L80,323z" fill="#877b7b"/><path d="M92,171l22,-7L86,183z" fill="#a5a3a6"/><path d="M62,325L88,303l8,-4z" fill="#857976"/><path d="M238,255v-6l12,2z" fill="#7a7677"/><path d="M214,156l20,-48v12z" fill="#aeb2af"/><path d="M334,44l4,-18l10,6z" fill="#cacfce"/><path d="M150,68L136,88l12,6z" fill="#807c7e"/><path d="M410,271h-4v4z" fill="#27252a"/><path d="M142,134H122l-14,12z" fill="#9f9c9f"/><path d="M426,321l-66,-8l74,12z" fill="#dbdcde"/><path d="M222,140l-20,22l6,-4z" fill="#a6a6ac"/><path d="M32,243l8,2l-8,-6z" fill="#6b696a"/><path d="M454,311l-18,12h4z" fill="#656668"/><path d="M158,235l-16,22l6,-10z" fill="#beada9"/><path d="M108,265l6,2L96,285z" fill="#b5b1b1"/><path d="M246,82L236,78h10z" fill="#777373"/><path d="M32,299l-4,-4l4,-2z" fill="#bdbcbf"/><path d="M136,66v6l4,-6z" fill="#babcc0"/><path d="M156,245l-4,4l4,-8z" fill="#96786f"/><path d="M434,38h-8L442,16z" fill="#cdcfcf"/><path d="M20,285l28,-4l-38,8z" fill="#cac0bb"/><path d="M406,313h36H396z" fill="#85878b"/><path d="M342,76L318,66l-10,8z" fill="#a4a4a4"/><path d="M206,58l36,-4l6,10z" fill="#ccd4d6"/><path d="M406,223l-12,6l16,-14z" fill="#534f53"/><path d="M414,38L404,36l18,-4z" fill="#b8b0b0"/><path d="M44,333l6,-2H34z" fill="#978a85"/><path d="M272,110l12,4l-16,4z" fill="#c5ccce"/><path d="M190,299l8,-8l-8,6z" fill="#666768"/><path d="M298,168l-6,-6l40,-6z" fill="#9b9492"/><path d="M90,64L82,60L94,48z" fill="#c2c7ca"/><path d="M128,257H118l12,-6z" fill="#b4b3b3"/><path d="M522,301l-16,32l48,-62z" fill="#a0a09e"/><path d="M366,144h-6l-2,6z" fill="#807e83"/><path d="M206,249l-6,6l-2,-10z" fill="#939094"/><path d="M256,120l6,-20l-24,66z" fill="#775d5f"/><path d="M50,265l12,2l-4,-2z" fill="#9c8c8f"/><path d="M392,88l10,-6L372,98z" fill="#b3b2b7"/><path d="M32,56L66,52l-8,2z" fill="#aaa4a5"/><path d="M464,152l12,-20l-24,14z" fill="#999aa1"/><path d="M190,237H180l8,-6z" fill="#cdccc6"/><path d="M166,104l24,6H158z" fill="#c3c8cb"/><path d="M482,339v6l-10,-8z" fill="#807e7a"/><path d="M410,106h-8l6,-4z" fill="#b9b7bc"/><path d="M220,152l-8,8l8,-14z" fill="#c8c0bd"/><path d="M250,217l32,-2l-24,-6z" fill="#b3aaa9"/><path d="M268,102l28,6l-30,-2z" fill="#b1a6a7"/><path d="M272,207l38,18L282,205z" fill="#c0bcb8"/><path d="M180,70l-26,2h54z" fill="#596265"/><path d="M112,152l-10,6l8,-10z" fill="#39383c"/><path d="M344,307l8,2L342,299z" fill="#5f5a5b"/><path d="M102,148l-2,-8l-2,4z" fill="#605e60"/><path d="M422,253l-6,6h10z" fill="#636064"/><path d="M40,289l-10,2H22z" fill="#706664"/><path d="M74,329l10,-8l4,4z" fill="#a89c9c"/><path d="M426,271v2l-10,2z" fill="#524f53"/><path d="M54,295H48l14,-2z" fill="#9b9da0"/><path d="M368,237L340,219l54,26z" fill="#d2d9da"/><path d="M268,88L314,48L286,76z" fill="#837173"/><path d="M98,249l-2,6l18,2z" fill="#746566"/><path d="M396,120l-8,-4l4,-2z" fill="#87858a"/><path d="M42,108l4,4L60,102z" fill="#4f4b4a"/><path d="M36,34l2,8L30,40z" fill="#8c8f90"/><path d="M182,293l-12,6v-8z" fill="#706a6c"/><path d="M50,78L22,72l6,34z" fill="#7a7574"/><path d="M14,88H4L18,80z" fill="#6c6565"/><path d="M150,311H138h2z" fill="#a4a5a7"/><path d="M296,144l-4,2h-4z" fill="#9ea4ab"/><path d="M192,325v4H182z" fill="#b8b3b9"/><path d="M318,277v-6v12z" fill="#626367"/><path d="M366,313l12,-2H362z" fill="#b2b1b6"/><path d="M48,74L58,72L52,68z" fill="#605d5e"/><path d="M166,329l-10,24l2,-22z" fill="#b1abae"/><path d="M-10,156l36,8l-6,-4z" fill="#bfbfc0"/><path d="M202,301l-8,-4l20,2z" fill="#4a494d"/><path d="M490,24L476,2l44,18z" fill="#c7c9c9"/><path d="M66,261l2,-16l-4,18z" fill="#8d8282"/><path d="M192,146l-28,-2l16,8z" fill="#9d999c"/><path d="M460,66l-6,2l32,8z" fill="#6c696c"/><path d="M386,168l22,-24l-8,26z" fill="#b0aeb1"/><path d="M6,106v6L-32,94z" fill="#b0afad"/><path d="M110,315l-2,-8L98,305z" fill="#9f999a"/><path d="M122,66l-12,2l14,-4z" fill="#9a9ea2"/><path d="M6,313l14,6H6z" fill="#b8b8ba"/><path d="M242,379l98,-70l60,94z" fill="#dedee5"/><path d="M512,297l22,-24l-38,32z" fill="#877f7f"/><path d="M374,82l2,-16L386,54z" fill="#b5b4b7"/><path d="M20,150h8v-8z" fill="#6f6a6b"/><path d="M258,191l10,-18l-2,30z" fill="#aaa8a7"/><path d="M196,189l20,-10l-16,4z" fill="#6d4e46"/><path d="M94,110v-6l8,12z" fill="#5a5859"/><path d="M146,283L94,311l40,-18z" fill="#99908e"/><path d="M186,130l10,-8l-12,-2z" fill="#d2d6d9"/><path d="M78,271l4,4l64,-26z" fill="#d2cacc"/><path d="M508,68l6,4l-12,2z" fill="#6c686b"/><path d="M496,10l-10,4L484,2z" fill="#cfd3d2"/><path d="M248,70v2L232,82z" fill="#897f81"/><path d="M300,154l30,-16l8,-6z" fill="#91726a"/><path d="M392,305l4,-8l4,12z" fill="#262121"/><path d="M56,219L50,191l24,-6z" fill="#a9a7aa"/><path d="M186,329l-4,4l4,2z" fill="#8a8185"/><path d="M274,92h4l10,-8z" fill="#5e4042"/><path d="M28,166L-6,162l30,13z" fill="#b4b1b2"/><path d="M154,337L128,311l32,16z" fill="#d4d4da"/><path d="M88,82H76L90,76z" fill="#585757"/><path d="M380,313l4,-20v20z" fill="#999698"/><path d="M290,199l4,-16l-6,18z" fill="#989999"/><path d="M110,253h-6l16,-6z" fill="#5f4f4d"/><path d="M286,247v6l-4,-30z" fill="#7e7d80"/><path d="M156,68l16,28L154,88z" fill="#817e80"/><path d="M124,2L112,24L102,34z" fill="#a0a4a7"/><path d="M464,171h2l6,-3z" fill="#8b8987"/><path d="M46,158l2,-6l-10,6z" fill="#898387"/><path d="M228,191l2,8l-8,-4z" fill="#8a7d7d"/><path d="M444,321l6,-6l2,18z" fill="#858588"/><path d="M122,30l20,-44L112,28z" fill="#b6b8b9"/><path d="M238,269l-2,4l6,32z" fill="#828387"/><path d="M340,233l18,2l30,14z" fill="#b1a8a4"/><path d="M450,181l-4,-8l-16,2z" fill="#544f4a"/><path d="M498,175v18l70,-57z" fill="#938d93"/><path d="M126,168l-30,5l14,-7z" fill="#b5b4b6"/><path d="M20,245L0,265L24,237z" fill="#7b706d"/><path d="M94,68l8,6H60z" fill="#6b6c6d"/><path d="M88,217L60,181l24,38z" fill="#b5b1b0"/><path d="M220,116l-8,-14l-16,28z" fill="#aeb0b4"/><path d="M58,313L96,285l10,2z" fill="#cdcdcf"/><path d="M204,241h-8l4,6z" fill="#6c4545"/><path d="M506,265l-10,26l12,-4z" fill="#807b79"/><path d="M452,94l-6,8h16z" fill="#a2a1a6"/><path d="M504,100L462,82l22,2z" fill="#979193"/><path d="M450,0h2L440,-4z" fill="#3c2b2f"/><path d="M452,331l6,-10l6,30z" fill="#7b7c7d"/><path d="M112,247l16,-2l-10,2z" fill="#726562"/><path d="M340,54l22,6l-12,2z" fill="#d3d3d5"/><path d="M434,263l-6,-2l2,6z" fill="#908c8a"/><path d="M276,201l-18,2l-32,4z" fill="#b29f9e"/><path d="M306,257l6,6l6,-24z" fill="#a1a2a5"/><path d="M64,108l-6,4l12,4z" fill="#8f8e91"/><path d="M478,156h12l-14,8z" fill="#333030"/><path d="M196,285H186l14,-10z" fill="#b0adb5"/><path d="M346,185l-46,10l36,-12z" fill="#8c8a8d"/><path d="M166,118l-6,-14l-12,16z" fill="#bbbcc0"/><path d="M184,245l-10,2l20,-2z" fill="#5e3940"/><path d="M62,148L40,164L70,148z" fill="#aaa9ad"/><path d="M368,283l4,-8v32z" fill="#847f83"/><path d="M180,265l-22,30l-8,2z" fill="#86868b"/><path d="M398,10l14,-30h24z" fill="#cdced0"/><path d="M286,120H262l20,2z" fill="#a8a3a7"/><path d="M280,136h12l14,-4z" fill="#c4c2c3"/><path d="M398,164H366l20,-6z" fill="#9e9da2"/><path d="M424,221l8,6H414z" fill="#706c70"/><path d="M386,193l-10,22l2,10z" fill="#7d7b80"/><path d="M224,209l-8,4v-6z" fill="#635254"/><path d="M322,24L316,8H288z" fill="#cccdcf"/><path d="M282,171l4,-5l-24,11z" fill="#ae9e9c"/><path d="M380,299l-12,-2l-2,6z" fill="#6c6666"/><path d="M334,225l-2,6l-10,-6z" fill="#c4b9b9"/><path d="M362,162l-2,6l8,-6z" fill="#b2b1b6"/><path d="M270,120h14l-6,-4z" fill="#b2afb4"/><path d="M326,104L354,86l-10,20z" fill="#8a8a8b"/><path d="M356,116l-8,6L362,98z" fill="#462d30"/><path d="M134,60l-8,6l-4,-6z" fill="#cdd2d5"/><path d="M18,110v6H8z" fill="#7b7776"/><path d="M354,219l16,4l-4,6z" fill="#b1aab1"/><path d="M416,253h-2v6z" fill="#bfb6b8"/><path d="M232,201h2l-2,-8z" fill="#d2cbcf"/><path d="M146,120l8,8l-8,-14z" fill="#9f9ea2"/><path d="M262,303l10,2l2,-8z" fill="#8e8e92"/><path d="M86,323l10,-6l-6,2z" fill="#bcc0c4"/><path d="M252,84l2,-6l-2,6z" fill="#a88d8e"/><path d="M112,98L100,94l8,12z" fill="#302b2a"/><path d="M126,285l26,-28l-20,26z" fill="#69453c"/><path d="M96,0L84,2l42,-24z" fill="#afb3b6"/><path d="M60,255l-4,4H36z" fill="#c7c5c4"/><path d="M124,132l-14,10l16,-4z" fill="#908e91"/><path d="M246,253l20,4l-8,-14z" fill="#858387"/><path d="M34,16H26l4,6z" fill="#bcb9b8"/><path d="M188,100l-4,-6l10,6z" fill="#626267"/><path d="M56,78L46,82L58,92z" fill="#898384"/><path d="M414,181l18,-8l-18,2z" fill="#8b888d"/><path d="M426,335L414,317l20,2z" fill="#d7d9dc"/><path d="M124,347l24,-12l-6,20z" fill="#9e989a"/><path d="M270,160l-26,8l2,-8z" fill="#d0d1cf"/><path d="M78,162l-28,2l20,2z" fill="#cbcbce"/><path d="M454,88L444,82l34,6z" fill="#aaa4a9"/><path d="M430,80l8,-6l-6,12z" fill="#aea9ad"/><path d="M-8,158l6,2l22,10z" fill="#9f999a"/><path d="M16,323H6H20z" fill="#a1a1a3"/><path d="M46,277l10,4H34z" fill="#c6c3bf"/><path d="M414,281l8,8H402z" fill="#3a3839"/><path d="M116,307l4,-8l-8,4z" fill="#cbc2c5"/><path d="M56,68L72,92L64,68z" fill="#555555"/><path d="M420,233l12,-2l-16,22z" fill="#8b868c"/><path d="M370,2l10,-44L360,2z" fill="#cbccce"/><path d="M272,164v-6l58,-28z" fill="#cecccc"/><path d="M104,72v8L68,76z" fill="#686463"/><path d="M396,223l10,-4l-16,6z" fill="#5d5d5f"/><path d="M458,108l-10,18L430,94z" fill="#948e92"/><path d="M214,251l-10,-6l8,8z" fill="#a8a6a9"/><path d="M42,247L20,245l10,4z" fill="#8e8a8b"/><path d="M348,2V8l2,-6z" fill="#90787a"/><path d="M68,64l-4,2H74z" fill="#a0a1a5"/><path d="M446,315h-2l-24,-8z" fill="#4f4c45"/><path d="M446,92l-36,4l-10,8z" fill="#a2a0a5"/><path d="M504,150l74,-20l-84,14z" fill="#73676e"/><path d="M480,18h10l-18,6z" fill="#a6a8aa"/><path d="M212,90l-14,4L210,84z" fill="#a5a5a7"/><path d="M238,219l12,36L230,227z" fill="#8d888a"/><path d="M86,134l6,-8L76,136z" fill="#8d8989"/><path d="M522,92L500,78l-8,-2z" fill="#989394"/><path d="M236,301V287l-8,14z" fill="#69686d"/><path d="M410,315l-98,-6l82,6z" fill="#c5c4c8"/><path d="M228,70v4l-8,-4z" fill="#818588"/><path d="M152,70l22,28L140,72z" fill="#838385"/><path d="M20,66H-14L2,70z" fill="#9b8f8d"/><path d="M88,170l20,-24l10,-14z" fill="#b0b0b2"/><path d="M216,235l14,-8l-26,10z" fill="#baa5a9"/><path d="M208,70l-16,4h22z" fill="#6a6e71"/><path d="M52,56L46,66L62,56z" fill="#9f9e9c"/><path d="M198,102L226,86l18,16z" fill="#8a898d"/><path d="M108,247l-6,2l10,-4z" fill="#c0b4b3"/><path d="M386,36l72,-54L408,36z" fill="#dddbde"/><path d="M374,90V82l-8,8z" fill="#725356"/><path d="M414,70V62l8,6z" fill="#9b9397"/><path d="M382,281l8,8l-2,-6z" fill="#29282a"/><path d="M70,199l24,14L68,203z" fill="#7c7b7a"/><path d="M124,132h40H142z" fill="#b0aeb1"/><path d="M68,333l2,-6v6z" fill="#6a5c5b"/><path d="M178,279l4,-8v28z" fill="#888889"/><path d="M254,104v-4l-10,24z" fill="#816059"/><path d="M186,106l-22,-4l32,2z" fill="#a5aaad"/><path d="M402,311l24,-2l-2,-6z" fill="#1e1f22"/><path d="M454,142l-2,6l-14,-8z" fill="#89878c"/><path d="M0,26L-12,24l4,-2z" fill="#645a59"/><path d="M58,287l8,16l2,-12z" fill="#7c696b"/><path d="M90,162v-6h6z" fill="#858587"/><path d="M8,183l8,6L0,183z" fill="#a9aaab"/><path d="M176,88h6l-4,4z" fill="#77777b"/><path d="M90,255l10,-8l-16,8z" fill="#736262"/><path d="M118,207V181l14,6z" fill="#b4b4b6"/><path d="M188,170l-32,17l20,-16z" fill="#cccdd1"/><path d="M94,221l2,6l4,-4z" fill="#635f5c"/><path d="M170,267l2,-2l-8,4z" fill="#524242"/><path d="M446,299L424,281l2,-4z" fill="#4a4648"/><path d="M352,267l-4,12l-8,-4z" fill="#8e8889"/><path d="M182,329l-36,36l22,-32z" fill="#d7d6d9"/><path d="M2,140H-6l2,4z" fill="#c0b4b6"/><path d="M64,299l2,-34l2,6z" fill="#654a4b"/><path d="M410,193l10,-18l8,8z" fill="#9b989b"/><path d="M160,253l10,-20l-30,40z" fill="#784c44"/><path d="M438,301L418,275l-8,14z" fill="#3f3c40"/><path d="M126,181l-2,14l32,-2z" fill="#bcbdbf"/><path d="M70,213l6,8V207z" fill="#7c656a"/><path d="M368,243v0l-10,-2z" fill="#856f72"/><path d="M116,170l2,27v-4z" fill="#918d91"/><path d="M474,0L464,8l16,-36z" fill="#ced4d0"/><path d="M364,48l2,2L326,46z" fill="#abacae"/><path d="M302,301l-6,4h-4z" fill="#2f3033"/><path d="M188,207l2,-4l-8,10z" fill="#8e7970"/><path d="M44,287v-2l-16,6z" fill="#735a5d"/><path d="M76,269l8,12h8z" fill="#cdcacb"/><path d="M286,106l-2,6l14,-8z" fill="#b2b2b4"/><path d="M354,277l6,-10v16z" fill="#7b777c"/><path d="M104,199l10,-4H102z" fill="#524f51"/><path d="M128,134H118l4,-4z" fill="#adabae"/><path d="M298,245h16v16z" fill="#aaacb0"/><path d="M270,265l-14,16l20,6z" fill="#919297"/><path d="M208,215l8,-2l-10,10z" fill="#aa9c9e"/><path d="M54,44l2,4L24,46z" fill="#c3c1c2"/><path d="M260,170l-10,5l16,-4z" fill="#937569"/><path d="M498,233l-2,8v6z" fill="#7c7a7c"/><path d="M4,134l-6,6V116z" fill="#4d4646"/><path d="M208,239h8h4z" fill="#8a656d"/><path d="M372,94l-8,4l2,-8z" fill="#593b3a"/><path d="M48,187L92,152L70,164z" fill="#b6b6b8"/><path d="M126,319l2,-12l14,28z" fill="#c4c4c4"/><path d="M30,34v4l6,2z" fill="#767b7d"/><path d="M118,106l-16,28v-8z" fill="#544e4d"/><path d="M90,46l6,18L66,30z" fill="#d4d9dc"/><path d="M402,283l-6,-2l18,-2z" fill="#867f82"/><path d="M320,231l-12,-2l2,6z" fill="#c5bbbb"/><path d="M56,299v-4l4,10z" fill="#caccd0"/><path d="M126,305l2,-4l32,2z" fill="#d3d7da"/><path d="M248,148v-6l6,-16z" fill="#7c5459"/><path d="M144,60l2,2l18,-4z" fill="#ced2d5"/><path d="M422,166l52,-22l-4,22z" fill="#9aa0a3"/><path d="M416,26L342,46l-8,-6z" fill="#d4d4d6"/><path d="M392,237h10v-4z" fill="#686469"/><path d="M64,317l-6,2l2,-10z" fill="#847776"/><path d="M476,323v24l-8,-26z" fill="#7a7975"/><path d="M82,128l8,-28L74,122z" fill="#666261"/><path d="M160,126l20,2l-22,2z" fill="#adadaf"/><path d="M96,259l10,-2l-10,4z" fill="#9e9c9a"/><path d="M486,199l2,60h-2z" fill="#7c6e61"/><path d="M422,66L400,80l-18,4z" fill="#9b9698"/><path d="M352,126l2,8l10,-2z" fill="#939196"/><path d="M474,211l10,-36l-18,18z" fill="#524b41"/><path d="M2,267v-4L-8,275z" fill="#6f6765"/><path d="M150,128H138h22z" fill="#929294"/><path d="M178,237v2l-10,6z" fill="#a78b84"/><path d="M310,227L274,213l20,6z" fill="#9d8b8c"/><path d="M356,257l-4,-2l8,40z" fill="#645e62"/><path d="M8,76L0,82l-62,26z" fill="#c2bdba"/><path d="M6,315l2,2l10,-4z" fill="#989899"/><path d="M342,136l42,2l-2,4z" fill="#c2c0c3"/><path d="M282,156l4,2h-4z" fill="#bbbbbd"/><path d="M430,213l-2,-4l2,10z" fill="#999394"/><path d="M488,152l8,2l-4,-6z" fill="#857f83"/><path d="M484,171l-42,2l32,-2z" fill="#5e5554"/><path d="M30,297l8,-6l-18,6z" fill="#aaa2a2"/><path d="M46,259H56l-14,8z" fill="#bcbdbb"/><path d="M144,152l-8,8l16,-4z" fill="#aeaeb0"/><path d="M448,68l-4,-2l10,2z" fill="#a1a2a4"/><path d="M518,168H504l4,-6z" fill="#8c8387"/><path d="M412,223l14,-16l-6,12z" fill="#807d82"/><path d="M200,259h10l-28,4z" fill="#cbc9ce"/><path d="M194,191l-18,12l18,-39z" fill="#bcbec3"/><path d="M14,261L4,267l10,-2z" fill="#8f8b88"/><path d="M476,46L466,42l10,-4z" fill="#bdbdbf"/><path d="M88,104L72,100L84,98z" fill="#474645"/><path d="M478,74l-10,4l10,2z" fill="#6d676a"/><path d="M472,24L438,38L494,-6z" fill="#cdcdd0"/><path d="M96,100l-6,2L80,86z" fill="#858283"/><path d="M372,221v4l-12,-2z" fill="#aaa2aa"/><path d="M384,275l4,-8l-8,-4z" fill="#9f9ea2"/><path d="M276,138H256l-2,-4z" fill="#c0bfc0"/><path d="M344,181l48,-55l-22,32z" fill="#b4b2b7"/><path d="M378,285l8,-6L376,269z" fill="#645c5c"/><path d="M482,120L472,106l6,-14z" fill="#948c8e"/><path d="M118,217l-2,2l-8,-14z" fill="#969a9b"/><path d="M320,195l10,8l-6,-12z" fill="#858083"/><path d="M462,140l-8,22l16,-4z" fill="#a3a6ac"/><path d="M326,239l2,-4l12,62z" fill="#a39a9a"/><path d="M128,164l20,4l20,-4z" fill="#dedfe1"/><path d="M478,26L444,52L490,20z" fill="#b2b2b4"/><path d="M194,116l8,-2l10,4z" fill="#bdc0c3"/><path d="M394,265l2,-4l-10,-4z" fill="#525053"/><path d="M262,88h-8h10z" fill="#aca19f"/><path d="M390,173l-32,16l14,-14z" fill="#8b8a8f"/><path d="M232,237l-10,18l8,4z" fill="#97989c"/><path d="M280,36L254,76L292,36z" fill="#c8cacb"/><path d="M260,44h-4l-6,34z" fill="#43292c"/><path d="M212,293H202l6,-6z" fill="#645f5f"/><path d="M-6,351l4,-2L20,331z" fill="#afaaa9"/><path d="M416,54l-8,2l8,4z" fill="#bebbba"/><path d="M82,191v4l18,-8z" fill="#707075"/><path d="M68,183l8,-8l-6,8z" fill="#8f8f91"/><path d="M380,58l10,-2L368,84z" fill="#b3b1b5"/><path d="M374,283h-6l12,4z" fill="#756e70"/><path d="M58,120L64,88L50,122z" fill="#797776"/><path d="M114,239l-10,-4l10,2z" fill="#c5bab9"/><path d="M336,84l22,-2L340,76z" fill="#a3a3a5"/><path d="M158,0L142,22L126,10z" fill="#cdd1d4"/><path d="M36,197H24l14,-2z" fill="#737072"/><path d="M442,82l-4,2v4z" fill="#6f696d"/><path d="M328,303v-6l6,4z" fill="#858487"/><path d="M422,122l-50,6l40,16z" fill="#a9a5a9"/><path d="M118,173l-6,6l-2,-9z" fill="#949094"/><path d="M230,203l10,2l-20,2z" fill="#c2bbbb"/><path d="M90,325l-6,-2l8,6z" fill="#bbbabe"/><path d="M90,24V14L70,-66z" fill="#caced1"/><path d="M436,321l10,-6l-8,12z" fill="#5a5a5a"/><path d="M74,148L92,128L78,154z" fill="#878588"/><path d="M420,213l-10,4l6,-12z" fill="#676568"/><path d="M290,177v-4l-14,16z" fill="#8e7b7c"/><path d="M216,152l-50,-2l40,4z" fill="#9d9ea2"/><path d="M390,112l-34,10l2,-6z" fill="#b4afb7"/><path d="M500,203l6,-6l-6,12z" fill="#a5a0a4"/><path d="M378,86l4,-8L370,90z" fill="#402424"/><path d="M32,215v0L20,207z" fill="#828083"/><path d="M6,52L16,50L-8,36z" fill="#958f8d"/><path d="M460,171h-4h4z" fill="#888682"/><path d="M304,201l-10,-2l6,6z" fill="#d8d5da"/><path d="M402,219l8,-6l-12,2z" fill="#79777c"/><path d="M174,311l-20,2l-4,6z" fill="#e2e5e8"/><path d="M30,146l16,4L26,148z" fill="#655f61"/><path d="M338,209v4l4,4z" fill="#807f84"/><path d="M320,20L308,48L318,30z" fill="#b2afb0"/><path d="M240,106L264,92l4,-4z" fill="#7a5b5d"/><path d="M260,158h-6l2,-4z" fill="#808586"/><path d="M26,337H16l14,-8z" fill="#a29b97"/><path d="M248,86l2,-6l2,10z" fill="#604442"/><path d="M334,160l-36,8l-2,-2z" fill="#9d9fa0"/><path d="M234,285l-2,4l6,-10z" fill="#757479"/><path d="M82,205l10,8l-4,-4z" fill="#6c5b5e"/><path d="M284,181h-4l14,4z" fill="#ae989c"/><path d="M402,46H390l8,-4z" fill="#cdccce"/><path d="M202,156l2,8l8,-10z" fill="#a6a7ac"/><path d="M498,319l-10,4l-2,-16z" fill="#6d6b64"/><path d="M268,267L256,255l-4,18z" fill="#97989c"/><path d="M114,54l6,-4l2,-24z" fill="#c0c4c7"/><path d="M298,130l10,-2H294z" fill="#a29ca5"/><path d="M236,175l-10,18l8,-10z" fill="#81645f"/><path d="M110,114l-8,6l10,-14z" fill="#35302f"/><path d="M340,46l22,8L332,48z" fill="#bec0c2"/><path d="M314,136l12,-14l22,-12z" fill="#b7b2b3"/><path d="M256,90h2h2z" fill="#a39796"/><path d="M196,305l12,-2H190z" fill="#aaabb0"/><path d="M386,255l-6,6l-2,-4z" fill="#cecbd0"/><path d="M170,181h10l-14,8z" fill="#aaabaf"/><path d="M86,195l30,14L94,193z" fill="#66686d"/><path d="M216,106l26,-4l-44,2z" fill="#969598"/><path d="M52,245l-6,-4l18,4z" fill="#acadaf"/><path d="M202,249l-16,-2l26,4z" fill="#aea8ab"/><path d="M310,94l-20,6L316,70z" fill="#99989c"/><path d="M76,128l16,14L66,130z" fill="#8d898a"/><path d="M292,301h-8l16,4z" fill="#2a292d"/><path d="M402,72l10,-4l-4,10z" fill="#8a898e"/><path d="M400,64h10l-2,4z" fill="#b5b2b5"/><path d="M74,201H84l-8,-6z" fill="#c9c5c8"/><path d="M230,171l-6,30l-4,4z" fill="#a7a29e"/><path d="M16,293H26l-10,2z" fill="#605a57"/><path d="M378,199v-6l-10,18z" fill="#858489"/><path d="M32,323l-8,-4H42z" fill="#c6c5c6"/><path d="M38,128L30,112L6,130z" fill="#696564"/><path d="M156,285l-2,6l6,-6z" fill="#a2b3a9"/><path d="M96,54V66H84z" fill="#bbc0c4"/><path d="M237,212l-16,4h27z" fill="#b2b0b1"/><path d="M349,222l-5,-2l38,18z" fill="#c0c0c2"/><path d="M421,21L404,17l12,19z" fill="#cccdcf"/><path d="M19,127L9,121L7,134z" fill="#615d5b"/><path d="M152,177l11,26l-22,1z" fill="#bebfc2"/><path d="M387,139l5,1l-13,2z" fill="#bfbec1"/><path d="M81,159l11,4l8,11z" fill="#b0b0b2"/><path d="M96,32L97,9L91,2z" fill="#4d5052"/><path d="M317,191l-10,-3l20,-5z" fill="#b6b7b9"/><path d="M51,60L33,52H65z" fill="#89868a"/><path d="M63,291l8,-8l-8,23z" fill="#7c5c5c"/><path d="M74,308l-4,-9l-6,12z" fill="#cdd0d1"/><path d="M62,231l10,2L69,223z" fill="#4f4d51"/><path d="M341,233l10,-3l-14,11z" fill="#bab4ba"/><path d="M191,107l-9,2l-3,-7z" fill="#a5a7ac"/><path d="M152,286l30,-21l-36,19z" fill="#959899"/><path d="M475,101l14,-3L475,94z" fill="#8e807c"/><path d="M484,169l-1,-4l-17,4z" fill="#8b888c"/><path d="M297,287l-15,18l13,-3z" fill="#292728"/><path d="M62,277l-16,6l15,-9z" fill="#a89b9c"/><path d="M254,251l-19,9v-8z" fill="#767374"/><path d="M65,41l1,10L43,49z" fill="#c2c1c4"/><path d="M27,160L4,147l25,6z" fill="#847e81"/><path d="M296,326l-6,3l16,-9z" fill="#b3a4a2"/><path d="M442,36l-4,15l27,-1z" fill="#a7a7a9"/><path d="M252,266l-6,11l-6,-2z" fill="#afb2b6"/><path d="M181,280l-9,-5l10,-12z" fill="#7e7e84"/><path d="M491,89l2,-7l7,5z" fill="#766e6f"/><path d="M416,254l-16,-6l17,3z" fill="#cfcfd2"/><path d="M92,147h11L98,120z" fill="#6f6c6c"/><path d="M407,268l1,7H384z" fill="#3c383a"/><path d="M342,279l-3,8l20,-3z" fill="#605555"/><path d="M346,234h-4l18,8z" fill="#977a76"/><path d="M61,144l21,14L51,153z" fill="#a2a1a5"/><path d="M227,214l5,12L218,214z" fill="#a3a0a1"/><path d="M74,14L93,39L92,25z" fill="#d8dde0"/><path d="M466,23L404,60L419,42z" fill="#caccce"/><path d="M470,90l13,2L465,81z" fill="#aba5a6"/><path d="M311,65l-35,36L317,68z" fill="#9f989a"/><path d="M26,278l13,-8l23,1z" fill="#796561"/><path d="M291,272l1,3l11,-8z" fill="#52504f"/><path d="M335,100l-4,18l-5,-9z" fill="#757478"/><path d="M255,15l-1,4l-1,17z" fill="#9a8488"/><path d="M505,54l18,-3L504,43z" fill="#bdbdc0"/><path d="M363,245l-1,2l-13,-9z" fill="#bebebe"/><path d="M247,182l-4,-14l-10,-5z" fill="#6c514d"/><path d="M21,25L13,3L36,32z" fill="#c2c5c8"/><path d="M-13,140l23,17l5,-3z" fill="#a09ea0"/><path d="M501,30l-12,8l9,-16z" fill="#9c9b9c"/><path d="M325,24L347,-8l-2,-3z" fill="#7b6563"/><path d="M433,314l-2,-4l-5,1z" fill="#8b8e92"/><path d="M110,311l-1,17l-6,-19z" fill="#b8babe"/><path d="M8,118l5,5l-38,15z" fill="#4e4a46"/><path d="M245,161l-7,-3l7,-13z" fill="#80605d"/><path d="M29,17l3,6L21,24z" fill="#b8bcbc"/><path d="M72,218l-21,1L76,201z" fill="#979498"/><path d="M276,192l14,2l58,31z" fill="#d9d9dc"/><path d="M423,311H393l14,-25z" fill="#222225"/><path d="M0,202l5,9L36,200z" fill="#adacae"/><path d="M344,312h11l-48,-3z" fill="#ccd3d8"/><path d="M121,74l-3,-8l16,5z" fill="#6a6d71"/><path d="M394,68L418,43l1,-2z" fill="#6c4a49"/><path d="M98,242l8,-18l-2,13z" fill="#918787"/><path d="M17,1L-11,7L-4,3z" fill="#472e27"/><path d="M131,133l4,-4l-13,4z" fill="#b6b4b7"/><path d="M505,33L483,45L511,21z" fill="#aeacae"/><path d="M65,297l2,-16l-1,19z" fill="#613f40"/><path d="M289,305l-8,-14l15,-20z" fill="#363131"/><path d="M27,63l7,-2l4,4z" fill="#9f9b9d"/><path d="M232,209l31,-3l-27,5z" fill="#6c544f"/><path d="M26,81L14,82l12,19z" fill="#6e6867"/><path d="M366,191l-6,-7l-18,9z" fill="#838388"/><path d="M110,308l23,27l-3,-12z" fill="#937b74"/><path d="M97,272l-3,4l13,-5z" fill="#8a7370"/><path d="M336,142l-2,-7l12,5z" fill="#9e999b"/><path d="M208,129l8,-8l-6,29z" fill="#8f8d90"/><path d="M382,284l9,2l-1,-7z" fill="#2f2727"/><path d="M186,76v5L175,79z" fill="#949496"/><path d="M183,231l41,-6l-46,15z" fill="#d6dadb"/><path d="M148,345L134,335l15,32z" fill="#836b66"/><path d="M325,252l-4,8l36,-18z" fill="#939093"/><path d="M495,266l-1,-4l18,-1z" fill="#8f8a8d"/><path d="M372,252l-3,6l-13,-6z" fill="#87868a"/><path d="M462,170l5,-2l-15,-3z" fill="#aaaab0"/><path d="M124,330H104l33,23z" fill="#d1d3d6"/><path d="M123,12L111,22l4,-10z" fill="#878b8c"/><path d="M361,137l-31,30l3,-10z" fill="#afb0b5"/><path d="M133,165l27,-8l21,12z" fill="#d9dbdd"/><path d="M30,166l-9,-2l11,-4z" fill="#bebec0"/><path d="M32,216l-5,20L38,221z" fill="#695e60"/><path d="M93,228l-14,5V206z" fill="#beb9b6"/><path d="M153,238l17,-13l15,-4z" fill="#947164"/><path d="M53,286H64l-7,-2z" fill="#614b48"/><path d="M211,265l2,-6l-21,23z" fill="#a4a1a0"/><path d="M215,236l2,3l-10,2z" fill="#84535a"/><path d="M337,185l5,20l10,-18z" fill="#96969b"/><path d="M385,266l12,-5l-10,-4z" fill="#525054"/><path d="M318,200l-19,-3l16,10z" fill="#adaeb0"/><path d="M64,322L63,309L53,327z" fill="#877976"/><path d="M82,103l13,16L81,109z" fill="#756f6d"/><path d="M486,113l-19,4l21,2z" fill="#a19ca0"/><path d="M46,64L34,63l22,3z" fill="#9e9fa0"/><path d="M216,244l7,-2l-6,9z" fill="#7a7879"/><path d="M105,53L96,29l2,42z" fill="#5a5956"/><path d="M298,326l-24,15v-4z" fill="#714951"/><path d="M112,131l-13,4l18,-24z" fill="#655e5f"/><path d="M252,261l8,-6l1,6z" fill="#908f92"/><path d="M161,339l-9,-26l-18,3z" fill="#d4d7da"/><path d="M114,12L101,10L144,0z" fill="#b0b1b3"/><path d="M197,68H180h11z" fill="#97a2a7"/><path d="M474,247l8,2l-4,-19z" fill="#a0816c"/><path d="M488,-21L516,6h-4z" fill="#483933"/><path d="M504,245l-8,11V245z" fill="#908f93"/><path d="M481,143l-2,6l10,4z" fill="#9b9399"/><path d="M45,26L81,42L46,32z" fill="#d1d5d3"/><path d="M152,268l24,-17l-15,19z" fill="#ccd0d2"/><path d="M349,164l5,-11l-19,8z" fill="#89878c"/><path d="M433,165l5,6l25,-2z" fill="#bbb9c0"/><path d="M406,230l12,-9l-7,17z" fill="#625c61"/><path d="M421,287l4,5l2,-7z" fill="#2e2a29"/><path d="M252,73l8,-29l-4,24z" fill="#4e3032"/><path d="M150,174l-9,9l-2,-19z" fill="#d2d4d6"/><path d="M-18,324l9,7l39,-7z" fill="#cfd0d2"/><path d="M385,197l3,7l1,-12z" fill="#838286"/><path d="M320,317l9,-5l-1,4z" fill="#603e43"/><path d="M16,268L30,253l-16,6z" fill="#aaa7a8"/><path d="M54,275l-16,3l-5,5z" fill="#c7cdce"/><path d="M6,163L-18,144l11,13z" fill="#8c7e7c"/><path d="M-11,93L14,75L7,73z" fill="#b3b2b0"/><path d="M219,304l5,-4l8,-2z" fill="#95949b"/><path d="M238,291l1,-10l-9,11z" fill="#636163"/><path d="M483,226l-6,-46l-2,60z" fill="#545049"/><path d="M333,32V31L321,50z" fill="#7c6b6b"/><path d="M454,119l2,-13l5,9z" fill="#8d8b90"/><path d="M141,217l-4,-4l10,36z" fill="#c0c1c3"/><path d="M102,151l11,-5l-23,3z" fill="#98979b"/><path d="M455,184l-6,-13l-8,29z" fill="#484138"/><path d="M143,215l13,5l11,-6z" fill="#aeabac"/><path d="M410,212l-23,3l33,-16z" fill="#89858b"/><path d="M99,266l6,-7l-5,-4z" fill="#bebec0"/><path d="M415,205l6,7l-5,3z" fill="#5b595d"/><path d="M21,113l-7,-2l6,-6z" fill="#83817f"/><path d="M190,129l22,-12v-8z" fill="#bdbfc3"/><path d="M115,284l22,-23l-10,7z" fill="#c4c0c1"/><path d="M191,271l-11,-3l-3,-3z" fill="#c5bdb9"/><path d="M263,75l14,-5L261,68z" fill="#d3d5d6"/><path d="M372,180l5,3l-24,43z" fill="#adabb0"/><path d="M217,194l7,-7l-7,13z" fill="#846361"/><path d="M42,105V97l11,7z" fill="#5d5958"/><path d="M488,92L477,89l6,6z" fill="#a6a1a1"/><path d="M111,208l-9,-1l17,7z" fill="#ababb0"/><path d="M257,127l6,-7l-6,3z" fill="#cbc7c9"/><path d="M99,99L82,83L99,95z" fill="#7a7778"/><path d="M358,62L391,30L372,64z" fill="#c7c8c9"/><path d="M38,17L16,2V3z" fill="#655650"/><path d="M234,207l14,-3l-21,2z" fill="#bdb9b9"/><path d="M233,198h-1l-2,-6z" fill="#c9c4c3"/><path d="M244,283l14,14l-18,-5z" fill="#8c8c91"/><path d="M78,333l-3,-6l9,5z" fill="#a8a9ac"/><path d="M10,312l-30,-8l39,-7z" fill="#dbdbdc"/><path d="M387,137l-8,-19l2,18z" fill="#9b989b"/><path d="M421,261L375,249l35,8z" fill="#724442"/><path d="M476,323l8,-23l3,29z" fill="#555048"/><path d="M18,178l10,-8L4,164z" fill="#b4b3b4"/><path d="M435,203l-10,-7l2,8z" fill="#726b6b"/><path d="M270,155l-15,3l17,-16z" fill="#8d8b8e"/><path d="M132,67L158,33L124,30z" fill="#d5d9db"/><path d="M521,16L505,13L529,0z" fill="#a1a1a0"/><path d="M197,127l-7,-1l5,-5z" fill="#d5d6da"/><path d="M285,164l22,-6l-37,15z" fill="#a19591"/><path d="M239,136l-26,43l12,-34z" fill="#744e42"/><path d="M260,228l10,22L242,227z" fill="#9d9a9e"/><path d="M16,126l8,35L14,147z" fill="#73706f"/><path d="M58,132l1,-13L44,151z" fill="#615f60"/><path d="M235,156l7,-12l-8,4z" fill="#b5b1ab"/><path d="M91,255l10,-7l2,7z" fill="#66504b"/><path d="M396,310l8,-18l-17,14z" fill="#251f1f"/><path d="M161,300l35,4l-31,-3z" fill="#b9c1c7"/><path d="M255,18l-1,24L263,1z" fill="#4a2827"/><path d="M21,212L-15,197l34,22z" fill="#adadae"/><path d="M280,153l2,8l-13,-4z" fill="#c7c7c7"/><path d="M83,157l-20,6l-8,-6z" fill="#b5b7bb"/><path d="M420,77L378,90l31,-6z" fill="#b4b3b8"/><path d="M72,248L44,237l1,6z" fill="#afb1b4"/><path d="M479,76l11,-1l-3,-7z" fill="#565256"/><path d="M269,24l35,6l-38,4z" fill="#d1d5d6"/><path d="M330,266l7,12l8,-30z" fill="#9d9c9d"/><path d="M118,288l-13,1l8,14z" fill="#745c58"/><path d="M116,167l14,-2l1,-9z" fill="#bab9bc"/><path d="M225,239l-6,-1l-3,5z" fill="#bbb5b6"/><path d="M72,14l11,7L70,6z" fill="#cfd4d4"/><path d="M131,244l-8,1l13,3z" fill="#917a78"/><path d="M364,246l13,3l-8,-5z" fill="#684442"/><path d="M112,104L101,92l1,30z" fill="#302d2a"/><path d="M281,224l-15,18l14,-24z" fill="#898788"/><path d="M351,-21h8L334,15z" fill="#482826"/><path d="M253,172l-6,7l39,-18z" fill="#886457"/><path d="M107,286L90,296l20,-8z" fill="#aeaaaa"/><path d="M112,178l-10,-2v-4z" fill="#9c999b"/></svg>