<?xml version="1.0"?><svg xmlns="http://www.w3.org/2000/svg" version="1.2" viewBox="0 0 512 384" width="800" height="600"><path d="M-1,-1V385H513V-1z" fill="#4a281b"/><path d="M512,-176L160,208L80,96z" fill="#b98d71"/><path d="M392,152L552,0L688,408z" fill="#b38f74"/><path d="M152,176H360L288,280z" fill="#8e7c64"/><path d="M328,600L-104,432L8,104z" fill="#290a06"/><path d="M608,96L408,64L648,16z" fill="#472012"/><path d="M-152,0L80,24v80z" fill="#7e4939"/><path d="M216,288V192L-24,184z" fill="#3d1b11"/><path d="M304,216L240,144l24,128z" fill="#e3c4b2"/><path d="M272,280l56,-16L216,232z" fill="#a6624a"/><path d="M456,16L264,104V48z" fill="#7e5a43"/><path d="M464,360L480,176L400,312z" fill="#96745c"/><path d="M408,24l32,128l-72,48z" fill="#9d7762"/><path d="M344,200H320l24,32z" fill="#474831"/><path d="M120,72L208,48l24,80z" fill="#d9b698"/><path d="M216,232L264,64L208,176z" fill="#5d4739"/><path d="M776,272L408,184H360z" fill="#8e6654"/><path d="M408,216l-88,48L296,512z" fill="#401a09"/><path d="M384,-88L352,48L328,16z" fill="#b5866c"/><path d="M392,296l8,32l24,-56z" fill="#977562"/><path d="M248,168h32L240,144z" fill="#5d5249"/><path d="M448,336h-8L456,200z" fill="#64432e"/><path d="M392,48L292,132l68,48z" fill="#2e0b04"/><path d="M108,192L92,208V188z" fill="#aa7e6b"/><path d="M236,196L124,180l88,32z" fill="#4e442f"/><path d="M384,144l28,28V56z" fill="#d3ab8a"/><path d="M388,12h52L380,148z" fill="#845f47"/><path d="M188,28L172,16L136,40z" fill="#b47f66"/><path d="M512,204v56L496,204z" fill="#463034"/><path d="M480,236l8,-8L664,172z" fill="#d3cebf"/><path d="M148,172l32,32L168,112z" fill="#64634a"/><path d="M472,68l-44,64L420,84z" fill="#986146"/><path d="M328,100L352,72L336,96z" fill="#a5a59f"/><path d="M372,244l8,-72V120z" fill="#4a3f28"/><path d="M268,196l72,-24H256z" fill="#b0beb4"/><path d="M208,192l4,-56L252,80z" fill="#8f6449"/><path d="M444,92l-40,88l48,8z" fill="#a98570"/><path d="M180,108l24,96l8,-32z" fill="#cea58a"/><path d="M348,176l20,20l-20,4z" fill="#77966c"/><path d="M316,168l16,4l4,28z" fill="#4e5c55"/><path d="M360,232l12,-4l-8,-8z" fill="#9ca085"/><path d="M392,120L408,96l-8,4z" fill="#be9977"/><path d="M244,208l68,-20l4,60z" fill="#f1c6b2"/><path d="M148,200L100,124L68,108z" fill="#9d4712"/><path d="M420,196l8,80l52,-4z" fill="#564035"/><path d="M456,280l-44,20l68,12z" fill="#866752"/><path d="M264,232L244,188l-24,60z" fill="#f4ba96"/><path d="M344,76v4l-16,28z" fill="#d1c7c7"/><path d="M208,20H168L300,-72z" fill="#7b4c35"/><path d="M464,280l20,52L444,280z" fill="#8c6d58"/><path d="M224,344V256l64,84z" fill="#614d3e"/><path d="M140,-16l24,68L144,64z" fill="#6f3f27"/><path d="M232,200l16,-4L212,152z" fill="#6a7068"/><path d="M92,128l36,28L92,72z" fill="#b86d2f"/><path d="M164,64L176,40L124,28z" fill="#6d4224"/><path d="M576,164L468,200l-4,-20z" fill="#d4a89d"/><path d="M208,248l20,-4l16,20z" fill="#a6604e"/><path d="M312,196l4,4l28,-12z" fill="#3c654c"/><path d="M324,220l44,24L324,172z" fill="#493a2f"/><path d="M164,136l28,40L228,84z" fill="#dbb7a0"/><path d="M400,32L304,24H416z" fill="#c09d86"/><path d="M472,224l92,8L488,220z" fill="#ece6e2"/><path d="M432,100l16,-4v80z" fill="#d4956e"/><path d="M404,8l4,8l-36,4z" fill="#462213"/><path d="M296,268l24,-36v16z" fill="#9f7560"/><path d="M448,340l16,40L360,340z" fill="#4d2c20"/><path d="M456,416L604,352L508,320z" fill="#200504"/><path d="M488,220V208l-12,44z" fill="#f2ded7"/><path d="M64,172L88,80L-24,128z" fill="#3f1908"/><path d="M420,148l-24,8l-4,-12z" fill="#f8e2c1"/><path d="M140,124L160,96L100,80z" fill="#f3cb98"/><path d="M288,252L228,228l96,8z" fill="#d99a81"/><path d="M28,36l4,72L44,-20z" fill="#ab6056"/><path d="M496,240l-16,4L616,144z" fill="#b5aea3"/><path d="M432,300l12,8l-8,16z" fill="#543621"/><path d="M320,296l-8,8l-8,-8z" fill="#8b877c"/><path d="M300,188l4,20l12,-24z" fill="#9ab1a0"/><path d="M192,196l20,72l16,-52z" fill="#401f10"/><path d="M164,256L140,240l16,-20z" fill="#6e493a"/><path d="M244,76l4,20L356,68z" fill="#744c36"/><path d="M132,148L88,84l20,-8z" fill="#cd7450"/><path d="M468,220l-16,4l-12,20z" fill="#9d9082"/><path d="M420,276l4,-4l44,24z" fill="#d3af97"/><path d="M144,88L240,76L200,40z" fill="#eebd9f"/><path d="M96,200l8,-4v4z" fill="#e8bba8"/><path d="M292,120l-52,12L252,88z" fill="#48261b"/><path d="M448,28l12,-8l-48,8z" fill="#86624f"/><path d="M236,176h-4l12,-4z" fill="#9aa8a0"/><path d="M288,40L392,-148L288,12z" fill="#a26f55"/><path d="M236,392L96,612L120,292z" fill="#381c11"/><path d="M104,120L128,96l-8,36z" fill="#de9459"/><path d="M452,268L372,200v72z" fill="#33130d"/><path d="M92,24L148,4L36,-64z" fill="#3f1c0f"/><path d="M84,100l-4,32L112,32z" fill="#894a32"/><path d="M364,200V188l-16,12z" fill="#97ba88"/><path d="M228,200L148,180l44,28z" fill="#794a35"/><path d="M416,40l8,132h12z" fill="#8c5d4a"/><path d="M156,128l28,-16l-16,28z" fill="#a2856a"/><path d="M408,156H384l8,4z" fill="#dfbc9a"/><path d="M352,180v-8l12,8z" fill="#5c704f"/><path d="M428,52l-8,20h80z" fill="#3c2013"/><path d="M236,236l56,16l-60,-8z" fill="#db9674"/><path d="M168,432L414,416L358,320z" fill="#2a0e06"/><path d="M366,22l54,64L346,62z" fill="#58382b"/><path d="M484,94l-42,58l66,-2z" fill="#bba383"/><path d="M180,260l54,4L182,206z" fill="#2c0e05"/><path d="M-42,96L84,162L62,208z" fill="#350f06"/><path d="M90,268H28l18,10z" fill="#62493d"/><path d="M446,322l-26,28l-4,-28z" fill="#8e6e57"/><path d="M432,292v26l-24,-8z" fill="#c0a38a"/><path d="M406,278l-12,10l78,14z" fill="#a07b5e"/><path d="M274,314l-8,-60l18,18z" fill="#8d4e34"/><path d="M162,86l12,84l6,-60z" fill="#a9836e"/><path d="M518,86L478,74l-54,4z" fill="#966048"/><path d="M292,108l-6,-6l2,10z" fill="#9f7b63"/><path d="M486,246l-14,6l14,-44z" fill="#dcd0c3"/><path d="M230,176l22,-10L234,140z" fill="#52524f"/><path d="M310,34l36,32L334,28z" fill="#78412c"/><path d="M210,144l-8,-40L248,58z" fill="#cb9374"/><path d="M484,338l-2,-6l-4,20z" fill="#9e7b66"/><path d="M122,132l32,66L136,182z" fill="#9e7047"/><path d="M304,284L292,274l8,-28z" fill="#95321f"/><path d="M186,212l24,-2L162,186z" fill="#6d3e28"/><path d="M368,192l98,20L362,174z" fill="#61422f"/><path d="M54,58L26,112L68,92z" fill="#542e1b"/><path d="M450,312l12,4l-8,28z" fill="#b3957c"/><path d="M72,6L54,44L108,34z" fill="#854839"/><path d="M104,74L164,62l-58,6z" fill="#ac8763"/><path d="M230,138l34,32l22,-2z" fill="#4f3433"/><path d="M70,32L80,68L62,56z" fill="#c38371"/><path d="M470,218l32,-18l-44,10z" fill="#544744"/><path d="M184,38L162,14L146,34z" fill="#94674f"/><path d="M294,42L228,82L302,10z" fill="#8f6248"/><path d="M344,182l-10,2l-2,-8z" fill="#8bbca0"/><path d="M482,322l-10,6l10,-14z" fill="#927058"/><path d="M352,72L340,96l4,-30z" fill="#bcbdba"/><path d="M44,226l78,76l8,-100z" fill="#2d0603"/><path d="M280,242l8,-10l32,4z" fill="#efdac8"/><path d="M156,212L78,124l20,46z" fill="#6b1805"/><path d="M172,60l-32,74L118,92z" fill="#eec794"/><path d="M302,302l20,-4l-22,-6z" fill="#8b8c80"/><path d="M326,56l8,-6l-26,4z" fill="#3c1408"/><path d="M424,266l-62,36L332,248z" fill="#2f0d02"/><path d="M428,178l-4,10h14z" fill="#a08075"/><path d="M380,48l-2,62L460,18z" fill="#724f3c"/><path d="M310,366L296,312l-8,84z" fill="#462419"/><path d="M450,262l26,32L420,268z" fill="#533825"/><path d="M432,320l-12,-4l4,18z" fill="#c9aa8d"/><path d="M212,-44l-2,66l10,-6z" fill="#76462f"/><path d="M392,292l14,36l-14,24z" fill="#ae8c7d"/><path d="M192,158l20,-4l-34,44z" fill="#d39f80"/><path d="M324,206l-6,6L296,186z" fill="#5b7659"/><path d="M186,22l16,12l18,-2z" fill="#dbb293"/><path d="M166,54L98,40l56,-2z" fill="#501e0e"/><path d="M406,6l-4,16h8z" fill="#492818"/><path d="M322,226l-24,50l22,-16z" fill="#a16b53"/><path d="M414,40l2,-16L378,34z" fill="#cba78f"/><path d="M334,206l44,-2l-48,16z" fill="#2c1a16"/><path d="M176,34V28l38,8z" fill="#d99e84"/><path d="M164,56l8,-18h16z" fill="#7d462d"/><path d="M488,338l100,22L482,288z" fill="#280b06"/><path d="M554,28L476,-20l34,66z" fill="#764833"/><path d="M466,172l22,4l-52,12z" fill="#c0b29b"/><path d="M50,4L30,-10L-2,52z" fill="#683729"/><path d="M460,52l88,60L522,54z" fill="#2c0e06"/><path d="M128,156l-14,-8l2,18z" fill="#a65716"/><path d="M422,148l-32,-2l18,-6z" fill="#fae4d2"/><path d="M6,-66L58,-4L-30,18z" fill="#381304"/><path d="M410,284l-44,36l20,-28z" fill="#85604a"/><path d="M262,220l30,48L276,218z" fill="#e79d88"/><path d="M448,76L402,94L414,76z" fill="#5e3928"/><path d="M410,374l-18,14l78,-6z" fill="#2a0c04"/><path d="M24,68L40,86L32,98z" fill="#8d4a41"/><path d="M420,270l4,-6l6,6z" fill="#81644f"/><path d="M376,202l24,26L358,136z" fill="#381f0f"/><path d="M294,278H232l-6,-22z" fill="#804936"/><path d="M368,200l8,-4L362,180z" fill="#71895f"/><path d="M320,186l-32,10L218,172z" fill="#a5beb0"/><path d="M354,300l34,22L326,312z" fill="#290c04"/><path d="M106,186l-8,4L94,178z" fill="#655d5a"/><path d="M320,96v4l22,20z" fill="#3b2726"/><path d="M348,16l-8,20l6,-44z" fill="#cda789"/><path d="M494,234L464,220H454z" fill="#dbd2cd"/><path d="M250,168l-12,22l46,2z" fill="#c0cfc1"/><path d="M384,182l26,-2l4,20z" fill="#916b52"/><path d="M152,12l74,-120L190,20z" fill="#64281a"/><path d="M458,236l18,26L438,236z" fill="#6d5a4f"/><path d="M162,162l-8,66L144,196z" fill="#5f3317"/><path d="M184,152V138l24,16z" fill="#f8efd6"/><path d="M500,200l70,-26l-24,42z" fill="#604242"/><path d="M432,204h2V194z" fill="#a78677"/><path d="M246,-58L228,28l60,-4z" fill="#cba585"/><path d="M104,130L80,142L92,102z" fill="#9f3b26"/><path d="M20,38L6,44l12,74z" fill="#532b19"/><path d="M174,176l-16,8l16,-26z" fill="#4b615a"/><path d="M174,8L136,26l12,10z" fill="#8c5e46"/><path d="M402,348L370,312l20,36z" fill="#64432f"/><path d="M172,66l-10,42l-16,4z" fill="#c39d84"/><path d="M310,252l-22,4l12,-16z" fill="#c46a53"/><path d="M442,236l-4,-12l18,6z" fill="#ada08f"/><path d="M450,170l-12,4l10,-36z" fill="#a16e4a"/><path d="M486,16h12l46,32z" fill="#7a5545"/><path d="M228,40l32,34L202,36z" fill="#9f694f"/><path d="M288,132l18,38l54,2z" fill="#2f0d0b"/><path d="M360,172l-28,20l6,6z" fill="#53704c"/><path d="M54,6L30,12L24,34z" fill="#8b4f42"/><path d="M420,342l16,-2l-8,18z" fill="#83644f"/><path d="M318,224l-60,6l62,-2z" fill="#d7be97"/><path d="M316,164l32,10l-32,-4z" fill="#2e2322"/><path d="M222,244l-4,-8l4,16z" fill="#3f1f15"/><path d="M390,168l32,-22L402,124z" fill="#f1d5c1"/><path d="M360,-2l-8,6l22,36z" fill="#8b654b"/><path d="M306,4L340,2l36,-64z" fill="#724a2c"/><path d="M402,58l44,-4L470,6z" fill="#674636"/><path d="M334,218l10,10l36,-8z" fill="#71775d"/><path d="M220,468L158,338l38,30z" fill="#220602"/><path d="M412,28l10,-4l28,4z" fill="#9a7765"/><path d="M382,150l-2,24l34,-10z" fill="#d6af8a"/><path d="M352,26l4,24l-16,4z" fill="#976f53"/><path d="M226,240l58,10l-46,6z" fill="#c38261"/><path d="M152,44L114,64l34,-8z" fill="#552813"/><path d="M470,120L448,108l8,-24z" fill="#ac9678"/><path d="M370,224l26,54L374,190z" fill="#2c1209"/><path d="M184,286L160,250L120,236z" fill="#4e2617"/><path d="M352,72l2,42L380,50z" fill="#381911"/><path d="M336,186h28L354,172z" fill="#66915b"/><path d="M164,26h6l-6,2z" fill="#cca383"/><path d="M150,236l-10,4l10,-12z" fill="#4a2516"/><path d="M76,194l8,4L64,194z" fill="#967162"/><path d="M438,26l-66,8l14,-6z" fill="#ba9782"/><path d="M248,170h8l-20,6z" fill="#86968d"/><path d="M414,66l30,-4L418,86z" fill="#3a190d"/><path d="M170,34l8,-4L160,26z" fill="#bc9273"/><path d="M224,172l-38,22l46,-22z" fill="#999988"/><path d="M58,138l-6,-4v12z" fill="#684437"/><path d="M24,58l2,2l6,-8z" fill="#daa79b"/><path d="M356,202l16,-14l-4,14z" fill="#91af82"/><path d="M212,48l42,28L210,38z" fill="#8e6145"/><path d="M232,78H208l40,30z" fill="#bf9a7e"/><path d="M78,198L88,174l6,38z" fill="#4d2619"/><path d="M206,148l-10,30l16,-20z" fill="#cba287"/><path d="M504,236l4,-8l-4,12z" fill="#514749"/><path d="M500,232L486,206l2,-4z" fill="#cdaca7"/><path d="M322,192l10,-18l-10,6z" fill="#374344"/><path d="M98,208V192l4,-2z" fill="#edc9a3"/><path d="M158,116v4l12,14z" fill="#865939"/><path d="M336,102L348,76l-10,2z" fill="#dbe3df"/><path d="M412,144l-6,8l-6,-8z" fill="#fbf0d7"/><path d="M262,294l-6,-8l-30,48z" fill="#755541"/><path d="M60,-16l44,88l14,-6z" fill="#753f2b"/><path d="M250,98L296,52l-10,48z" fill="#744e39"/><path d="M208,40L178,54l4,66z" fill="#e9cead"/><path d="M296,304L412,474L342,332z" fill="#3a1f18"/><path d="M24,152l6,130L-448,506z" fill="#280b05"/><path d="M266,84L320,60L310,94z" fill="#78523e"/><path d="M-26,478L112,436L102,266z" fill="#250301"/><path d="M140,62L108,86l2,24z" fill="#eca974"/><path d="M102,36l6,-6L92,80z" fill="#794031"/><path d="M42,42L82,-20L48,54z" fill="#6a3e29"/><path d="M320,222l2,26L292,194z" fill="#e0bd98"/><path d="M152,170V130l12,64z" fill="#575331"/><path d="M106,152l38,42L116,172z" fill="#893e14"/><path d="M154,236v12l6,-14z" fill="#bca798"/><path d="M80,24L66,22l8,56z" fill="#a96455"/><path d="M232,58l-6,44L214,52z" fill="#dcbb96"/><path d="M158,194l-4,-26l30,30z" fill="#5a3526"/><path d="M230,360l74,2L246,350z" fill="#2f1007"/><path d="M210,34l52,30L242,74z" fill="#967158"/><path d="M366,24L352,42L374,24z" fill="#815e4d"/><path d="M208,170l-14,-8l12,-34z" fill="#e4b99c"/><path d="M382,172V124l16,-12z" fill="#cf9f7f"/><path d="M98,80L150,60l-26,4z" fill="#b6784c"/><path d="M242,34L232,28l18,-2z" fill="#d8af90"/><path d="M156,214l-8,8l16,4z" fill="#7f4e3d"/><path d="M222,384l22,-18L220,348z" fill="#5f4438"/><path d="M582,124L476,94l2,52z" fill="#e0a280"/><path d="M296,212L284,192h-8z" fill="#e5b499"/><path d="M232,62l24,14L238,58z" fill="#7e5439"/><path d="M400,170l12,16V170z" fill="#bb9977"/><path d="M210,36H200l8,-4z" fill="#e2ba9a"/><path d="M238,266l18,-20L242,236z" fill="#d36b4c"/><path d="M420,24l32,-8L416,14z" fill="#765649"/><path d="M508,312L476,296l10,-40z" fill="#2c100b"/><path d="M280,22L244,54L280,42z" fill="#b39075"/><path d="M502,36l8,-2L498,28z" fill="#875c48"/><path d="M180,118l16,14L186,78z" fill="#d8bb9c"/><path d="M518,164l-30,6l16,-34z" fill="#bf7466"/><path d="M110,156L74,120l2,22z" fill="#6e3b29"/><path d="M274,78L284,60L270,46z" fill="#8c6d56"/><path d="M484,-8l4,22l26,-4z" fill="#573221"/><path d="M120,124l-12,4l24,20z" fill="#d07d38"/><path d="M252,272l46,8l-52,26z" fill="#6d321e"/><path d="M402,350L390,336V322z" fill="#95755d"/><path d="M210,178l-2,-8l-8,16z" fill="#dcb99b"/><path d="M496,216l86,24L494,214z" fill="#4f4647"/><path d="M474,222l6,-2H458z" fill="#d2c6bb"/><path d="M482,194l10,-4l4,8z" fill="#ab7165"/><path d="M252,246l14,-24l-8,26z" fill="#dca98d"/><path d="M418,260l12,8l2,-60z" fill="#493329"/><path d="M342,178l-8,12l-2,-14z" fill="#95bba4"/><path d="M348,66L336,80L358,44z" fill="#60504d"/><path d="M92,180v12l12,-12z" fill="#6f6863"/><path d="M454,356l30,-28l-34,36z" fill="#745344"/><path d="M44,272l36,-6l-6,8z" fill="#785c50"/><path d="M444,308l22,26L450,292z" fill="#b0917a"/><path d="M400,310l4,-18h6z" fill="#c6a58a"/><path d="M402,38l-12,2l-18,2z" fill="#5a3622"/><path d="M42,324L38,304L28,346z" fill="#36150a"/><path d="M244,132l-14,6l40,22z" fill="#4c342c"/><path d="M444,54l32,12V46z" fill="#3a160d"/><path d="M280,32L308,6l-22,4z" fill="#a57558"/><path d="M572,220l-70,40l-6,28z" fill="#301613"/><path d="M408,304l4,-10l6,10z" fill="#63442e"/><path d="M130,128v22L144,96z" fill="#dfb684"/><path d="M464,258l-6,-16l4,-6z" fill="#514941"/><path d="M240,200l-10,10L218,174z" fill="#716252"/><path d="M128,318l108,40L124,268z" fill="#442c1e"/><path d="M506,252L490,238l-24,30z" fill="#463936"/><path d="M324,6l24,28L328,0z" fill="#c49b7d"/><path d="M38,-26L98,22H88z" fill="#5f3725"/><path d="M386,264l-8,-2l8,-12z" fill="#44271e"/><path d="M414,376L404,338l6,-24z" fill="#39170d"/><path d="M246,74l6,-36l12,-2z" fill="#a17558"/><path d="M476,208H454L442,198z" fill="#6d4838"/><path d="M446,340l-2,-30l-18,72z" fill="#593526"/><path d="M402,-4L382,22l40,-2z" fill="#4b2719"/><path d="M92,20L74,88L90,76z" fill="#4f2112"/><path d="M318,240h8l-50,32z" fill="#ae6c4f"/><path d="M432,260l32,30L412,256z" fill="#421d0e"/><path d="M230,144l-14,34V164z" fill="#885334"/><path d="M294,42l28,26L296,26z" fill="#977056"/><path d="M430,164l-4,10l-6,-18z" fill="#82525f"/><path d="M414,88L442,74l-22,34z" fill="#834d3c"/><path d="M438,-30l40,42L458,-34z" fill="#7c5846"/><path d="M452,198L418,184l8,14z" fill="#785749"/><path d="M-38,138L80,118L12,100z" fill="#3e130c"/><path d="M106,208l-8,34L90,204z" fill="#360d01"/><path d="M364,26l26,2H374z" fill="#7c5946"/><path d="M390,324l-2,-8l8,-28z" fill="#775741"/><path d="M304,296l10,-2l-8,-2z" fill="#5d6252"/><path d="M322,256l-20,40l-6,4z" fill="#5b493c"/><path d="M246,90L232,72l8,42z" fill="#ac826a"/><path d="M176,228L104,180l18,8z" fill="#551b11"/><path d="M138,182l12,-6V148z" fill="#a48154"/><path d="M300,250l-12,18l10,8z" fill="#a23a25"/><path d="M66,94L60,80l12,6z" fill="#7a3a2d"/><path d="M206,138l-4,-36L218,52z" fill="#e0ab89"/><path d="M24,66L50,52L24,28z" fill="#9f6658"/><path d="M270,342l10,-10l34,44z" fill="#4b261a"/><path d="M494,226l-16,12l-4,16z" fill="#e4dfd3"/><path d="M158,280l14,-44l-42,26z" fill="#4e2b1b"/><path d="M470,404l-4,-94l12,38z" fill="#412011"/><path d="M248,166l14,4H248z" fill="#5a6764"/><path d="M86,260l-14,8L60,266z" fill="#3f271d"/><path d="M356,364L376,264l-2,48z" fill="#290703"/><path d="M224,330l-78,-8l58,54z" fill="#402318"/><path d="M464,198l12,-92L448,88z" fill="#b3a786"/><path d="M318,256l6,-10V226z" fill="#a0684c"/><path d="M218,8l8,-24l2,22z" fill="#8e664c"/><path d="M334,258L316,194h16z" fill="#42372f"/><path d="M360,234l6,-4l2,12z" fill="#888364"/><path d="M474,184h-8l4,-6z" fill="#e0d8c1"/><path d="M214,-42L278,64L256,6z" fill="#b78b6c"/><path d="M196,164l4,-22l-10,-2z" fill="#f7ebd3"/><path d="M466,22l10,6L408,58z" fill="#5b382a"/><path d="M112,-26l38,38l62,-50z" fill="#502517"/><path d="M314,368l-6,-10l-4,38z" fill="#3a1c12"/><path d="M302,2l8,40l-6,-2z" fill="#b68e72"/><path d="M456,82L444,94L472,82z" fill="#9a8566"/><path d="M414,178l-6,-64l-6,12z" fill="#e8c5a1"/><path d="M214,202l-8,46l22,-38z" fill="#361a10"/><path d="M262,96l24,14L276,84z" fill="#513021"/><path d="M346,200v-4l-12,2z" fill="#667f58"/><path d="M414,84l-2,10l-28,26z" fill="#a67e5f"/><path d="M422,274l-22,30l12,-30z" fill="#b58f71"/><path d="M130,126l-4,8l2,-2z" fill="#bb713c"/><path d="M134,140l-4,28l10,2z" fill="#b78b5e"/><path d="M432,356l-14,-8l4,14z" fill="#634232"/><path d="M262,66l-4,8l-6,-8z" fill="#c3a38a"/><path d="M340,378l38,4l56,58z" fill="#3f231d"/><path d="M444,24L418,20L448,10z" fill="#725243"/><path d="M272,298l2,6l2,-14z" fill="#b38a71"/><path d="M448,282l30,24L442,284z" fill="#c9a386"/><path d="M234,330l-12,6l-2,52z" fill="#5a4436"/><path d="M164,520L270,354l22,2z" fill="#3e0e07"/><path d="M102,70L112,34L88,12z" fill="#734637"/><path d="M50,74l12,30l8,-4z" fill="#632618"/><path d="M430,116l-6,-6L446,92z" fill="#b6755e"/><path d="M236,26l-40,2L184,24z" fill="#c6997e"/><path d="M422,238V166l-2,52z" fill="#876d67"/><path d="M164,166l18,32L152,178z" fill="#57522f"/><path d="M156,244l-6,-2l6,-6z" fill="#e7decc"/><path d="M304,120l-2,-2l-8,4z" fill="#714d44"/><path d="M278,72L264,46l16,10z" fill="#9e7c64"/><path d="M98,146l6,40L78,112z" fill="#762919"/><path d="M318,184l-2,-10H276z" fill="#b8d3c8"/><path d="M-80,64L12,12l6,2z" fill="#744a3c"/><path d="M86,92l4,-8L92,70z" fill="#441b0a"/><path d="M494,220l-14,4l8,-16z" fill="#eae0da"/><path d="M400,292l-24,54l-2,-32z" fill="#633f2c"/><path d="M384,326l4,-4l-4,10z" fill="#331107"/><path d="M176,142l-2,4l22,10z" fill="#f6e8d1"/><path d="M250,228V218l-12,14z" fill="#e98c72"/><path d="M446,354l-62,88l52,-64z" fill="#4b281a"/><path d="M152,238l6,8l4,-6z" fill="#c3ac98"/><path d="M150,24L140,22l16,-6z" fill="#70402b"/><path d="M304,198l16,-8l-22,2z" fill="#789f91"/><path d="M168,136l10,-6L162,98z" fill="#957055"/><path d="M276,48L264,40l18,2z" fill="#b38f75"/><path d="M266,190l-28,14h70z" fill="#ecc3ab"/><path d="M460,226h-2l4,2z" fill="#beac9f"/><path d="M142,124L176,52l-10,6z" fill="#e0bb9d"/><path d="M372,278l-24,28L304,286z" fill="#3e1e16"/><path d="M292,196l-26,10l4,-14z" fill="#e9ad94"/><path d="M330,68l10,12l-20,2z" fill="#68463b"/><path d="M332,250l36,50L316,268z" fill="#311107"/><path d="M440,318l6,8l-14,-4z" fill="#6a4a3a"/><path d="M246,138l-2,-20l6,-22z" fill="#341203"/><path d="M336,222l16,2H338z" fill="#9aa78b"/><path d="M182,90L172,70l2,28z" fill="#efd1ab"/><path d="M370,18l-10,8V18z" fill="#7c5642"/><path d="M452,180l10,-28l14,8z" fill="#9d9d87"/><path d="M478,198l6,-10l28,10z" fill="#b47b6b"/><path d="M482,128l2,-2l6,6z" fill="#eac39d"/><path d="M486,242l8,-18l4,18z" fill="#bdb9af"/><path d="M156,58l8,2l-20,2z" fill="#966b4c"/><path d="M330,56l4,-12l4,10z" fill="#4d2216"/><path d="M438,330l20,88L436,380z" fill="#2c0e02"/><path d="M430,298l6,12l-4,-18z" fill="#76543e"/><path d="M440,184l6,-2l-16,2z" fill="#dab7a7"/><path d="M442,56l18,14l64,4z" fill="#2d0d03"/><path d="M100,2l24,56l10,-4z" fill="#3f1a0c"/><path d="M166,184l-16,16l30,-6z" fill="#423829"/><path d="M370,240L346,226l-22,8z" fill="#403421"/><path d="M324,24V18l32,34z" fill="#9c6b4d"/><path d="M288,260l14,-20h-8z" fill="#cb7b6c"/><path d="M284,266l6,-18l-14,-4z" fill="#c18e72"/><path d="M378,160l-8,-32l8,52z" fill="#412212"/><path d="M434,202l12,-2h-4z" fill="#c49e8e"/><path d="M308,34L306,14l16,-2z" fill="#d1aa89"/><path d="M132,262l-12,6l-2,34z" fill="#3e2015"/><path d="M150,220l6,-2l-4,-4z" fill="#926753"/><path d="M38,100L32,94H44z" fill="#723229"/><path d="M148,326L114,298l62,76z" fill="#2e1107"/><path d="M150,192h-4l-4,-8z" fill="#815c33"/><path d="M352,308l36,-18l-10,6z" fill="#331105"/><path d="M484,168v-4l-4,2z" fill="#987251"/><path d="M228,264l20,-10l4,10z" fill="#a44d32"/><path d="M228,224l10,-22l-14,46z" fill="#e0967b"/><path d="M490,36l24,18L556,42z" fill="#673c2a"/><path d="M166,248l-20,8L136,240z" fill="#663a28"/><path d="M230,236h-6l2,10z" fill="#b67153"/><path d="M468,72L432,82L452,72z" fill="#6a4a32"/><path d="M286,190l-10,-6l6,-2z" fill="#95ad9e"/><path d="M428,280l2,18l2,-16z" fill="#795333"/><path d="M138,72l2,-8L128,74z" fill="#dd9c68"/><path d="M316,246l-12,4l4,-6z" fill="#be8c6e"/><path d="M450,342l-2,-8l-4,44z" fill="#3b1d14"/><path d="M350,202h2l8,-2z" fill="#a7b78b"/><path d="M364,224l-4,-4l12,-4z" fill="#8e9473"/><path d="M110,108L130,92l-6,30z" fill="#f1a56a"/><path d="M254,216l4,-16l8,12z" fill="#fae7ca"/><path d="M210,320l20,-12l16,-8z" fill="#3e2014"/><path d="M304,280l-10,-2l18,-12z" fill="#7a442f"/><path d="M136,154l12,-12l-4,-6z" fill="#cea375"/><path d="M442,166l-4,4L420,120z" fill="#a06845"/><path d="M252,76L240,60l8,36z" fill="#754e39"/><path d="M190,156v28l4,-12z" fill="#a67b5c"/><path d="M172,150l26,40l-6,4z" fill="#bb967a"/><path d="M482,314L472,298l-4,2z" fill="#9d7862"/><path d="M144,238l8,6l-16,-6z" fill="#714636"/><path d="M158,236l-6,8h8z" fill="#eadfcd"/><path d="M240,52L230,36l-30,2z" fill="#9d6d52"/><path d="M496,86l18,16l-28,2z" fill="#d58568"/><path d="M454,162L422,150l2,-28z" fill="#ad796a"/><path d="M82,44V2L92,34z" fill="#5e321e"/><path d="M438,264l-2,8l-8,-12z" fill="#31120d"/><path d="M124,140l12,42L124,148z" fill="#996132"/><path d="M262,164l-4,-6l-18,4z" fill="#534f55"/><path d="M412,144l-8,12l-14,-8z" fill="#fdeeda"/><path d="M182,48l-4,-6h10z" fill="#b47b61"/><path d="M312,198l-2,6L300,194z" fill="#618267"/><path d="M402,156l-2,2l22,-14z" fill="#ecd4b7"/><path d="M368,242l-16,6l46,34z" fill="#2e1408"/><path d="M496,244l8,8l4,-8z" fill="#8d8485"/><path d="M216,8L206,-118L196,12z" fill="#663f2d"/><path d="M408,146l2,6l10,-6z" fill="#feefdb"/><path d="M444,174l22,6v20z" fill="#c7aa9d"/><path d="M310,248l-2,6l2,2z" fill="#bb9374"/><path d="M470,346v6v2z" fill="#8d6e60"/><path d="M362,-16l2,24L352,-6z" fill="#4a2818"/><path d="M472,34L440,-14L438,0z" fill="#5d392c"/><path d="M268,340L258,326l26,-2z" fill="#7b5541"/><path d="M438,150L432,94v38z" fill="#d49666"/><path d="M218,138v-8l-4,8z" fill="#754f35"/><path d="M506,180l14,-40l-12,50z" fill="#e4c2a4"/><path d="M484,352L466,318l12,6z" fill="#704f3c"/><path d="M488,350L472,322l16,4z" fill="#7d5a46"/><path d="M130,96l-12,20l4,-12z" fill="#cf834a"/><path d="M268,258l8,-12L266,236z" fill="#d56f5b"/><path d="M568,206L474,188l50,2z" fill="#b68373"/><path d="M270,236l12,2l8,-10z" fill="#dcbca9"/><path d="M96,190l-2,-8l16,10z" fill="#837d76"/><path d="M486,140l-6,12l76,10z" fill="#c68c6f"/><path d="M254,200l-2,-8h14z" fill="#d0b199"/><path d="M426,278l20,2H408z" fill="#c5a082"/><path d="M68,62l-8,2l18,6z" fill="#9d5b4b"/><path d="M276,100l30,50l-6,-14z" fill="#4c2920"/><path d="M280,100L256,90L296,68z" fill="#6d4430"/><path d="M382,200l-10,16H324z" fill="#30180e"/><path d="M116,40l-2,20L108,38z" fill="#54301e"/><path d="M12,-28H78l38,54z" fill="#321005"/><path d="M414,74L382,94l30,-2z" fill="#8c674e"/><path d="M434,336l-10,-4l8,-8z" fill="#b7997b"/><path d="M150,124l-2,-12v20z" fill="#dcb78e"/><path d="M204,102L190,66l24,22z" fill="#eab99b"/><path d="M398,76l-4,6V72z" fill="#56301e"/><path d="M244,372l6,-6l-16,6z" fill="#5e4438"/><path d="M406,164l-4,-10l-14,6z" fill="#e9c49f"/><path d="M428,254v-8l8,4z" fill="#351c15"/><path d="M184,168l2,6l-2,-12z" fill="#e9bfa7"/><path d="M214,110l2,4l-6,20z" fill="#af7559"/><path d="M80,66L84,46l-2,4z" fill="#6d3e2b"/><path d="M400,44H388l4,-2z" fill="#ac8673"/><path d="M148,88l14,20L144,94z" fill="#cea577"/><path d="M378,44h6l14,-2z" fill="#9f7a67"/><path d="M222,64l-6,-8l16,6z" fill="#efc8a4"/><path d="M432,204h12l-4,-2z" fill="#c19c8c"/><path d="M260,332l6,16l10,-30z" fill="#785643"/><path d="M340,202h6l-18,-4z" fill="#5e6b4d"/><path d="M84,100l6,32L74,124z" fill="#754a34"/><path d="M296,156L276,142l18,-18z" fill="#36160d"/><path d="M222,156l-10,2V148z" fill="#9d6648"/><path d="M242,254v-2l4,2z" fill="#b25033"/><path d="M450,144l-16,8l-8,-30z" fill="#cd9263"/><path d="M150,130l4,-6l20,30z" fill="#8f8c63"/><path d="M492,226l32,-2l-50,-4z" fill="#ebe4dc"/><path d="M414,350l-6,-10l2,2z" fill="#613f34"/><path d="M420,332l2,-44l4,2z" fill="#c9a78b"/><path d="M428,222l-14,22L390,216z" fill="#391a0e"/><path d="M326,296h-8v-2z" fill="#5e5347"/><path d="M262,280h4l-4,-8z" fill="#7b4831"/><path d="M404,322l4,-4l-2,22z" fill="#50331d"/><path d="M418,296l2,-16l-10,18z" fill="#583721"/><path d="M380,174l2,2l-2,-8z" fill="#7f5d4a"/><path d="M222,18l-12,6l12,-2z" fill="#a6785d"/><path d="M250,286l14,8l-8,4z" fill="#785a46"/><path d="M138,14l28,-2l-24,2z" fill="#90604d"/><path d="M332,246L322,212l2,26z" fill="#4c3226"/><path d="M212,100l4,-30V82z" fill="#eb9c8a"/><path d="M136,362L126,318l74,86z" fill="#412517"/><path d="M106,94l10,-2L104,84z" fill="#d6784c"/><path d="M442,220l14,4l-24,-4z" fill="#746c5e"/><path d="M52,58L66,48L42,54z" fill="#85654e"/><path d="M446,246l2,30l38,-6z" fill="#653b2a"/><path d="M392,184l-2,4l10,2z" fill="#74563d"/><path d="M352,56l-8,4L362,22z" fill="#916c59"/><path d="M462,236l-10,-2h16z" fill="#635146"/><path d="M312,300l-10,-2h10z" fill="#c0ccbe"/><path d="M378,70l-2,108L334,108z" fill="#35130b"/><path d="M82,264H44l28,-6z" fill="#351a14"/><path d="M470,232l4,14l-6,-14z" fill="#5d4e46"/><path d="M548,52L436,68L460,50z" fill="#321107"/><path d="M182,196l4,-10l4,10z" fill="#9d6e51"/><path d="M450,26H440h2z" fill="#9b7868"/><path d="M278,262h12l-8,20z" fill="#a97557"/><path d="M152,64l2,6l2,-6z" fill="#9f875b"/><path d="M416,118L414,64l-2,38z" fill="#ac8665"/><path d="M486,118l14,26L488,128z" fill="#deb890"/><path d="M428,138l-14,-6l14,-28z" fill="#9e6760"/><path d="M112,192h-4l-6,12z" fill="#88624c"/><path d="M24,58L42,36L28,26z" fill="#a66757"/><path d="M500,106l24,26l-32,18z" fill="#e68f79"/><path d="M468,294l2,-26l18,2z" fill="#4c2519"/><path d="M232,10l36,26L284,14z" fill="#c49f82"/><path d="M470,140h-2l22,34z" fill="#a88360"/><path d="M-36,30L10,88L-6,-16z" fill="#804033"/><path d="M252,22L258,0l-2,28z" fill="#b78c6c"/><path d="M162,36l-6,-4L190,22z" fill="#a98567"/><path d="M186,24l-26,2l20,-2z" fill="#cc9e81"/><path d="M6,30L-38,-6l16,70z" fill="#965d4e"/><path d="M378,36l4,-8l8,8z" fill="#caa88f"/><path d="M448,188l-60,-6l70,12z" fill="#956b5c"/><path d="M80,274l8,-4l-16,4z" fill="#614338"/><path d="M192,336l-6,6l-2,-2z" fill="#2a0e04"/><path d="M330,24l-4,-8l-6,2z" fill="#8d5e40"/><path d="M130,26l6,-8l14,2z" fill="#663b29"/><path d="M460,356l10,-6l-6,14z" fill="#745344"/><path d="M400,128l6,8h-6z" fill="#eecaa4"/><path d="M174,174l-10,6l6,8z" fill="#434541"/><path d="M316,68l12,-2L312,80z" fill="#8a6955"/><path d="M308,62L292,98L314,64z" fill="#6a4630"/><path d="M360,174l12,8H350z" fill="#546d46"/><path d="M342,324l50,-52l-24,48z" fill="#270c05"/><path d="M84,308l-6,12l-20,4z" fill="#2f0f06"/><path d="M322,132l-6,-28L328,90z" fill="#2d1111"/><path d="M318,412L212,390l28,-10z" fill="#36150c"/><path d="M396,208L372,182l20,38z" fill="#4c2819"/><path d="M508,244l-6,-8l8,2z" fill="#41353c"/><path d="M238,360h-8l16,-20z" fill="#3d1e13"/><path d="M352,68v6l-6,-4z" fill="#b2b0b2"/><path d="M198,46l-18,8l-6,-2z" fill="#e3b99d"/><path d="M162,312l8,-44l4,22z" fill="#503426"/><path d="M398,38v2h12z" fill="#54301a"/><path d="M214,130l-2,8l24,-36z" fill="#a7775b"/><path d="M456,228l-2,6l-6,-12z" fill="#b8af9f"/><path d="M450,266v-6L428,248z" fill="#542816"/><path d="M32,58L26,52l-6,6z" fill="#d19d91"/><path d="M66,46l4,8L56,50z" fill="#9f6753"/><path d="M396,184l16,2l-12,-4z" fill="#a0775c"/><path d="M64,258L42,268L32,266z" fill="#331a11"/><path d="M106,206l2,-4l-8,2z" fill="#af7e70"/><path d="M248,196l-18,14l-4,-20z" fill="#736a58"/><path d="M218,180l6,22l-20,-2z" fill="#514232"/><path d="M214,166l2,-8l6,12z" fill="#805439"/><path d="M502,170l-16,-4l10,8z" fill="#bb7263"/><path d="M8,14L-22,44L-8,12z" fill="#491e11"/><path d="M220,170l34,-18l-20,-6z" fill="#4d3f36"/><path d="M194,22h4H188z" fill="#93684f"/><path d="M414,306l4,-4l-4,-4z" fill="#50311b"/><path d="M146,210L108,200l4,8z" fill="#370e05"/><path d="M32,100L16,60l6,52z" fill="#4b1b11"/><path d="M128,68h8l-12,6z" fill="#d88f5b"/><path d="M384,190H372l2,-6z" fill="#3b2416"/><path d="M66,126L30,118l48,20z" fill="#300e05"/><path d="M204,144H192l2,4z" fill="#fcf1d7"/><path d="M4,98l4,8L2,102z" fill="#8a695c"/><path d="M-18,4L-72,42L12,58z" fill="#764334"/><path d="M258,188l-12,2l8,-18z" fill="#d0dbd2"/><path d="M70,224l-4,4H82z" fill="#422117"/><path d="M386,182l-2,2l30,16z" fill="#76513b"/><path d="M286,276l18,-2H288z" fill="#802e1b"/><path d="M314,84L334,64L312,92z" fill="#5d3a2a"/><path d="M278,330L242,282l18,20z" fill="#4d2b1c"/><path d="M308,106L292,96v24z" fill="#37150a"/><path d="M314,48L298,80l2,-32z" fill="#8b6950"/><path d="M504,14l2,8l4,-8z" fill="#b28c76"/><path d="M292,102l-6,-6l-2,6z" fill="#9a7660"/><path d="M36,216L58,200l16,26z" fill="#331309"/><path d="M106,74L94,78l12,-8z" fill="#7d462e"/><path d="M444,242l6,2v-8z" fill="#907d73"/><path d="M236,214l-4,2l6,-8z" fill="#d0aa93"/><path d="M158,228l-2,-38l6,44z" fill="#512419"/><path d="M274,236l-12,-2l10,-32z" fill="#ec9b86"/><path d="M136,36l-8,-4L138,14z" fill="#5c3625"/><path d="M444,280l-2,2l-24,-6z" fill="#d7b090"/><path d="M544,260L514,226l-8,14z" fill="#3d2f35"/><path d="M100,128L110,86L98,104z" fill="#bf5435"/><path d="M490,246h-8l16,2z" fill="#69605d"/><path d="M364,200l-4,-14h10z" fill="#8faa7f"/><path d="M26,180l30,32L54,196z" fill="#411d11"/><path d="M168,218v8l-8,-4z" fill="#693b2e"/><path d="M400,28h6h2z" fill="#73533e"/><path d="M436,204h-2l8,-2z" fill="#e5c1b0"/><path d="M174,324L162,294l-8,24z" fill="#4e3223"/><path d="M176,138L152,128v20z" fill="#817c55"/><path d="M356,336l4,22l-34,56z" fill="#351c15"/><path d="M498,48l-4,10l14,-6z" fill="#522417"/><path d="M422,144l-10,-6l14,6z" fill="#bc9689"/><path d="M62,82V76L72,88z" fill="#814033"/><path d="M246,230l2,8l-6,-4z" fill="#f28970"/><path d="M264,252l-14,8h14z" fill="#be8666"/><path d="M410,156l-10,2l8,4z" fill="#ceaa87"/><path d="M454,304L432,282l12,2z" fill="#bc9779"/><path d="M474,234h2l-2,6z" fill="#6c5b53"/><path d="M44,68l4,4L56,60z" fill="#5b3721"/><path d="M68,202l-4,-8l14,10z" fill="#4c271a"/><path d="M506,252l2,2L494,244z" fill="#807876"/><path d="M36,26L26,28L44,18z" fill="#9f6052"/><path d="M512,146L496,130h2z" fill="#c97b62"/><path d="M282,78h-8L286,62z" fill="#83604a"/><path d="M504,298l50,26L530,288z" fill="#775c53"/><path d="M118,90L148,64l2,12z" fill="#e9b780"/><path d="M96,178l2,-2l6,8z" fill="#55504f"/><path d="M50,10H28L50,2z" fill="#6c4031"/><path d="M330,60V58l-10,4z" fill="#967766"/><path d="M202,148l-26,-6v4z" fill="#fae8d1"/><path d="M446,310L428,410l12,-64z" fill="#45281c"/><path d="M408,32H382l22,2z" fill="#e2bca2"/><path d="M396,120V104l-16,36z" fill="#c59777"/><path d="M180,112V96l-2,18z" fill="#d9b392"/><path d="M412,304l-2,-12l8,2z" fill="#61412b"/><path d="M386,142l-6,-8l2,26z" fill="#a28267"/><path d="M66,54v8L70,52z" fill="#cd8b7a"/><path d="M222,336l34,6L222,326z" fill="#5c4537"/><path d="M270,286l-14,-2l14,10z" fill="#502415"/><path d="M170,98V92l-20,32z" fill="#a8806c"/><path d="M506,232l-4,2l38,-28z" fill="#4b4142"/><path d="M306,40l2,6l-4,-2z" fill="#b69075"/><path d="M210,24H178l52,2z" fill="#e4bca2"/><path d="M256,200l22,6l-34,6z" fill="#f7d4b2"/><path d="M180,158l6,12l-10,-6z" fill="#dfbda7"/><path d="M96,192l2,14L94,196z" fill="#f0c3a6"/><path d="M202,188l14,-12l-14,8z" fill="#d9b799"/><path d="M158,240l-2,-6v4z" fill="#e3dccc"/><path d="M374,38V72l2,-12z" fill="#401f10"/><path d="M450,180l2,-8l-12,4z" fill="#c29073"/><path d="M444,212l10,8l-10,2z" fill="#543737"/><path d="M296,320l-26,-4l76,-2z" fill="#37100a"/><path d="M60,94v12L72,92z" fill="#6c2b20"/><path d="M438,56L424,42l18,-4z" fill="#552f20"/><path d="M396,350l-12,-2l24,10z" fill="#553423"/><path d="M346,90L376,60V70z" fill="#391a0f"/><path d="M212,32H188l24,2z" fill="#eec5a5"/><path d="M198,158l-4,8l-2,-10z" fill="#deb498"/><path d="M448,194l-2,-2l-4,16z" fill="#7b5243"/><path d="M482,14l2,2L474,12z" fill="#755041"/><path d="M254,70h4h-2z" fill="#fff1d5"/><path d="M120,176l6,8l-2,-2z" fill="#7c360b"/><path d="M396,288l6,-2l20,-14z" fill="#bc9b78"/><path d="M412,44V20V38z" fill="#d1b19b"/><path d="M154,210l2,6h-6z" fill="#916d5b"/><path d="M40,276l8,2l32,-4z" fill="#3c2116"/><path d="M126,296l4,-48l-8,48z" fill="#3e2015"/><path d="M406,300l-2,8l-6,-8z" fill="#c3a186"/><path d="M504,200l-8,6l44,-16z" fill="#583d41"/><path d="M464,28H454l4,-2z" fill="#775546"/><path d="M-10,60L8,98v10z" fill="#451e16"/><path d="M156,112l-4,-8l-2,6z" fill="#bc8c66"/><path d="M364,36l8,-4L362,14z" fill="#6a4636"/><path d="M386,116l-6,4v14z" fill="#8e705b"/><path d="M322,300l-12,6l6,-6z" fill="#685b52"/><path d="M476,108l18,38L474,120z" fill="#d9af8a"/><path d="M252,232l4,-8l-2,16z" fill="#e6b89f"/><path d="M378,98V76v8z" fill="#502e1f"/><path d="M180,212h12V200z" fill="#6d402b"/><path d="M150,-86L176,14L158,0z" fill="#5a3320"/><path d="M88,182l-2,-8H60z" fill="#3a1108"/><path d="M330,108l-2,-4l12,-6z" fill="#a9aeae"/><path d="M396,20l10,-4L386,12z" fill="#462216"/><path d="M220,178h-6l10,6z" fill="#5b5245"/><path d="M486,358l-6,10V350z" fill="#664431"/><path d="M316,276l2,6l8,-14z" fill="#45251a"/><path d="M80,270l-6,2l6,-4z" fill="#8f7367"/><path d="M484,128l4,8l-4,-16z" fill="#ebc59f"/><path d="M158,332l44,-30l-52,20z" fill="#4a2e1f"/><path d="M110,96l8,8V72z" fill="#eca46f"/><path d="M178,48H166l-14,8z" fill="#764c33"/><path d="M414,278l12,-2l-12,6z" fill="#dfb896"/><path d="M276,326l4,8l-2,-12z" fill="#97705e"/><path d="M322,338l-10,4l16,6z" fill="#260c05"/><path d="M448,314l22,-38l-4,2z" fill="#9d7d6d"/><path d="M294,288l-14,8l2,14z" fill="#321108"/><path d="M394,104L408,78l6,8z" fill="#7f5a43"/><path d="M254,220l6,-4l-2,8z" fill="#f1d6bb"/><path d="M292,290l-8,26l16,-30z" fill="#54382b"/><path d="M422,228l-2,-36l2,50z" fill="#8e776c"/><path d="M226,134l12,-24L236,90z" fill="#9c7156"/><path d="M358,58l14,4L356,52z" fill="#5f3f35"/><path d="M-40,340l132,4l-194,58z" fill="#240404"/><path d="M162,40l8,8l-10,2z" fill="#6a402d"/><path d="M240,188l8,-2l-8,-4z" fill="#bcccbe"/><path d="M484,346l-14,22l12,-14z" fill="#623f2b"/><path d="M140,190l6,2l4,-4z" fill="#7f5730"/><path d="M464,34l-14,4l78,18z" fill="#4c2619"/><path d="M348,354l-8,-36l-42,6z" fill="#402419"/><path d="M254,372l-6,-8l-6,8z" fill="#5b4235"/><path d="M114,128l-8,-2v-4z" fill="#df884b"/><path d="M260,106l-6,-4l8,-8z" fill="#4b2b1d"/><path d="M310,114l26,4V104z" fill="#311a18"/><path d="M398,104l8,-4l-24,28z" fill="#bc8c6e"/><path d="M100,166l6,24l8,-4z" fill="#551c15"/><path d="M418,316v-2l-20,22z" fill="#9d7d68"/><path d="M168,224l38,34l10,-28z" fill="#351208"/><path d="M348,62l8,2l14,-2z" fill="#392525"/><path d="M212,324L194,270l-22,-4z" fill="#452619"/><path d="M280,48h-8l4,8z" fill="#9c7961"/><path d="M82,146l10,48L82,224z" fill="#441d10"/><path d="M244,268l-8,-6l16,-2z" fill="#9d5235"/><path d="M264,178l10,2l-8,6z" fill="#b0c6b8"/><path d="M310,28h12L310,26z" fill="#d8ac90"/><path d="M240,34L230,32l16,8z" fill="#c39c7d"/><path d="M380,64L392,48H378z" fill="#694638"/><path d="M160,94l12,-4L162,86z" fill="#ba937b"/><path d="M420,310l4,16l2,-18z" fill="#d3b596"/><path d="M96,48L94,44l2,10z" fill="#5c2918"/><path d="M314,340l-4,18l18,6z" fill="#220601"/><path d="M238,302l-28,14l36,-20z" fill="#573a2e"/><path d="M490,82L462,80l16,8z" fill="#a37b58"/><path d="M238,122l8,-20l-30,44z" fill="#997553"/><path d="M302,246v12L292,244z" fill="#bc5845"/><path d="M210,192v-2l-10,4z" fill="#926851"/><path d="M312,182l-2,8l4,-2z" fill="#c3dace"/><path d="M498,212l-6,-8v8z" fill="#635252"/><path d="M88,92v16L104,82z" fill="#9e624a"/><path d="M452,-16L442,4l54,36z" fill="#502e23"/><path d="M452,92l-24,8L440,88z" fill="#a76847"/><path d="M224,50l2,6l4,-4z" fill="#a98061"/><path d="M128,186l4,-22v22z" fill="#7f3e14"/><path d="M134,218L114,200l8,-2z" fill="#3a1a12"/><path d="M62,12l2,8L58,36z" fill="#552d1a"/><path d="M166,162l4,-8l6,2z" fill="#5a6a5a"/><path d="M410,292h4v-4z" fill="#51301b"/><path d="M456,208l-2,12L434,208z" fill="#543732"/><path d="M30,178l-14,6l24,4z" fill="#341309"/><path d="M316,86l24,-8l-10,8z" fill="#513732"/><path d="M406,38l-18,2l20,-2z" fill="#68432d"/><path d="M454,90l-4,18L460,90z" fill="#9d967b"/><path d="M456,246V228l2,8z" fill="#68574c"/><path d="M210,208H200l14,-6z" fill="#633827"/><path d="M310,310l12,-6l-20,2z" fill="#4d3d2e"/><path d="M436,14h-8l-6,-2z" fill="#927266"/><path d="M472,202l-18,4l24,-2z" fill="#7b514b"/><path d="M364,166l2,-38l-20,2z" fill="#300e05"/><path d="M372,24l22,4L370,24z" fill="#997563"/><path d="M130,38v8l-8,-8z" fill="#3a1409"/><path d="M282,250l4,-18l2,18z" fill="#cea386"/><path d="M130,122l-8,8l2,-14z" fill="#dc8f54"/><path d="M446,172h6v-8z" fill="#a0724f"/><path d="M360,242l-10,4l4,-8z" fill="#3a1910"/><path d="M460,24L458,10l6,2z" fill="#603e30"/><path d="M450,42l8,6l-40,6z" fill="#603c2e"/><path d="M330,100h2l4,-4z" fill="#c3c9c9"/><path d="M454,332l-4,4l14,2z" fill="#b3987d"/><path d="M406,302l6,6l-8,-10z" fill="#ba9880"/><path d="M510,248v6l-4,-12z" fill="#423939"/><path d="M360,10V8l36,10z" fill="#4d2915"/><path d="M318,88l20,-8l-30,6z" fill="#5d3828"/><path d="M512,6L488,0l22,-2z" fill="#664031"/><path d="M198,180l-18,10l18,-2z" fill="#b98c6d"/><path d="M250,102l2,-14l-4,6z" fill="#53311d"/><path d="M216,174l-6,10l6,-8z" fill="#b59d8b"/><path d="M502,246l-6,-4l12,12z" fill="#a59d9b"/><path d="M128,124l16,-24l-4,4z" fill="#ce9e69"/><path d="M390,90v8L380,92z" fill="#7e5b43"/><path d="M230,76V98l-4,10z" fill="#ddb78a"/><path d="M428,240V226l6,22z" fill="#3f2b25"/><path d="M36,-6L50,0H64z" fill="#391305"/><path d="M260,310l-2,-8l-14,14z" fill="#705440"/><path d="M106,200l-12,8l8,-14z" fill="#edbea1"/><path d="M256,280l10,8L250,272z" fill="#571a0a"/><path d="M124,138l-14,12h14z" fill="#b46423"/><path d="M96,20l22,10h14z" fill="#4f291b"/><path d="M342,16L330,6l10,14z" fill="#d0a788"/><path d="M490,46L504,12l-6,30z" fill="#603526"/><path d="M164,252L132,236l8,22z" fill="#633220"/><path d="M314,206l-4,-10l8,-2z" fill="#446f5e"/><path d="M484,136l-8,-4l8,6z" fill="#ba926c"/><path d="M370,232l-6,-6l-2,6z" fill="#a0ab83"/><path d="M222,28H210l14,-6z" fill="#ba8d6d"/><path d="M312,58h6L304,84z" fill="#6e4832"/><path d="M268,266v-8l6,6z" fill="#a7442d"/><path d="M14,112l60,4l-4,16z" fill="#340c05"/><path d="M472,136l-10,-8h10z" fill="#bfb497"/><path d="M476,74l-12,2h14z" fill="#7b533d"/><path d="M80,122l-4,22l16,22z" fill="#5d3522"/><path d="M64,72L80,52H76z" fill="#a56959"/><path d="M410,178l-6,6V174z" fill="#ab7f5f"/><path d="M150,200l-10,-8l12,2z" fill="#6e4823"/><path d="M500,310l24,26l-36,16z" fill="#240804"/><path d="M446,146l-8,6l14,6z" fill="#bd8255"/><path d="M236,130l32,8l-32,4z" fill="#4b3124"/><path d="M146,134l-12,-2l16,10z" fill="#d3ab7d"/><path d="M236,196l-8,2l10,-8z" fill="#666964"/><path d="M224,58l6,28L212,50z" fill="#f4c9a7"/><path d="M246,-74L210,20V-20z" fill="#693825"/><path d="M282,16L286,6l-2,20z" fill="#ab7c5e"/><path d="M398,326l-4,-18l10,6z" fill="#b8987d"/><path d="M272,70l6,-2l-6,-4z" fill="#9e8168"/><path d="M330,2L308,32l40,-66z" fill="#c69e7f"/><path d="M470,378l4,-10l4,8z" fill="#4f2d21"/><path d="M352,68h-4l2,-2z" fill="#646363"/><path d="M56,272H80H72z" fill="#775c50"/><path d="M402,120l8,20H400z" fill="#e7c7a9"/><path d="M202,42l4,4V42z" fill="#be876b"/><path d="M442,270l32,24h-4z" fill="#42241a"/><path d="M334,28h24L336,16z" fill="#cda181"/><path d="M220,236l2,6l-18,12z" fill="#361206"/><path d="M40,66L36,92L34,52z" fill="#995a4b"/><path d="M228,220v18l12,24z" fill="#d3986f"/><path d="M238,44h12l-8,12z" fill="#be977a"/><path d="M276,138v-8l-4,14z" fill="#68493c"/><path d="M166,108l10,18l-2,-14z" fill="#856148"/><path d="M56,18L52,2L46,22z" fill="#552615"/><path d="M162,-60L116,26L100,14z" fill="#3a1a0b"/><path d="M140,270l-10,20l2,-20z" fill="#5f3928"/><path d="M456,360l-2,-14l-4,-10z" fill="#6d4f3f"/><path d="M284,204l-14,2l18,14z" fill="#edd6c0"/><path d="M266,92l-6,-6l34,12z" fill="#5e3725"/><path d="M430,236l20,-2l18,-2z" fill="#67554b"/><path d="M92,76L112,52L96,80z" fill="#6c3822"/><path d="M468,98l12,10l6,6z" fill="#b98d64"/><path d="M358,242l54,2l8,26z" fill="#321105"/><path d="M64,26L48,18l6,16z" fill="#623925"/><path d="M134,166l10,-6l-6,-14z" fill="#b99263"/><path d="M38,270H52H48z" fill="#826a5e"/><path d="M80,222l-2,-2L98,206z" fill="#3a1105"/><path d="M62,44L78,58L70,40z" fill="#a76554"/><path d="M384,38H372h18z" fill="#5a3721"/><path d="M330,50h-2H318z" fill="#582c1b"/><path d="M34,120L58,98L56,74z" fill="#3f1908"/><path d="M500,222l-22,22l12,-16z" fill="#e8e3d7"/><path d="M438,276l-6,-4l12,2z" fill="#421a0b"/><path d="M474,262l6,-6l-26,4z" fill="#6f493e"/><path d="M22,70l6,-6l4,14z" fill="#97574a"/><path d="M228,180l-4,-2l-12,14z" fill="#4e493c"/><path d="M340,30l26,-4l-26,2z" fill="#caa085"/><path d="M18,252l48,6L82,232z" fill="#210401"/><path d="M446,142l10,-12L426,116z" fill="#d99d6f"/><path d="M382,34L372,32l18,2z" fill="#d5b298"/><path d="M336,180l10,2l-8,-6z" fill="#89bb9c"/><path d="M108,102L102,88l-8,8z" fill="#c46645"/><path d="M332,56l-8,8h6z" fill="#93725d"/><path d="M432,344l-8,-8l2,-16z" fill="#b39574"/><path d="M248,170l4,-8l-12,8z" fill="#515953"/><path d="M386,24h10H374z" fill="#c8a594"/><path d="M454,208l12,-4l-10,12z" fill="#6f584e"/><path d="M286,108v-6v4z" fill="#b18c7a"/><path d="M190,40h-4h10z" fill="#845336"/><path d="M152,52l6,4l-20,4z" fill="#5f2f1b"/><path d="M408,74l2,-14l2,20z" fill="#654431"/><path d="M434,350l-12,4V344z" fill="#765742"/><path d="M60,70V62L50,70z" fill="#5d311c"/><path d="M502,196l-8,6l14,-4z" fill="#785754"/><path d="M178,190l4,22L172,200z" fill="#613420"/><path d="M270,322v-8l2,8z" fill="#4a1909"/><path d="M378,458l34,-96l-30,42z" fill="#36150b"/><path d="M68,104l-8,8v-8z" fill="#541c13"/><path d="M156,114l10,12L156,114z" fill="#7e5233"/><path d="M148,298l18,-10l-32,-6z" fill="#463024"/><path d="M432,112L452,90l-20,16z" fill="#cb895f"/><path d="M226,160l32,-4l-34,14z" fill="#4f4c3e"/><path d="M76,338l24,4l20,-6z" fill="#310806"/><path d="M500,10l4,2L500,2z" fill="#522c1a"/><path d="M426,282l6,-6l-6,12z" fill="#cea885"/><path d="M146,32l10,-2l2,6z" fill="#895841"/><path d="M416,358h-6l2,34z" fill="#2a0b02"/><path d="M104,234l6,-4l-8,4z" fill="#46241d"/><path d="M196,52L182,50L172,76z" fill="#f3cead"/><path d="M360,386l14,-42L358,292z" fill="#2c0f07"/><path d="M182,262l10,-12l34,8z" fill="#2a0b02"/><path d="M484,322l-14,24l14,-22z" fill="#8b6852"/><path d="M238,272l-12,28V264z" fill="#604436"/><path d="M448,94l6,-6l-2,10z" fill="#b0906f"/><path d="M394,324l6,-6l-4,8z" fill="#a8896e"/><path d="M16,404L8,374l-36,16z" fill="#37140b"/><path d="M116,304l10,-60l-12,36z" fill="#34140d"/><path d="M114,160l10,-2l8,16z" fill="#944d13"/><path d="M90,20h8L90,14z" fill="#683f2f"/><path d="M464,198l2,-22H456z" fill="#c2b8a3"/><path d="M482,212l2,-4l-8,8z" fill="#524641"/><path d="M468,218h2l10,-2z" fill="#5c5450"/><path d="M138,60l4,-6l-16,4z" fill="#4e2510"/><path d="M468,300l4,4l-14,4z" fill="#805c43"/><path d="M412,18l2,-4h-2z" fill="#906f60"/><path d="M370,24l2,8h-2z" fill="#6b4738"/><path d="M236,70l-2,-4L206,78z" fill="#d9af93"/><path d="M270,-16l64,-6L304,2z" fill="#805039"/><path d="M416,272l16,-28l-22,30z" fill="#381604"/><path d="M18,92L8,94V88z" fill="#682921"/><path d="M98,36l4,-4L94,28z" fill="#874e41"/><path d="M74,144l-32,2l-8,16z" fill="#401c12"/><path d="M142,92l-16,4l-4,-6z" fill="#fcd2a7"/><path d="M66,140l22,44L54,122z" fill="#350e06"/><path d="M228,208v8l-2,-10z" fill="#5e4b43"/><path d="M292,104v-2V96z" fill="#58341e"/><path d="M268,96L252,86l20,8z" fill="#5a3925"/><path d="M208,136l2,-4l-2,-10z" fill="#d3a687"/><path d="M128,262L108,200l14,64z" fill="#2f0c05"/><path d="M478,186l-20,-2l4,14z" fill="#c9b2a2"/><path d="M174,68L192,48L176,72z" fill="#fbe4c4"/><path d="M422,366l-4,-10l8,16z" fill="#674535"/><path d="M430,334v8l6,-8z" fill="#a0856d"/><path d="M438,294l6,8h-6z" fill="#714f3a"/><path d="M184,264l32,38l4,-38z" fill="#391d11"/><path d="M-62,394L-36,270l52,10z" fill="#220501"/><path d="M122,240l6,14V194z" fill="#36150f"/><path d="M58,292L24,306l74,4z" fill="#240500"/><path d="M182,124l-4,-22L168,78z" fill="#d8b28a"/><path d="M308,302l-6,-2l-6,-4z" fill="#7f8173"/><path d="M446,278l10,2l-4,-8z" fill="#512512"/><path d="M498,174l10,-6l-22,2z" fill="#b4725e"/><path d="M466,172h16l-6,-6z" fill="#a78969"/><path d="M312,180l-40,-4l40,6z" fill="#a6c3b8"/><path d="M240,178l-10,2l4,4z" fill="#65746b"/><path d="M286,276l-6,-2l2,2z" fill="#93583f"/><path d="M82,186l-18,2L80,178z" fill="#441a0f"/><path d="M208,26l18,6l4,-2z" fill="#b4856a"/><path d="M380,144l8,8l-4,-14z" fill="#a8886b"/><path d="M332,96L348,70L334,90z" fill="#d1dad9"/><path d="M388,306l-4,8v14z" fill="#442411"/><path d="M446,250l10,-8l-2,2z" fill="#7f6d63"/><path d="M278,172h4H268z" fill="#969393"/><path d="M138,332l-24,-6l-2,6z" fill="#37190d"/><path d="M392,320l12,14l-6,4z" fill="#a4846d"/><path d="M96,122l12,36l4,-4z" fill="#9b3e17"/><path d="M344,184v-4l-12,8z" fill="#7ba989"/><path d="M456,300l4,8h-4z" fill="#58381e"/><path d="M230,380l-10,34l16,-36z" fill="#35160c"/><path d="M318,374L308,358l10,10z" fill="#381910"/><path d="M474,262l6,6l2,-10z" fill="#674136"/><path d="M456,380l10,-16l4,76z" fill="#3c1b10"/><path d="M288,140l-8,-28V102z" fill="#3d1909"/><path d="M84,348l-40,8l6,-32z" fill="#210302"/><path d="M214,136l18,-18l-14,12z" fill="#794f37"/><path d="M320,58l6,-2H316z" fill="#321005"/><path d="M200,372l6,28l-6,-22z" fill="#290e06"/><path d="M434,320l2,-20l14,28z" fill="#5a3b28"/><path d="M322,124L358,72l4,-10z" fill="#2d191c"/><path d="M84,150l6,-6L82,126z" fill="#75412e"/><path d="M118,112l-8,8V104z" fill="#ee9e62"/><path d="M484,274l18,12L486,258z" fill="#351a13"/><path d="M209,202l8,-25l5,29z" fill="#4b392c"/><path d="M277,186l19,5h-9z" fill="#95b1a2"/><path d="M67,212l-35,2L21,203z" fill="#36150a"/><path d="M192,162l19,-3l-2,11z" fill="#e4b594"/><path d="M391,364L380,333l6,-12z" fill="#2e0d07"/><path d="M184,45L166,56l1,-15z" fill="#735038"/><path d="M158,191l-9,15l11,6z" fill="#432617"/><path d="M106,78l6,2L132,65z" fill="#c16a3b"/><path d="M266,246l-2,-9l15,14z" fill="#d76955"/><path d="M443,325l-3,-9l5,11z" fill="#9e8069"/><path d="M426,97L419,81L449,71z" fill="#6f4630"/><path d="M344,280l22,6l-13,25z" fill="#371a10"/><path d="M52,283L27,269l16,17z" fill="#31120a"/><path d="M108,87l-5,9l3,-17z" fill="#d59166"/><path d="M457,243l-3,-11l-5,8z" fill="#9a8c82"/><path d="M335,104l8,-30l-16,31z" fill="#c5d2cf"/><path d="M437,225l8,7l-8,-14z" fill="#bbb19f"/><path d="M482,212l-7,30l13,-41z" fill="#d3c9c2"/><path d="M452,291l-9,-1l9,7z" fill="#8a684e"/><path d="M492,295l-21,-3l15,27z" fill="#2e0d07"/><path d="M301,239l8,20l4,-18z" fill="#c99a7e"/><path d="M481,236L465,220l38,2z" fill="#ebe4d7"/><path d="M396,63l-4,7l5,10z" fill="#583522"/><path d="M436,236l5,-6l9,22z" fill="#7a6b61"/><path d="M321,6l-1,-60L313,4z" fill="#643d26"/><path d="M337,197l-20,-4l8,-9z" fill="#3c4244"/><path d="M291,223l-7,-15l-7,22z" fill="#ecd4c0"/><path d="M228,149l-11,4l12,-13z" fill="#9d6d50"/><path d="M490,41L529,30L498,49z" fill="#653627"/><path d="M431,276l-9,-4v-7z" fill="#ac8c73"/><path d="M455,197l-9,-1l9,6z" fill="#805543"/><path d="M508,219H497l15,3z" fill="#777573"/><path d="M189,23L164,21l33,2z" fill="#a0725b"/><path d="M371,37l1,-5l8,5z" fill="#a38069"/><path d="M295,53L284,46l-1,28z" fill="#764b35"/><path d="M373,159l6,-2l-3,-10z" fill="#4f3025"/><path d="M509,315l-3,-11l8,-3z" fill="#3e3035"/><path d="M237,364l21,5l-13,-8z" fill="#593a30"/><path d="M249,200l-8,11l18,7z" fill="#f5d9bc"/><path d="M377,26l-9,3h58z" fill="#7e5c46"/><path d="M259,80l3,-50l1,48z" fill="#865f48"/><path d="M291,287l-7,-6l-2,14z" fill="#491c10"/><path d="M179,14l-8,6l9,1z" fill="#66301d"/><path d="M215,23L193,21L224,6z" fill="#78553d"/><path d="M372,209l-7,-5l7,21z" fill="#302016"/><path d="M199,151l-27,-5h34z" fill="#fcf3de"/><path d="M369,240l-6,-22l5,2z" fill="#c1d2b6"/><path d="M174,134L151,105l13,28z" fill="#916344"/><path d="M259,97V92l-4,3z" fill="#ccb5a0"/><path d="M488,236l9,-13l-18,21z" fill="#ede4d7"/><path d="M80,104L90,81v6z" fill="#411909"/><path d="M130,24L105,23L115,8z" fill="#411d10"/><path d="M264,252l11,12l5,-16z" fill="#b54d3a"/><path d="M177,193l1,-5l8,8z" fill="#976c52"/><path d="M503,157l37,-52l-46,47z" fill="#d88372"/><path d="M249,10l-5,13l23,3z" fill="#bf9373"/><path d="M404,199l12,10l-34,-1z" fill="#4c2d21"/><path d="M418,185l1,9l9,-17z" fill="#a48673"/><path d="M172,29L156,26l16,-1z" fill="#cfa387"/><path d="M500,132L481,107l4,8z" fill="#b48760"/><path d="M239,124l-14,19l1,-27z" fill="#7f6048"/><path d="M336,173l10,7l-11,-5z" fill="#82a992"/><path d="M329,353l-4,7l15,5z" fill="#3a1e17"/><path d="M348,184l-10,18l13,1z" fill="#708f60"/><path d="M456,-5l-7,16l28,1z" fill="#4c281b"/><path d="M255,269l11,5l-2,-9z" fill="#8a5c43"/><path d="M318,249l-3,-9l-2,20z" fill="#b45b43"/><path d="M373,289l39,-19l-57,15z" fill="#270904"/><path d="M285,273l15,-6l-7,13z" fill="#842719"/><path d="M-9,206l20,78L35,267z" fill="#280a06"/><path d="M193,139l-12,1l-3,-29z" fill="#d7b08f"/><path d="M170,201l-14,-2l17,-4z" fill="#36251f"/><path d="M437,245l1,5l-10,-4z" fill="#3e2821"/><path d="M304,16L309,4l10,8z" fill="#cca283"/><path d="M475,201l5,-2l-5,-5z" fill="#db9b8e"/><path d="M66,9L44,28L67,-23z" fill="#46210f"/><path d="M413,313l-10,6l1,-3z" fill="#624635"/><path d="M451,358L439,327l-3,2z" fill="#37180c"/><path d="M82,45L79,63L60,28z" fill="#ab685a"/><path d="M446,309l-14,3l3,-13z" fill="#4d2d1f"/><path d="M401,282l-23,18l22,-20z" fill="#a87f62"/><path d="M261,132L259,89l28,27z" fill="#3e1e12"/><path d="M231,233l6,14l5,-40z" fill="#e7ba9c"/><path d="M309,30l3,16L296,45z" fill="#b18b71"/><path d="M342,228L320,212l2,15z" fill="#4e3a30"/><path d="M488,228l-8,7l-9,-10z" fill="#d6d0c3"/><path d="M344,198l17,-11l-10,17z" fill="#8aac7a"/><path d="M260,176l-14,-4l-20,1z" fill="#adc9b9"/><path d="M232,262l25,39L235,263z" fill="#5f210b"/><path d="M212,66l-4,12l16,3z" fill="#e49e8a"/><path d="M252,365l26,-19l15,27z" fill="#3f0f07"/><path d="M386,90l15,8l-23,23z" fill="#8a6951"/><path d="M16,114l34,27l4,-37z" fill="#340f04"/><path d="M454,230l-8,-3l4,-2z" fill="#d6d2c4"/><path d="M243,306l23,4l-28,1z" fill="#755b4c"/><path d="M408,300l1,-6l10,-13z" fill="#4e2b16"/><path d="M483,315l5,14l-7,20z" fill="#7a5844"/><path d="M484,215l-9,6h26z" fill="#e3dbd4"/><path d="M414,285l-8,-7l11,14z" fill="#a88165"/><path d="M472,341l1,-6l8,2z" fill="#6c4c38"/><path d="M283,108l8,-6l-4,10z" fill="#b69676"/><path d="M428,58L472,48L410,68z" fill="#341206"/><path d="M126,315v59l54,10z" fill="#3c2115"/><path d="M439,237l2,3v-7z" fill="#cdbcaa"/><path d="M41,85L32,95l12,2z" fill="#7b3930"/><path d="M149,193l5,-26l9,24z" fill="#4d4123"/><path d="M444,305l21,34l-1,-9z" fill="#b59a7f"/><path d="M240,112l3,-28L237,67z" fill="#c89c78"/><path d="M473,255l-6,-20l-3,3z" fill="#c7bea9"/><path d="M476,174l-23,-5l-2,-14z" fill="#939780"/><path d="M22,53L16,66l7,-1z" fill="#724637"/><path d="M231,34V16l10,18z" fill="#d0a887"/><path d="M516,177l-46,-4l26,11z" fill="#dca491"/><path d="M62,133l-9,-5l-1,12z" fill="#654231"/><path d="M132,157l-8,-26l-1,31z" fill="#b36223"/><path d="M240,192l8,4v-4z" fill="#6c8f82"/><path d="M371,191l6,-31l3,43z" fill="#321a0d"/><path d="M464,290l4,13L452,286z" fill="#c5a385"/><path d="M462,80l-12,6l4,-9z" fill="#887e64"/><path d="M195,37l12,2l-20,7z" fill="#997254"/><path d="M299,220l12,-9l-20,2z" fill="#f1cfbd"/><path d="M393,40l58,-6L425,44z" fill="#5d3828"/><path d="M164,12H154h11z" fill="#ba8d7b"/><path d="M247,275l9,-1l-9,-8z" fill="#792612"/><path d="M181,318l28,-9l8,12z" fill="#4c2f21"/><path d="M353,217l8,4l-2,13z" fill="#5b6441"/><path d="M64,361L52,351l2,24z" fill="#300b04"/><path d="M223,243l-25,6l27,5z" fill="#34160c"/><path d="M231,393l16,-12l-13,-5z" fill="#38140b"/><path d="M126,35l-11,2L98,18z" fill="#4b2616"/><path d="M255,405l68,-30l-37,11z" fill="#230600"/><path d="M239,222l13,18l-3,-24z" fill="#ec8d73"/><path d="M425,139l-9,45l14,-34z" fill="#976063"/><path d="M284,279l3,-7l-10,-1z" fill="#906242"/><path d="M446,173l6,9l-13,-1z" fill="#ca9a7a"/><path d="M505,181l2,8l51,15z" fill="#e2ceba"/><path d="M249,115l10,3L248,106z" fill="#381b12"/><path d="M107,202v-8l23,21z" fill="#331006"/><path d="M442,332l-3,1l10,6z" fill="#4c3530"/><path d="M231,355l1,8h8z" fill="#3c2014"/><path d="M80,67L62,75L76,59z" fill="#935545"/><path d="M32,63L42,20V38z" fill="#a76658"/><path d="M107,75l6,-8l-10,9z" fill="#8b5539"/><path d="M460,220l-2,-5l3,-1z" fill="#c1ac99"/><path d="M472,303l16,30l-2,-7z" fill="#98785d"/><path d="M266,24l-4,-7l29,-37z" fill="#c29b7c"/><path d="M511,191l-28,-4h16z" fill="#c28e7f"/><path d="M417,167l1,16l-5,5z" fill="#a1785d"/><path d="M349,79l3,-7l-9,4z" fill="#d7e1df"/><path d="M429,35L409,75l5,-39z" fill="#674431"/><path d="M332,185V174l13,6z" fill="#98bba4"/><path d="M167,57L156,34l3,28z" fill="#673420"/><path d="M130,120l8,21l1,-25z" fill="#e6c08d"/><path d="M362,173l8,5l-17,-3z" fill="#4f542f"/><path d="M468,279l-2,5l16,-6z" fill="#5a3729"/><path d="M419,308l-6,1l1,4z" fill="#f0d9ba"/><path d="M80,257l11,10H65z" fill="#391a10"/><path d="M95,187l10,9l1,-2z" fill="#c6ad95"/><path d="M143,13l15,3L141,7z" fill="#5a3322"/><path d="M54,189l1,22l3,-9z" fill="#431f13"/><path d="M169,158h7l-1,32z" fill="#3f6163"/><path d="M506,229v18l-6,-14z" fill="#534e57"/><path d="M494,211l4,5l61,-48z" fill="#44343b"/><path d="M463,224l13,8l-4,17z" fill="#5a4b48"/><path d="M440,300l14,14l-7,-21z" fill="#9e8266"/><path d="M510,196l-19,7l7,-8z" fill="#855f5b"/><path d="M403,284l7,-7l-8,4z" fill="#cca383"/><path d="M484,69l26,19l38,19z" fill="#2e0d06"/><path d="M320,171l-25,-1l22,-10z" fill="#311b1c"/><path d="M139,330L125,307l25,23z" fill="#250801"/><path d="M152,180l-1,-22l9,26z" fill="#554e2d"/><path d="M125,111l9,7l-9,6z" fill="#e29d66"/><path d="M258,308l-6,-14l15,16z" fill="#624734"/><path d="M481,154l3,-18l13,12z" fill="#c79c76"/><path d="M147,36l21,1L139,31z" fill="#81513a"/><path d="M169,167l4,25l4,-8z" fill="#3c4749"/><path d="M403,157l9,24l4,-13z" fill="#d3ad87"/><path d="M405,370L386,360l16,41z" fill="#3d1d0f"/><path d="M415,315l3,4l-3,11z" fill="#6c4f3c"/><path d="M464,277l3,-2l-8,22z" fill="#bfa28d"/><path d="M29,344l1,-35l15,-6z" fill="#361209"/><path d="M223,142l-12,-3v-6z" fill="#875d47"/><path d="M500,88l41,33l-16,2z" fill="#dfb381"/><path d="M122,140l-7,6l-6,-16z" fill="#cd6e23"/><path d="M284,111L277,86l5,5z" fill="#512e1d"/><path d="M80,20L95,39L77,9z" fill="#4d2716"/><path d="M512,299l32,16L504,298z" fill="#b69e8c"/><path d="M203,-8l9,28l4,-5z" fill="#6a3723"/><path d="M199,32v3l9,-2z" fill="#f1ccad"/><path d="M251,177l-19,-1l-9,1z" fill="#a0b5a3"/><path d="M293,9L279,36L293,25z" fill="#9e6e52"/><path d="M453,170l-2,-10l-20,-8z" fill="#b57952"/><path d="M151,88l3,7l-5,22z" fill="#c8976a"/><path d="M389,322l8,16l-1,-19z" fill="#9f7f65"/><path d="M225,383l-5,-29l1,15z" fill="#553b2f"/><path d="M199,27L187,25l8,10z" fill="#be9476"/><path d="M293,220l-16,12l23,-3z" fill="#e3c1af"/><path d="M427,274l-10,2l33,7z" fill="#deb794"/><path d="M412,46l1,39l1,-18z" fill="#ab8b77"/></svg>