<?xml version="1.0"?><svg xmlns="http://www.w3.org/2000/svg" version="1.2" viewBox="0 0 512 384" width="800" height="600"><path d="M-1,-1V385H513V-1z" fill="#3e3525"/><path d="M520,232L-160,40L584,-784z" fill="#cad0d4"/><path d="M-152,120L112,88L-144,-160z" fill="#716e5a"/><path d="M232,168l240,48L-64,16z" fill="#bbb096"/><path d="M664,192l96,104L112,128z" fill="#c6ba9b"/><path d="M80,104L-264,-504L136,88z" fill="#adb0a9"/><path d="M264,48l88,104L376,-88z" fill="#e4e2e0"/><path d="M312,144L176,56l376,80z" fill="#d7d8d5"/><path d="M680,184L392,280L552,208z" fill="#383126"/><path d="M72,40L32,88L16,-16z" fill="#908e7a"/><path d="M96,128L24,72l128,64z" fill="#524c37"/><path d="M-160,0L184,216L-72,-32z" fill="#312e27"/><path d="M504,224L472,192L680,72z" fill="#a99f7b"/><path d="M712,312L480,224L344,216z" fill="#352f22"/><path d="M120,128h48L-8,24z" fill="#a69b80"/><path d="M144,288L400,248L104,160z" fill="#4b4032"/><path d="M480,224l32,-72l-88,48z" fill="#b8ab8b"/><path d="M352,112L368,-56L464,72z" fill="#d0d4d9"/><path d="M392,208L544,152L312,184z" fill="#c4b899"/><path d="M-48,304L56,352l136,40z" fill="#241d0f"/><path d="M-112,312l32,-528L16,48z" fill="#242419"/><path d="M720,-48L416,136l64,24z" fill="#d5d0c4"/><path d="M312,192L244,172l172,36z" fill="#c9bb9c"/><path d="M76,148l144,24L-32,68z" fill="#2a2a21"/><path d="M132,112L148,64L12,-136z" fill="#b9c0c0"/><path d="M136,124l24,-24L68,60z" fill="#ada587"/><path d="M284,12L188,88l88,48z" fill="#d3d7db"/><path d="M144,136l4,-48l120,96z" fill="#c2b594"/><path d="M72,100L24,44l40,8z" fill="#a59e7e"/><path d="M464,164l44,64L368,204z" fill="#b6a88b"/><path d="M76,376L-128,280L24,364z" fill="#0c0b04"/><path d="M180,104L132,4V84z" fill="#c3c5c7"/><path d="M548,284L508,228l-76,-8z" fill="#26251a"/><path d="M96,116L0,88V56z" fill="#222116"/><path d="M40,352H20l24,4z" fill="#52482b"/><path d="M220,480L316,368l-32,16z" fill="#231b11"/><path d="M320,204l-88,-8L168,152z" fill="#2b2b23"/><path d="M76,308L24,296l80,24z" fill="#2b2212"/><path d="M20,40L-8,-56L52,68z" fill="#999570"/><path d="M60,524L132,348l-16,92z" fill="#0e0d06"/><path d="M468,252L288,196l132,20z" fill="#26241e"/><path d="M96,352l48,24H132z" fill="#0a0902"/><path d="M-44,432l4,-108l52,64z" fill="#0b0b07"/><path d="M104,-152L-28,-60L72,48z" fill="#a7afae"/><path d="M100,380l8,-16l8,16z" fill="#4f422d"/><path d="M392,160L204,124l28,16z" fill="#c5bca7"/><path d="M488,164l64,-36L420,164z" fill="#cfc8b8"/><path d="M80,376l32,-40l-4,-12z" fill="#1e1d11"/><path d="M112,340l108,40l-8,-8z" fill="#18180d"/><path d="M16,384H12l-68,8z" fill="#0a0903"/><path d="M28,264l-40,60L32,276z" fill="#251b0b"/><path d="M184,276l4,44L176,276z" fill="#2a2015"/><path d="M180,340l12,-4H176z" fill="#67593c"/><path d="M456,372L420,356l-16,8z" fill="#231a0c"/><path d="M44,76V72l60,48z" fill="#9b9479"/><path d="M324,40L316,0l-8,60z" fill="#f6efeb"/><path d="M12,328l52,-8l-40,8z" fill="#12110d"/><path d="M84,272l16,8l16,4z" fill="#180c02"/><path d="M328,24l-8,24h20z" fill="#f6efec"/><path d="M172,308l-12,-4h12z" fill="#594e3a"/><path d="M128,300v4h-8z" fill="#645b44"/><path d="M512,132l-8,36h8z" fill="#c5bdb1"/><path d="M160,276l-4,32l20,100z" fill="#170a01"/><path d="M160,348l-8,20l52,-68z" fill="#615940"/><path d="M220,324l32,-20l-56,28z" fill="#5c5036"/><path d="M196,336h8l12,100z" fill="#171001"/><path d="M36,316l8,-32L80,244z" fill="#21170f"/><path d="M12,344H36L32,324z" fill="#110806"/><path d="M64,368l64,36L-40,512z" fill="#101002"/><path d="M264,372l-68,84l80,-76z" fill="#51432b"/><path d="M56,348l12,4l8,-28z" fill="#1f180f"/><path d="M232,352l44,16l72,24z" fill="#5c4d3f"/><path d="M136,240v60l-4,44z" fill="#231a0f"/><path d="M56,284H68l-4,4z" fill="#584e3f"/><path d="M-4,-24L-16,132L4,8z" fill="#221c0c"/><path d="M220,368l-32,-8L56,308z" fill="#615437"/><path d="M36,352l56,8l-28,4z" fill="#4b4327"/><path d="M228,392l12,-28l-72,52z" fill="#52422c"/><path d="M288,356l-72,48L324,316z" fill="#1b120a"/><path d="M208,368L188,316l-12,-8z" fill="#231810"/><path d="M0,268L20,252L8,244z" fill="#2b200e"/><path d="M256,376l-48,68L324,404z" fill="#624e32"/><path d="M172,348h4L160,328z" fill="#190e01"/><path d="M288,372l4,-4l-8,-4z" fill="#685a4d"/><path d="M-24,336l56,44L16,376z" fill="#5b4526"/><path d="M312,360L296,336l8,20z" fill="#635a49"/><path d="M116,124l20,8l76,32z" fill="#b5a488"/><path d="M88,332L4,304l44,20z" fill="#180d07"/><path d="M384,264H232l-44,44z" fill="#4b4232"/><path d="M32,300l-4,4l48,20z" fill="#4d422c"/><path d="M64,272L4,252l72,24z" fill="#4f4637"/><path d="M412,164l108,12h-8z" fill="#a3987f"/><path d="M84,284L64,308l12,-4z" fill="#1c1307"/><path d="M152,256h8l-8,-8z" fill="#2f2012"/><path d="M488,340l20,28l-16,-4z" fill="#1d1407"/><path d="M256,348l16,12L256,340z" fill="#100d09"/><path d="M132,220v-4l-4,4z" fill="#251909"/><path d="M284,312l24,40L224,316z" fill="#413626"/><path d="M52,328h8l-20,4z" fill="#585027"/><path d="M412,384l-4,-4l-48,-8z" fill="#1b170b"/><path d="M428,376h-4L376,316z" fill="#1e1508"/><path d="M116,348h4l-4,24z" fill="#635131"/><path d="M374,346l58,-22l-46,24z" fill="#60533b"/><path d="M70,348L42,366L64,330z" fill="#110f09"/><path d="M342,142l88,22l18,-48z" fill="#ded6c9"/><path d="M292,364H272l24,8z" fill="#715840"/><path d="M152,282l12,-4h36z" fill="#1c1108"/><path d="M280,354l28,20h24z" fill="#110907"/><path d="M298,358V332l14,30z" fill="#665742"/><path d="M0,52L-12,6L50,92z" fill="#282412"/><path d="M264,332l16,10L270,330z" fill="#625346"/><path d="M96,328l10,-10v32z" fill="#040608"/><path d="M294,330l-12,-6l24,30z" fill="#62583e"/><path d="M202,354l-10,8L160,348z" fill="#5c4927"/><path d="M172,380L56,340l136,54z" fill="#120e0c"/><path d="M54,326l12,6H42z" fill="#685431"/><path d="M150,338l-4,4l22,2z" fill="#74573c"/><path d="M68,274H58H84z" fill="#71604b"/><path d="M262,374L224,358l6,-6z" fill="#110d06"/><path d="M0,280L-16,264l54,28z" fill="#56472b"/><path d="M236,304v-6l-24,12z" fill="#180b0a"/><path d="M164,364L108,350l56,10z" fill="#685d44"/><path d="M254,282L240,266l-10,28z" fill="#342713"/><path d="M136,300L74,290l54,16z" fill="#68543a"/><path d="M60,402l74,-24l-10,2z" fill="#0c0804"/><path d="M236,326v-8l-14,22z" fill="#100c09"/><path d="M152,210l-10,4l20,-10z" fill="#382c1b"/><path d="M302,302l-16,12l38,-16z" fill="#706552"/><path d="M294,378l18,12l-6,-14z" fill="#1b1510"/><path d="M464,166l62,6l20,-58z" fill="#c9c4b8"/><path d="M258,346l30,-30l-34,22z" fill="#130d08"/><path d="M-22,384l-4,-20l48,6z" fill="#271f10"/><path d="M206,364h30l4,16z" fill="#604c2a"/><path d="M374,338l8,4l-4,-8z" fill="#201d13"/><path d="M258,182h12l-22,-6z" fill="#7f7359"/><path d="M36,232l-2,24l-24,8z" fill="#5c523a"/><path d="M450,366l86,30L514,384z" fill="#5e4f3c"/><path d="M34,222l2,-6l-14,6z" fill="#1b150c"/><path d="M180,332l-8,-12l56,-34z" fill="#5f4e38"/><path d="M20,364l12,4l-34,4z" fill="#1d1915"/><path d="M140,136l8,-26l-48,-2z" fill="#b5a583"/><path d="M168,356l26,-22l-36,22z" fill="#1a1410"/><path d="M164,312h8L150,288z" fill="#130804"/><path d="M206,294l-6,-28l22,50z" fill="#312816"/><path d="M60,42L82,64L34,34z" fill="#938f7a"/><path d="M86,106L30,60l88,66z" fill="#a1966c"/><path d="M280,320l-24,-6l12,4z" fill="#160f02"/><path d="M362,366l8,-14l-22,10z" fill="#614d39"/><path d="M542,-96L480,18L612,186z" fill="#c0c7cd"/><path d="M144,318L52,294l66,26z" fill="#584830"/><path d="M156,380l-12,52l42,-78z" fill="#080806"/><path d="M404,160l42,44L346,202z" fill="#c0b396"/><path d="M138,332l-4,-28v56z" fill="#231b0f"/><path d="M188,352l-2,-38l-6,24z" fill="#5f5234"/><path d="M390,420l26,-66l-10,2z" fill="#1a1811"/><path d="M134,98l-2,34l52,24z" fill="#bbab8d"/><path d="M88,302v-2l48,-8z" fill="#28291c"/><path d="M-36,338L4,326l16,8z" fill="#4b4433"/><path d="M454,342l44,10l-20,-2z" fill="#675840"/><path d="M252,344l4,24L230,336z" fill="#5e4b32"/><path d="M184,292l52,16l48,14z" fill="#1f1207"/><path d="M384,160h10l-14,-2z" fill="#a99c80"/><path d="M84,316L10,302l18,-4z" fill="#645132"/><path d="M82,278l-8,2l2,34z" fill="#0e0b07"/><path d="M70,228L40,288L60,220z" fill="#614e3b"/><path d="M76,334v12L96,336z" fill="#665436"/><path d="M212,370l-6,-20L184,516z" fill="#0d0a09"/><path d="M388,314l68,18l-6,-2z" fill="#251d15"/><path d="M36,374H60l-14,8z" fill="#5d4923"/><path d="M332,360L298,348v2z" fill="#2e1f12"/><path d="M292,336h20l44,14z" fill="#5d5444"/><path d="M110,270l38,12L106,268z" fill="#150b06"/><path d="M260,364l-2,-8l-14,-6z" fill="#826749"/><path d="M494,308l-10,4l10,-8z" fill="#1f190d"/><path d="M98,364l28,8H94z" fill="#5c5444"/><path d="M500,364l12,2L494,354z" fill="#3e372b"/><path d="M346,338l-28,-8l10,-2z" fill="#5f513b"/><path d="M102,276l10,28l-8,8z" fill="#1e1710"/><path d="M514,186l24,92L510,220z" fill="#95895e"/><path d="M132,284l2,30l6,-58z" fill="#19100b"/><path d="M138,316l22,2l28,12z" fill="#1a1812"/><path d="M126,346l6,-2l84,30z" fill="#0b0b05"/><path d="M340,330l-12,20l18,-18z" fill="#130903"/><path d="M300,142L190,120l96,68z" fill="#c7b79c"/><path d="M206,116L154,16L290,128z" fill="#d8d8d3"/><path d="M80,258l12,6v-6z" fill="#14100b"/><path d="M282,312l30,10L272,308z" fill="#23211a"/><path d="M-4,-38l8,18l6,52z" fill="#262615"/><path d="M464,372l4,-40l12,38z" fill="#231b11"/><path d="M304,124l-50,6l88,20z" fill="#e3dfd3"/><path d="M26,308l8,12l76,16z" fill="#15150c"/><path d="M246,406l10,-40l-34,28z" fill="#201612"/><path d="M206,334l16,-4l-18,-4z" fill="#685638"/><path d="M32,236L6,230l30,12z" fill="#5a4f41"/><path d="M342,370l-2,-2l-38,-6z" fill="#605448"/><path d="M184,306v8l-6,4z" fill="#160d06"/><path d="M314,324l-18,4l20,4z" fill="#16120f"/><path d="M174,282l12,6l-16,-6z" fill="#705e4a"/><path d="M42,324L22,312L0,314z" fill="#62502d"/><path d="M408,482L338,346l4,12z" fill="#16120a"/><path d="M106,268l6,-6l8,6z" fill="#1b1206"/><path d="M218,168L178,154l6,2z" fill="#534a34"/><path d="M450,360l-12,-8h-8z" fill="#7c6952"/><path d="M86,256L50,244l24,10z" fill="#60533d"/><path d="M344,378l-10,-6l10,56z" fill="#160e0a"/><path d="M256,332V316l6,2z" fill="#6c6252"/><path d="M134,416L78,370l-24,2z" fill="#0e0c08"/><path d="M266,294l-26,-2l18,-2z" fill="#61513d"/><path d="M240,276l-12,-6l20,4z" fill="#4e4536"/><path d="M452,428L364,314l18,14z" fill="#574b34"/><path d="M20,234H4l16,6z" fill="#261c13"/><path d="M420,356l10,4H410z" fill="#423a2b"/><path d="M48,430L94,400L72,376z" fill="#514932"/><path d="M436,344l40,30L436,340z" fill="#161008"/><path d="M288,188h2h4z" fill="#938361"/><path d="M258,218h12l-2,-8z" fill="#635440"/><path d="M234,352L164,336l56,16z" fill="#64503b"/><path d="M54,262L70,244l16,-4z" fill="#160f07"/><path d="M328,220l-4,-22L260,184z" fill="#252319"/><path d="M60,252l2,16L48,246z" fill="#322317"/><path d="M200,312l-10,18l42,-30z" fill="#2e2214"/><path d="M-8,356l30,-6L36,326z" fill="#100e07"/><path d="M80,292h8l4,-4z" fill="#6c5943"/><path d="M300,360h6H296z" fill="#625540"/><path d="M46,106l44,6l80,52z" fill="#1f1b15"/><path d="M230,358l12,-10L224,338z" fill="#20150e"/><path d="M32,322l-8,26L44,302z" fill="#100c06"/><path d="M474,354L450,332l32,26z" fill="#665740"/><path d="M166,302l2,6l6,-6z" fill="#705d45"/><path d="M476,340h-8l6,-2z" fill="#645d4e"/><path d="M152,306l-14,4l20,4z" fill="#5c4d2e"/><path d="M166,298l12,10l-16,-2z" fill="#6c563d"/><path d="M20,292L0,314L-16,300z" fill="#080706"/><path d="M352,198L288,186l58,14z" fill="#b6a98b"/><path d="M388,364h-8l10,-2z" fill="#160e05"/><path d="M204,116l2,-36l-42,20z" fill="#d7d8d0"/><path d="M470,222l-8,22L422,216z" fill="#262414"/><path d="M86,230l26,14L56,224z" fill="#5d5140"/><path d="M64,366l20,-6H52z" fill="#6e572c"/><path d="M384,-36L272,38L284,6z" fill="#d7dadf"/><path d="M194,376l62,50L196,372z" fill="#0e0502"/><path d="M510,370l-30,14l16,-16z" fill="#5c4c38"/><path d="M240,64L194,54L364,-94z" fill="#ccd5dd"/><path d="M378,-60L358,96L340,-2z" fill="#dddde1"/><path d="M240,392l8,-28l14,4z" fill="#120d0a"/><path d="M142,276l68,-6l-42,4z" fill="#60533b"/><path d="M316,318l6,4l8,-10z" fill="#635239"/><path d="M10,284L32,272L46,248z" fill="#161208"/><path d="M28,254L2,242l38,14z" fill="#25180f"/><path d="M272,332v8l-6,-4z" fill="#655749"/><path d="M126,290l-12,-2L92,278z" fill="#6d553c"/><path d="M386,328l20,18l14,28z" fill="#100904"/><path d="M12,22L64,94L20,50z" fill="#9e9471"/><path d="M366,280l14,-4l-8,-6z" fill="#574e40"/><path d="M-42,346l56,14L4,366z" fill="#65593b"/><path d="M288,290l48,38L270,268z" fill="#1a120a"/><path d="M258,314l-24,12l28,-20z" fill="#0e0801"/><path d="M116,250L104,208l14,38z" fill="#271d10"/><path d="M330,356L302,344l-4,-14z" fill="#453927"/><path d="M310,340l28,10L258,326z" fill="#231b10"/><path d="M232,198l112,28l-26,-8z" fill="#514736"/><path d="M176,290l16,-6l-4,8z" fill="#1e1c12"/><path d="M196,372l12,-18l14,2z" fill="#140d0b"/><path d="M148,360l6,4l-16,4z" fill="#5d4a20"/><path d="M120,276L94,270l44,14z" fill="#574b3a"/><path d="M92,328V316l-22,6z" fill="#624728"/><path d="M354,326v10l16,-26z" fill="#180c0e"/><path d="M226,348v-6l-40,2z" fill="#554435"/><path d="M332,148l22,-16l28,24z" fill="#e3ddcd"/><path d="M486,366H476l-14,-6z" fill="#4a4333"/><path d="M334,256l-24,34l6,6z" fill="#1c1810"/><path d="M116,322L96,338l16,-16z" fill="#130a03"/><path d="M66,258l-8,-4L26,278z" fill="#60513d"/><path d="M440,136L416,98L576,50z" fill="#d2d3cd"/><path d="M336,288l-14,8l20,-34z" fill="#4e4334"/><path d="M148,346l-8,-4h8z" fill="#72683d"/><path d="M314,348l6,26l2,-8z" fill="#110b02"/><path d="M200,282L160,262l30,20z" fill="#564b36"/><path d="M36,272l26,-2L28,268z" fill="#2f2516"/><path d="M60,310l4,-2L50,306z" fill="#6f5743"/><path d="M448,338L382,322l24,8z" fill="#584c3e"/><path d="M314,410L284,374l-2,12z" fill="#17150e"/><path d="M226,266l-10,-2h8z" fill="#2f2314"/><path d="M30,356l24,-4l-24,6z" fill="#423f1f"/><path d="M508,174l6,38l32,-44z" fill="#766c5c"/><path d="M86,236L38,232l52,8z" fill="#493e31"/><path d="M158,366v-8l6,8z" fill="#735e42"/><path d="M376,36l-94,66L370,86z" fill="#dcdddd"/><path d="M360,354l18,-28l-10,-2z" fill="#625032"/><path d="M342,302l28,30L332,302z" fill="#271f13"/><path d="M36,206l-8,-2H42z" fill="#170e03"/><path d="M76,304l6,-8h4z" fill="#0f0a04"/><path d="M312,334l-4,-2l12,4z" fill="#5a513f"/><path d="M370,386l-48,-4l-20,8z" fill="#5b4b33"/><path d="M106,286l2,-8l14,8z" fill="#18130b"/><path d="M22,288l-6,2l52,18z" fill="#0b0802"/><path d="M22,334l-2,6l-10,2z" fill="#3b361c"/><path d="M108,154l-6,88L82,148z" fill="#473c2f"/><path d="M184,260l-26,2l16,2z" fill="#352b1b"/><path d="M304,292h2l-10,-2z" fill="#807763"/><path d="M266,280l-12,-2l4,2z" fill="#6a5e4a"/><path d="M330,320l-14,10l6,-8z" fill="#413527"/><path d="M120,280v0l42,-8z" fill="#6a5d45"/><path d="M232,332l-16,12l24,-28z" fill="#0e0702"/><path d="M80,228L72,216l2,18z" fill="#2b2217"/><path d="M244,348l-10,6h18z" fill="#664e37"/><path d="M488,368l8,2l-4,-4z" fill="#5f553f"/><path d="M310,290L290,266l20,16z" fill="#665a48"/><path d="M32,394l-60,18L-8,370z" fill="#070502"/><path d="M182,270l4,28l4,6z" fill="#111009"/><path d="M246,308v-6H236z" fill="#675d3d"/><path d="M222,378v-4l-4,4z" fill="#17100c"/><path d="M344,30L300,54L312,12z" fill="#f5ede9"/><path d="M246,362l-4,-8l20,10z" fill="#6e5a3b"/><path d="M94,206l18,30l-2,22z" fill="#5b4b39"/><path d="M104,352v0h6z" fill="#726451"/><path d="M268,310l8,6l2,-24z" fill="#5f4f39"/><path d="M92,292h8l-8,-4z" fill="#6e5636"/><path d="M134,24l138,94L140,36z" fill="#d6d6d2"/><path d="M474,174l24,-2l4,44z" fill="#b2a684"/><path d="M516,360l-10,24l-36,36z" fill="#291f14"/><path d="M108,332l16,-2l10,4z" fill="#675536"/><path d="M278,290l-24,-4l-12,-6z" fill="#60563a"/><path d="M430,358l60,14L456,362z" fill="#130b02"/><path d="M386,368l22,24L398,368z" fill="#564831"/><path d="M46,34L98,84L44,74z" fill="#a49e7b"/><path d="M288,350l2,8L266,338z" fill="#1a140d"/><path d="M114,324l16,4l8,-2z" fill="#160f08"/><path d="M114,256l-10,-2l12,2z" fill="#6d634f"/><path d="M338,246v0l8,-2z" fill="#23180a"/><path d="M268,364l-4,-6l32,-10z" fill="#100c04"/><path d="M170,316h8v6z" fill="#6a573c"/><path d="M94,-46l4,58l48,38z" fill="#c8c8c8"/><path d="M388,358l84,26l-12,-2z" fill="#5c4b30"/><path d="M148,248l12,14l-6,-18z" fill="#1a140c"/><path d="M182,350l10,12l-20,-8z" fill="#56462d"/><path d="M-4,-126L104,74l8,-30z" fill="#b1b7b7"/><path d="M66,48L36,62L24,12z" fill="#9c9777"/><path d="M212,376l30,6l-12,-6z" fill="#070501"/><path d="M486,264l32,6l-2,-10z" fill="#473d31"/><path d="M234,296l-10,-2l36,10z" fill="#1f110f"/><path d="M554,406L452,372l40,12z" fill="#221a0c"/><path d="M122,322l38,8l-6,-8z" fill="#594d34"/><path d="M148,288l2,8l-10,-8z" fill="#241c12"/><path d="M404,322l-6,-2l10,2z" fill="#5f523c"/><path d="M40,360L28,356L38,346z" fill="#5e522d"/><path d="M334,386l-14,8l30,-16z" fill="#110c09"/><path d="M40,372v4L4,378z" fill="#675429"/><path d="M418,366l36,36L400,338z" fill="#1d170a"/><path d="M272,306l-12,-6l8,2z" fill="#655746"/><path d="M448,342l14,8L436,332z" fill="#231e19"/><path d="M264,320l-26,20H224z" fill="#68523a"/><path d="M128,256l4,-8l-14,-4z" fill="#5e5140"/><path d="M244,322l-10,-4h16z" fill="#20130a"/><path d="M20,296l50,18H56z" fill="#725838"/><path d="M484,372l34,8l8,4z" fill="#1c1811"/><path d="M356,350l22,14L346,350z" fill="#22170a"/><path d="M310,268v12l2,-8z" fill="#281d0d"/><path d="M252,176l60,16L272,182z" fill="#c2b294"/><path d="M182,374l10,-4v36z" fill="#62533f"/><path d="M70,98l16,8H82z" fill="#958c61"/><path d="M38,116l-54,-4L0,64z" fill="#28251b"/><path d="M222,306l-6,12l16,-10z" fill="#554932"/><path d="M282,304l-8,4l20,-6z" fill="#1c1007"/><path d="M458,400l30,30L448,364z" fill="#160c05"/><path d="M154,290l8,10l8,-2z" fill="#0a0601"/><path d="M378,324h-2V308z" fill="#221810"/><path d="M394,358l-4,4l-4,-8z" fill="#1c1507"/><path d="M100,206v4l-8,2z" fill="#2b1e12"/><path d="M176,206l-8,-2l-42,40z" fill="#342b1f"/><path d="M250,180L184,168L168,154z" fill="#201e12"/><path d="M46,316l10,2L10,330z" fill="#0a0503"/><path d="M122,286v-2l26,10z" fill="#2b1712"/><path d="M138,300l16,4l-14,4z" fill="#1d1a13"/><path d="M8,4l2,-8L2,-14z" fill="#2d2c17"/><path d="M34,346l10,6L30,348z" fill="#5f5638"/><path d="M62,244L80,228l-10,2z" fill="#190f04"/><path d="M28,370H50l-16,6z" fill="#645429"/><path d="M380,366l4,4l2,-4z" fill="#595040"/><path d="M476,222h-6h8z" fill="#766632"/><path d="M84,360l-4,20l28,-36z" fill="#090900"/><path d="M200,348H186l16,-6z" fill="#221507"/><path d="M104,266L70,280L92,266z" fill="#2a1918"/><path d="M300,316l2,-6l8,2z" fill="#1c170e"/><path d="M480,224l4,2l-38,32z" fill="#212012"/><path d="M418,308l6,8l-8,-2z" fill="#5c5246"/><path d="M46,348l12,-4L-24,310z" fill="#060704"/><path d="M474,170L408,152l82,-8z" fill="#d2ccbc"/><path d="M480,342l8,-8l12,18z" fill="#1e1c16"/><path d="M390,320l-4,-2l-32,-6z" fill="#120c01"/><path d="M28,276l10,4l20,-4z" fill="#514938"/><path d="M140,250l8,4l-18,2z" fill="#5f5444"/><path d="M56,324l12,4l-10,8z" fill="#615438"/><path d="M332,302L314,272l16,30z" fill="#5e5344"/><path d="M92,316l22,-12l-14,14z" fill="#1d160c"/><path d="M126,216l10,2l-6,-10z" fill="#32291c"/><path d="M10,252l-14,2l6,20z" fill="#241d14"/><path d="M282,338l-10,-2l2,4z" fill="#6d5d4f"/><path d="M60,356l-8,4l8,4z" fill="#796445"/><path d="M144,266h18l18,2z" fill="#665a46"/><path d="M322,58L310,56L338,42z" fill="#f3ede5"/><path d="M132,324l14,-6l-16,4z" fill="#2b2520"/><path d="M438,294l10,-8l-14,4z" fill="#261d12"/><path d="M430,342l-12,16l-6,-42z" fill="#514534"/><path d="M278,172l10,-30H256z" fill="#cfbfa3"/><path d="M146,318l-6,-4l-14,12z" fill="#1c160f"/><path d="M86,264H78l-2,4z" fill="#5a533f"/><path d="M120,346H110l6,8z" fill="#705936"/><path d="M530,230l-20,-6l-22,-2z" fill="#a69b70"/><path d="M330,304l-10,-4L290,290z" fill="#251a0f"/><path d="M298,286L288,264h-6z" fill="#1e1509"/><path d="M632,-12L454,74l120,28z" fill="#cccccd"/><path d="M84,360l6,-2L68,352z" fill="#453c1f"/><path d="M334,352l6,10L320,352z" fill="#51432e"/><path d="M188,294l-14,4l-12,-6z" fill="#524736"/><path d="M112,240l30,8l24,8z" fill="#20150a"/><path d="M138,356H128l16,-8z" fill="#16110f"/><path d="M96,232L94,222v20z" fill="#2f2315"/><path d="M362,340l2,32l2,2z" fill="#66543e"/><path d="M112,206L86,226l20,-10z" fill="#594c3c"/><path d="M10,-30L-10,-50L46,26z" fill="#8d8a72"/><path d="M272,184l32,30L244,182z" fill="#29261c"/><path d="M304,256h-8l4,-4z" fill="#302512"/><path d="M420,342l10,8L386,336z" fill="#281b10"/><path d="M46,260l-8,-2l-4,-6z" fill="#241810"/><path d="M268,336l2,-6l10,10z" fill="#6d5e51"/><path d="M34,362l8,-2l-82,34z" fill="#0b0809"/><path d="M380,318l28,-8l14,-6z" fill="#292016"/><path d="M240,332l8,8l4,-8z" fill="#442f21"/><path d="M468,318h6l-4,-6z" fill="#595242"/><path d="M86,332h2H84z" fill="#50493a"/><path d="M152,220l-2,-6l6,8z" fill="#655946"/><path d="M38,282v8L28,282z" fill="#5e4a2d"/><path d="M310,346L296,336l-10,8z" fill="#5a442c"/><path d="M174,256v-6l-6,6z" fill="#26180b"/><path d="M70,350V336l-26,8z" fill="#020803"/><path d="M270,330l-4,8l4,-6z" fill="#584c42"/><path d="M222,256l-30,4H182z" fill="#362512"/><path d="M356,308l-10,-6v6z" fill="#5d5545"/><path d="M372,372h-6l70,20z" fill="#1a1008"/><path d="M74,286L64,278l20,10z" fill="#3d3728"/><path d="M374,296L326,262l2,-6z" fill="#5b4f40"/><path d="M170,260l30,-4l-10,-2z" fill="#6a6149"/><path d="M146,94L162,56l28,32z" fill="#c3c9c9"/><path d="M132,132l10,4L120,126z" fill="#a49a7a"/><path d="M472,374l-10,-2l60,4z" fill="#54473c"/><path d="M250,294l-12,-6L218,274z" fill="#493a26"/><path d="M40,234V224l6,2z" fill="#615135"/><path d="M64,256l8,4l14,-2z" fill="#23150e"/><path d="M66,294l68,16H122z" fill="#221b0e"/><path d="M172,262h4v-6z" fill="#352816"/><path d="M84,214l6,-8L72,216z" fill="#514434"/><path d="M190,312l-8,6h10z" fill="#392d20"/><path d="M148,202l-28,10h-6z" fill="#2e2317"/><path d="M192,388l-6,-12H176z" fill="#685c48"/><path d="M34,306L6,302l4,-4z" fill="#564830"/><path d="M164,242l10,4l-4,-10z" fill="#655741"/><path d="M378,314l12,-2l-38,-2z" fill="#514838"/><path d="M60,244l-6,-2l18,-2z" fill="#4f4331"/><path d="M314,380l-2,-8l6,2z" fill="#3c3e37"/><path d="M376,362l4,-4L324,310z" fill="#4b412f"/><path d="M216,166l30,8L174,150z" fill="#bcac8d"/><path d="M370,306l22,-8l-30,6z" fill="#5a4e3a"/><path d="M372,156l-46,40L250,168z" fill="#caba99"/><path d="M16,204h8H-4z" fill="#5d5140"/><path d="M56,300l2,-8l-12,4z" fill="#675b4b"/><path d="M180,304l-2,2l-6,-2z" fill="#6b583f"/><path d="M390,308l-16,10l22,-12z" fill="#54483b"/><path d="M104,252l26,6L70,238z" fill="#21150a"/><path d="M192,24L174,-8L142,12z" fill="#c4cbcf"/><path d="M328,368l20,2l-14,2z" fill="#5c4c36"/><path d="M354,354L332,344l10,10z" fill="#181208"/><path d="M154,302l-12,-6h8z" fill="#776c4c"/><path d="M46,324H56l-14,4z" fill="#463921"/><path d="M174,332l-4,2l22,2z" fill="#735e3a"/><path d="M224,362l-12,6l32,8z" fill="#6b512c"/><path d="M150,198l-8,-8l6,14z" fill="#362e1d"/><path d="M360,376l20,22l12,-16z" fill="#564624"/><path d="M424,364l10,-14l-16,10z" fill="#3d3225"/><path d="M324,356l52,18l-22,-4z" fill="#231c15"/><path d="M-88,50L20,48L-4,2z" fill="#1b1a15"/><path d="M214,378L164,478l64,-98z" fill="#504232"/><path d="M254,350l-20,-2l34,2z" fill="#1f1b14"/><path d="M194,248l-22,10l36,-20z" fill="#3e3322"/><path d="M264,370l38,12L270,370z" fill="#110902"/><path d="M482,342l-18,8l6,2z" fill="#221b14"/><path d="M232,270v-4l-18,10z" fill="#2d2012"/><path d="M96,250l-10,6L78,236z" fill="#4a3f2f"/><path d="M294,314h4l-2,-8z" fill="#6b573f"/><path d="M470,290l-10,8l28,20z" fill="#463f34"/><path d="M454,318l4,-2l-16,-6z" fill="#2b2416"/><path d="M464,254l-10,20l10,-18z" fill="#52493a"/><path d="M410,230L328,220L278,198z" fill="#2b2b25"/><path d="M138,370l-16,-4L70,344z" fill="#0d0804"/><path d="M332,294h8l-16,-4z" fill="#1c1107"/><path d="M280,12l-4,76l26,8z" fill="#dcddde"/><path d="M84,310L52,326L80,314z" fill="#0e0b06"/><path d="M212,252h6l-14,-8z" fill="#2d2213"/><path d="M558,238l-60,38l14,-20z" fill="#50463a"/><path d="M298,254l-44,16l36,-12z" fill="#605541"/><path d="M292,252l-10,10l10,-14z" fill="#605542"/><path d="M130,366l8,8L68,432z" fill="#050704"/><path d="M164,370l-12,-4l-22,-2z" fill="#564d39"/><path d="M428,164l28,-4L406,142z" fill="#dad3c3"/><path d="M208,222l-8,-8l32,32z" fill="#675c4b"/><path d="M306,18l40,-6L308,10z" fill="#e7e3e2"/><path d="M278,308l12,8l-12,-6z" fill="#1b110a"/><path d="M252,342L236,330l4,14z" fill="#715c3c"/><path d="M64,220h2H62z" fill="#72644e"/><path d="M510,358l4,-2h-4z" fill="#736850"/><path d="M428,214l38,-40l-44,-6z" fill="#b8ab8b"/><path d="M280,220l6,8L256,204z" fill="#655946"/><path d="M268,316l-2,-8l10,6z" fill="#60513f"/><path d="M26,368l-4,-8l-8,14z" fill="#0b0607"/><path d="M8,214h2L-36,186z" fill="#5c5245"/><path d="M68,254H58l14,-8z" fill="#100a03"/><path d="M128,310l72,24l-18,-4z" fill="#0e0c08"/><path d="M308,360l10,-2l-24,-6z" fill="#655643"/><path d="M34,244L-32,228l42,14z" fill="#52493b"/><path d="M56,300l4,-6l4,6z" fill="#6f5d30"/><path d="M258,288l-2,-2l12,-4z" fill="#322a1b"/><path d="M396,352l16,-28l-28,26z" fill="#61523c"/><path d="M388,362l46,16l-26,-6z" fill="#2d210c"/><path d="M248,318l10,-6l-18,6z" fill="#22180d"/><path d="M290,362l-4,-4l-6,2z" fill="#070904"/><path d="M418,330l2,4L408,322z" fill="#271a0f"/><path d="M402,368v-4l6,2z" fill="#392f1f"/><path d="M54,280l22,6l-12,4z" fill="#5d4f3a"/><path d="M294,288l-28,10l32,-16z" fill="#23160a"/><path d="M480,362l14,2l-28,-4z" fill="#19120b"/><path d="M42,254l6,-4l12,16z" fill="#45402f"/><path d="M302,314l24,-6l-2,-6z" fill="#170b03"/><path d="M92,262L82,280l18,-12z" fill="#180e0a"/><path d="M328,326l12,-16l-6,10z" fill="#1f150b"/><path d="M414,350l8,6v0z" fill="#2b2014"/><path d="M496,346l38,8l-38,-6z" fill="#524c39"/><path d="M110,122L56,88L34,64z" fill="#9e936f"/><path d="M4,234l-12,2L4,224z" fill="#18120c"/><path d="M10,180v18l8,-16z" fill="#52483b"/><path d="M140,382l-20,10l54,-2z" fill="#604e2a"/><path d="M282,370l-6,-8l8,8z" fill="#7c6345"/><path d="M146,306l-8,4l6,-2z" fill="#6c5837"/><path d="M194,314l34,8l-10,-2z" fill="#5e4b3d"/><path d="M338,318l36,10l-2,-2z" fill="#6e6141"/><path d="M402,260l24,-18l8,14z" fill="#4f4638"/><path d="M214,326l-8,-10v4z" fill="#110901"/><path d="M198,286l10,4l-4,-10z" fill="#1f1511"/><path d="M150,224h10l4,26z" fill="#3d3428"/><path d="M26,254L12,270l4,-6z" fill="#52482f"/><path d="M8,228L-18,206l32,22z" fill="#241e12"/><path d="M126,356l-6,2l-10,-4z" fill="#685841"/><path d="M400,240l-14,4l2,-6z" fill="#52483b"/><path d="M422,346L402,330l6,4z" fill="#191106"/><path d="M290,264l-4,18l-10,10z" fill="#4b412f"/><path d="M148,268l2,2l4,-2z" fill="#766549"/><path d="M66,370l2,-6l10,-2z" fill="#69542b"/><path d="M298,214l-10,-8v16z" fill="#484130"/><path d="M276,228l-28,6l6,-2z" fill="#6d6250"/><path d="M216,306l-6,8l-10,-6z" fill="#190f08"/><path d="M232,262h-8h56z" fill="#322319"/><path d="M70,210l-28,8l10,-4z" fill="#53493b"/><path d="M26,226l-6,2L2,218z" fill="#5d523e"/><path d="M-32,120L14,110L-2,108z" fill="#363325"/><path d="M116,376l6,-8h-6z" fill="#69533b"/><path d="M16,322v-6l10,6z" fill="#5f502c"/><path d="M12,288L26,278L2,286z" fill="#1d1612"/><path d="M344,312l-12,-6h2z" fill="#665b4a"/><path d="M4,132l84,12l10,16z" fill="#383126"/><path d="M274,358l-8,6l-4,-10z" fill="#0e0901"/><path d="M256,232l8,2l-8,-10z" fill="#463b29"/><path d="M88,334v12L68,338z" fill="#665332"/><path d="M296,264L266,238l40,32z" fill="#6b5e4b"/><path d="M176,342l-4,4l-4,-8z" fill="#161210"/><path d="M638,40L460,128L478,96z" fill="#d1d1c9"/><path d="M34,210l-16,6l36,-8z" fill="#564d3e"/><path d="M156,336l-14,-8l18,-4z" fill="#624b33"/><path d="M76,326l-8,6v12z" fill="#0d0703"/><path d="M240,334l-6,-2l18,2z" fill="#361f14"/><path d="M504,376l6,-2l-6,-4z" fill="#574934"/><path d="M124,270l8,-2l2,2z" fill="#584f39"/><path d="M442,326h-4l-8,-4z" fill="#544b43"/><path d="M370,372l4,-2l4,2z" fill="#141008"/><path d="M206,326h-6l-2,6z" fill="#695138"/><path d="M476,322l16,12l-14,-4z" fill="#514835"/><path d="M324,358h-6l-8,-14z" fill="#160c03"/><path d="M242,220l-8,2l12,6z" fill="#3d3322"/><path d="M86,222h6L78,218z" fill="#655742"/><path d="M514,178l-12,-4l6,-2z" fill="#867a62"/><path d="M402,340l-2,-6l-4,14z" fill="#463c2b"/><path d="M284,288l-6,-2l6,-2z" fill="#665946"/><path d="M422,324l-8,-2l10,6z" fill="#625842"/><path d="M78,382L58,396l32,-6z" fill="#655736"/><path d="M450,366h4l-14,-4z" fill="#5d5444"/><path d="M284,346l2,-6l-20,34z" fill="#110c07"/><path d="M166,178l90,24l-2,8z" fill="#554a38"/><path d="M84,264l2,2L76,262z" fill="#746855"/><path d="M60,412l6,-36L18,396z" fill="#030504"/><path d="M166,324l-10,12l16,-6z" fill="#12160d"/><path d="M332,278l-10,-8l-2,26z" fill="#33251a"/><path d="M140,212l-4,20l-4,-2z" fill="#725b41"/><path d="M226,292l-26,4l-6,-4z" fill="#5f553b"/><path d="M470,290l-4,-2l-2,4z" fill="#1c160d"/><path d="M154,336l-16,-6l-4,2z" fill="#1c0e08"/><path d="M504,360l26,4l38,32z" fill="#1a1311"/><path d="M130,184l8,6l-28,-8z" fill="#362d1e"/><path d="M32,314h6l-2,-4z" fill="#050905"/><path d="M430,334l6,2l-14,6z" fill="#6b6052"/><path d="M504,378l-4,6l-6,-10z" fill="#22170d"/><path d="M474,282v4h-8z" fill="#554d42"/><path d="M480,366L462,348h-2z" fill="#17100c"/><path d="M132,278L84,268l14,6z" fill="#64573a"/><path d="M368,4L304,-4l118,-8z" fill="#d4d8db"/><path d="M24,234v-6l-12,6z" fill="#483d31"/><path d="M110,230h10H94z" fill="#180d03"/><path d="M198,56L250,32L228,-222z" fill="#c9d2d7"/><path d="M432,216l78,-30l-16,36z" fill="#b2a581"/><path d="M476,36L452,-56L522,62z" fill="#c5cccf"/><path d="M134,100l22,38l40,-26z" fill="#bcb091"/><path d="M120,156l80,28l38,-6z" fill="#2c2c24"/><path d="M218,116l58,-6L232,64z" fill="#d2d6d5"/><path d="M92,280l8,2H96z" fill="#786a47"/><path d="M470,362h-8l-6,-10z" fill="#534d3b"/><path d="M6,310H18l-46,26z" fill="#52442f"/><path d="M52,376H46l4,-6z" fill="#604d36"/><path d="M420,268l-8,26L382,256z" fill="#4b3f33"/><path d="M550,368L488,324l38,40z" fill="#392b1c"/><path d="M266,272l-8,-6l18,12z" fill="#665847"/><path d="M448,350h8l2,2z" fill="#5e5440"/><path d="M314,338l14,2l-14,-6z" fill="#706146"/><path d="M434,108l34,26l-64,26z" fill="#d6d3c8"/><path d="M-66,244L4,278H16z" fill="#5f5236"/><path d="M386,304h12l-18,-2z" fill="#2d2113"/><path d="M302,348l-4,-2h12z" fill="#685133"/><path d="M88,314L70,308l4,-6z" fill="#0b0e08"/><path d="M12,224L-2,212l24,8z" fill="#27211a"/><path d="M352,298l18,18l14,10z" fill="#20190b"/><path d="M208,340l24,6l-30,2z" fill="#604c2e"/><path d="M256,304l-2,-8l-4,2z" fill="#211212"/><path d="M28,286L16,284l16,4z" fill="#685639"/><path d="M412,348l18,-8l28,-12z" fill="#504635"/><path d="M254,264L240,250l10,14z" fill="#342a1a"/><path d="M100,346l-8,4l14,-22z" fill="#0f0f0c"/><path d="M434,288l-8,-8l-16,-2z" fill="#32281d"/><path d="M200,324l-8,-6h4z" fill="#11110a"/><path d="M222,286l6,-6h-4z" fill="#231711"/><path d="M366,266l12,-4l-36,18z" fill="#5e5546"/><path d="M56,198l44,-52L50,198z" fill="#4a3f30"/><path d="M18,240H30l14,8z" fill="#282115"/><path d="M204,52l16,-2l-8,16z" fill="#dbdede"/><path d="M512,376l32,-12l-36,6z" fill="#19110c"/><path d="M296,304h2l-4,-8z" fill="#605b4c"/><path d="M134,198l-8,2l18,-12z" fill="#403223"/><path d="M484,294l-12,10l-38,12z" fill="#2c2418"/><path d="M110,306L98,300l42,14z" fill="#0e100c"/><path d="M58,262h4L42,260z" fill="#150600"/><path d="M276,382l-20,-6l8,-4z" fill="#5f4a34"/><path d="M128,238l-18,-4l30,10z" fill="#524639"/><path d="M488,320l-12,2l-20,20z" fill="#2b2719"/><path d="M350,334l16,22l6,2z" fill="#60523b"/><path d="M98,314l6,14l6,-8z" fill="#0e140c"/><path d="M62,246H58h8z" fill="#635a49"/><path d="M346,326h-8l24,6z" fill="#675846"/><path d="M164,100L184,88l-32,8z" fill="#cbcdc9"/><path d="M120,216l8,14L112,220z" fill="#514637"/><path d="M120,250l-18,-8l26,8z" fill="#322518"/><path d="M162,54L198,26H132z" fill="#d2d4d0"/><path d="M284,228l-6,-2l-4,-8z" fill="#312613"/><path d="M248,310l2,-8l6,8z" fill="#564c35"/><path d="M34,270L8,258l14,4z" fill="#312213"/><path d="M74,222H68h2z" fill="#67564b"/><path d="M444,330H434l6,-2z" fill="#0d0801"/><path d="M300,374l-14,-8l14,2z" fill="#6f5c46"/><path d="M188,384l-10,8l-32,-4z" fill="#1c160f"/><path d="M420,318h12h-6z" fill="#1f150c"/><path d="M506,342l-10,-2l38,-6z" fill="#574a3d"/><path d="M38,246H26l12,4z" fill="#5f5445"/><path d="M366,302l-8,8l20,-16z" fill="#594e3a"/><path d="M370,4L348,118L388,90z" fill="#d7d9dc"/><path d="M318,374l32,42L330,378z" fill="#594933"/><path d="M164,244l18,6l-30,-6z" fill="#695c48"/><path d="M14,254H4L30,230z" fill="#1d180e"/><path d="M136,326l22,-4l-14,-2z" fill="#5a5244"/><path d="M506,226h-6h-4z" fill="#504828"/><path d="M100,294l10,2h24z" fill="#21150e"/><path d="M30,348l12,-2l-12,8z" fill="#574d27"/><path d="M294,420L278,376l-6,-2z" fill="#544431"/><path d="M344,236l-10,-4v4z" fill="#645947"/><path d="M114,348l-10,2l20,6z" fill="#735c37"/><path d="M78,414L4,376L-40,356z" fill="#080704"/><path d="M206,-28l-6,66L172,10z" fill="#c5ced5"/><path d="M398,358l10,-2l-16,4z" fill="#272114"/><path d="M264,322l-10,-6l16,6z" fill="#74685b"/><path d="M54,286v4h6z" fill="#160d0b"/><path d="M318,314l2,-4l-2,-4z" fill="#4f4435"/><path d="M100,54L30,-46L86,68z" fill="#abb4b2"/><path d="M102,256l-2,6l6,4z" fill="#63533b"/><path d="M330,202h22l-36,-2z" fill="#2a2820"/><path d="M330,366l-6,-2l12,2z" fill="#5f5035"/><path d="M180,272l6,34l4,-8z" fill="#1a150b"/><path d="M164,246l-10,4l14,2z" fill="#5a4c37"/><path d="M8,244l-18,8L8,250z" fill="#413a26"/><path d="M154,96l-6,-8L130,86z" fill="#cccac0"/><path d="M322,362h6l-4,10z" fill="#4a402d"/><path d="M162,246h6v-2z" fill="#3d301c"/><path d="M276,244v4l8,-12z" fill="#675c4a"/><path d="M74,46L8,-30L64,44z" fill="#aab0b0"/><path d="M316,300l12,-30l14,-24z" fill="#3f3425"/><path d="M336,18l4,18L320,14z" fill="#f3eae6"/><path d="M204,114l32,10l22,2z" fill="#dadcd7"/><path d="M32,332v-4l8,-4z" fill="#403421"/><path d="M222,306l12,10l10,-2z" fill="#695a39"/><path d="M88,362l30,2L98,348z" fill="#0f0a03"/><path d="M344,370l2,4l-4,-2z" fill="#53483e"/><path d="M422,358h-6l4,6z" fill="#4b412c"/><path d="M270,282l-12,-8l22,8z" fill="#372a1c"/><path d="M224,324l-4,-2l-8,-2z" fill="#725c4a"/><path d="M344,338l24,6l-20,-8z" fill="#64543f"/><path d="M216,236l22,-12l-28,4z" fill="#5d5240"/><path d="M312,314l6,6l-8,-4z" fill="#614e39"/><path d="M118,266l4,-8l-12,6z" fill="#18120d"/><path d="M222,370h-8l14,2z" fill="#66553d"/><path d="M472,292l32,-18l-4,8z" fill="#4a4134"/><path d="M502,338l2,6l6,-4z" fill="#453423"/><path d="M400,358l4,2l6,-4z" fill="#151109"/><path d="M44,288L66,260L50,292z" fill="#1b1408"/><path d="M354,248h-2l2,-2z" fill="#2f2516"/><path d="M406,378l36,-16l-48,22z" fill="#1e1c15"/><path d="M96,382l-8,-4l14,-4z" fill="#4b3d29"/><path d="M122,252l-10,-4l12,8z" fill="#584c3e"/><path d="M394,298l18,-6l-24,4z" fill="#574b3b"/><path d="M188,262l-22,-6l52,14z" fill="#332618"/><path d="M462,252L438,242l32,6z" fill="#353227"/><path d="M72,270l-4,2l4,4z" fill="#6c5d48"/><path d="M48,188l4,2l2,-2z" fill="#201a0e"/><path d="M392,-82l-24,70L284,24z" fill="#dcddde"/><path d="M442,112L314,104L400,70z" fill="#d5d6d8"/><path d="M2,194l-12,2l8,-6z" fill="#180d03"/><path d="M390,364l-2,-8l-10,-4z" fill="#191107"/><path d="M450,166l-2,-4l26,2z" fill="#d4cdba"/><path d="M90,170H80h20z" fill="#534939"/><path d="M116,324l-8,-4L98,318z" fill="#0c0804"/><path d="M184,204l48,48l6,10z" fill="#3f3422"/><path d="M48,334H38l2,-10z" fill="#5e4e33"/><path d="M228,358H218l16,-6z" fill="#150f08"/><path d="M398,270l12,-4l-66,40z" fill="#362a1c"/><path d="M208,318v-8l12,-10z" fill="#110905"/><path d="M196,370l12,-8l-20,10z" fill="#17150e"/><path d="M440,38l8,62L496,68z" fill="#ced0d2"/><path d="M374,156l-4,4l14,2z" fill="#bcac91"/><path d="M256,180l12,6h6z" fill="#362c1a"/><path d="M404,336l-8,-4l4,4z" fill="#6c6254"/><path d="M360,346l-8,4l34,-6z" fill="#33281b"/><path d="M190,204l-40,-2l52,10z" fill="#423725"/><path d="M212,296l-6,4l12,-24z" fill="#322715"/><path d="M42,214L32,212l24,-2z" fill="#281f13"/><path d="M108,280l8,-2l2,8z" fill="#100e0b"/><path d="M416,394l-26,-4L366,374z" fill="#5f4e34"/><path d="M280,332l8,4h2z" fill="#190802"/><path d="M162,298l-14,-4l-16,-6z" fill="#0e0306"/><path d="M212,338l-10,4l6,-4z" fill="#34271e"/><path d="M292,384l-2,2l12,-2z" fill="#4d3e26"/><path d="M276,298l-2,-2l12,2z" fill="#6b5f49"/><path d="M132,290l-14,2l10,-6z" fill="#554c3b"/><path d="M220,350H208l8,2z" fill="#725f4b"/><path d="M130,164l8,6l-42,2z" fill="#403728"/><path d="M234,272l6,2l-6,-2z" fill="#6c6454"/><path d="M406,290h22l-50,-2z" fill="#5b4d3f"/><path d="M170,16l54,78L196,40z" fill="#d7d9d7"/><path d="M86,318l14,4l-30,2z" fill="#634b2c"/><path d="M382,254l2,2l2,-2z" fill="#5e5244"/><path d="M186,332v6h4z" fill="#5f5942"/><path d="M38,372H24l12,6z" fill="#624e25"/><path d="M70,146l-28,8l-6,8z" fill="#4e4535"/><path d="M276,250l-10,-2l50,32z" fill="#3a2f1d"/><path d="M306,232l-4,8l16,-4z" fill="#574b3b"/><path d="M228,332h10l-14,-2z" fill="#0f0a04"/><path d="M294,350L252,336l30,8z" fill="#0b090a"/><path d="M156,288H144l2,-4z" fill="#574e31"/><path d="M286,230l-6,4l48,-12z" fill="#5c5241"/><path d="M272,282l-2,2l6,-2z" fill="#63574a"/><path d="M184,362l36,16l20,2z" fill="#0b0903"/><path d="M14,176H4H-16z" fill="#251e11"/><path d="M130,358l-14,8l24,-12z" fill="#100a03"/><path d="M114,300v4l-6,-4z" fill="#514e3a"/><path d="M198,262v-2l36,12z" fill="#6b644e"/><path d="M244,180l42,20L138,148z" fill="#21231a"/><path d="M204,238L170,214l34,18z" fill="#3f3321"/><path d="M150,306l4,10L142,306z" fill="#5c4b36"/><path d="M474,314L416,300l44,10z" fill="#4d4337"/><path d="M180,290l-14,-2l-22,-8z" fill="#141105"/><path d="M66,80l46,34V78z" fill="#aba385"/><path d="M506,228l12,-6l4,-32z" fill="#887e54"/><path d="M316,302l-8,8l-2,-10z" fill="#5a4a35"/><path d="M510,192l-2,8l2,-14z" fill="#9c926f"/><path d="M10,234L2,230H-26z" fill="#0e0502"/><path d="M148,222l-6,-6L132,184z" fill="#322615"/><path d="M356,278l-18,2l-4,-6z" fill="#6c5f4b"/><path d="M112,250l-4,-4h-4z" fill="#675847"/><path d="M30,310l8,-2l10,-4z" fill="#2f2211"/><path d="M166,228l-6,-6l-6,6z" fill="#362f25"/><path d="M358,276H344l42,-10z" fill="#403626"/><path d="M474,344l24,-12l-10,10z" fill="#1b170f"/><path d="M174,388l-20,-4h6z" fill="#4f4129"/><path d="M190,306l-10,4l2,4z" fill="#130c05"/><path d="M288,284l4,8l-4,-2z" fill="#0e0905"/><path d="M162,364v-2h10z" fill="#5b5541"/><path d="M474,170l-28,36L432,182z" fill="#b5a992"/><path d="M422,348v-2l-6,-6z" fill="#382c1d"/><path d="M248,246l34,32L232,228z" fill="#382d1b"/><path d="M24,178L12,204l10,-4z" fill="#231b10"/><path d="M344,332l-10,-6H324z" fill="#170e08"/><path d="M110,382v-6L94,368z" fill="#594226"/><path d="M298,374v4l-22,-8z" fill="#69513a"/><path d="M94,200l12,6v-4z" fill="#554a3c"/><path d="M504,318h6h-6z" fill="#635747"/><path d="M294,362L238,346l-4,-2z" fill="#100a06"/><path d="M342,362l2,-4l-12,4z" fill="#140a05"/><path d="M224,202l-40,-8h10z" fill="#615543"/><path d="M396,272l-22,4v-2z" fill="#574b3b"/><path d="M144,326l-4,2l-2,-6z" fill="#524933"/><path d="M306,338l2,4l8,4z" fill="#2a2013"/><path d="M110,340l-6,2h10z" fill="#070909"/><path d="M174,250h2l-6,-12z" fill="#6c5f48"/><path d="M218,358l6,8l-10,-8z" fill="#53462d"/><path d="M52,122L16,116l18,2z" fill="#27241c"/><path d="M502,300l-18,8l-12,8z" fill="#292316"/><path d="M294,142l30,6l-10,-2z" fill="#b0a693"/><path d="M12,266l6,-2l4,2z" fill="#5e5239"/><path d="M84,204l48,-16v2z" fill="#342c1f"/><path d="M74,206l4,12l-2,16z" fill="#2a1c10"/><path d="M52,326l2,-2v2z" fill="#645334"/><path d="M350,338l10,-12v-6z" fill="#0f0408"/><path d="M306,308H286h6z" fill="#775d3d"/><path d="M434,338v8L422,336z" fill="#504533"/><path d="M444,192L426,168l-28,-8z" fill="#bcae8f"/><path d="M258,356l6,8L244,354z" fill="#756044"/><path d="M182,236l8,14l-4,-8z" fill="#655744"/><path d="M374,248h74l-72,-4z" fill="#3e3223"/><path d="M130,310l4,-2l4,8z" fill="#150c06"/><path d="M266,316h12l2,-4z" fill="#665747"/><path d="M366,394L352,374v8z" fill="#1d1816"/><path d="M288,252l-38,18l38,-26z" fill="#3f3421"/><path d="M318,360l-2,6l8,-10z" fill="#1b1208"/><path d="M508,256l-24,-2l16,6z" fill="#363227"/><path d="M378,352h2L316,334z" fill="#24150d"/><path d="M510,364l-8,-4l-8,-12z" fill="#1c140a"/><path d="M138,356h12h-2z" fill="#7b725f"/><path d="M382,-16l58,70L434,-2z" fill="#c9d2d9"/><path d="M38,198l-60,10l32,-2z" fill="#504537"/><path d="M336,336l-2,-8l2,8z" fill="#1e1710"/><path d="M114,286l-10,10H94z" fill="#725531"/><path d="M248,130l42,12l-20,-6z" fill="#b0a990"/><path d="M446,274l-38,12l-10,2z" fill="#55493d"/><path d="M364,266l34,16l34,22z" fill="#291e14"/><path d="M66,374l-8,-8l16,12z" fill="#0b0a0d"/><path d="M-46,264l56,24l34,12z" fill="#070409"/><path d="M126,344l8,-6l-2,6z" fill="#120f11"/><path d="M100,190H94h12z" fill="#2e2316"/><path d="M54,228l-8,-6l14,6z" fill="#251c0e"/><path d="M154,260l-2,-6l-4,10z" fill="#554936"/><path d="M458,382L444,364L422,346z" fill="#161711"/><path d="M396,290l6,2l4,4z" fill="#2a1e0f"/><path d="M26,246L42,230l6,4z" fill="#5d5141"/><path d="M368,318h-6l10,6z" fill="#4f4733"/><path d="M202,342l6,-6l-12,6z" fill="#0e120f"/><path d="M16,-18L6,-26l6,42z" fill="#8a8563"/><path d="M244,256L226,234l28,28z" fill="#392e1c"/><path d="M272,258l6,6v-2z" fill="#292012"/><path d="M238,294l10,2l-20,-6z" fill="#5c4c38"/><path d="M150,202l-10,4l12,-4z" fill="#564b3b"/><path d="M288,320l4,-2h6z" fill="#50513f"/><path d="M248,274v-2l2,4z" fill="#25190b"/><path d="M266,340l-10,6l2,4z" fill="#0a0a07"/><path d="M378,90l46,18L454,58z" fill="#d1d4d5"/><path d="M260,244l-2,2l12,8z" fill="#3a2f1e"/><path d="M422,290h-6l-4,6z" fill="#463c2f"/><path d="M122,236l-6,8l14,-32z" fill="#251e14"/><path d="M184,94l8,-22L150,44z" fill="#cacdcd"/><path d="M196,264l4,6h-4z" fill="#2a1d0e"/><path d="M198,298h-8l2,6z" fill="#554331"/><path d="M176,316l-8,-2l-2,6z" fill="#5d503c"/><path d="M148,262l6,-8l-12,8z" fill="#5d503a"/><path d="M226,174l60,16v-2z" fill="#27261a"/><path d="M470,126l126,26L526,80z" fill="#cfccc5"/><path d="M150,354l8,-2H138z" fill="#0a0509"/><path d="M174,322l-4,-6l10,4z" fill="#745f3e"/><path d="M118,338l-2,-6l10,8z" fill="#554930"/><path d="M384,346h-8v-4z" fill="#514736"/><path d="M220,242V228l4,12z" fill="#5f5442"/><path d="M484,274l-12,10l16,-8z" fill="#4c4437"/><path d="M284,242l-8,-8l20,14z" fill="#5e5240"/><path d="M56,42L96,72L80,66z" fill="#98927b"/><path d="M102,364v6l10,2z" fill="#69543c"/><path d="M202,202l38,30l16,10z" fill="#3c3120"/><path d="M96,336v4H86z" fill="#5d442c"/><path d="M424,244l-2,6l36,16z" fill="#463f2f"/><path d="M308,220h10l-22,4z" fill="#60513e"/><path d="M126,86l-2,36l20,-16z" fill="#b3a68f"/><path d="M312,260v4l6,4z" fill="#2b2113"/><path d="M368,148L252,126l70,-14z" fill="#dadbd6"/><path d="M220,292l40,-4l-44,4z" fill="#2c1d10"/><path d="M28,270l8,-4L24,278z" fill="#15140b"/><path d="M486,226v-2l-4,2z" fill="#3b341b"/><path d="M42,54L60,50L58,76z" fill="#a09c79"/><path d="M188,380l8,2l-4,-2z" fill="#625e55"/><path d="M18,146v-8l-6,16z" fill="#302819"/><path d="M76,202l-2,4l12,-4z" fill="#22180d"/><path d="M372,328l4,2h6z" fill="#6d5d41"/><path d="M394,240l18,2l26,26z" fill="#41382b"/><path d="M312,294H296H286z" fill="#55483a"/><path d="M182,218l42,-20h-2z" fill="#554b39"/><path d="M88,356H86l6,6z" fill="#3b3a29"/><path d="M188,276h-2l-10,-8z" fill="#2a1f17"/><path d="M48,176L26,166l20,6z" fill="#514635"/><path d="M318,228l-4,-8l-6,10z" fill="#51442f"/><path d="M104,330l18,8l-12,-2z" fill="#483e22"/><path d="M110,14L94,22l28,-142z" fill="#c3c4c2"/><path d="M342,284l8,8l-8,-8z" fill="#231b0b"/><path d="M388,330v2l4,-2z" fill="#0d0a04"/><path d="M60,266H48l-2,12z" fill="#60533d"/><path d="M372,262l8,8l-6,-4z" fill="#32291a"/><path d="M58,276l30,10l22,6z" fill="#100c05"/><path d="M44,288v-8l-8,8z" fill="#493f23"/><path d="M242,266l-6,4l-6,-6z" fill="#584d38"/><path d="M34,228h6H28z" fill="#22160d"/><path d="M332,350l-10,-2v-2z" fill="#43392e"/><path d="M382,274l-4,16L358,276z" fill="#4f4337"/><path d="M88,262l10,-6l-10,6z" fill="#070501"/><path d="M374,342l-6,8l4,-10z" fill="#281e1c"/><path d="M238,170l8,6l16,-2z" fill="#c1b392"/><path d="M278,292v-2v2z" fill="#796d5f"/><path d="M364,296l-6,-8l-2,16z" fill="#2c241a"/><path d="M116,274l-4,8l10,-10z" fill="#241c18"/><path d="M422,322l-4,-2L408,310z" fill="#1f130c"/><path d="M354,338h-4l16,2z" fill="#665343"/><path d="M384,368l2,6l10,2z" fill="#584934"/><path d="M292,286l4,8l-4,-6z" fill="#201a11"/><path d="M362,242l30,-6L334,222z" fill="#4f4738"/><path d="M176,192l-8,26h-2z" fill="#2f2617"/><path d="M296,232h8h-6z" fill="#271c0d"/><path d="M256,274l2,-2l-10,-2z" fill="#64573b"/><path d="M166,350l10,-4l-10,10z" fill="#0b0802"/><path d="M414,334v4l-6,-4z" fill="#281c0e"/><path d="M-18,270l2,24L8,292z" fill="#645841"/><path d="M40,276l-4,-4v12z" fill="#4b4027"/><path d="M402,214l24,4l-36,-2z" fill="#211d10"/><path d="M246,128h4l6,2z" fill="#e6dece"/><path d="M222,294v-2l-12,-4z" fill="#4f3b2a"/><path d="M24,326H20l-6,4z" fill="#1a100e"/><path d="M196,358l6,2h-8z" fill="#735936"/><path d="M560,158l-6,-30l-56,44z" fill="#c6beaf"/><path d="M298,294h2h-2z" fill="#241808"/><path d="M362,292l-2,-4L338,270z" fill="#221814"/><path d="M366,354l10,4v-2z" fill="#625640"/><path d="M156,274l10,-4l-14,4z" fill="#3e2d14"/><path d="M116,204h10l-20,8z" fill="#483e31"/><path d="M68,200L58,198l10,2z" fill="#53493d"/><path d="M452,328l20,-12l-14,14z" fill="#4e463c"/><path d="M18,338L6,332H8z" fill="#423b16"/><path d="M198,310l-2,2l-8,-2z" fill="#66574a"/><path d="M434,258l28,-2l-16,2z" fill="#463c2e"/><path d="M322,274h-2h4z" fill="#746758"/><path d="M66,182v0l10,8z" fill="#31271a"/><path d="M90,272l2,-2l-4,-2z" fill="#2c2613"/><path d="M26,310l-8,-8l14,2z" fill="#584830"/><path d="M112,214l6,2l-10,4z" fill="#302519"/><path d="M328,280v0h4z" fill="#675a50"/><path d="M140,292l-12,6l16,-8z" fill="#110c0f"/><path d="M206,244l-6,-6l-4,4z" fill="#645947"/><path d="M458,306l-6,-4l-4,6z" fill="#282114"/><path d="M198,184l8,8l-18,8z" fill="#594d3a"/><path d="M130,354l2,-4l-8,4z" fill="#463b20"/><path d="M380,232l-30,8l38,-4z" fill="#403a2e"/><path d="M210,370h2h-2z" fill="#352f20"/><path d="M290,326l12,-2v2z" fill="#24171a"/><path d="M446,324l10,2l-32,-8z" fill="#30271d"/><path d="M-24,340l44,2l-38,-4z" fill="#302615"/><path d="M82,78L78,98V80z" fill="#a19c7c"/><path d="M282,274h-6l50,8z" fill="#544a38"/><path d="M404,278h10l2,2z" fill="#291d11"/><path d="M122,82l2,-4L110,76z" fill="#c1beb7"/><path d="M194,260h-6l8,-2z" fill="#21130b"/><path d="M402,340l10,6l-18,-8z" fill="#251c0d"/><path d="M434,348l4,2l6,-4z" fill="#1f1910"/><path d="M178,286l-8,-2h10z" fill="#614d3f"/><path d="M366,274l-8,8l10,-16z" fill="#342b1c"/><path d="M386,270l-14,6l6,-4z" fill="#564a3b"/><path d="M376,252l4,6L368,246z" fill="#312517"/><path d="M134,348l-8,-2h6z" fill="#262219"/><path d="M214,296l-2,-8l-4,8z" fill="#2b1f10"/><path d="M444,228l100,6L448,220z" fill="#1e1c14"/><path d="M64,90l70,40L66,86z" fill="#af9e72"/><path d="M464,298h6h-4z" fill="#635c50"/><path d="M324,60L340,40l2,8z" fill="#ebe4e0"/><path d="M472,354l-2,-2l2,2z" fill="#4f4038"/><path d="M196,128l92,40l-76,-6z" fill="#c8b99c"/><path d="M236,292l-4,2h4z" fill="#68584a"/><path d="M172,360v24l8,-24z" fill="#0a0a04"/><path d="M38,236l18,4H46z" fill="#241911"/><path d="M328,314h-4l-6,-6z" fill="#635646"/><path d="M96,-18L94,16L78,22z" fill="#b7bcbe"/><path d="M476,372l10,8l-10,-6z" fill="#635844"/><path d="M298,285l8,5l5,-8z" fill="#6d5d44"/><path d="M197,272l-10,-2l4,9z" fill="#6a5638"/><path d="M13,255l14,8l14,-6z" fill="#614d32"/><path d="M385,315l-11,-6l23,6z" fill="#281d16"/><path d="M256,327l-6,4h9z" fill="#715a46"/><path d="M351,358l21,5l-7,6z" fill="#6a573f"/><path d="M200,363l5,-9l-15,-5z" fill="#5a4828"/><path d="M171,362l-9,4L146,354z" fill="#7d6944"/><path d="M346,329l-3,3l1,5z" fill="#4a3c2f"/><path d="M481,362l24,9l-16,-1z" fill="#64553a"/><path d="M42,199L-1,196l15,-1z" fill="#443f2f"/><path d="M138,334l-26,-6l12,-1z" fill="#6c563f"/><path d="M565,237L504,226l-37,22z" fill="#22221a"/><path d="M480,348l9,1l-15,-4z" fill="#6f6341"/><path d="M168,334l6,4h16z" fill="#745a3e"/><path d="M233,258l5,-3l-9,2z" fill="#1b1610"/><path d="M109,376l17,-5l-12,-5z" fill="#67553c"/><path d="M290,321v-4l12,4z" fill="#675740"/><path d="M501,383l12,2l-2,-5z" fill="#4f442a"/><path d="M263,317l-7,-6l7,-10z" fill="#0f0c06"/><path d="M260,254l1,13l-10,1z" fill="#332921"/><path d="M257,287l-21,-1l12,-1z" fill="#1f1a11"/><path d="M427,277l6,2l43,19z" fill="#271f16"/><path d="M265,168l8,15L210,165z" fill="#c8b796"/><path d="M279,375l-7,-15l12,3z" fill="#7a6043"/><path d="M369,358l12,18l-11,-9z" fill="#160c04"/><path d="M97,342L87,331l-12,1z" fill="#634f30"/><path d="M114,125l51,23L104,108z" fill="#aea17b"/><path d="M251,219l2,-4l13,12z" fill="#3a3123"/><path d="M424,371l23,2l-8,5z" fill="#624e2e"/><path d="M47,284l68,25L99,300z" fill="#0b0605"/><path d="M289,373l-11,-4l19,2z" fill="#745841"/><path d="M193,340L182,330l1,22z" fill="#66513a"/><path d="M224,293l5,3l13,-19z" fill="#1f1b11"/><path d="M479,296l11,4l-12,-1z" fill="#1c1711"/><path d="M125,297L67,277l37,10z" fill="#110e0b"/><path d="M115,129l32,13L95,117z" fill="#25200e"/><path d="M254,351l13,-21l-5,-6z" fill="#171310"/><path d="M363,324l-4,6l9,1z" fill="#2c2217"/><path d="M527,284l-28,28l-7,-2z" fill="#4f4535"/><path d="M388,319v-6l-6,1z" fill="#170f09"/><path d="M224,275l13,2l-35,3z" fill="#605035"/><path d="M71,293l13,-5l-23,3z" fill="#0d0501"/><path d="M157,210l18,-9l-25,21z" fill="#504635"/><path d="M358,296l-27,-6l27,8z" fill="#615645"/><path d="M22,383L10,379h3z" fill="#251910"/><path d="M196,349l-4,-9l27,18z" fill="#13130a"/><path d="M222,327l9,-4l-12,-6z" fill="#5f4f33"/><path d="M277,267l11,3L253,260z" fill="#251a11"/><path d="M399,358L346,340l8,6z" fill="#1e1812"/><path d="M351,265l1,2l-10,6z" fill="#31291b"/><path d="M131,277l12,-8l-6,-11z" fill="#140f0c"/><path d="M33,317L14,313l8,-3z" fill="#675430"/><path d="M156,243H138l39,-10z" fill="#2d251b"/><path d="M40,235l10,7L29,235z" fill="#473b2a"/><path d="M285,283l-6,-3l-2,1z" fill="#1c1509"/><path d="M102,258H92l2,-9z" fill="#201c11"/><path d="M6,364L-6,354l15,3z" fill="#6e5736"/><path d="M63,228l-20,1H42z" fill="#1a0d02"/><path d="M461,378l36,10l-38,8z" fill="#655029"/><path d="M89,265L76,260l-9,4z" fill="#695942"/><path d="M132,237l17,-21l-6,19z" fill="#2a1917"/><path d="M338,347l10,-4l-11,-2z" fill="#62543e"/><path d="M21,342l8,-18v24z" fill="#080a06"/><path d="M322,313l10,4l-5,-5z" fill="#7e6547"/><path d="M131,284l-2,-8l7,4z" fill="#5e5245"/><path d="M313,355H287l28,10z" fill="#6c5a43"/><path d="M322,265l13,-5l-18,2z" fill="#5e533d"/><path d="M221,344l-6,1L204,329z" fill="#523f2d"/><path d="M449,304l-1,6l11,-6z" fill="#1a1813"/><path d="M403,368l12,-3v6z" fill="#423420"/><path d="M20,227H15l26,10z" fill="#271e18"/><path d="M8,304l22,7L7,308z" fill="#13110c"/><path d="M81,374L92,362L47,389z" fill="#070808"/><path d="M297,296l-10,14l12,4z" fill="#665740"/><path d="M143,263l-4,4l23,4z" fill="#736246"/><path d="M89,179l17,8l-36,9z" fill="#514332"/><path d="M497,259l9,-4l-19,22z" fill="#4b4135"/><path d="M118,331l1,5l11,2z" fill="#66513b"/><path d="M319,394L307,377l10,-4z" fill="#4f4333"/><path d="M119,231l-12,7l23,-7z" fill="#4d3f2c"/><path d="M430,320l8,-9l-12,-3z" fill="#231b13"/><path d="M276,331l17,-17l-8,-3z" fill="#15120c"/><path d="M20,339L18,329L4,331z" fill="#463919"/><path d="M306,320l6,7l3,-6z" fill="#16140e"/><path d="M110,337L88,352l32,-11z" fill="#0b0b08"/><path d="M178,268l6,1l-14,-9z" fill="#2a251e"/><path d="M69,324l-3,10l29,-4z" fill="#0a0906"/><path d="M501,339l9,2l-21,-6z" fill="#1d100a"/><path d="M141,292v4l15,3z" fill="#78684e"/><path d="M223,303l-8,-2l-23,30z" fill="#120f0c"/><path d="M344,309l9,15L331,307z" fill="#5a4930"/><path d="M494,228l9,-2l-23,-1z" fill="#272213"/><path d="M227,327l-8,12l19,-8z" fill="#130e08"/><path d="M135,293l9,16L124,295z" fill="#17130e"/><path d="M412,199l17,15l-32,-4z" fill="#bdac8b"/><path d="M354,329l11,-9l-9,16z" fill="#18120f"/><path d="M23,204l25,12H62z" fill="#554933"/><path d="M158,314l-1,-5l-16,4z" fill="#5d4725"/><path d="M204,279h-4l11,-9z" fill="#201b12"/><path d="M346,330l-9,1l-5,8z" fill="#1c150f"/><path d="M139,337l28,8l-19,2z" fill="#725b37"/><path d="M245,320l4,-2l16,11z" fill="#1c150e"/><path d="M220,231l-32,28l22,-15z" fill="#322a1f"/><path d="M398,286l6,2l-14,-3z" fill="#706250"/><path d="M445,360l-15,-4l10,14z" fill="#0c0b07"/><path d="M335,357l-9,-1l8,-6z" fill="#6b593a"/><path d="M407,300l-20,13l25,-11z" fill="#5e5140"/><path d="M244,272l5,-6l-15,3z" fill="#2c251c"/><path d="M430,352l22,6l-18,-8z" fill="#756142"/><path d="M220,299l7,-14l-14,1z" fill="#605234"/><path d="M506,378l-9,-4l4,20z" fill="#15100c"/><path d="M237,217l-9,-9l5,14z" fill="#62563e"/><path d="M164,260l-2,-10l11,11z" fill="#705f41"/><path d="M434,332l21,16L432,323z" fill="#0f0a05"/><path d="M372,340l-3,6l13,-8z" fill="#1b1610"/><path d="M218,360l-9,9l28,-3z" fill="#684f2e"/><path d="M74,237l3,2L53,233z" fill="#1a140f"/><path d="M359,137l80,-11l5,-31z" fill="#d5d7d0"/><path d="M129,190l21,-5l-4,13z" fill="#382f21"/><path d="M179,247l-13,-3l55,16z" fill="#372b1c"/><path d="M78,245l8,-1L72,236z" fill="#1a140f"/><path d="M147,87l-10,3l11,4z" fill="#d1cfca"/><path d="M346,358L334,342l-4,5z" fill="#0e0d0b"/><path d="M449,252l8,-2l-13,9z" fill="#271e12"/><path d="M349,326l-2,6L335,322z" fill="#655335"/><path d="M192,333v7l-6,-7z" fill="#5d513a"/><path d="M410,290l27,11L413,289z" fill="#665c4d"/><path d="M108,253l11,7l-1,-4z" fill="#6c5a3f"/><path d="M301,332H284l1,-7z" fill="#836947"/><path d="M318,145l74,14L379,117z" fill="#dddbd0"/><path d="M402,285l-1,-4l-21,-5z" fill="#0a0603"/><path d="M123,369L94,364l8,-1z" fill="#66553e"/><path d="M178,308l4,8l10,1z" fill="#12110f"/><path d="M188,243l-22,-4L132,226z" fill="#5d4f3d"/><path d="M80,63L47,25L37,10z" fill="#aaaca7"/><path d="M442,343l17,6l5,8z" fill="#574a37"/><path d="M413,351l-5,9l12,-7z" fill="#11110d"/><path d="M37,353l8,3L40,346z" fill="#655637"/><path d="M340,337l21,7l14,-6z" fill="#6e553b"/><path d="M419,311L404,301L376,286z" fill="#231912"/><path d="M483,360l1,10L468,355z" fill="#110c08"/><path d="M148,279l3,1l-6,-29z" fill="#6a553d"/><path d="M167,284l-3,-6l14,9z" fill="#6c5b3c"/><path d="M328,292l5,11L318,289z" fill="#615338"/><path d="M69,379L37,356l21,8z" fill="#070605"/><path d="M241,275l9,-1l-18,-1z" fill="#726347"/><path d="M-9,367L-22,353l38,10z" fill="#635233"/><path d="M358,204l14,1l-7,-3z" fill="#867a5d"/><path d="M283,346l5,-7l-6,-8z" fill="#1d1711"/><path d="M233,284l3,2l-5,1z" fill="#5f4f37"/><path d="M350,287l-4,4L334,279z" fill="#2a2115"/><path d="M94,244H76l22,-3z" fill="#18160f"/><path d="M391,358l-25,15l10,-10z" fill="#201b11"/><path d="M37,264l-14,8l19,-1z" fill="#171410"/><path d="M15,180l-1,3l9,1z" fill="#5e5442"/><path d="M455,365l6,-11l-11,-2z" fill="#13110b"/><path d="M429,323h6l-11,-6z" fill="#62523c"/><path d="M178,279l-2,-8l12,-5z" fill="#1e160b"/><path d="M120,220l7,6l-19,2z" fill="#564733"/><path d="M256,294l9,-8l12,3z" fill="#6e5c3c"/><path d="M365,327l11,8l4,-1z" fill="#2f2318"/><path d="M15,145L-8,177L6,144z" fill="#4d402e"/><path d="M9,8L-69,-132L10,37z" fill="#191c10"/><path d="M153,356l-18,9l28,2z" fill="#645338"/><path d="M277,326l14,-12l-15,7z" fill="#08060c"/><path d="M59,265L36,252l5,6z" fill="#1c1811"/><path d="M334,49L321,18l-8,33z" fill="#f2f1ef"/><path d="M18,242l20,2L27,241z" fill="#221613"/><path d="M304,312h8l-17,-5z" fill="#191310"/><path d="M121,296l13,6l-20,-1z" fill="#69553c"/><path d="M219,196l-14,13l6,1z" fill="#584c38"/><path d="M333,300l10,-2l-22,-1z" fill="#574c3e"/><path d="M95,66L112,47l10,37z" fill="#b3b9b9"/><path d="M126,355L112,343l10,2z" fill="#675635"/><path d="M57,255l-5,23L33,290z" fill="#655035"/><path d="M10,295l19,-5L17,286z" fill="#060605"/><path d="M229,269l-13,7l17,-6z" fill="#241e16"/><path d="M365,212l-2,-5L301,192z" fill="#252417"/><path d="M448,279l11,-7l-21,8z" fill="#2f261b"/><path d="M27,358l16,-1L22,351z" fill="#544c33"/><path d="M103,304l8,-10l-17,7z" fill="#0f0908"/><path d="M154,272l15,5l-13,2z" fill="#252019"/><path d="M211,353l25,9l-15,-8z" fill="#110a04"/><path d="M335,263l-9,-2l-8,-3z" fill="#2c2519"/><path d="M74,285h8l-20,8z" fill="#574a37"/><path d="M316,330l1,-5l17,5z" fill="#6f5c3f"/><path d="M228,340l-12,2l10,-2z" fill="#3b3326"/><path d="M125,213l24,-2H130z" fill="#544535"/><path d="M180,298l4,21l6,-22z" fill="#0e0c0b"/><path d="M238,250l2,-23l-7,22z" fill="#594e3a"/><path d="M125,237l-9,1l34,9z" fill="#746045"/><path d="M275,281L260,271l-4,4z" fill="#1c110d"/><path d="M164,292L153,281l9,-5z" fill="#140f0a"/><path d="M6,43L63,98L34,79z" fill="#1e1c0f"/><path d="M255,334l12,32L253,344z" fill="#100e0b"/><path d="M138,243h-3l17,-3z" fill="#271f17"/><path d="M359,310l-11,-3l25,-12z" fill="#61523d"/><path d="M67,209l1,4l-24,8z" fill="#5e4c35"/></svg>