<?xml version="1.0"?><svg xmlns="http://www.w3.org/2000/svg" version="1.2" viewBox="0 0 512 384" width="800" height="600"><path d="M-1,-1V385H513V-1z" fill="#383836"/><path d="M728,216L32,64L616,-296z" fill="#d2dae0"/><path d="M168,400L-1080,264L112,160z" fill="#0e0a06"/><path d="M208,232L272,112L680,272z" fill="#62635c"/><path d="M424,-152L72,112L-240,-56z" fill="#567eb9"/><path d="M680,408L408,152l112,-8z" fill="#4c474f"/><path d="M544,128L320,80L504,-104z" fill="#fcfdfe"/><path d="M120,176L-64,120L96,88z" fill="#172c48"/><path d="M184,552L296,136L184,304z" fill="#5e5a4f"/><path d="M72,128l88,320L184,200z" fill="#272418"/><path d="M80,96L456,-448L232,64z" fill="#7aa6dd"/><path d="M624,608L224,344L664,288z" fill="#2c271e"/><path d="M208,96L816,-456L152,72z" fill="#97bbf0"/><path d="M536,296L272,208l-40,56z" fill="#4b483b"/><path d="M384,144L208,104L384,-80z" fill="#cee5f9"/><path d="M112,-48L-88,128L24,-48z" fill="#224b81"/><path d="M416,0L288,104l128,16z" fill="#f2fbff"/><path d="M160,264L136,456L8,104z" fill="#19150c"/><path d="M200,144L48,88l224,32z" fill="#3b5670"/><path d="M240,144L448,272L200,192z" fill="#5b5549"/><path d="M368,-24L192,96L136,88z" fill="#b0cff5"/><path d="M72,72L344,-96L144,-16z" fill="#6895d4"/><path d="M-40,44L124,-52L-8,96z" fill="#355e97"/><path d="M124,140l84,88L172,336z" fill="#292a1f"/><path d="M4,108l36,92L-32,148z" fill="#17100c"/><path d="M380,148l-104,8L160,96z" fill="#526a82"/><path d="M144,92l76,16L152,56z" fill="#9fc3ef"/><path d="M252,140l56,16L516,144z" fill="#6f7274"/><path d="M580,132l-76,52L408,168z" fill="#362c3d"/><path d="M212,248l44,-52L224,320z" fill="#6d6c62"/><path d="M212,336l32,-68l-8,236z" fill="#646053"/><path d="M212,56l-56,44L124,88z" fill="#9dc1e5"/><path d="M128,152l52,-24L60,92z" fill="#223d59"/><path d="M312,136L212,108l240,28z" fill="#bccbe0"/><path d="M128,156H56L8,132z" fill="#262426"/><path d="M448,116L436,76l-8,32z" fill="#45686b"/><path d="M188,156l-76,-4l84,72z" fill="#363427"/><path d="M436,136V88v60z" fill="#65666d"/><path d="M492,144L592,108L460,140z" fill="#aaa7b6"/><path d="M448,128V88L444,68z" fill="#7a979c"/><path d="M360,140l-20,4l-40,-8z" fill="#9ba5ad"/><path d="M372,268l72,-92l76,76z" fill="#645a50"/><path d="M120,92l12,20L76,92z" fill="#28466a"/><path d="M248,-8L140,92L112,88z" fill="#8bb0d6"/><path d="M76,92l12,4L-104,92z" fill="#1f4066"/><path d="M80,140l104,-8l64,16z" fill="#304456"/><path d="M256,360V300l-20,52z" fill="#46463b"/><path d="M196,168l48,-28L216,240z" fill="#4b4a3c"/><path d="M228,116l-12,-4l28,4z" fill="#778da5"/><path d="M104,92l44,4l4,4z" fill="#365473"/><path d="M556,124L444,140l68,-24z" fill="#c9cfe2"/><path d="M292,36l-72,72L200,92z" fill="#c1ddf5"/><path d="M12,88L168,-76L-180,216z" fill="#4a71a9"/><path d="M176,324l-24,68l52,-24z" fill="#46443c"/><path d="M208,308l28,56L252,192z" fill="#6b6a60"/><path d="M28,96L-268,84L36,148z" fill="#071733"/><path d="M128,40L32,80l52,8z" fill="#729cce"/><path d="M176,244L52,152L172,320z" fill="#241d11"/><path d="M464,188l136,-4H420z" fill="#746b60"/><path d="M268,132l-4,-4l136,16z" fill="#8fa4bb"/><path d="M444,100L436,80h8z" fill="#496b71"/><path d="M224,136l124,32l-88,-8z" fill="#4d4f58"/><path d="M396,28L264,92l56,32z" fill="#e7f2fa"/><path d="M544,432L500,340L412,448z" fill="#1b1611"/><path d="M216,256l-24,40l24,-56z" fill="#5c5c51"/><path d="M400,360L260,228l-4,48z" fill="#38382c"/><path d="M280,-32L124,92L208,56z" fill="#93b9ea"/><path d="M212,132h24l-12,20z" fill="#465969"/><path d="M392,268l-28,36L248,196z" fill="#4c483c"/><path d="M276,120l4,8l32,4z" fill="#acbfd3"/><path d="M256,76L304,56L456,-144z" fill="#c2dafe"/><path d="M428,200l76,40l36,-48z" fill="#514d48"/><path d="M172,192l40,44V192z" fill="#363427"/><path d="M60,128L28,100l12,40z" fill="#121f38"/><path d="M344,156h60l48,92z" fill="#555b5d"/><path d="M272,124l16,12L252,120z" fill="#869bb1"/><path d="M404,164l8,-12l4,24z" fill="#444b54"/><path d="M424,68l20,8l4,-8z" fill="#eff7f8"/><path d="M196,356l-12,8l40,16z" fill="#5a584d"/><path d="M536,152l20,-36l-76,12z" fill="#b3b7d2"/><path d="M528,232l8,36l-64,-4z" fill="#5c5249"/><path d="M264,216l128,84l-20,12z" fill="#474438"/><path d="M248,168L228,296L244,168z" fill="#6f6d5f"/><path d="M272,316l56,-4L216,520z" fill="#29291e"/><path d="M460,116l-20,4L468,88z" fill="#edf2f9"/><path d="M440,128l20,-12l-12,12z" fill="#d3d8e8"/><path d="M68,60L8,96L24,80z" fill="#597ba7"/><path d="M44,160l68,4L36,176z" fill="#21170c"/><path d="M268,128h-8l12,8z" fill="#678297"/><path d="M440,100L428,96l4,12z" fill="#446063"/><path d="M404,120l-56,4l60,4z" fill="#cdd5e5"/><path d="M432,180v4l32,-4z" fill="#78776f"/><path d="M80,60L64,48L16,96z" fill="#6287b8"/><path d="M416,140H388l-84,-4z" fill="#b2b7c3"/><path d="M-68,100l112,8L16,96z" fill="#0f2746"/><path d="M232,144L212,124L156,100z" fill="#3b5a79"/><path d="M436,288L324,208l48,4z" fill="#5d574b"/><path d="M424,96L260,112l72,8z" fill="#f4fdff"/><path d="M328,176V164l84,12z" fill="#737372"/><path d="M368,188l60,16l56,8z" fill="#4b4b46"/><path d="M400,64l32,56L368,100z" fill="#fcfefc"/><path d="M496,256l-12,44L432,288z" fill="#50473e"/><path d="M434,140l2,2l-30,2z" fill="#868691"/><path d="M172,330l-14,28L106,284z" fill="#1b1611"/><path d="M90,156l-56,2l50,2z" fill="#291e0c"/><path d="M508,134l-44,6l36,-20z" fill="#bebfd2"/><path d="M366,38l-64,80l-70,-6z" fill="#dfedf9"/><path d="M452,352l24,-44l-56,12z" fill="#272119"/><path d="M140,98h16l84,36z" fill="#41627f"/><path d="M396,168l18,-12l-20,-8z" fill="#555853"/><path d="M68,124L52,142l94,10z" fill="#242f3c"/><path d="M298,48l2,-24L190,96z" fill="#b5d6f9"/><path d="M76,84L224,-10L170,2z" fill="#6e9cd9"/><path d="M284,208l-32,-8l6,34z" fill="#4f4c3d"/><path d="M76,92l4,-4l44,6z" fill="#335173"/><path d="M142,-14L58,74L148,16z" fill="#5f8acb"/><path d="M354,140l-80,-6l52,10z" fill="#8797ab"/><path d="M380,90L408,-22L378,0z" fill="#f0f5fe"/><path d="M358,142l60,2l50,-4z" fill="#a9acb6"/><path d="M164,98L316,-4L174,70z" fill="#a3c6ed"/><path d="M422,168l-28,16l30,-12z" fill="#384653"/><path d="M398,278l82,-18l-48,-8z" fill="#544d42"/><path d="M118,90l36,38l60,20z" fill="#314b66"/><path d="M190,92l38,18l-30,-4z" fill="#b6d6f0"/><path d="M196,164l60,-2l-6,2z" fill="#5e5c4e"/><path d="M468,276l-42,34L572,246z" fill="#463a35"/><path d="M332,144l30,-2l-4,2z" fill="#949fab"/><path d="M252,192l-28,76L246,156z" fill="#6e6e63"/><path d="M208,100L176,96L188,80z" fill="#b1ceec"/><path d="M460,214L390,194l38,2z" fill="#424545"/><path d="M288,336l-2,18l12,-2z" fill="#17130c"/><path d="M300,344l8,-20l58,2z" fill="#282a1f"/><path d="M298,-42L122,92L108,82z" fill="#81ade6"/><path d="M64,50L24,88L8,90z" fill="#587eb0"/><path d="M248,342l32,-68l12,50z" fill="#2c2e21"/><path d="M294,118L384,-12l2,34z" fill="#deedfd"/><path d="M244,116l48,24l-26,-4z" fill="#69819a"/><path d="M430,130l60,6L470,126z" fill="#bfcade"/><path d="M88,80l30,12h12z" fill="#7ea7d4"/><path d="M-108,98L22,154L44,144z" fill="#151a26"/><path d="M382,144l-24,6l44,-2z" fill="#8d8e92"/><path d="M338,164L302,148l40,38z" fill="#4f595c"/><path d="M408,186l80,-40l-68,8z" fill="#3c3f4a"/><path d="M344,172l60,70L270,178z" fill="#606057"/><path d="M436,80l-8,6l8,4z" fill="#577781"/><path d="M436,116l-2,-8v24z" fill="#353941"/><path d="M40,146l50,2L58,130z" fill="#1f2737"/><path d="M508,140l-10,4l66,-2z" fill="#9d9aa9"/><path d="M180,88l-6,12L160,98z" fill="#a8c8ea"/><path d="M14,98L26,94l42,8z" fill="#163152"/><path d="M474,208l-18,4l66,12z" fill="#32292c"/><path d="M446,78l-18,4l4,-8z" fill="#919aa1"/><path d="M274,142l58,16L224,140z" fill="#5a636c"/><path d="M248,146l-36,4l-34,-2z" fill="#424848"/><path d="M440,76l8,34l-22,-8z" fill="#3f5d65"/><path d="M-56,62L34,-4L-46,122z" fill="#2c578d"/><path d="M416,120l-16,2h32z" fill="#d7dfeb"/><path d="M490,128l8,12l-92,-2z" fill="#bfc3d7"/><path d="M158,170l68,38L194,162z" fill="#403d31"/><path d="M444,114l-6,2l12,6z" fill="#dee5ed"/><path d="M180,314l6,4l-4,-4z" fill="#5b5c53"/><path d="M48,90H40l-2,2z" fill="#1a395b"/><path d="M404,206v22l46,-6z" fill="#746e62"/><path d="M220,230l2,-22L160,168z" fill="#3c392a"/><path d="M436,138l-22,10l20,-2z" fill="#7b7983"/><path d="M392,118L424,44l-90,74z" fill="#f6fdff"/><path d="M126,124v22L72,132z" fill="#273949"/><path d="M218,148h28l-12,-8z" fill="#4f5d63"/><path d="M46,490L40,358L-30,326z" fill="#030200"/><path d="M132,150l-28,32l38,4z" fill="#2e2c1e"/><path d="M58,74L-2,96L52,88z" fill="#5e82af"/><path d="M376,12L250,104L334,66z" fill="#d6eafc"/><path d="M356,146l-8,6l70,-2z" fill="#78797b"/><path d="M294,180l12,-8l-28,-4z" fill="#5c5852"/><path d="M494,164l-12,10L456,162z" fill="#201b2d"/><path d="M212,120l42,20l-20,-2z" fill="#4d667a"/><path d="M2,58L-10,90L176,-120z" fill="#3b65a1"/><path d="M60,170L16,154l-42,28z" fill="#1b1205"/><path d="M198,256l4,2l22,-48z" fill="#302f24"/><path d="M396,146l-26,-4H348z" fill="#9fa9b1"/><path d="M244,206l-16,44l2,42z" fill="#777469"/><path d="M0,170l86,62l48,266z" fill="#110d04"/><path d="M210,358l28,-68l4,54z" fill="#676456"/><path d="M368,384l-38,76L262,358z" fill="#201c13"/><path d="M508,308h8H502z" fill="#645b54"/><path d="M202,264l-6,40L238,200z" fill="#55574f"/><path d="M54,82L86,60L70,48z" fill="#648ec1"/><path d="M420,182l-42,4l22,-12z" fill="#4b5457"/><path d="M182,364l16,-70l-4,-8z" fill="#484b42"/><path d="M186,94l12,-2l-24,8z" fill="#b1cfed"/><path d="M426,100l12,12l-14,-2z" fill="#3d545b"/><path d="M396,346l-18,60l46,-22z" fill="#16130d"/><path d="M358,348l-4,-24l2,26z" fill="#474431"/><path d="M460,380l4,-4h2z" fill="#57504a"/><path d="M24,90L120,18l38,-54z" fill="#5a82bf"/><path d="M116,106L78,88L68,94z" fill="#2a4769"/><path d="M452,88l-4,10l-4,-8z" fill="#e3e8ea"/><path d="M320,138l30,2l-48,-6z" fill="#94a3b3"/><path d="M468,118L448,92l80,16z" fill="#fbfcfe"/><path d="M280,134l34,10l-24,-4z" fill="#768393"/><path d="M228,118l20,2L216,110z" fill="#678099"/><path d="M152,352l-10,6l22,-2z" fill="#1c1810"/><path d="M502,398L470,364l4,2z" fill="#0f0804"/><path d="M266,162l-6,-6l44,2z" fill="#434440"/><path d="M498,304l16,-38l-36,60z" fill="#40342c"/><path d="M516,182l-30,18l-2,-4z" fill="#6e625f"/><path d="M442,110l4,2L430,102z" fill="#466068"/><path d="M160,362l12,6l-36,38z" fill="#403d37"/><path d="M488,150l28,4l-10,2z" fill="#2e2037"/><path d="M474,356l-64,24l30,-6z" fill="#19150e"/><path d="M22,66L146,-42L74,32z" fill="#4c72b5"/><path d="M430,280l30,34H372z" fill="#3f392e"/><path d="M320,320l-8,-22H278z" fill="#323426"/><path d="M480,158h24h-8z" fill="#56485d"/><path d="M354,354l-30,2l-2,-12z" fill="#3b392b"/><path d="M266,120l-20,-4l30,10z" fill="#a4bad1"/><path d="M42,96l76,26l-10,10z" fill="#18344d"/><path d="M292,424L276,346l8,8z" fill="#1b1b12"/><path d="M500,114l12,8H490z" fill="#d8daeb"/><path d="M426,368l-14,-6l4,-8z" fill="#474036"/><path d="M270,300l18,-28l-36,10z" fill="#2f3026"/><path d="M374,202l-12,18l58,-12z" fill="#5e5b4f"/><path d="M254,276l4,74l-2,-94z" fill="#424439"/><path d="M380,-78L298,18L178,94z" fill="#a6c8f6"/><path d="M86,58L64,90L44,84z" fill="#6790c3"/><path d="M374,56l-72,62L278,102z" fill="#e6f1fd"/><path d="M254,198l6,-44l10,54z" fill="#565445"/><path d="M484,154l-6,22l-54,-8z" fill="#2a2e3a"/><path d="M76,160l16,-8l82,12z" fill="#2e2312"/><path d="M222,158l-18,4l18,-10z" fill="#423c2d"/><path d="M418,202L376,186l-30,-6z" fill="#4e5350"/><path d="M292,128l10,6l84,4z" fill="#b5c4da"/><path d="M420,70l44,12L396,-38z" fill="#fcfefd"/><path d="M300,14L330,0L308,50z" fill="#bbd4fb"/><path d="M492,328l-8,-4l8,4z" fill="#170e06"/><path d="M328,156l14,10h36z" fill="#50595c"/><path d="M438,344l-4,-2h-8z" fill="#645c51"/><path d="M458,144l36,-2l-8,4z" fill="#8e8991"/><path d="M40,66L62,36l-82,76z" fill="#5176b0"/><path d="M2,94L-28,50L20,94z" fill="#5376a1"/><path d="M446,348l-10,28l-4,-22z" fill="#221d15"/><path d="M374,130l-64,-4l2,-8z" fill="#c2d1e2"/><path d="M476,352l-54,6l44,-12z" fill="#1f1811"/><path d="M440,316l-2,14h-8z" fill="#3e382e"/><path d="M202,262l-40,14L148,206z" fill="#2a261a"/><path d="M482,284L452,266l8,10z" fill="#382f27"/><path d="M424,114v-4V98z" fill="#f3f8fa"/><path d="M44,186l-98,-2l88,-6z" fill="#110f03"/><path d="M180,136L164,116l64,32z" fill="#324c62"/><path d="M446,384H434h4z" fill="#8c846f"/><path d="M500,326l-4,4l4,-40z" fill="#483f36"/><path d="M466,336l-26,4l38,-2z" fill="#1a130f"/><path d="M466,212l6,4L460,204z" fill="#3d3737"/><path d="M394,144h10l-4,4z" fill="#8c8b8e"/><path d="M62,90L90,88L72,90z" fill="#44658c"/><path d="M220,270l2,-30l-10,22z" fill="#5a5a51"/><path d="M456,114l10,-2l-10,8z" fill="#f6f8fd"/><path d="M436,214v6L342,178z" fill="#585a54"/><path d="M544,180l-46,2l6,2z" fill="#5e5153"/><path d="M430,254l4,-44l16,16z" fill="#716a5f"/><path d="M76,166l10,6l-16,2z" fill="#2b2415"/><path d="M190,306l-12,42l-32,48z" fill="#3e3f38"/><path d="M376,334h8l-10,8z" fill="#514e42"/><path d="M462,144l-12,-4l20,2z" fill="#a6a6b1"/><path d="M462,154l10,-4l-6,8z" fill="#383438"/><path d="M340,378l4,-6l2,2z" fill="#494336"/><path d="M84,-48L24,-4L-14,38z" fill="#25508a"/><path d="M196,282l14,-4l-24,28z" fill="#4a4d44"/><path d="M500,334l30,46L486,338z" fill="#201a12"/><path d="M200,336l-6,-54l-12,40z" fill="#4c4d47"/><path d="M42,150l-12,6l-58,-8z" fill="#111012"/><path d="M534,122l-42,16l4,2z" fill="#b8b8ca"/><path d="M94,364l-4,4l4,4z" fill="#2f2b20"/><path d="M92,-28l24,-6L-4,80z" fill="#4068a6"/><path d="M272,380L238,350l18,24z" fill="#464134"/><path d="M326,158l106,-8l-68,8z" fill="#596167"/><path d="M262,362l16,2l-24,4z" fill="#2a261b"/><path d="M188,152l18,50l18,4z" fill="#434030"/><path d="M504,144l-8,-6v6z" fill="#96929f"/><path d="M126,102L82,90H70z" fill="#2b486a"/><path d="M90,322l6,4l-14,4z" fill="#282419"/><path d="M432,142h-4l-8,4z" fill="#8e8f96"/><path d="M464,310L342,344l64,-40z" fill="#322d24"/><path d="M220,104L364,-8L318,50z" fill="#c6dffb"/><path d="M424,264l14,-14l-38,10z" fill="#5e584a"/><path d="M58,124L-24,102l66,4z" fill="#0b213d"/><path d="M394,390L358,366h18z" fill="#1e1b13"/><path d="M398,164l4,20l12,-18z" fill="#454f56"/><path d="M252,144l52,2L260,134z" fill="#5f7183"/><path d="M178,146H130l56,4z" fill="#343d41"/><path d="M160,68L142,88l-34,2z" fill="#92b7e2"/><path d="M422,334L376,280l30,2z" fill="#363429"/><path d="M338,82l40,-8l-78,44z" fill="#ecf9fe"/><path d="M166,12L74,74L228,-72z" fill="#6693d2"/><path d="M344,-38L220,58L162,78z" fill="#9cc1f2"/><path d="M38,148L20,134l26,4z" fill="#161d2e"/><path d="M150,372l-26,72L110,346z" fill="#100d08"/><path d="M288,204l52,14L312,182z" fill="#5e5b4e"/><path d="M0,84L44,36L0,70z" fill="#496da0"/><path d="M272,350l-14,10l-6,-20z" fill="#373429"/><path d="M376,324L366,284l-52,16z" fill="#3f3c2d"/><path d="M284,222l120,52L346,232z" fill="#4c4a3e"/><path d="M448,72l4,40l54,2z" fill="#fcfefd"/><path d="M246,158l-10,-8h20z" fill="#4e514b"/><path d="M200,144l40,4H210z" fill="#44525b"/><path d="M208,96l-24,4l56,12z" fill="#c2ddf2"/><path d="M486,210l-22,-8l36,10z" fill="#675d5a"/><path d="M482,120l38,-4l-54,2z" fill="#e0e4f1"/><path d="M466,174l12,4l-2,-6z" fill="#413d47"/><path d="M394,136l38,-4l-44,8z" fill="#b7c3d3"/><path d="M410,368l8,-6H408z" fill="#2e281f"/><path d="M268,192L250,166l54,28z" fill="#5e5b4c"/><path d="M444,188v0l6,6z" fill="#766e6b"/><path d="M432,318l-60,60l36,-42z" fill="#232219"/><path d="M54,134L36,132L-36,86z" fill="#091a34"/><path d="M70,-30L2,44L68,-44z" fill="#2f5a93"/><path d="M496,374l-40,10l-12,20z" fill="#130f0a"/><path d="M244,110L264,98l-36,12z" fill="#d4e5f7"/><path d="M464,178l-10,4l12,2z" fill="#706961"/><path d="M214,234l8,-8l2,8z" fill="#58554b"/><path d="M124,140l18,-8l-30,6z" fill="#2e3e4c"/><path d="M54,144H42l12,6z" fill="#192230"/><path d="M518,292l-6,-8l-16,-8z" fill="#5a4f48"/><path d="M244,166l-14,-2l12,16z" fill="#5b594b"/><path d="M540,212l-46,10l6,16z" fill="#4f4140"/><path d="M256,-10L160,60L234,20z" fill="#88b1e9"/><path d="M366,326l-2,-8l14,-6z" fill="#313024"/><path d="M512,316l10,-8l-10,10z" fill="#6b5f56"/><path d="M438,84V80l-10,4z" fill="#456470"/><path d="M474,360h-4l12,4z" fill="#4e473f"/><path d="M448,102l-14,18V80z" fill="#3a5961"/><path d="M392,342l30,10l8,-12z" fill="#2f291f"/><path d="M250,118h-2l6,2z" fill="#98aec3"/><path d="M386,202l-8,-4l6,-4z" fill="#696a63"/><path d="M172,320v-6l6,-10z" fill="#17140c"/><path d="M474,332l10,-6H432z" fill="#221a15"/><path d="M506,342v-2l6,2z" fill="#4a453d"/><path d="M386,324h4l-2,-34z" fill="#444234"/><path d="M128,248L64,174l90,192z" fill="#1b170b"/><path d="M204,74l-12,2l-22,24z" fill="#abcbf1"/><path d="M530,188H500l-28,-2z" fill="#837670"/><path d="M354,168l-50,-4l30,8z" fill="#696762"/><path d="M326,-56l56,-4L370,28z" fill="#d9e4ff"/><path d="M200,312l-4,6l32,8z" fill="#646053"/><path d="M204,404L190,372l6,4z" fill="#6b675a"/><path d="M410,188H400l16,6z" fill="#6e6d68"/><path d="M330,178l48,22l-6,6z" fill="#6c6a5f"/><path d="M422,308l-4,-2v-2z" fill="#1f1f17"/><path d="M350,298L252,238l54,6z" fill="#3f4033"/><path d="M260,320l-10,8l52,-36z" fill="#393a2f"/><path d="M204,294l-4,-4l6,4z" fill="#41433d"/><path d="M280,380l2,-20l18,48z" fill="#120e09"/><path d="M172,220L130,172l84,62z" fill="#323023"/><path d="M80,350l4,-2l-10,2z" fill="#27221b"/><path d="M470,356l18,2l20,2z" fill="#0c0905"/><path d="M498,160l-38,-2l-4,-2z" fill="#4d4851"/><path d="M260,228l6,20l-2,-28z" fill="#434032"/><path d="M-30,130L10,118L6,136z" fill="#061025"/><path d="M444,294l2,-4l-8,-16z" fill="#5f574b"/><path d="M52,282L68,246l2,38z" fill="#1a160c"/><path d="M98,304h12H88z" fill="#201b14"/><path d="M462,268l2,-2l-14,-4z" fill="#484036"/><path d="M244,334l30,-18l-22,26z" fill="#2d2d22"/><path d="M394,292L348,276l48,14z" fill="#4d4a3d"/><path d="M244,206l-6,-14l12,-24z" fill="#78786c"/><path d="M124,92L160,78L138,94z" fill="#98bbe3"/><path d="M370,348v0l2,-4z" fill="#17170d"/><path d="M60,60L58,78L48,80z" fill="#618abd"/><path d="M342,174l-6,-6h20z" fill="#71706a"/><path d="M312,310l70,34L330,322z" fill="#292b1e"/><path d="M462,338v-2L426,318z" fill="#2f2b24"/><path d="M146,94l2,2h-6z" fill="#80a1c2"/><path d="M258,328l-14,-8l18,4z" fill="#45463f"/><path d="M304,370l-2,-4l6,-10z" fill="#3f3b31"/><path d="M132,290l70,-24l-36,40z" fill="#1f1f13"/><path d="M438,182H424h14z" fill="#8f8674"/><path d="M174,164H150l28,-6z" fill="#282316"/><path d="M118,164l28,-2v2z" fill="#271b08"/><path d="M464,214l72,62L456,222z" fill="#665d55"/><path d="M462,122l8,-2l-12,-6z" fill="#e5e7f4"/><path d="M226,248l8,-50l-12,38z" fill="#656357"/><path d="M472,264l22,12L476,266z" fill="#483e35"/><path d="M492,196l62,58L508,190z" fill="#544847"/><path d="M350,248L266,206l100,30z" fill="#514d42"/><path d="M422,158l-34,10l34,-16z" fill="#42484f"/><path d="M172,374l12,-2l-16,4z" fill="#3c3931"/><path d="M50,106L26,98L-12,94z" fill="#122848"/><path d="M124,108l72,34l-48,-8z" fill="#2c445f"/><path d="M444,354l8,12l-4,-12z" fill="#433d33"/><path d="M190,362l-4,4l10,-10z" fill="#413e35"/><path d="M98,104l26,26l4,-6z" fill="#1e3b56"/><path d="M146,310l-10,4l10,-6z" fill="#352e24"/><path d="M62,162l16,4l-94,2z" fill="#1b0e03"/><path d="M460,170l10,-4H452z" fill="#242636"/><path d="M458,298l-34,12l60,-20z" fill="#554c44"/><path d="M430,84V80l4,-2z" fill="#616e77"/><path d="M124,98l24,2l18,20z" fill="#375370"/><path d="M256,348l-10,4l16,-4z" fill="#333226"/><path d="M14,366L-74,126L22,230z" fill="#090401"/><path d="M582,86L404,58l48,-210z" fill="#fefefe"/><path d="M316,18l-20,6l32,-66z" fill="#b4cff9"/><path d="M230,194L186,158l42,50z" fill="#484636"/><path d="M76,386L56,358L-2,368z" fill="#080503"/><path d="M28,312H10l6,10z" fill="#100b08"/><path d="M440,76l-10,2l4,8z" fill="#536e77"/><path d="M398,184l36,4l-20,-4z" fill="#69625c"/><path d="M434,164V148l2,-24z" fill="#352d2b"/><path d="M234,296l-8,4l8,-8z" fill="#666151"/><path d="M62,118l6,12l-20,8z" fill="#13263e"/><path d="M244,246l6,-6l2,10z" fill="#626258"/><path d="M452,372l30,-2l-42,12z" fill="#1c160e"/><path d="M326,16L308,42L224,88z" fill="#badafa"/><path d="M282,120l36,14L302,124z" fill="#b4c4d9"/><path d="M482,362l4,6l2,-4z" fill="#534c44"/><path d="M424,294l26,-24l-36,32z" fill="#575248"/><path d="M380,176l-20,-8l10,10z" fill="#787670"/><path d="M232,352v-4l-6,-4z" fill="#4a493d"/><path d="M244,252l4,-6v12z" fill="#616057"/><path d="M568,460L496,358l30,-24z" fill="#140f0c"/><path d="M342,236l-90,-4l112,36z" fill="#48463a"/><path d="M204,354l6,-6l8,2z" fill="#575244"/><path d="M506,262v8l38,10z" fill="#433a35"/><path d="M398,376l-8,-4l4,-6z" fill="#211f19"/><path d="M392,26L338,88L382,26z" fill="#e7f2fd"/><path d="M492,140l38,-6l-48,6z" fill="#b8b9ca"/><path d="M158,330l16,-8l4,-12z" fill="#1e1d14"/><path d="M482,332v2l-2,-2z" fill="#554a44"/><path d="M186,334l-12,-4l-10,20z" fill="#414039"/><path d="M44,90l-8,2l2,-2z" fill="#204165"/><path d="M134,314l-8,2l10,-10z" fill="#2c251b"/><path d="M462,304v2l-6,-2z" fill="#5f564e"/><path d="M486,292l4,-22l-4,-4z" fill="#594f47"/><path d="M380,164l22,-10l-32,6z" fill="#4f5e69"/><path d="M362,344l52,-12h8z" fill="#333229"/><path d="M464,352h12l-10,2z" fill="#160f08"/><path d="M220,162l14,8l-2,14z" fill="#524f40"/><path d="M494,186l-4,-4h6z" fill="#695e60"/><path d="M354,296l2,8l8,-12z" fill="#494739"/><path d="M250,222l6,-8l-6,-18z" fill="#626358"/><path d="M486,190l4,6l-16,-6z" fill="#5d514b"/><path d="M248,378l2,8l-6,-8z" fill="#514d40"/><path d="M472,220l-76,-8l24,22z" fill="#6d675b"/><path d="M464,334l38,-38l-14,-2z" fill="#392c24"/><path d="M500,364l-12,8l2,-10z" fill="#2d261e"/><path d="M374,326l-12,-2l6,2z" fill="#222216"/><path d="M196,392l8,-18l-2,-12z" fill="#6b6757"/><path d="M72,132l-8,8l50,12z" fill="#212e3c"/><path d="M180,298l-4,-8v2z" fill="#16140a"/><path d="M504,314l-72,-4l28,-2z" fill="#29221a"/><path d="M440,314l6,6L430,310z" fill="#534e44"/><path d="M430,374h2H420z" fill="#332b22"/><path d="M332,178l14,2l-24,-6z" fill="#555550"/><path d="M288,124l-18,-2l36,12z" fill="#acc0d7"/><path d="M168,164l28,-4h14z" fill="#373223"/><path d="M396,378l42,14L414,374z" fill="#28241c"/><path d="M282,134l-14,-6l4,4z" fill="#7087a0"/><path d="M228,378l6,-8l-10,8z" fill="#544e41"/><path d="M144,72L174,58L150,80z" fill="#8eb6e7"/><path d="M126,132L100,108l-8,2z" fill="#1e3b58"/><path d="M312,368l-6,-2v-2z" fill="#161208"/><path d="M308,320l44,-12l-70,22z" fill="#353428"/><path d="M228,212l-2,18l-10,2z" fill="#5b594e"/><path d="M322,326l-10,-8l2,14z" fill="#303227"/><path d="M356,192l-32,-2l24,2z" fill="#67645a"/><path d="M454,178L438,160l-26,6z" fill="#2d3a3c"/><path d="M388,164l26,18L398,160z" fill="#47555b"/><path d="M194,372L162,352l18,8z" fill="#413e37"/><path d="M166,102l16,8L160,98z" fill="#466483"/><path d="M242,372l10,-6l-10,2z" fill="#4b473f"/><path d="M230,274l2,20l2,-20z" fill="#7a7769"/><path d="M230,124L194,110l-12,-2z" fill="#4b6682"/><path d="M468,332l-6,2l-4,2z" fill="#3b3630"/><path d="M220,-6L188,18l8,-66z" fill="#75a1e0"/><path d="M240,388L206,370l-8,10z" fill="#625c4a"/><path d="M374,348l6,-2l-6,4z" fill="#141107"/><path d="M168,104l66,30l14,14z" fill="#466076"/><path d="M78,132L48,106l22,24z" fill="#182c43"/><path d="M416,418h16l20,-42z" fill="#262017"/><path d="M366,324l-2,6l4,-6z" fill="#212115"/><path d="M322,366l-4,-6l20,2z" fill="#1d1b0e"/><path d="M430,158l4,4l2,-36z" fill="#40434a"/><path d="M180,384v-2l-18,10z" fill="#6a695b"/><path d="M108,250L34,186L6,194z" fill="#151105"/><path d="M62,308L52,298l22,8z" fill="#1b140e"/><path d="M386,400L346,376l16,6z" fill="#1a150a"/><path d="M52,112l8,12L44,112z" fill="#142944"/><path d="M442,302l2,-4l18,44z" fill="#31291f"/><path d="M362,360L350,322l-4,18z" fill="#373526"/><path d="M486,368L470,356v0z" fill="#4d463d"/><path d="M288,152l-46,-4l10,-4z" fill="#505c5f"/><path d="M484,146h10H460z" fill="#827b83"/><path d="M470,342h6l-14,-2z" fill="#403a34"/><path d="M550,290L488,270l18,2z" fill="#43372e"/><path d="M268,356l-24,10l14,-6z" fill="#312e25"/><path d="M238,120h12l8,4z" fill="#748ca6"/><path d="M264,230H254l52,34z" fill="#454135"/><path d="M362,58L260,102l40,-4z" fill="#def0fd"/><path d="M388,368v0H376z" fill="#474239"/><path d="M140,376l24,-42l-28,-6z" fill="#17120c"/><path d="M264,146l-10,-6l-18,2z" fill="#556875"/><path d="M492,372h-6v-8z" fill="#3d362e"/><path d="M410,190l10,4l-8,-4z" fill="#7b7873"/><path d="M76,190l8,-16L36,192z" fill="#201d11"/><path d="M394,144h10l-16,2z" fill="#929297"/><path d="M366,372h-4l4,4z" fill="#4f4b40"/><path d="M356,24L330,-72l36,94z" fill="#d2e2f9"/><path d="M260,150l14,2l-26,-2z" fill="#4f5651"/><path d="M182,344l-2,2l66,44z" fill="#5b5952"/><path d="M494,376l32,16L498,380z" fill="#312e27"/><path d="M292,120l50,2l18,-2z" fill="#c8d6e7"/><path d="M476,206l14,-12l-20,14z" fill="#695f5c"/><path d="M426,178l-32,10h14z" fill="#6a665d"/><path d="M442,316l10,4l-4,-12z" fill="#2f2c24"/><path d="M118,-18l-2,-14L10,64z" fill="#466dad"/><path d="M130,158l-18,2H88z" fill="#372b1a"/><path d="M494,368h6H482z" fill="#231c15"/><path d="M508,144l12,-6l-14,6z" fill="#8a8490"/><path d="M-78,56L22,132l-10,2z" fill="#06122a"/><path d="M242,124l28,14L242,118z" fill="#5f7891"/><path d="M264,118l42,14L256,118z" fill="#acbfd5"/><path d="M384,318h4l20,-28z" fill="#2f2f23"/><path d="M242,346l-4,4l-36,36z" fill="#676559"/><path d="M460,310l-12,4l2,-8z" fill="#2c271f"/><path d="M168,358h6l-18,2z" fill="#312e27"/><path d="M116,298l10,-2l8,8z" fill="#241f14"/><path d="M38,342l10,30L32,330z" fill="#070301"/><path d="M124,244L74,194l32,8z" fill="#1c1a0d"/><path d="M94,22l46,-54L60,40z" fill="#5178b9"/><path d="M276,166l-8,-4l22,2z" fill="#5c5857"/><path d="M308,118V108L376,86z" fill="#f1f9ff"/><path d="M500,162l-6,6l-22,10z" fill="#261b2e"/><path d="M428,206l-18,-4l22,-6z" fill="#454847"/><path d="M390,366l-20,-2h26z" fill="#130f08"/><path d="M428,314v0l8,-2z" fill="#443d33"/><path d="M208,92l-26,6l16,8z" fill="#bad8f1"/><path d="M354,344l10,12l-6,-6z" fill="#424031"/><path d="M432,90l-8,-8v0z" fill="#d3e0e6"/><path d="M74,66L110,24L58,66z" fill="#6089c5"/><path d="M264,360l16,-24h6z" fill="#1e1e16"/><path d="M4,174H16l-18,4z" fill="#20150d"/><path d="M226,212l16,-28l-12,40z" fill="#656459"/><path d="M450,282l18,24L444,264z" fill="#433d33"/><path d="M388,264l-2,36l-8,-36z" fill="#3f3d31"/><path d="M300,140l30,6l-20,-8z" fill="#7d8c9e"/><path d="M468,262L448,222l-16,16z" fill="#655f53"/><path d="M324,154l12,4H318z" fill="#525a5d"/><path d="M490,210l-16,-2l24,-4z" fill="#685c5b"/><path d="M342,196l36,2l-26,6z" fill="#69655a"/><path d="M456,194l-26,4h16z" fill="#66615d"/><path d="M502,312h4l28,6z" fill="#181008"/><path d="M498,316L488,294l-10,30z" fill="#382f27"/><path d="M60,202L32,190L56,168z" fill="#191608"/><path d="M80,66L114,50L62,88z" fill="#6b99cd"/><path d="M94,86L118,62L76,82z" fill="#76a2d3"/><path d="M462,150l-14,8l16,-2z" fill="#3c3840"/><path d="M496,182l26,4l-38,-4z" fill="#574f52"/><path d="M420,174L400,160l-4,4z" fill="#3f4e56"/><path d="M296,80L282,72L338,40z" fill="#d0e5fd"/><path d="M148,340h4l-4,-4z" fill="#302b25"/><path d="M326,376l12,-6l-8,12z" fill="#1c160e"/><path d="M370,168H356l12,-2z" fill="#5d5e5c"/><path d="M170,308l-26,18l-28,4z" fill="#17150b"/><path d="M372,380l-8,2l16,-8z" fill="#353125"/><path d="M34,176l36,-6H20z" fill="#291d10"/><path d="M468,182l-10,2l10,-2z" fill="#8a8178"/><path d="M266,130l28,10L234,116z" fill="#70869d"/><path d="M468,318l-2,-2l-2,2z" fill="#555148"/><path d="M266,376h4H260z" fill="#575145"/><path d="M298,146h48l76,2z" fill="#787a79"/><path d="M80,276l40,22L80,268z" fill="#1b160f"/><path d="M418,150l-4,8l-6,-8z" fill="#605d57"/><path d="M226,108L266,80l-44,22z" fill="#cee2f9"/><path d="M400,380h-8l12,6z" fill="#0d0c07"/><path d="M404,120l-38,-6L442,48z" fill="#fcfefe"/><path d="M502,306h4l20,-30z" fill="#534641"/><path d="M430,80l10,6l6,-6z" fill="#486871"/><path d="M394,370l-10,-2l4,2z" fill="#3f3a32"/><path d="M186,220h2H176z" fill="#29271a"/><path d="M4,156l-42,-4H16z" fill="#0b0708"/><path d="M12,414L70,376l2,-10z" fill="#070201"/><path d="M256,-50L228,2L208,14z" fill="#80a8e5"/><path d="M168,156l60,-2l-26,4z" fill="#413b2d"/><path d="M502,150H474h22z" fill="#382f38"/><path d="M308,150l-6,4l-4,-8z" fill="#64686f"/><path d="M342,26l14,-52l-6,40z" fill="#cdddfd"/><path d="M92,128l-8,4l46,-2z" fill="#21354c"/><path d="M-24,166H10l4,8z" fill="#150300"/><path d="M496,294l-24,-2v-2z" fill="#443830"/><path d="M10,0L-10,18L20,-60z" fill="#1c417b"/><path d="M406,258l-6,-58l8,34z" fill="#6a6458"/><path d="M454,204l2,4l-4,-4z" fill="#20201e"/><path d="M14,216l18,48L44,222z" fill="#0f0803"/><path d="M496,186l-6,4l2,2z" fill="#7e6f69"/><path d="M172,242l-12,8l20,-16z" fill="#201e11"/><path d="M492,278l-12,-4l2,-4z" fill="#41372e"/><path d="M194,148l-56,-4l18,-2z" fill="#2a3d4e"/><path d="M160,304l4,-2l-4,4z" fill="#0f0f06"/><path d="M384,334l-10,-2l8,4z" fill="#3a372b"/><path d="M438,104h-4v-2z" fill="#426871"/><path d="M310,364l16,14L300,360z" fill="#171309"/><path d="M180,370l-12,2l14,-6z" fill="#5a574f"/><path d="M170,332h8l6,12z" fill="#3a3a35"/><path d="M236,370l-6,-2v-6z" fill="#555042"/><path d="M490,320l-10,-4l14,8z" fill="#3f382f"/><path d="M128,324l-8,-2l6,-6z" fill="#28241a"/><path d="M368,372v0l-8,-8z" fill="#0f0c06"/><path d="M94,282l-8,42l12,6z" fill="#19150b"/><path d="M150,330l-2,-8l2,10z" fill="#0d0805"/><path d="M140,150l16,-2L80,134z" fill="#2b3a46"/><path d="M408,338l22,12L418,336z" fill="#1e1d14"/><path d="M482,294H470h12z" fill="#6c6158"/><path d="M432,176l-6,-20l-2,20z" fill="#303647"/><path d="M126,162v2l10,2z" fill="#413621"/><path d="M496,290l2,4l-8,-10z" fill="#5e524a"/><path d="M502,274l36,18L490,266z" fill="#3c312a"/><path d="M108,122L42,96l36,6z" fill="#1b3453"/><path d="M300,348L280,334l-4,-10z" fill="#1b1b13"/><path d="M430,180l14,2l-24,-2z" fill="#868078"/><path d="M422,318l-10,2l8,-4z" fill="#1d1d15"/><path d="M350,312l24,-26l-16,14z" fill="#454233"/><path d="M394,268l16,10l-8,-10z" fill="#413d31"/><path d="M88,264L64,222l18,22z" fill="#1a160b"/><path d="M176,388l-4,-18l2,18z" fill="#58544d"/><path d="M82,28l54,-48L100,24z" fill="#557ac0"/><path d="M230,370l-2,-2l2,4z" fill="#888274"/><path d="M280,160l-2,-6H268z" fill="#454447"/><path d="M228,62L258,52l78,-70z" fill="#abccf8"/><path d="M260,306l14,8l2,-10z" fill="#26281d"/><path d="M374,146l22,2H334z" fill="#7f8386"/><path d="M464,274v-2l-12,8z" fill="#382f27"/><path d="M490,132l60,-10l-44,2z" fill="#b6bdda"/><path d="M86,128H76H96z" fill="#1d334b"/><path d="M128,348L106,324l40,40z" fill="#110c06"/><path d="M160,94l8,-8l-16,8z" fill="#a2c4ea"/><path d="M360,246l20,-10l-24,18z" fill="#565247"/><path d="M260,410l2,-32l-2,-4z" fill="#3d372a"/><path d="M232,318h-8l4,-4z" fill="#56564c"/><path d="M348,138l10,4l-18,2z" fill="#97a1ad"/><path d="M498,332l-4,-4l10,8z" fill="#302921"/><path d="M452,336l6,-4l6,8z" fill="#322d27"/><path d="M408,280l2,-6l6,8z" fill="#444035"/><path d="M254,308l2,20l6,-24z" fill="#37392f"/><path d="M464,278l12,-8l-20,14z" fill="#5a5048"/><path d="M100,86h16l16,6z" fill="#8cb1d9"/><path d="M344,122l48,8l2,-8z" fill="#ccd8ea"/><path d="M96,92l30,4l22,18z" fill="#304d6f"/><path d="M212,12L178,30L116,78z" fill="#7caae3"/><path d="M232,20L170,64l-24,6z" fill="#8cb6ea"/><path d="M156,290L122,198l-20,12z" fill="#211f12"/><path d="M466,122l-26,-2l12,-2z" fill="#e2e8f2"/><path d="M448,82h-4l-10,4z" fill="#4b6972"/><path d="M248,342l6,2l-14,-2z" fill="#4f4d41"/><path d="M140,124L88,100l24,4z" fill="#213e5e"/><path d="M342,136H330h22z" fill="#abbcd0"/><path d="M476,288l8,-4l-18,8z" fill="#322920"/><path d="M112,152l12,2H74z" fill="#2c2a25"/><path d="M480,298l12,8H478z" fill="#50423a"/><path d="M288,280l-32,8l42,-8z" fill="#2f3022"/><path d="M444,88l4,-4h-4z" fill="#4a626e"/><path d="M436,364h6l-10,-2z" fill="#353128"/><path d="M344,322l4,4h-6z" fill="#413f33"/><path d="M42,84L44,66l8,-2z" fill="#5c81b9"/><path d="M254,156l-2,6h12z" fill="#525048"/><path d="M46,374l-2,6l-6,-4z" fill="#120e0b"/><path d="M152,334l-10,-4l10,4z" fill="#241f19"/><path d="M138,96l10,4L132,94z" fill="#476687"/><path d="M146,94h-4V86z" fill="#9abde4"/><path d="M112,90L142,72l-22,6z" fill="#86afe1"/><path d="M336,342l6,6l-12,10z" fill="#3b3427"/><path d="M74,64L64,82L126,30z" fill="#6794cd"/><path d="M414,352l-10,6l4,4z" fill="#231f17"/><path d="M122,376v-2v0z" fill="#2e2923"/><path d="M248,12L220,38L326,-104z" fill="#90b5ed"/><path d="M234,166l8,6l-16,-4z" fill="#585647"/><path d="M338,158l-32,6h12z" fill="#4d565e"/><path d="M370,60L386,10l4,12z" fill="#e8f1fd"/><path d="M432,340l-6,-8h6z" fill="#413a2f"/><path d="M66,226l-4,56L58,270z" fill="#130e07"/><path d="M506,298v-4l-10,8z" fill="#51443e"/><path d="M482,126l38,-4H506z" fill="#c8cae1"/><path d="M92,294L80,290l36,30z" fill="#1d160d"/><path d="M420,300l-2,2l4,-14z" fill="#49453a"/><path d="M120,314H108l10,4z" fill="#252117"/><path d="M354,172l-2,-2l14,2z" fill="#7e7b74"/><path d="M418,188H408l78,22z" fill="#615854"/><path d="M74,358h6l4,-6z" fill="#1c1712"/><path d="M146,364l2,12l8,-16z" fill="#1a1610"/><path d="M408,152l2,-2l-12,4z" fill="#64635f"/><path d="M190,120l24,16l16,4z" fill="#415a6f"/><path d="M440,116h6l14,-6z" fill="#f9fdfe"/><path d="M482,180h12L466,152z" fill="#302c33"/><path d="M252,200l-2,-36v6z" fill="#6d6d63"/><path d="M244,338l4,-14l12,-4z" fill="#3b3a30"/><path d="M454,224H442l20,2z" fill="#61584f"/><path d="M136,282l2,6h-4z" fill="#282319"/><path d="M260,114H238L256,96z" fill="#d6e7f7"/><path d="M152,334v8l16,-10z" fill="#100b06"/><path d="M202,54L182,64l12,-4z" fill="#97bdef"/><path d="M264,300l-8,2l8,2z" fill="#34362b"/><path d="M512,300l10,2l-12,6z" fill="#322821"/><path d="M260,378l-10,-6h10z" fill="#4e483c"/><path d="M254,162l12,12h-8z" fill="#575547"/><path d="M180,252l6,12l14,2z" fill="#312f22"/><path d="M368,360v2h-4z" fill="#424034"/><path d="M440,362l6,8l14,4z" fill="#120e07"/><path d="M144,32L108,54L222,-40z" fill="#6a98d5"/><path d="M216,156l14,-4l-30,4z" fill="#444035"/><path d="M506,292v4l8,-8z" fill="#5d534d"/><path d="M376,288h10l-20,8z" fill="#3c3b2e"/><path d="M494,240l-40,6l14,2z" fill="#5f524a"/><path d="M428,274L368,206l-14,4z" fill="#5e5b4f"/><path d="M498,80L516,38l16,120z" fill="#f7fbfe"/><path d="M18,150L8,142l-16,4z" fill="#121221"/><path d="M436,206h10l2,2z" fill="#585651"/><path d="M476,228l-2,4l-8,-8z" fill="#5a5047"/><path d="M272,362l8,2l-6,20z" fill="#17150d"/><path d="M476,184l22,6l-24,-6z" fill="#887d77"/><path d="M390,350l-10,2l18,6z" fill="#302c23"/><path d="M444,294l2,4l-12,-6z" fill="#4b4338"/><path d="M298,274l4,8l-6,-14z" fill="#454638"/><path d="M404,170l10,-4l-32,2z" fill="#464f55"/><path d="M340,360l4,2l-8,-2z" fill="#171308"/><path d="M216,126L186,104l-18,2z" fill="#45607b"/><path d="M382,252l2,8l6,-32z" fill="#575348"/><path d="M412,324l42,2l-42,-4z" fill="#242319"/><path d="M236,186L214,168l18,28z" fill="#4f4d3e"/><path d="M378,178h10v4z" fill="#626665"/><path d="M500,240l-4,-4l6,12z" fill="#6f625b"/><path d="M420,392L388,382l-72,12z" fill="#332b21"/><path d="M438,212l-12,4h4z" fill="#62594c"/><path d="M274,256l-12,-4l36,-12z" fill="#413f33"/><path d="M416,166l-12,16l14,-4z" fill="#3e4a53"/><path d="M398,244l10,-28l-2,24z" fill="#6a6458"/><path d="M442,320l10,-20l-12,26z" fill="#242119"/><path d="M258,132h-8L236,120z" fill="#587189"/><path d="M244,318l16,8l-6,-6z" fill="#48473f"/><path d="M504,350l-30,-4l14,4z" fill="#201a14"/><path d="M96,354l14,4l-2,18z" fill="#0a0603"/><path d="M330,226l4,12l38,-2z" fill="#525044"/><path d="M198,416l8,-26V376z" fill="#595241"/><path d="M462,346l-18,2l-2,-6z" fill="#1d1913"/><path d="M306,372l6,2v0z" fill="#090501"/><path d="M368,300l2,6l10,-2z" fill="#3d3a2b"/><path d="M80,338H72l8,-10z" fill="#1a150f"/><path d="M502,226l-8,6l4,-14z" fill="#4c413d"/><path d="M10,152l20,4H20z" fill="#0d0d05"/><path d="M290,304l-10,6l26,2z" fill="#36382a"/><path d="M200,280V264l16,6z" fill="#52534a"/><path d="M122,-68L168,8L180,2z" fill="#6c94d8"/><path d="M482,342l2,-14l-6,16z" fill="#4a433d"/><path d="M428,124v-6H412z" fill="#d7ddeb"/><path d="M278,292v0v-6z" fill="#202215"/><path d="M192,342l-10,-4l12,12z" fill="#48453c"/><path d="M24,54L44,24l-74,78z" fill="#426aa1"/><path d="M266,370l4,2l-14,-2z" fill="#2f2a1e"/><path d="M250,328l-4,8l-2,-16z" fill="#3c3d34"/><path d="M450,200H438h24z" fill="#595752"/><path d="M486,318l-4,-6l4,4z" fill="#70665d"/><path d="M224,376l-10,-4v-4z" fill="#6e6659"/><path d="M488,260v4l-10,4z" fill="#453a32"/><path d="M346,104L378,48l16,10z" fill="#eff9fe"/><path d="M260,338l-14,22h-6z" fill="#444236"/><path d="M224,274l-8,4l10,-8z" fill="#605d51"/><path d="M338,300l-14,6H314z" fill="#444334"/><path d="M128,118l22,8l6,14z" fill="#253f58"/><path d="M348,272l28,12v-4z" fill="#3e3c2f"/><path d="M426,248l32,-36H444z" fill="#635c57"/><path d="M416,282l22,-32l22,6z" fill="#544c42"/><path d="M498,324l-10,-2l2,2z" fill="#524a41"/><path d="M416,158l10,-6l-22,2z" fill="#4c4e4d"/><path d="M224,108l12,6l6,-6z" fill="#d5e6f6"/><path d="M364,312l8,2l2,-2z" fill="#302f22"/><path d="M210,368l18,-14l-16,18z" fill="#605949"/><path d="M446,372l8,8l-10,-8z" fill="#342e25"/><path d="M432,240v-4h-8z" fill="#5c564a"/><path d="M356,266h10h2z" fill="#5a584c"/><path d="M236,96L328,52L268,72z" fill="#cae4fc"/><path d="M170,278L138,194l-8,18z" fill="#262417"/><path d="M290,292l4,-10l4,14z" fill="#313023"/><path d="M318,188l-2,-6l-10,2z" fill="#66645a"/><path d="M508,260l2,-18V224z" fill="#4b3d38"/><path d="M476,282l10,2H476z" fill="#31251e"/><path d="M456,122h42l-46,4z" fill="#cfd5e8"/><path d="M504,314l6,6l-12,-6z" fill="#282119"/><path d="M296,342l14,-8l10,6z" fill="#323226"/><path d="M444,152l4,6l4,-6z" fill="#36353a"/><path d="M196,278v-2l-14,36z" fill="#44463d"/><path d="M224,308l4,4l-2,-6z" fill="#79786c"/><path d="M328,312h10l-8,4z" fill="#2d3023"/><path d="M320,26l60,-72L310,22z" fill="#bdd5fb"/><path d="M128,152h16l-12,-2z" fill="#2c3131"/><path d="M306,-20L290,10L260,28z" fill="#a4c3f6"/><path d="M456,246l-12,8v-6z" fill="#6a6357"/><path d="M506,144h-8l20,-2z" fill="#898490"/><path d="M422,212l-24,-6l24,2z" fill="#6a6258"/><path d="M424,250l-12,-4l10,2z" fill="#565044"/><path d="M302,228l16,-18l-38,10z" fill="#535142"/><path d="M480,126l10,6l-22,-6z" fill="#c3c8e1"/><path d="M224,262l4,2l14,2z" fill="#6c6b5e"/><path d="M384,374h-4l4,-4z" fill="#433e33"/><path d="M476,378v-8l10,-2z" fill="#140d08"/><path d="M138,-12L136,6L88,42z" fill="#5c85c7"/><path d="M478,298l2,-8l2,14z" fill="#594b43"/><path d="M430,356l-2,-6l-2,2z" fill="#453e34"/><path d="M94,328h2l-2,-4z" fill="#2c281d"/><path d="M474,320h20l-24,-4z" fill="#3d352b"/><path d="M230,46L300,4L232,50z" fill="#a2c6f5"/><path d="M208,328l22,20l-10,10z" fill="#6b6859"/><path d="M204,338l2,4l-8,-2z" fill="#6b685b"/><path d="M492,214L482,198l10,12z" fill="#5c4f4e"/><path d="M292,30L308,10L262,48z" fill="#b1d1f9"/><path d="M210,102l10,8l-10,-4z" fill="#c1dcef"/><path d="M286,348h-4l2,14z" fill="#25251c"/><path d="M12,80L4,90l20,4z" fill="#5376a1"/><path d="M212,80l14,2L210,92z" fill="#b8d8f4"/><path d="M230,146l-22,-8L162,114z" fill="#3a536a"/><path d="M250,256l2,4V248z" fill="#5b5d52"/><path d="M408,130l14,2l-34,4z" fill="#bfcbdd"/><path d="M488,202l-12,-2l12,6z" fill="#554b46"/><path d="M414,254l-6,-4l-20,-6z" fill="#6e6a5e"/><path d="M392,260l-4,2l-6,-8z" fill="#4a473b"/><path d="M502,278l-8,8h10z" fill="#50413a"/><path d="M348,180l4,6l24,-2z" fill="#5b5d59"/><path d="M490,176L468,164l8,-2z" fill="#232436"/><path d="M460,148h8h-6z" fill="#555251"/><path d="M26,366L10,352L8,334z" fill="#0b0a07"/><path d="M198,164l-8,6l2,-6z" fill="#4e4839"/><path d="M292,258l-32,28l34,-8z" fill="#373528"/><path d="M42,92l4,6L38,94z" fill="#163454"/><path d="M226,212l-8,-6l10,-2z" fill="#424134"/><path d="M510,338l-12,-8l10,2z" fill="#201b13"/><path d="M438,86l8,2L428,86z" fill="#41606b"/><path d="M464,356l2,2h-4z" fill="#423b32"/><path d="M434,384v0h6z" fill="#aea68d"/><path d="M324,280H312l12,4z" fill="#313226"/><path d="M356,380l-38,56L288,378z" fill="#241f16"/><path d="M176,330l-4,2l-2,-8z" fill="#33342e"/><path d="M164,370v6l-8,2z" fill="#34312b"/><path d="M488,234L472,218l26,34z" fill="#57504d"/><path d="M324,150H290l36,4z" fill="#64686d"/><path d="M426,372l-22,-6l40,8z" fill="#231b13"/><path d="M302,74l-12,6h12z" fill="#d7ebff"/><path d="M128,362v-4l-4,12z" fill="#28241a"/><path d="M322,366l-8,-2l-4,-4z" fill="#252216"/><path d="M88,50L114,38L72,66z" fill="#6390cb"/><path d="M528,362l-14,-2L482,340z" fill="#231e19"/><path d="M214,240h-2l10,-6z" fill="#535248"/><path d="M40,104l6,6H34z" fill="#0e2744"/><path d="M74,154L38,152l10,2z" fill="#201e18"/><path d="M166,102l8,8L134,96z" fill="#3e5c7a"/><path d="M98,344l8,-20L92,348z" fill="#17120c"/><path d="M32,326l6,2l-16,2z" fill="#14100b"/><path d="M60,176l-2,16H38z" fill="#1e170c"/><path d="M434,340h-2l6,6z" fill="#756d62"/><path d="M490,304v-2l-6,2z" fill="#32231c"/><path d="M308,156h-4l-2,2z" fill="#494f56"/><path d="M438,120v6l2,-4z" fill="#c0c3d0"/><path d="M486,298h-4l16,10z" fill="#483932"/><path d="M498,298h-8l18,-2z" fill="#2c1f18"/><path d="M418,244l18,8L398,228z" fill="#676155"/><path d="M468,252h6l-6,-2z" fill="#7a7064"/><path d="M302,340h4l-4,-14z" fill="#373427"/><path d="M380,304l4,2l-6,-14z" fill="#565345"/><path d="M466,328l4,-2l-6,2z" fill="#18120c"/><path d="M366,374L346,364l22,16z" fill="#3f3b30"/><path d="M508,334l38,20L516,334z" fill="#3c342b"/><path d="M132,342l16,-8h-2z" fill="#2d2822"/><path d="M410,144l10,-4l-4,4z" fill="#a3a3a8"/><path d="M136,338l4,4l6,-2z" fill="#18130e"/><path d="M392,330H382v8z" fill="#383529"/><path d="M284,152v2l8,-2z" fill="#5a5a66"/><path d="M498,316l-22,16l-8,4z" fill="#1d1610"/><path d="M130,142l2,2l10,-2z" fill="#2c3c4c"/><path d="M284,306v-8l-8,2z" fill="#2d2f22"/><path d="M410,334L398,324l10,6z" fill="#202015"/><path d="M148,348l-4,-2l14,-2z" fill="#1f1a14"/><path d="M490,186l2,-2l6,2z" fill="#7b6f6c"/><path d="M364,352l-2,-4l6,4z" fill="#1e1e10"/><path d="M42,350H30l14,-8z" fill="#080603"/><path d="M468,232l8,20l2,-16z" fill="#5c5249"/><path d="M242,378v-2l8,26z" fill="#27211a"/><path d="M430,130H418l6,-4z" fill="#c5cfe3"/><path d="M232,324l22,-26l-6,14z" fill="#5b5b51"/><path d="M46,122L14,110l30,18z" fill="#0c1e38"/><path d="M390,312h6H386z" fill="#47473c"/><path d="M426,202l-18,-4l30,6z" fill="#3a3d3d"/><path d="M270,162l32,2l14,14z" fill="#605d5e"/><path d="M396,182h18l-44,2z" fill="#424b4f"/><path d="M448,272l6,-12l-8,-8z" fill="#544d42"/><path d="M384,246l-36,10l-2,-2z" fill="#545448"/><path d="M486,168l6,8l-4,-10z" fill="#1f1c2f"/><path d="M284,114l12,4l42,-2z" fill="#e8f3fc"/><path d="M438,222l6,10l6,-10z" fill="#716b5f"/><path d="M108,102L78,98L66,92z" fill="#274163"/><path d="M306,348l52,-6l-64,6z" fill="#353228"/><path d="M166,-10L130,24L208,-88z" fill="#638bd0"/><path d="M186,322l12,2H188z" fill="#595952"/><path d="M282,266h20l-10,4z" fill="#3c3b2e"/><path d="M16,326L30,296l14,4z" fill="#080401"/><path d="M376,174l26,2l-38,2z" fill="#7a766f"/><path d="M340,298h-8h-4z" fill="#363425"/><path d="M510,248h-6l72,-16z" fill="#4f413a"/><path d="M484,250l-2,4l-2,16z" fill="#54453d"/><path d="M394,288l-4,-2h20z" fill="#2d2c23"/><path d="M474,350l6,6v-6z" fill="#3d3731"/><path d="M208,284l2,-22l4,34z" fill="#585850"/><path d="M380,298l38,2l-12,-6z" fill="#323026"/><path d="M-56,180l96,30L32,196z" fill="#140d04"/><path d="M504,298l-2,-4l2,4z" fill="#251913"/><path d="M384,338h4l-2,8z" fill="#322e22"/><path d="M478,264l12,-12l-8,8z" fill="#51433b"/><path d="M344,380l14,-8l26,-20z" fill="#252219"/><path d="M474,144l-6,-2h12z" fill="#a19fa8"/><path d="M246,264h12l-6,14z" fill="#4b4d45"/><path d="M178,270l-12,6l-18,26z" fill="#1d1b0f"/><path d="M82,82L92,74L88,66z" fill="#729dcf"/><path d="M38,176L18,174l-6,2z" fill="#25190c"/><path d="M308,134l-28,-8l36,8z" fill="#adbdd3"/><path d="M270,244l8,6L260,240z" fill="#3a382c"/><path d="M222,356L190,340l32,16z" fill="#575142"/><path d="M360,268l-2,-12l4,8z" fill="#535146"/><path d="M244,264l-20,6l10,14z" fill="#747063"/><path d="M372,120h58H414z" fill="#e1e8f1"/><path d="M126,330l-6,6l-8,-2z" fill="#231f16"/><path d="M188,228l24,-4l-18,-6z" fill="#322f23"/><path d="M146,308l-8,24l18,-28z" fill="#1d160c"/><path d="M334,138l6,6H326z" fill="#8b96a2"/><path d="M36,288l2,-54L6,250z" fill="#0d0804"/><path d="M198,324l10,8L196,322z" fill="#69675d"/><path d="M362,422L340,380l18,6z" fill="#332c20"/><path d="M56,58L22,90L42,84z" fill="#5c82b6"/><path d="M182,304l10,6l-10,-8z" fill="#55524c"/><path d="M296,258l-4,8l40,-6z" fill="#444235"/><path d="M36,138l6,-4H20z" fill="#0f192f"/><path d="M226,312v-8l10,-2z" fill="#757469"/><path d="M252,136l6,6l2,-10z" fill="#586e85"/><path d="M492,376l2,-2l8,2z" fill="#0d0804"/><path d="M212,352l20,6L198,346z" fill="#575244"/><path d="M236,396l34,-30l-12,14z" fill="#363124"/><path d="M202,74l10,-8L188,76z" fill="#a5c9f4"/><path d="M418,290l-12,-4l2,2z" fill="#46443b"/><path d="M224,358v8l12,-6z" fill="#615c4f"/><path d="M380,306l2,2l-6,-8z" fill="#514e3f"/><path d="M362,4L292,68l22,-8z" fill="#cde2fb"/><path d="M112,14L70,42L42,68z" fill="#577fbc"/><path d="M24,306l12,2l-8,-6z" fill="#110c08"/><path d="M456,210l12,-2H456z" fill="#484446"/><path d="M530,182L508,168l8,20z" fill="#25182c"/><path d="M196,332l-12,8l8,-8z" fill="#59584e"/><path d="M322,370H312v0z" fill="#19150c"/><path d="M50,88h2l6,-2z" fill="#7090be"/><path d="M82,274H94L82,272z" fill="#1e1911"/><path d="M276,98V90l-22,14z" fill="#d8ebfc"/><path d="M260,70L234,82h20z" fill="#c1dffb"/><path d="M440,344l-8,6l16,-12z" fill="#261e13"/><path d="M474,298l8,-8l-2,4z" fill="#463b32"/><path d="M454,342l4,-2l2,6z" fill="#18130d"/><path d="M114,126l-6,6h10z" fill="#1e374f"/><path d="M266,382l-6,2l-18,28z" fill="#1c1810"/><path d="M426,324l-12,-4l4,2z" fill="#303026"/><path d="M64,364l2,6l4,-8z" fill="#1b1615"/><path d="M432,308l36,12L426,306z" fill="#2a251b"/><path d="M24,334L36,306L22,316z" fill="#0a0704"/><path d="M508,354h-4l2,-8z" fill="#1f1915"/><path d="M486,280l-4,4l12,-10z" fill="#4f4239"/><path d="M110,84L144,56L100,82z" fill="#7fa9db"/><path d="M292,318l10,6l-18,-2z" fill="#312f23"/><path d="M400,176l10,-4l-16,6z" fill="#535d66"/><path d="M438,338l12,-10l12,-12z" fill="#211c16"/><path d="M262,272l-8,-2l8,-8z" fill="#3f3e33"/><path d="M316,224l14,-16l8,18z" fill="#5c584d"/><path d="M402,54l12,24L406,2z" fill="#f7fcfe"/><path d="M488,226l-12,-2l16,4z" fill="#51463e"/><path d="M422,232l4,-4l-16,12z" fill="#5f584d"/><path d="M358,326l-16,12l6,-12z" fill="#2a271b"/><path d="M46,148l-10,2l-2,-4z" fill="#151c27"/><path d="M418,278v4l4,-2z" fill="#716b5d"/><path d="M146,276l-10,4l16,-12z" fill="#272318"/><path d="M176,68L256,22L218,36z" fill="#95bcf1"/><path d="M438,262l-24,-6l32,8z" fill="#666054"/><path d="M428,360v0l-4,-8z" fill="#1c150b"/><path d="M312,318l10,4l-14,-2z" fill="#292a1e"/><path d="M250,0H240l-2,8z" fill="#8bb0eb"/><path d="M374,-14l6,42L390,-8z" fill="#e4ecfb"/><path d="M164,136v-6l-18,6z" fill="#28425a"/><path d="M356,230l10,-10l-2,14z" fill="#565247"/><path d="M416,378l-6,-6v4z" fill="#352f26"/><path d="M478,330l6,-2l-16,6z" fill="#170f09"/><path d="M498,132h6l88,40z" fill="#b1b6ce"/><path d="M260,326l-10,-4l2,-2z" fill="#55564d"/><path d="M108,170l8,-2l-18,2z" fill="#332c1f"/><path d="M290,378v0v0z" fill="#534f44"/><path d="M310,176l22,-4l-10,4z" fill="#64635d"/><path d="M312,378l20,10L310,376z" fill="#141008"/><path d="M344,338l-2,-2l6,6z" fill="#3f3f32"/><path d="M84,182l42,16L90,182z" fill="#262418"/><path d="M-30,110L2,94L10,76z" fill="#4e709f"/><path d="M478,318l10,2l4,2z" fill="#473f35"/><path d="M154,120L116,104l34,10z" fill="#2f4a69"/><path d="M390,270l-22,14l10,-14z" fill="#4a483d"/><path d="M130,376h8l-36,-4z" fill="#1d1913"/><path d="M130,356l-10,6l12,-2z" fill="#1b170d"/><path d="M503,118l-7,-4l10,1z" fill="#f2f3fa"/><path d="M440,383h-5l10,2z" fill="#998f78"/><path d="M156,92L192,63L151,81z" fill="#9dc0ec"/><path d="M357,340l29,-1l15,4z" fill="#333124"/><path d="M481,212l4,7L448,204z" fill="#342f33"/><path d="M42,93l10,5l5,-9z" fill="#203b5b"/><path d="M324,332l-11,-5l18,13z" fill="#1c1f13"/><path d="M363,154l-2,-1l37,-1z" fill="#6f7275"/><path d="M430,188h32l-7,-6z" fill="#716761"/><path d="M448,368l4,-2l12,2z" fill="#4b4139"/><path d="M104,78L145,42L101,66z" fill="#74a1d9"/><path d="M456,58l-1,60l49,-3z" fill="#fdfefd"/><path d="M446,366l3,10l15,-3z" fill="#19110c"/><path d="M411,383l10,1L399,362z" fill="#1d1810"/><path d="M485,379l-5,1l-6,-3z" fill="#2d2823"/><path d="M458,373l12,1L421,362z" fill="#0a0706"/><path d="M463,293l22,-12l-7,8z" fill="#322b24"/><path d="M140,342l7,-22l-19,-7z" fill="#120d09"/><path d="M233,356l25,-14l-14,-3z" fill="#535146"/><path d="M295,107L368,70l-63,48z" fill="#eaf7fe"/><path d="M191,354l-10,-7l-16,-1z" fill="#3f4037"/><path d="M281,143L252,130l65,18z" fill="#62748a"/><path d="M539,146l-47,7l88,20z" fill="#281b34"/><path d="M268,116l9,1l-11,-1z" fill="#d9e8f6"/><path d="M244,299l11,8l-6,-27z" fill="#51514a"/><path d="M474,365l-18,-8l10,6z" fill="#16120c"/><path d="M487,263l-8,-2l12,-6z" fill="#443830"/><path d="M152,226l-15,5L126,213z" fill="#222012"/><path d="M428,386l-18,-6l30,24z" fill="#080604"/><path d="M39,83l12,7L88,88z" fill="#6a90c3"/><path d="M326,135L267,123l22,11z" fill="#a9bdd4"/><path d="M309,146l25,-1l-32,-2z" fill="#7f8c95"/><path d="M177,108l3,-3L157,98z" fill="#43607e"/><path d="M375,189l16,-11l27,-4z" fill="#3e4f59"/><path d="M362,138l-8,7l7,-1z" fill="#9fa8b2"/><path d="M432,144l4,-1l-2,-25z" fill="#3c3540"/><path d="M407,374l-8,6l-7,-22z" fill="#0f100a"/><path d="M238,356l8,-3l13,17z" fill="#403f36"/><path d="M222,110h-4l-8,-1z" fill="#bdd5e8"/><path d="M36,153l2,-10l16,9z" fill="#1a1c24"/><path d="M27,94H26L37,88z" fill="#547aa1"/><path d="M404,324l2,4l14,-17z" fill="#2a291f"/><path d="M421,187l-1,-7l26,-1z" fill="#837a70"/><path d="M113,61L77,87L103,59z" fill="#739dd3"/><path d="M39,359L-9,329l74,-3z" fill="#090604"/><path d="M108,92l24,1L95,82z" fill="#83aad5"/><path d="M254,292l6,5L246,264z" fill="#3e4034"/><path d="M340,135l12,5l13,-4z" fill="#b4c2d2"/><path d="M193,100H177L167,95z" fill="#b1cfea"/><path d="M454,359l-16,-1l22,2z" fill="#49423a"/><path d="M121,92l-4,-4L179,49z" fill="#8bb4e4"/><path d="M285,141l23,4l-33,-9z" fill="#697f96"/><path d="M176,202L126,176l18,-6z" fill="#353125"/><path d="M21,25L1,49l-14,2z" fill="#335b8f"/><path d="M235,135l3,10l12,-7z" fill="#526778"/><path d="M395,199L379,185l26,9z" fill="#51514c"/><path d="M386,337l12,6l-7,-20z" fill="#27271b"/><path d="M68,158l25,10L45,158z" fill="#261807"/><path d="M437,343l-1,2l31,22z" fill="#39332c"/><path d="M401,339l9,7L393,334z" fill="#1c1b11"/><path d="M499,305l4,2l17,2z" fill="#6e6359"/><path d="M262,338l-21,16h8z" fill="#343825"/><path d="M368,377l-21,56l34,-60z" fill="#2f2b1b"/><path d="M313,130h25l-36,-8z" fill="#b7c7dc"/><path d="M511,277l-4,-9l-7,14z" fill="#352c27"/><path d="M188,319l2,-2l-8,-6z" fill="#2c2f2a"/><path d="M215,-13L130,54L177,27z" fill="#74a1dd"/><path d="M199,362l-18,3l18,-30z" fill="#535047"/><path d="M434,179l48,5l18,7z" fill="#85786d"/><path d="M112,371L46,393l124,23z" fill="#0a0604"/><path d="M471,146l-5,-4l-29,1z" fill="#949393"/><path d="M336,370l-15,4h16z" fill="#130e06"/><path d="M467,298l-8,-7h-2z" fill="#6d675b"/><path d="M368,141l1,-3l28,3z" fill="#acb7c4"/><path d="M260,122l-21,-8l32,11z" fill="#a1b9d1"/><path d="M383,143l-23,2l11,-5z" fill="#a4acb6"/><path d="M178,98l11,4L219,80z" fill="#b5d5f1"/><path d="M151,381l37,-58l-37,51z" fill="#3f3830"/><path d="M450,299h-5L434,276z" fill="#5a5045"/><path d="M431,143l1,-10l-1,11z" fill="#abb0c1"/><path d="M416,148l21,11l-9,-8z" fill="#4e5050"/><path d="M436,115l-11,-6l2,-14z" fill="#2a5258"/><path d="M237,353l-8,-4l10,10z" fill="#535246"/><path d="M520,262L508,240l-14,25z" fill="#52443d"/><path d="M205,349l4,-2l5,1z" fill="#2b312c"/><path d="M211,130l26,8l-8,4z" fill="#475e72"/><path d="M298,380L280,367l29,12z" fill="#120f09"/><path d="M486,162l-20,-5h12z" fill="#443b44"/><path d="M204,333l-8,-5l15,5z" fill="#42443b"/><path d="M245,159l3,-10l34,3z" fill="#50524d"/><path d="M408,156l11,-9l-15,4z" fill="#6f6355"/><path d="M157,165l-25,-3l26,-2z" fill="#2a1d09"/><path d="M407,287l-6,1l17,8z" fill="#282a1f"/><path d="M261,307l-8,-12l14,8z" fill="#313225"/><path d="M466,297l55,31L474,309z" fill="#31291f"/><path d="M296,151l-1,4l30,-1z" fill="#646465"/><path d="M208,283l-18,8l8,-16z" fill="#484b45"/><path d="M481,182l-4,3h3z" fill="#887c73"/><path d="M370,334l7,17l-9,5z" fill="#191d14"/><path d="M167,377l2,5l1,-2z" fill="#2c2c24"/><path d="M464,291l-10,-9l4,1z" fill="#5c554a"/><path d="M16,95L26,80l6,13z" fill="#5b7ea9"/><path d="M408,273l-4,-7l-3,9z" fill="#3e3d32"/><path d="M267,379l-9,-3l14,-1z" fill="#544c3e"/><path d="M325,309l-3,18l29,12z" fill="#2b2d21"/><path d="M279,41l74,-67L295,35z" fill="#b5d2fa"/><path d="M250,378l6,-5l16,38z" fill="#27231a"/><path d="M298,161l-4,-9l-8,8z" fill="#454553"/><path d="M488,260l3,-3l9,11z" fill="#6c5e56"/><path d="M462,259l-11,3l20,3z" fill="#6b5f57"/><path d="M170,297l-20,18l34,-19z" fill="#19180f"/><path d="M229,149l-58,2l73,2z" fill="#464237"/><path d="M217,230l-24,51L178,263z" fill="#2d2d20"/><path d="M27,82L17,91l17,1z" fill="#5c80ac"/><path d="M292,307l3,-2l3,9z" fill="#26271c"/><path d="M194,91L301,23L245,64z" fill="#b0d2f8"/><path d="M277,201l-21,8l45,7z" fill="#565243"/><path d="M34,178l-8,15L52,176z" fill="#161206"/><path d="M492,304l17,-5l-13,8z" fill="#3b322a"/><path d="M70,317V289l13,38z" fill="#0a0704"/><path d="M128,110l25,18L91,96z" fill="#25425f"/><path d="M477,291l17,-6l-8,1z" fill="#82746a"/><path d="M286,114l52,2l-43,4z" fill="#ebf5fb"/><path d="M94,146l-39,3l68,2z" fill="#1f2732"/><path d="M122,132L97,114l44,20z" fill="#203c53"/><path d="M525,227l-25,-5l12,-6z" fill="#403335"/><path d="M418,257L406,240l-14,10z" fill="#676154"/><path d="M222,320l5,26l-31,-8z" fill="#666254"/><path d="M420,342v7l9,-20z" fill="#353028"/><path d="M328,283l-1,8L309,272z" fill="#333528"/><path d="M456,178l-11,-8l22,2z" fill="#30333a"/><path d="M425,182l11,8l-23,-8z" fill="#726b60"/><path d="M437,121L435,92l-8,6z" fill="#39585f"/><path d="M516,141l-35,5l37,-1z" fill="#8d848f"/><path d="M431,299l4,-5l12,9z" fill="#242019"/><path d="M465,286l18,-6l-23,-5z" fill="#362e28"/><path d="M497,334l-9,21l-10,-3z" fill="#1e1811"/><path d="M497,130l-3,8l44,-13z" fill="#b1b7d3"/><path d="M257,323l6,4l-1,-5z" fill="#504f46"/><path d="M113,144L81,132l3,11z" fill="#2a3543"/><path d="M290,138l-13,-8l19,5z" fill="#7c90a7"/><path d="M112,153l26,8l22,-6z" fill="#372f1d"/><path d="M468,179l11,-2l-21,-1z" fill="#3a3538"/><path d="M58,124L16,104l15,-3z" fill="#0e2443"/><path d="M501,329l-45,23l35,-16z" fill="#241c16"/><path d="M404,139h20l6,2z" fill="#a3a8b3"/><path d="M184,41l1,8L132,79z" fill="#88b3e8"/><path d="M247,111l11,3L270,99z" fill="#dbebf9"/><path d="M375,282l-1,5L357,262z" fill="#3d3b2e"/><path d="M267,122v-4l24,7z" fill="#aec2d8"/><path d="M476,199l-31,-5l36,10z" fill="#554c44"/><path d="M152,56L243,-7L203,17z" fill="#7faae3"/><path d="M81,101L41,95l30,2z" fill="#1f3b5c"/><path d="M391,200L367,189l44,-5z" fill="#595a56"/><path d="M119,309L80,287l18,5z" fill="#0e0805"/><path d="M9,94L8,80L45,45z" fill="#4f73a7"/><path d="M315,38l42,-49L262,72z" fill="#bedbfa"/><path d="M151,286l-26,12l27,-27z" fill="#1b170c"/><path d="M512,344l-9,19l-16,-8z" fill="#0f0a07"/><path d="M392,310l10,-24l-2,21z" fill="#27271a"/><path d="M65,94L76,89L52,95z" fill="#244363"/><path d="M412,178l19,-1l-19,-7z" fill="#374750"/><path d="M423,321l-4,-18l1,31z" fill="#1e1e16"/><path d="M481,251l-11,6l23,-11z" fill="#53463e"/><path d="M48,168l20,13l19,-3z" fill="#1d190e"/><path d="M152,374l-21,-8l28,-11z" fill="#120f09"/><path d="M365,56l-1,26L402,19z" fill="#ecf6fd"/><path d="M447,147l-5,-3l-6,9z" fill="#6b6a69"/><path d="M428,87l7,-12l-7,4z" fill="#546c78"/><path d="M384,369H373l1,-4z" fill="#35332a"/><path d="M452,285l-13,-7l-30,-3z" fill="#4f483b"/><path d="M226,264l-7,-9l8,3z" fill="#767268"/><path d="M14,150l-47,8l49,-1z" fill="#09080a"/><path d="M294,154l1,8l10,-1z" fill="#3f475a"/><path d="M404,63l36,10l8,7z" fill="#fdfdfc"/><path d="M485,323l10,-6l-11,11z" fill="#29211b"/><path d="M426,75l4,1l19,-2z" fill="#fbfcfb"/><path d="M425,283l8,6l1,-13z" fill="#403a2d"/><path d="M370,17L328,47L360,1z" fill="#d3e3fc"/><path d="M418,367l10,-12l4,10z" fill="#1a1811"/><path d="M367,315l4,-4l7,7z" fill="#24271d"/><path d="M242,113l8,2h17z" fill="#dbeaf6"/><path d="M496,296l-14,2l6,-7z" fill="#2c221d"/><path d="M322,347l-32,16l18,-25z" fill="#28251b"/><path d="M477,299l8,-9l-6,15z" fill="#685a4f"/><path d="M232,186l3,-16l7,4z" fill="#565344"/><path d="M347,275l13,-8l5,1z" fill="#434034"/><path d="M395,120L368,104l-7,14z" fill="#f9fefc"/><path d="M122,381L85,331l33,16z" fill="#0d0a06"/><path d="M512,344l12,9l-5,-17z" fill="#917572"/><path d="M361,156l26,-1l-11,-2z" fill="#5f676b"/><path d="M162,329l4,7l-9,-7z" fill="#27221b"/><path d="M308,95l32,-7L366,62z" fill="#e5f5fd"/><path d="M248,165l-31,-1l32,-6z" fill="#615f52"/><path d="M425,129H399l28,3z" fill="#c4cee1"/><path d="M389,308l2,6L377,300z" fill="#504e41"/><path d="M110,185l21,29L84,185z" fill="#242012"/><path d="M-44,220L23,179l-43,1z" fill="#0d0704"/><path d="M385,179L346,168l18,11z" fill="#77746b"/></svg>